<?xml version="1.0" encoding="UTF-8"?>
<svg width="40px" height="40px" viewBox="0 0 40 40" version="1.1" xmlns="http://www.w3.org/2000/svg" xmlns:xlink="http://www.w3.org/1999/xlink">
    <!-- Generator: sketchtool 51.1 (57501) - http://www.bohemiancoding.com/sketch -->
    <title>A9C1D740-956D-437A-8C51-720925E9BE18</title>
    <desc>Created with sketchtool.</desc>
    <defs></defs>
    <g id="Burger-Menu" stroke="none" stroke-width="1" fill="none" fill-rule="evenodd">
        <g id="Burger-Menu---MnR---Trial" transform="translate(-75.000000, -570.000000)">
            <g id="Menu" transform="translate(60.000000, 0.000000)">
                <g id="button-call" transform="translate(15.000000, 570.000000)">
                    <rect id="Rectangle" fill="#16B8B2" x="0" y="0" width="40" height="40" rx="20"></rect>
                    <g id="phone-outgoing" transform="translate(11.000000, 11.000000)">
                        <rect id="Rectangle" x="0" y="0" width="18" height="18"></rect>
                        <path d="M15.7419025,12.7298491 C15.7516287,12.3292123 15.4728588,12.0007723 15.1005916,11.9483151 C14.3205186,11.8456106 13.5545884,11.6551419 12.8157105,11.3799063 C12.5402394,11.2765375 12.2296949,11.342652 12.02343,11.5462494 L11.0660892,12.5019224 C10.8261412,12.7414524 10.4554434,12.791409 10.1604589,12.6239684 C8.15530672,11.4857937 6.49507054,9.82844998 5.35490952,7.82679111 C5.18717671,7.53232054 5.23722047,7.16226859 5.47716852,6.92273856 L6.43153516,5.97005125 C6.63846214,5.76116005 6.70469201,5.45115659 6.60050585,5.17446777 C6.32542685,4.43857474 6.13462574,3.67397891 6.03268885,2.90218351 C5.9797339,2.52817957 5.6572394,2.25131749 5.27145843,2.25507133 L3.01073331,2.255071 C2.79913621,2.25526992 2.59736544,2.34423818 2.45470893,2.5002429 C2.31205242,2.65624762 2.24164686,2.86492292 2.25953512,3.06355594 C2.49446557,5.27199188 3.24721458,7.39412997 4.46036747,9.26359953 C5.55837027,10.9885257 7.02335885,12.4509621 8.75715985,13.5508101 C10.615887,14.7540879 12.7314404,15.5053549 14.920254,15.7428971 C15.1316469,15.7619684 15.3412984,15.6911896 15.4977031,15.5479491 C15.6541077,15.4047086 15.7427702,15.2022815 15.7419025,14.9873443 L15.7419025,12.7298491 Z M10.0000385,11.437729 L10.9056688,11.315683 C10.7400126,11.2216523 10.5770243,11.1236057 10.416831,11.0216698 L10.0000385,11.437729 Z M17.2495196,14.9842899 C17.2521042,15.6199386 16.9861167,16.2272198 16.5169027,16.6569413 C16.0476888,17.0866629 15.4187341,17.2989992 14.7709762,17.2404362 C12.3341616,16.9761177 9.99342957,16.1448862 7.94272464,14.81729 C6.02798412,13.6027039 4.40461839,11.9821664 3.19148106,10.0763137 C1.85314897,8.01400153 1.02027766,5.66598393 0.75918572,3.21074464 C0.702054195,2.57963062 0.913270865,1.95360473 1.3412404,1.48559057 C1.76920993,1.01757641 2.37452223,0.750671623 3.01002343,0.750074532 L5.26403968,0.750110975 C6.39912634,0.738958772 7.36660983,1.56954503 7.52642149,2.69847538 C7.61443761,3.36465839 7.77766631,4.0187635 8.01235708,4.64661594 C8.32300476,5.47158937 8.12431516,6.40159978 7.50056002,7.03125904 L6.96000728,7.57087005 C7.84638122,8.95896529 9.02631282,10.1368407 10.416831,11.0216698 L10.9603702,10.479087 C11.5881375,9.85938755 12.519771,9.6610441 13.3444835,9.97051476 C13.9751323,10.2054325 14.630379,10.3683768 15.3044598,10.4571572 C16.4380738,10.6168038 17.2727822,11.5967281 17.2495258,12.7382596 L17.2495196,14.9842899 Z" id="Shape" fill="#FFFFFF" fill-rule="nonzero"></path>
                    </g>
                </g>
            </g>
        </g>
    </g>
</svg>