<?xml version="1.0" encoding="UTF-8"?>
<svg width="40px" height="40px" viewBox="0 0 40 40" version="1.1" xmlns="http://www.w3.org/2000/svg" xmlns:xlink="http://www.w3.org/1999/xlink">
    <!-- Generator: sketchtool 51.1 (57501) - http://www.bohemiancoding.com/sketch -->
    <title>762FC371-F95E-490F-9F4A-5F5ECCEC09E7</title>
    <desc>Created with sketchtool.</desc>
    <defs></defs>
    <g id="Burger-Menu" stroke="none" stroke-width="1" fill="none" fill-rule="evenodd">
        <g id="Burger-Menu---MnR---Trial" transform="translate(-125.000000, -570.000000)">
            <g id="Menu" transform="translate(60.000000, 0.000000)">
                <g id="button-chat" transform="translate(65.000000, 570.000000)">
                    <rect id="Rectangle" fill="#16B8B2" x="0" y="0" width="40" height="40" rx="20"></rect>
                    <g id="message-square" transform="translate(11.000000, 11.000000)">
                        <rect id="Rectangle" x="0" y="0" width="18" height="18"></rect>
                        <path d="M4.71966991,12.2196699 C4.8603222,12.0790176 5.05108763,12 5.25,12 L14.25,12 C14.6642136,12 15,11.6642136 15,11.25 L15,3.75 C15,3.33578644 14.6642136,3 14.25,3 L3.75,3 C3.33578644,3 3,3.33578644 3,3.75 L3,13.9393398 L4.71966991,12.2196699 Z M5.56066017,13.5 L2.78033009,16.2803301 C2.30785644,16.7528037 1.5,16.4181786 1.5,15.75 L1.5,3.75 C1.5,2.50735931 2.50735931,1.5 3.75,1.5 L14.25,1.5 C15.4926407,1.5 16.5,2.50735931 16.5,3.75 L16.5,11.25 C16.5,12.4926407 15.4926407,13.5 14.25,13.5 L5.56066017,13.5 Z" id="Shape" fill="#FFFFFF" fill-rule="nonzero"></path>
                    </g>
                </g>
            </g>
        </g>
    </g>
</svg>