<?xml version="1.0" encoding="UTF-8"?>
<svg width="40px" height="40px" viewBox="0 0 40 40" version="1.1" xmlns="http://www.w3.org/2000/svg" xmlns:xlink="http://www.w3.org/1999/xlink">
    <!-- Generator: sketchtool 51.1 (57501) - http://www.bohemiancoding.com/sketch -->
    <title>B2E8B3A0-E1D0-4FE4-BFF9-71F2E7E4EB69</title>
    <desc>Created with sketchtool.</desc>
    <defs></defs>
    <g id="Burger-Menu" stroke="none" stroke-width="1" fill="none" fill-rule="evenodd">
        <g id="Burger-Menu---MnR---Trial" transform="translate(-175.000000, -570.000000)">
            <g id="Menu" transform="translate(60.000000, 0.000000)">
                <g id="button-whatsapp" transform="translate(115.000000, 570.000000)">
                    <rect id="Rectangle" fill="#16B8B2" x="0" y="0" width="40" height="40" rx="20"></rect>
                    <g id="whatsapp-logo-variant" transform="translate(11.000000, 11.000000)" fill="#FFFFFF" fill-rule="nonzero">
                        <path d="M17.8066452,8.67425806 C17.8066452,13.4645806 13.8930968,17.3479355 9.06445161,17.3479355 C7.53212903,17.3479355 6.09270968,16.956 4.83967742,16.2696774 L0,17.8066452 L1.5776129,13.1516129 C0.782129032,11.8451613 0.324,10.3110968 0.324,8.67367742 C0.324580645,3.88335484 4.23696774,0 9.0656129,0 C13.8936774,0.00116129032 17.8066452,3.88393548 17.8066452,8.67425806 Z M9.06387097,1.38309677 C5.01154839,1.38309677 1.71522581,4.65445161 1.71522581,8.676 C1.71522581,10.2716129 2.23548387,11.7487742 3.11516129,12.9507097 L2.19774194,15.6582581 L5.02083871,14.7611613 C6.18212903,15.5229677 7.5716129,15.9665806 9.06387097,15.9665806 C13.1161935,15.9665806 16.4136774,12.6958065 16.4136774,8.67425806 C16.4148387,4.65445161 13.1167742,1.38309677 9.06387097,1.38309677 Z M13.4790968,10.6722581 C13.4245161,10.5845806 13.2816774,10.5311613 13.068,10.4243226 C12.8549032,10.3174839 11.799871,9.8036129 11.6041935,9.73393548 C11.4067742,9.66251613 11.2639355,9.62651613 11.1210968,9.8396129 C10.98,10.0527097 10.5689032,10.5311613 10.4429032,10.674 C10.3180645,10.8162581 10.1932258,10.8342581 9.97896774,10.7291613 C9.76470968,10.6211613 9.07374194,10.3981935 8.25503226,9.67412903 C7.61806452,9.10974194 7.18780645,8.41470968 7.06354839,8.2016129 C6.93754839,7.98909677 7.05077419,7.87412903 7.15703226,7.76845161 C7.25283871,7.67264516 7.37129032,7.51993548 7.47870968,7.39509677 C7.58612903,7.27141935 7.62154839,7.18374194 7.69296774,7.04148387 C7.76322581,6.89922581 7.72780645,6.77554839 7.67496774,6.66812903 C7.62154839,6.56129032 7.1936129,5.51612903 7.01419355,5.09051613 C6.83593548,4.66548387 6.65767742,4.73574194 6.53225806,4.73574194 C6.40741935,4.73574194 6.26458065,4.71832258 6.12174194,4.71832258 C5.97890323,4.71832258 5.74664516,4.77 5.55096774,4.98309677 C5.35529032,5.19619355 4.80135484,5.71006452 4.80135484,6.7563871 C4.80135484,7.80387097 5.5683871,8.8136129 5.67580645,8.95529032 C5.78380645,9.0963871 7.15877419,11.313871 9.33677419,12.1650968 C11.5159355,13.0157419 11.5159355,12.7318065 11.9084516,12.6958065 C12.302129,12.6598065 13.1765806,12.1819355 13.3542581,11.6860645 C13.5330968,11.187871 13.5330968,10.7610968 13.4790968,10.6722581 Z" id="Shape"></path>
                    </g>
                </g>
            </g>
        </g>
    </g>
</svg>