<?xml version="1.0" encoding="UTF-8"?>
<svg width="40px" height="40px" viewBox="0 0 40 40" version="1.1" xmlns="http://www.w3.org/2000/svg" xmlns:xlink="http://www.w3.org/1999/xlink">
    <!-- Generator: sketchtool 51.1 (57501) - http://www.bohemiancoding.com/sketch -->
    <title>CD3ECA60-2056-48E9-8958-E8F47E926452</title>
    <desc>Created with sketchtool.</desc>
    <defs></defs>
    <g id="Burger-Menu" stroke="none" stroke-width="1" fill="none" fill-rule="evenodd">
        <g id="Burger-Menu---MnR---Trial" transform="translate(-225.000000, -570.000000)">
            <g id="Menu" transform="translate(60.000000, 0.000000)">
                <g id="button-email" transform="translate(165.000000, 570.000000)">
                    <rect id="Rectangle" fill="#16B8B2" x="0" y="0" width="40" height="40" rx="20"></rect>
                    <g id="mail" transform="translate(11.000000, 11.000000)">
                        <rect id="Rectangle" x="0" y="0" width="18" height="18"></rect>
                        <path d="M1.00023486,4.22213826 C0.999566577,4.19622069 1.00032275,4.17022583 1.00252534,4.14427802 C1.0580551,2.9538089 2.04628435,2 3.2500644,2 L15.2500644,2 C16.489278,2 17.5000644,3.01078644 17.5000644,4.25 L17.5000644,13.25 C17.5000644,14.4892136 16.489278,15.5 15.2500644,15.5 L3.2500644,15.5 C2.01085083,15.5 1.0000644,14.4892136 1.0000644,13.25 L1.0000644,4.25 C1.0000644,4.24069978 1.00012133,4.23141242 1.00023486,4.22213826 Z M15.5259779,3.55338283 C15.4403708,3.51897454 15.3472194,3.5 15.2500644,3.5 L3.2500644,3.5 C2.94684096,3.5 2.68261547,3.68482749 2.56503251,3.94683788 L8.75,8.27631512 L15.3913724,3.62735443 C15.4343269,3.5972863 15.47947,3.57267757 15.5259779,3.55338283 Z M16.0000644,4.92127127 L9.15402713,9.71349736 C8.91143983,9.88330847 8.58856017,9.88330847 8.34597287,9.71349736 L2.5000644,5.62136143 L2.5000644,13.25 C2.5000644,13.6607864 2.83927796,14 3.2500644,14 L15.2500644,14 C15.6608508,14 16.0000644,13.6607864 16.0000644,13.25 L16.0000644,4.92127127 Z" id="Combined-Shape" fill="#FFFFFF" fill-rule="nonzero"></path>
                    </g>
                </g>
            </g>
        </g>
    </g>
</svg>