<?xml version="1.0" encoding="UTF-8"?>
<svg width="11px" height="18px" viewBox="0 0 11 18" version="1.1" xmlns="http://www.w3.org/2000/svg" xmlns:xlink="http://www.w3.org/1999/xlink">
    <!-- Generator: sketchtool 51.1 (57501) - http://www.bohemiancoding.com/sketch -->
    <title>EC015CB2-D33E-4B2F-8376-48DE703E1646</title>
    <desc>Created with sketchtool.</desc>
    <defs></defs>
    <g id="Landing-Page" stroke="none" stroke-width="1" fill="none" fill-rule="evenodd">
        <g transform="translate(-22.000000, -2704.000000)" id="Footer">
            <g transform="translate(0.000000, 2435.000000)">
                <g id="facebook" transform="translate(15.000000, 266.000000)">
                    <rect id="Rectangle" x="0" y="0" width="24" height="24"></rect>
                    <path d="M9.45454545,7.90909091 C9.45454545,5.19787486 11.6524203,3 14.3636364,3 L16.8181818,3 C17.2700512,3 17.6363636,3.36631248 17.6363636,3.81818182 L17.6363636,7.09090909 C17.6363636,7.54277843 17.2700512,7.90909091 16.8181818,7.90909091 L14.3636364,7.90909091 L14.3636364,9.54545455 L16.8181818,9.54545455 C17.3504673,9.54545455 17.741033,10.0456818 17.6119348,10.5620746 L16.793753,13.8348019 C16.7026961,14.1990294 16.3754372,14.4545455 16,14.4545455 L14.3636364,14.4545455 L14.3636364,20.1818182 C14.3636364,20.6336875 13.9973239,21 13.5454545,21 L10.2727273,21 C9.82085793,21 9.45454545,20.6336875 9.45454545,20.1818182 L9.45454545,14.4545455 L7.81818182,14.4545455 C7.36631248,14.4545455 7,14.088233 7,13.6363636 L7,10.3636364 C7,9.91176702 7.36631248,9.54545455 7.81818182,9.54545455 L9.45454545,9.54545455 L9.45454545,7.90909091 Z M16,4.63636364 L14.3636364,4.63636364 C12.556159,4.63636364 11.0909091,6.10161355 11.0909091,7.90909091 L11.0909091,10.3636364 C11.0909091,10.8155057 10.7245966,11.1818182 10.2727273,11.1818182 L8.63636364,11.1818182 L8.63636364,12.8181818 L10.2727273,12.8181818 C10.7245966,12.8181818 11.0909091,13.1844943 11.0909091,13.6363636 L11.0909091,19.3636364 L12.7272727,19.3636364 L12.7272727,13.6363636 C12.7272727,13.1844943 13.0935852,12.8181818 13.5454545,12.8181818 L15.3611829,12.8181818 L15.7702738,11.1818182 L13.5454545,11.1818182 C13.0935852,11.1818182 12.7272727,10.8155057 12.7272727,10.3636364 L12.7272727,7.90909091 C12.7272727,7.00535223 13.4598977,6.27272727 14.3636364,6.27272727 L16,6.27272727 L16,4.63636364 Z" id="Shape" fill="#16B8B2" fill-rule="nonzero"></path>
                </g>
            </g>
        </g>
    </g>
</svg>