<?xml version="1.0" encoding="UTF-8"?>
<svg width="21px" height="24px" viewBox="0 0 21 24" version="1.1" xmlns="http://www.w3.org/2000/svg" xmlns:xlink="http://www.w3.org/1999/xlink">
    <!-- Generator: sketchtool 51.2 (57519) - http://www.bohemiancoding.com/sketch -->
    <title>36DD6352-0105-4A7C-8B65-A9CB55160F09</title>
    <desc>Created with sketchtool.</desc>
    <defs></defs>
    <g id="Profile" stroke="none" stroke-width="1" fill="none" fill-rule="evenodd">
        <g id="Profile---Reseller" transform="translate(-199.000000, -314.000000)">
            <g id="Group-2" transform="translate(0.000000, 205.000000)">
                <g id="ic-akun" transform="translate(194.000000, 106.000000)">
                    <rect id="Rectangle" x="0" y="0" width="30" height="30"></rect>
                    <g id="Group" transform="translate(5.000000, 3.000000)" fill="#F5821F">
                        <path d="M10.0167913,23.2730151 C6.564907,23.4933488 3.77479846,22.9150275 1.6464657,21.5380513 C1.11437584,21.1938029 0.727484844,20.6480698 0.727484844,19.9935835 L0.727484844,19.0021041 C0.727484844,17.902127 1.34497198,16.9016479 2.33895127,16.3901585 C3.00093748,16.0496656 3.71842253,15.7556718 4.53090561,15.4936772 C4.90489781,15.3726797 5.21989125,15.2796817 5.52438491,15.2011833 C5.52588488,15.2006833 5.58688361,15.1856836 5.69138143,15.1621841 C5.88004417,16.2291619 7.32051416,17.1761422 10.0127914,18.0031249 L10.0167913,23.2730151 Z" id="Path" fill-opacity="0.2"></path>
                        <path d="M2.37695048,10.0842899 C2.60247308,3.84675319 5.14775338,0.727984834 10.0127914,0.727984834 L10.0152913,4.55190517 C8.36932564,4.1505802 7.26084873,4.13324722 6.68986063,4.49990625 C6.02337451,4.92739735 5.6928814,5.5918835 5.54188454,6.04837399 C5.38688777,6.01537468 5.19739172,6.0048749 4.97839628,6.06487365 C4.35290931,6.23487011 3.97241724,6.99485427 4.05441553,7.91283515 C4.10841441,8.51432262 4.34590946,9.04381159 4.69090227,9.32830566 C4.85139893,9.46180288 5.02939522,9.53730131 5.21239141,9.55080102 C5.61638299,10.9027729 6.3598675,12.0377492 7.32984729,12.7952334 C7.23684923,13.2272244 7.02885357,13.7707131 6.58336285,14.2477032 C5.80987896,14.3782005 5.34188871,14.496698 5.34188871,14.496698 C5.02339535,14.5786963 4.69490219,14.6751943 4.30691027,14.8006917 C4.05891544,14.88069 3.82142039,14.9651882 3.58892523,15.0511864 C2.82794108,13.6012166 2.31164211,11.8905984 2.37695048,10.0842899 Z" id="Path" fill-opacity="0.2"></path>
                        <path d="M18.0251245,15.741672 C17.7341305,15.5916752 17.424637,15.4511781 17.1046437,15.3146809 C17.902627,13.778213 18.3766172,11.9867503 18.3766172,10.0837899 C18.3766172,3.95791754 15.0941855,0 10.0127914,0 C4.93239724,0 1.64946564,3.95791754 1.64946564,10.0837899 C1.64946564,11.9867503 2.11845587,13.7822129 2.91493927,15.3206808 C2.60094581,15.454178 2.29695215,15.5931751 2.00595821,15.743672 C0.76848399,16.3796588 0,17.6281327 0,19.0021041 L0,19.9935835 C0,20.9180642 0.500489573,21.7560467 1.30697277,22.1815379 C2.87994,23.0110206 5.66788192,24 10.0162913,24 C14.3647007,24 17.1531426,23.0110206 18.7261099,22.1815379 C19.5320931,21.7560467 20.0330826,20.9180642 20.0330826,19.9935835 L20.0330826,19.0041041 C20.0340826,17.6291327 19.2645987,16.3786588 18.0251245,15.741672 Z M2.37695048,10.0842899 C2.37695048,4.40090831 5.37438803,0.727984834 10.0127914,0.727984834 C14.6516948,0.727984834 17.6486323,4.40090831 17.6486323,10.0842899 C17.6486323,11.8962522 17.1906419,13.5962167 16.4266578,15.0456865 C16.1956626,14.9601883 15.9611675,14.8771901 15.7196725,14.7991917 C15.3296806,14.6736943 15.0006875,14.5771963 14.6981938,14.4991979 C14.303202,14.3817004 13.8847107,14.2837024 13.4557197,14.2017041 C13.0727277,13.7987125 12.8242328,13.3232224 12.7077353,12.7862336 C13.6722152,12.0277494 14.4116998,10.897773 14.8141914,9.55080102 C14.9971876,9.53730131 15.1751839,9.46130289 15.3356805,9.32830566 C15.6801733,9.04381159 15.9181684,8.51382263 15.9716673,7.91283515 C16.0536655,6.99485427 15.6736735,6.2353701 15.0476865,6.06487365 C14.8236912,6.00337493 14.6291952,6.0143747 14.4701985,6.05137393 C14.3072019,5.61088311 13.9652091,4.97689631 13.3207225,4.55890502 C12.4537405,3.99641674 11.3422637,3.99391679 10.0152913,4.55190517 C8.66481948,3.96741735 7.54634278,3.94991771 6.68986063,4.49990625 C6.02337451,4.92739735 5.6928814,5.5918835 5.54188454,6.04837399 C5.38688777,6.01537468 5.19739172,6.0048749 4.97839628,6.06487365 C4.35290931,6.23487011 3.97241724,6.99485427 4.05441553,7.91283515 C4.10841441,8.51432262 4.34590946,9.04381159 4.69090227,9.32830566 C4.85139893,9.46180288 5.02939522,9.53730131 5.21239141,9.55080102 C5.61638299,10.9027729 6.3598675,12.0377492 7.32984729,12.7952334 C7.23684923,13.2272244 7.02885357,13.7707131 6.58336285,14.2477032 C5.80987896,14.3782005 5.34188871,14.496698 5.34188871,14.496698 C5.02339535,14.5786963 4.69490219,14.6751943 4.30691027,14.8006917 C4.05891544,14.88069 3.82142039,14.9651882 3.58892523,15.0511864 C2.82794108,13.6012166 2.37695048,11.8947522 2.37695048,10.0842899 Z M6.82535781,14.9456886 C6.83835753,14.9431887 6.84885732,14.9351889 6.86185704,14.9316889 C6.88585654,14.9251891 6.90785609,14.9171892 6.93085561,14.9061895 C6.95285515,14.8946897 6.97235474,14.88119 6.99135435,14.8656903 C7.00185413,14.8576905 7.01435387,14.8541905 7.02385367,14.8446907 C7.54784275,14.3247016 7.82583696,13.7327139 7.9728339,13.2237245 C8.61332056,13.5762172 9.30830608,13.7627133 10.0137914,13.7627133 C10.7237766,13.7627133 11.423762,13.5737172 12.0672486,13.2162247 C12.2437449,13.8102123 12.5532385,14.3412012 13.007729,14.7916918 C13.0162288,14.8006917 13.0277286,14.8031916 13.0372284,14.8106914 C13.056228,14.8266911 13.0762276,14.8401908 13.0987271,14.8516906 C13.1207267,14.8621904 13.1422262,14.8711902 13.1657257,14.87819 C13.1777255,14.88169 13.1867253,14.8886898 13.199225,14.8911898 C13.345722,14.9176892 13.488219,14.9501885 13.631716,14.9811879 C13.4517198,16.2671611 11.8982521,17.2761401 10.0137914,17.2761401 C8.14833024,17.2761401 6.60736235,16.2871607 6.40236662,15.0186871 C6.53236391,14.9941876 6.67136101,14.9701881 6.82535781,14.9456886 Z M5.56938397,6.83085769 C5.58338368,6.83885752 5.59388346,6.84335743 5.6063832,6.84935731 C5.66188204,6.88635653 5.72388075,6.91435595 5.79437928,6.91435595 C5.99487511,6.91435595 6.15737172,6.76635903 6.15737172,6.56586321 C6.15887169,6.55536343 6.33786796,5.52238495 7.17435053,5.05689465 C7.83333681,4.6894023 8.73831795,4.76490073 9.86229454,5.27889002 C9.95679257,5.32288911 10.0662903,5.3233891 10.1617883,5.28038999 C11.2462657,4.79690006 12.1342472,4.73340139 12.8007333,5.09439387 C13.633716,5.54438449 13.8582113,6.49986459 13.873711,6.57086311 C13.8747109,6.58286286 13.8812108,6.59436262 13.8842107,6.60636237 C13.8862107,6.61786213 13.8842107,6.62986188 13.8877107,6.64236162 C13.8912106,6.65186142 13.8982105,6.65836128 13.9017104,6.66786109 C13.9122102,6.69286057 13.9242099,6.71486011 13.9397096,6.73685965 C13.9502094,6.75335931 13.9617091,6.76885898 13.9747089,6.78385867 C13.9927085,6.80235828 14.0127081,6.81635799 14.0337076,6.83085769 C14.0497073,6.84235745 14.065207,6.85385721 14.0832066,6.86235703 C14.1052061,6.87285682 14.1287057,6.87735672 14.1537051,6.8833566 C14.1747047,6.88835649 14.1952043,6.89385638 14.2167038,6.89485636 C14.2227037,6.89535635 14.2287036,6.89885627 14.2357034,6.89885627 C14.254203,6.89885627 14.2702027,6.89035645 14.2882023,6.8878565 C14.306202,6.88535656 14.3242016,6.8878565 14.3422012,6.88285661 C14.349701,6.88035666 14.3612008,6.87535676 14.3722006,6.87135685 C14.3747005,6.87035687 14.3772005,6.86935689 14.3797004,6.86835691 C14.4012,6.85885711 14.4266994,6.84785734 14.4571988,6.83085769 C14.542197,6.78485865 14.6706944,6.7153601 14.8566905,6.76635903 C15.0856857,6.82885773 15.2996813,7.25984875 15.2476823,7.84833649 C15.2041832,8.33382638 15.0181871,8.64731985 14.8721902,8.76831733 C14.8431908,8.79181684 14.7876919,8.82881607 14.7411929,8.82581613 C14.7301931,8.82481615 14.7186934,8.82131622 14.7061936,8.81531635 C14.6076957,8.76831733 14.493698,8.76831733 14.3952001,8.81431637 C14.2972021,8.8608154 14.2242037,8.94881357 14.1972042,9.05381138 C13.8437116,10.4452824 13.1102269,11.6042582 12.1317473,12.3157434 C10.8402742,13.2562238 9.18480865,13.2562238 7.89383555,12.3157434 C6.91535593,11.6042582 6.18187121,10.4457824 5.82837858,9.05381138 C5.80137914,8.94831358 5.72888065,8.86031541 5.6303827,8.81431637 C5.53138476,8.76831733 5.41788713,8.76831733 5.31938918,8.81531635 C5.30688944,8.82131622 5.29538968,8.82481615 5.2848899,8.82581613 C5.2368909,8.83331597 5.18239203,8.79181684 5.15339264,8.76831733 C5.00739568,8.64731985 4.82189954,8.33382638 4.77790046,7.84833649 C4.72590154,7.25984875 4.93989709,6.82885773 5.16889231,6.76635903 C5.35638841,6.71586009 5.48488573,6.78485865 5.56938397,6.83085769 Z M19.3065978,19.9935835 C19.3065978,20.6480698 18.9541051,21.2395575 18.3876169,21.5380513 C17.1591425,22.1860378 14.4381992,23.2730151 10.0167913,23.2730151 C5.59538343,23.2730151 2.87444012,22.1860378 1.6464657,21.5380513 C1.07947751,21.2390575 0.727484844,20.6480698 0.727484844,19.9935835 L0.727484844,19.0021041 C0.727484844,17.902127 1.34497198,16.9016479 2.33895127,16.3901585 C3.00093748,16.0496656 3.71842253,15.7556718 4.53090561,15.4936772 C4.90489781,15.3726797 5.21989125,15.2796817 5.52438491,15.2011833 C5.52588488,15.2006833 5.58688361,15.1856836 5.69138143,15.1621841 C5.97437553,16.7626508 7.80233745,18.0031249 10.0127914,18.0031249 C12.2272453,18.0031249 14.0567072,16.7596508 14.3357013,15.1551843 C14.3912002,15.1706839 14.448699,15.1836837 14.5036978,15.1996833 C14.8051916,15.2771817 15.120685,15.3706798 15.4966772,15.4911773 C16.2986604,15.7506719 17.037645,16.0521656 17.6926314,16.3891586 C18.6881107,16.9001479 19.3070978,17.902627 19.3070978,19.0046041 L19.3070978,19.9935835 L19.3065978,19.9935835 Z" id="Shape" fill-rule="nonzero"></path>
                    </g>
                </g>
            </g>
        </g>
    </g>
</svg>