<?xml version="1.0" encoding="UTF-8"?>
<svg width="24px" height="23px" viewBox="0 0 24 23" version="1.1" xmlns="http://www.w3.org/2000/svg" xmlns:xlink="http://www.w3.org/1999/xlink">
    <!-- Generator: sketchtool 51.2 (57519) - http://www.bohemiancoding.com/sketch -->
    <title>ADCADDA2-DF3B-46C0-BDC4-66A3F40524B6</title>
    <desc>Created with sketchtool.</desc>
    <defs></defs>
    <g id="Profile" stroke="none" stroke-width="1" fill="none" fill-rule="evenodd">
        <g id="Profile---Prioritas---TDS" transform="translate(-18.000000, -765.000000)">
            <g id="Group-3" transform="translate(0.000000, 595.000000)">
                <g id="ic-ajak-teman" transform="translate(15.000000, 166.000000)">
                    <rect id="Rectangle" x="0" y="0" width="30" height="30"></rect>
                    <g id="Group" transform="translate(3.000000, 4.000000)" fill="#F5821F">
                        <g transform="translate(4.000000, 1.333333)" fill-opacity="0.2" id="Path">
                            <path d="M1.65371429,2.54144218 C2.37111657,1.58249895 3.4951982,1.17417242 5.02595918,1.31646259 L4.98660939,3.97526427 C3.29406315,4.10476253 1.98244505,4.39906673 1.0517551,4.85817687 C1.00767347,4.28756463 1.06758278,3.32491729 1.65371429,2.54144218 Z"></path>
                            <path d="M1.30253061,8.35776871 C1.27608163,8.25442177 1.19477551,8.17115646 1.09779592,8.12609524 C1.00179592,8.08054422 0.878857143,8.08446259 0.782857143,8.1309932 C0.758857143,8.13540136 0.725061224,8.11678912 0.687346939,8.08593197 C0.551183673,7.97278912 0.397387755,7.67989116 0.361632653,7.28070748 C0.309714286,6.70078912 0.530612245,6.36282993 0.656979592,6.35842177 C0.764734694,6.39221769 0.881795918,6.37213605 0.972897959,6.30503401 C1.064,6.23793197 1.11787755,6.13164626 1.11787755,6.0185034 C1.11787755,5.9582585 1.11836735,5.7785034 1.11983673,5.62911565 C2.14471568,5.00533027 3.42491656,4.69343759 4.96043937,4.69343759 L4.91291126,11.8927731 C4.3690824,11.8927731 3.77933647,11.6845607 3.14367347,11.2681361 C2.25652187,10.6869605 1.61746939,9.59989116 1.30253061,8.35776871 Z"></path>
                        </g>
                        <path d="M21.7092245,14.2006531 C21.0891429,13.8813061 20.3921633,13.5967347 19.636898,13.3528163 C19.2862041,13.2396735 18.9913469,13.1524898 18.72,13.0829388 C18.3619592,12.9766531 17.980898,12.888 17.5905306,12.8145306 C17.2261224,12.4182857 17.0395102,11.9872653 16.9523265,11.5934694 C17.8138776,10.9131429 18.4760816,9.90367347 18.8385306,8.70220408 C19.0011429,8.68555102 19.1593469,8.616 19.3023673,8.49746939 C19.6177959,8.23738776 19.8347755,7.75493878 19.8837551,7.20734694 C19.9582041,6.37812245 19.6393469,5.69730612 19.1275102,5.53812245 C19.1270204,5.47542857 19.1260408,5.41371429 19.1250612,5.35346939 C19.1554286,5.22514286 19.564898,3.37714286 18.4555102,1.968 C17.6713469,0.972244898 16.3474286,0.467265306 14.5195102,0.467265306 C13.3342041,0.467265306 12.3511837,0.68277551 11.5978776,1.10791837 C11.426449,1.20440816 11.3662041,1.42236735 11.4626939,1.59281633 C11.5596735,1.7642449 11.7766531,1.82546939 11.9480816,1.7284898 C12.5936327,1.36457143 13.4581224,1.17991837 14.5195102,1.17991837 C16.1147755,1.17991837 17.2496327,1.59183673 17.8922449,2.40440816 C18.427102,3.08081633 18.5201633,3.91591837 18.5054694,4.49583673 C17.3353469,3.79102041 16.0383673,3.53583673 14.4705306,3.69795918 C14.2746122,3.71804082 14.1320816,3.89338776 14.1526531,4.08930612 C14.1732245,4.2842449 14.3500408,4.42726531 14.5435102,4.40669388 C16.0746122,4.2484898 17.3059592,4.53159184 18.4109388,5.28636735 C18.4148571,5.48718367 18.4173061,5.76538776 18.4173061,5.88195918 C18.4173061,5.99510204 18.482449,6.09942857 18.5745306,6.16604082 C18.6656327,6.23363265 18.7954286,6.24930612 18.9031837,6.2164898 C19.0050612,6.22677551 19.2259592,6.56473469 19.173551,7.14465306 C19.1377959,7.54383673 18.9844898,7.8362449 18.8478367,7.94987755 C18.8096327,7.98073469 18.7738776,7.99591837 18.7317551,7.98857143 C18.6357551,7.94253061 18.5240816,7.94106122 18.4266122,7.98710204 C18.3301224,8.03216327 18.2586122,8.11836735 18.2321633,8.22171429 C17.9172245,9.46579592 17.2623673,10.4997551 16.3885714,11.1340408 C15.5818776,11.7193469 14.6091429,11.908898 13.7142857,11.6635102 C13.5242449,11.6120816 13.3283265,11.7227755 13.2764082,11.9133061 C13.2249796,12.1033469 13.3366531,12.2992653 13.5262041,12.3511837 C13.8470204,12.4388571 14.1771429,12.4834286 14.5082449,12.4834286 C15.1371429,12.4834286 15.7567347,12.3198367 16.3293061,12.0097959 C16.4551837,12.4275918 16.6687347,12.8654694 17.0404898,13.2759184 C16.9714286,13.4321633 16.7461224,13.7338776 16.0246531,14.1781224 C15.8571429,14.2804898 15.8047347,14.4999184 15.9080816,14.6679184 C15.9751837,14.7771429 16.0917551,14.8373878 16.2117551,14.8373878 C16.2754286,14.8373878 16.3395918,14.8202449 16.3983673,14.7844898 C17.0909388,14.3583673 17.5180408,13.9562449 17.6924082,13.5644082 C17.9769796,13.6246531 18.2576327,13.6907755 18.5289796,13.7715918 C18.7988571,13.8416327 19.0804898,13.924898 19.4174694,14.0326531 C20.136,14.2648163 20.7972245,14.5346939 21.3830204,14.8364082 C22.2661224,15.2899592 22.8142041,16.1779592 22.8142041,17.155102 L22.8142041,22.0721633 C22.8142041,22.2685714 22.9733878,22.4282449 23.1707755,22.4282449 C23.3676735,22.4282449 23.5268571,22.2690612 23.5268571,22.0721633 L23.5268571,17.1526531 C23.5273469,15.907102 22.8303673,14.7756735 21.7092245,14.2006531 Z" id="Shape" fill-rule="nonzero"></path>
                        <path d="M16.2284082,15.6705306 C15.6078367,15.3521633 14.9108571,15.0675918 14.1560816,14.8236735 C13.8053878,14.7105306 13.5100408,14.6233469 13.2391837,14.5537959 C12.8698776,14.4435918 12.4951837,14.3617959 12.1195102,14.2917551 C11.7511837,13.8950204 11.5582041,13.4605714 11.4700408,13.0643265 C12.3315918,12.384 12.9933061,11.3745306 13.3562449,10.1730612 C13.5193469,10.1559184 13.6770612,10.0868571 13.8200816,9.96832653 C14.1355102,9.7082449 14.3529796,9.22481633 14.4019592,8.67771429 C14.4759184,7.84897959 14.1580408,7.16816327 13.6462041,7.00897959 C13.6452245,6.93012245 13.6442449,6.85028571 13.6427755,6.77632653 C13.7108571,6.45257143 13.9993469,4.75346939 12.9634286,3.43836735 C12.1797551,2.44310204 10.8553469,1.93812245 9.02742857,1.93812245 C7.2,1.93812245 5.87559184,2.44310204 5.09191837,3.43836735 C4.06530612,4.74171429 4.33910204,6.42073469 4.41012245,6.76653061 C4.40963265,6.81942857 4.40816327,6.91053061 4.40816327,7.00897959 C3.89681633,7.16865306 3.57893878,7.84897959 3.65289796,8.67771429 C3.70187755,9.22579592 3.91983673,9.7082449 4.23477551,9.96832653 C4.37730612,10.0858776 4.53453061,10.1559184 4.69812245,10.1730612 C5.06155102,11.3755102 5.7237551,12.3859592 6.58579592,13.0657959 C6.49469388,13.4762449 6.29926531,13.9283265 5.90644898,14.3343673 C5.24816327,14.4465306 4.84310204,14.548898 4.83232653,14.5523265 C4.5477551,14.6253061 4.25191837,14.712 3.90220408,14.8256327 C3.14938776,15.0690612 2.45338776,15.3536327 1.83428571,15.6724898 C0.714612245,16.2489796 0.0186122449,17.378449 0.0186122449,18.6220408 L0.0186122449,22.0702041 C0.0186122449,22.2666122 0.177795918,22.4262857 0.375183673,22.4262857 C0.572081633,22.4262857 0.731265306,22.267102 0.731265306,22.0702041 L0.731265306,18.6220408 C0.731265306,17.6468571 1.27885714,16.7593469 2.16,16.3057959 C2.74530612,16.0050612 3.40506122,15.7346939 4.12163265,15.5035102 C4.45763265,15.3947755 4.7402449,15.3115102 5.01061224,15.2414694 C5.02236735,15.2385306 5.34563265,15.1591837 5.87412245,15.0651429 C6.2522449,15.7983673 7.51004082,16.3302857 8.35346939,16.6158367 L7.39346939,17.5444898 L6.08326531,16.3180408 C5.93926531,16.1833469 5.71395918,16.1902041 5.5797551,16.3346939 C5.44506122,16.4786939 5.45289796,16.704 5.59640816,16.8382041 L7.15395918,18.2953469 C7.22253061,18.36 7.30971429,18.3913469 7.39738776,18.3913469 C7.48702041,18.3913469 7.57616327,18.3585306 7.64522449,18.2919184 L7.74563265,18.1949388 L7.97534694,18.4770612 L7.34497959,22.0070204 C7.31069388,22.2009796 7.43902041,22.3856327 7.63297959,22.4204082 C7.65404082,22.4248163 7.67510204,22.4262857 7.69567347,22.4262857 C7.86514286,22.4262857 8.01502041,22.3048163 8.04587755,22.1324082 L8.70514286,18.4413061 C8.72326531,18.3394286 8.69583673,18.2346122 8.63069388,18.1542857 L8.25942857,17.6977959 L9.03183673,16.9508571 L9.80522449,17.6982857 L9.43493878,18.1542857 C9.36979592,18.2346122 9.34236735,18.3394286 9.3604898,18.4413061 L10.0197551,22.1324082 C10.0506122,22.3048163 10.2004898,22.4262857 10.3699592,22.4262857 C10.3910204,22.4262857 10.4115918,22.4248163 10.4331429,22.4204082 C10.627102,22.3861224 10.7554286,22.2009796 10.7211429,22.0070204 L10.0907755,18.4770612 L10.32,18.1959184 L10.4194286,18.2919184 C10.4884898,18.3585306 10.5776327,18.3913469 10.6672653,18.3913469 C10.754449,18.3913469 10.8421224,18.36 10.9106939,18.2953469 L12.4682449,16.8382041 C12.6117551,16.704 12.6195918,16.4786939 12.484898,16.3346939 C12.3506939,16.1911837 12.1253878,16.1838367 11.9813878,16.3180408 L10.6711837,17.5444898 L10.5149388,17.3926531 L9.71167347,16.6163265 C10.5658776,16.3273469 11.8481633,15.7841633 12.2076735,15.0347755 C12.4907755,15.0920816 12.7733878,15.1567347 13.0515918,15.24 C13.3204898,15.3090612 13.603102,15.3923265 13.9400816,15.5010612 C14.6581224,15.7332245 15.3188571,16.003102 15.9051429,16.3043265 C16.7882449,16.7578776 17.3368163,17.6463673 17.3368163,18.6235102 L17.3368163,22.0697143 C17.3368163,22.2661224 17.496,22.4257959 17.692898,22.4257959 C17.8893061,22.4257959 18.0494694,22.2666122 18.0494694,22.0697143 L18.0494694,18.6235102 C18.0470204,17.3779592 17.349551,16.2465306 16.2284082,15.6705306 Z M5.65371429,3.87477551 C6.29632653,3.06171429 7.43069388,2.64979592 9.02595918,2.64979592 C10.6217143,2.64979592 11.7565714,3.06171429 12.3986939,3.87477551 C12.96,4.5835102 13.0349388,5.46906122 13.0099592,6.04995918 C12.4677551,5.82367347 11.9867755,5.6884898 11.7237551,5.62285714 L11.3745306,4.48359184 C11.3353469,4.35673469 11.2285714,4.26171429 11.0982857,4.23771429 C10.9660408,4.21371429 10.8337959,4.26514286 10.7524898,4.36995918 L10.0035918,5.33436735 C9.31787755,5.28 7.06236735,5.19967347 5.0517551,6.1915102 C5.00767347,5.62089796 5.04489796,4.64473469 5.65371429,3.87477551 Z M5.30253061,9.69110204 C5.27608163,9.5877551 5.19477551,9.5044898 5.09779592,9.45942857 C5.00179592,9.41387755 4.87885714,9.41779592 4.78285714,9.46432653 C4.75885714,9.46873469 4.72506122,9.45012245 4.68734694,9.41926531 C4.55118367,9.30612245 4.39738776,9.01322449 4.36163265,8.61404082 C4.30971429,8.03412245 4.53061224,7.69616327 4.65697959,7.6917551 C4.76473469,7.72555102 4.88179592,7.70546939 4.97289796,7.63836735 C5.064,7.57126531 5.11787755,7.46497959 5.11787755,7.35183673 C5.11787755,7.29159184 5.11836735,7.11183673 5.11983673,6.96244898 C7.32881633,5.74628571 10.0942041,6.05681633 10.1226122,6.0602449 C10.2489796,6.07444898 10.3699592,6.024 10.4468571,5.92506122 L10.8950204,5.34808163 L11.1036735,6.02889796 C11.1423673,6.15379592 11.2466939,6.24783673 11.3750204,6.27379592 C11.3828571,6.27526531 12.1131429,6.42612245 12.9306122,6.7924898 C12.9340408,6.98889796 12.9364898,7.24163265 12.9364898,7.35232653 C12.9364898,7.46546939 13.0021224,7.56881633 13.0932245,7.63591837 C13.1838367,7.7035102 13.3131429,7.71967347 13.4218776,7.68685714 C13.5232653,7.69714286 13.7441633,8.03510204 13.6922449,8.61502041 C13.6564898,9.01371429 13.5026939,9.30661224 13.3665306,9.4202449 C13.3288163,9.45110204 13.2955102,9.4677551 13.250449,9.45893878 C13.154449,9.41191837 13.0427755,9.41142857 12.9453061,9.45746939 C12.8483265,9.50253061 12.7768163,9.58873469 12.7508571,9.69208163 C12.4354286,10.9356735 11.7805714,11.9691429 10.9067755,12.6034286 C9.75967347,13.4370612 8.2917551,13.4365714 7.14367347,12.6014694 C6.27183673,11.9662041 5.61746939,10.9332245 5.30253061,9.69110204 Z M9.03183673,16.0829388 C7.90677551,15.7533061 6.69844898,15.1635918 6.50057143,14.7428571 C6.86987755,14.3343673 7.08832653,13.8979592 7.21420408,13.4835918 C7.78432653,13.7902041 8.40097959,13.9523265 9.02595918,13.9523265 C9.65436735,13.9523265 10.2739592,13.7887347 10.8460408,13.4786939 C10.9719184,13.8964898 11.1893878,14.3353469 11.5606531,14.7457959 C11.3593469,15.1665306 10.154449,15.7547755 9.03183673,16.0829388 Z" id="Shape" fill-rule="nonzero"></path>
                    </g>
                </g>
            </g>
        </g>
    </g>
</svg>