<?xml version="1.0" encoding="UTF-8"?>
<svg width="55px" height="52px" viewBox="0 0 55 52" version="1.1" xmlns="http://www.w3.org/2000/svg" xmlns:xlink="http://www.w3.org/1999/xlink">
    <!-- Generator: sketchtool 51.2 (57519) - http://www.bohemiancoding.com/sketch -->
    <title>5E55EF2B-0AFA-4366-AFF1-051E488E76AB</title>
    <desc>Created with sketchtool.</desc>
    <defs></defs>
    <g id="Upgrade-Reseller" stroke="none" stroke-width="1" fill="none" fill-rule="evenodd">
        <g id="Profile---Upgrade-Reseller" transform="translate(-28.000000, -1298.000000)">
            <g id="ic-ajak-teman" transform="translate(15.000000, 1284.000000)">
                <rect id="Rectangle" x="0" y="0" width="80" height="80"></rect>
                <g id="Group" transform="translate(13.000000, 14.000000)">
                    <path d="M13.1620862,8.14762553 C14.832229,5.91516512 17.4491387,4.96456367 21.012815,5.29582119 L20.921207,11.4856241 C16.9808877,11.7871015 13.9273853,12.4722541 11.7606997,13.541082 C11.6580758,12.2126725 11.7975472,9.97158874 13.1620862,8.14762553 Z" id="Path" fill="#E6E6E6"></path>
                    <path d="M12.3445157,21.6882799 C12.2829414,21.4476838 12.0936573,21.2538387 11.8678847,21.1489342 C11.6443926,21.0428895 11.3581859,21.0520117 11.1346939,21.1603369 C11.0788209,21.1705993 11.0001425,21.1272692 10.9123421,21.0554325 C10.5953482,20.7920311 10.2373048,20.1101523 10.1540654,19.1808358 C10.0331973,17.8307613 10.5474571,17.043978 10.8416456,17.0337156 C11.092504,17.1123939 11.3650275,17.065643 11.5771169,16.9094266 C11.7892063,16.7532102 11.9146356,16.5057726 11.9146356,16.2423712 C11.9146356,16.1021186 11.9157758,15.6836411 11.9191966,15.3358601 C14.3051582,13.8836613 17.28552,13.1575619 20.8602821,13.1575619 L20.7496347,29.9179196 C19.4835781,29.9179196 18.1106246,29.4331925 16.6307742,28.4637383 C14.5654477,27.1107369 13.0777065,24.5799935 12.3445157,21.6882799 Z" id="Path" fill="#E6E6E6"></path>
                    <path d="M50.5399935,32.1867055 C49.0964172,31.4432523 47.4738192,30.780758 45.7155296,30.2129057 C44.8990994,29.9495044 44.2126595,29.7465371 43.5809524,29.5846194 C42.7474182,29.3371817 41.8602915,29.1307937 40.9514998,28.9597538 C40.1031422,28.0372789 39.668701,27.0338452 39.4657337,26.1170716 C41.471461,24.5332426 43.0131001,22.1831552 43.8568967,19.3860836 C44.2354649,19.3473145 44.6037707,19.1853968 44.9367282,18.9094525 C45.6710593,18.3039715 46.176197,17.1808098 46.2902235,15.9059929 C46.4635439,13.9755232 45.721231,12.3905539 44.5296534,12.0199676 C44.5285131,11.8740136 44.5262326,11.7303401 44.5239521,11.5900875 C44.5946485,11.2913379 45.5479106,6.98911565 42.9652089,3.70857143 C41.1396437,1.3904114 38.0575057,0.214797538 33.8020343,0.214797538 C31.0425915,0.214797538 28.7540784,0.716514415 27.0003499,1.70626498 C26.6012569,1.93089731 26.4610042,2.43831552 26.6856365,2.83512796 C26.9114091,3.23422093 27.4165468,3.37675413 27.8156398,3.15098154 C29.3185099,2.30376417 31.3310787,1.87388403 33.8020343,1.87388403 C37.5158795,1.87388403 40.157875,2.83284742 41.6539035,4.7245481 C42.8990735,6.29925494 43.115724,8.24340784 43.081516,9.59348235 C40.3574214,7.9526401 37.3379981,7.35856171 33.6880078,7.73598963 C33.2319015,7.78274052 32.9000842,8.19095562 32.9479754,8.64706187 C32.9958665,9.10088759 33.4075024,9.43384516 33.8579074,9.385954 C37.4223777,9.0176482 40.2890055,9.67672174 42.8614448,11.4338711 C42.8705669,11.90138 42.8762682,12.5490509 42.8762682,12.8204341 C42.8762682,13.0838354 43.0279236,13.326712 43.2422935,13.4817881 C43.4543829,13.6391448 43.7565533,13.6756333 44.0074117,13.5992355 C44.244587,13.6231811 44.7588468,14.4099644 44.6368384,15.7600389 C44.553599,16.6893554 44.1966958,17.3700939 43.8785617,17.6346356 C43.789621,17.7064723 43.7063816,17.7418205 43.6083188,17.7247166 C43.3848267,17.6175316 43.1248461,17.6141108 42.8979333,17.7212958 C42.6733009,17.8262002 42.5068222,18.0268869 42.4452478,18.267483 C41.712057,21.1637577 40.1875219,23.5708584 38.153288,25.0475024 C36.2752705,26.4101199 34.0107029,26.8514027 31.9274376,26.2801296 C31.4850146,26.1604017 31.0289083,26.4181017 30.9080402,26.861665 C30.7883123,27.3040881 31.0482928,27.7601944 31.4895756,27.8810625 C32.2364496,28.0851701 33.0049887,28.1889342 33.7758082,28.1889342 C35.2399093,28.1889342 36.6823453,27.8080855 38.0153158,27.0862974 C38.3083641,28.058944 38.8055199,29.0783414 39.6709815,30.033884 C39.5102041,30.3976288 38.9856819,31.1000324 37.3060706,32.1342533 C36.9160998,32.3725688 36.7940914,32.8834078 37.0346874,33.274519 C37.1909038,33.5287982 37.462287,33.6690509 37.7416521,33.6690509 C37.8898866,33.6690509 38.0392614,33.6291416 38.1760933,33.5459022 C39.7884289,32.5538711 40.7827405,31.617713 41.1886751,30.7055005 C41.8511694,30.8457532 42.5045416,30.999689 43.1362488,31.1878328 C43.7645351,31.3508908 44.4201879,31.544736 45.2046906,31.7955944 C46.8774603,32.3360803 48.4168189,32.9643667 49.7805766,33.6667703 C51.8364755,34.7226563 53.1124328,36.7899579 53.1124328,39.0647878 L53.1124328,50.5119145 C53.1124328,50.969161 53.4830191,51.3408876 53.9425462,51.3408876 C54.4009329,51.3408876 54.7715193,50.9703013 54.7715193,50.5119145 L54.7715193,39.0590865 C54.7726595,36.159391 53.1500615,33.5253774 50.5399935,32.1867055 Z" id="Shape" fill="#16B8B2" fill-rule="nonzero"></path>
                    <path d="M37.7804211,35.6086427 C36.3357046,34.86747 34.7131066,34.2049757 32.9559572,33.6371234 C32.139527,33.3737221 31.4519469,33.1707548 30.82138,33.0088371 C29.9616197,32.7522773 29.0893165,32.5618529 28.2147328,32.3987949 C27.357253,31.4751798 26.9079883,30.4637642 26.7027405,29.5412893 C28.7084678,27.9574603 30.2489666,25.6073729 31.0939035,22.8103013 C31.4736119,22.770392 31.8407775,22.6096145 32.173735,22.3336702 C32.9080661,21.7281892 33.414344,20.602747 33.5283706,19.3290703 C33.7005507,17.3997408 32.9605183,15.8147716 31.7689407,15.4441853 C31.7666602,15.2606025 31.7643797,15.0747392 31.7609589,14.9025591 C31.9194558,14.1488435 32.5910722,10.1932621 30.1794104,7.13164885 C28.3549854,4.81462909 25.2717072,3.63901523 21.0162358,3.63901523 C16.7619048,3.63901523 13.6786265,4.81462909 11.8542015,7.13164885 C9.46420473,10.1658957 10.1016132,14.0747263 10.2669517,14.8797538 C10.2658115,15.0029025 10.2623907,15.2149919 10.2623907,15.4441853 C9.07195335,15.8159119 8.33192096,17.3997408 8.50410107,19.3290703 C8.61812763,20.6050275 9.12554584,21.7281892 9.85873664,22.3336702 C10.1905539,22.607334 10.5565792,22.770392 10.9374279,22.8103013 C11.783505,25.6096534 13.3251442,27.9620214 15.3320117,29.5447101 C15.1199223,30.5002527 14.6649563,31.5527178 13.7504632,32.4979981 C12.2179462,32.7591189 11.2749466,32.9974344 11.2498607,33.0054163 C10.5873664,33.1753158 9.89864593,33.3771429 9.08449627,33.6416845 C7.331908,34.2083965 5.71159054,34.8708908 4.27029478,35.6132038 C1.66364755,36.9552964 0.0433300939,39.5847489 0.0433300939,42.4798834 L0.0433300939,50.5073534 C0.0433300939,50.9645999 0.413916424,51.3363265 0.873443473,51.3363265 C1.33183026,51.3363265 1.70241659,50.9657402 1.70241659,50.5073534 L1.70241659,42.4798834 C1.70241659,40.2096145 2.97723356,38.1434532 5.02857143,37.0875672 C6.39118886,36.3874441 7.92712666,35.7580175 9.59533528,35.2198121 C10.3775575,34.9666731 11.0354908,34.772828 11.6649174,34.60977 C11.6922838,34.6029284 12.4448591,34.4182054 13.6752057,34.1992744 C14.5554908,35.906252 17.4836929,37.1445805 19.4472303,37.8093554 L17.2123097,39.971299 L14.1620991,37.1160739 C13.826861,36.8025008 13.3023388,36.8184645 12.9899061,37.1548429 C12.676333,37.490081 12.6945773,38.0146032 13.0286751,38.327036 L16.6547198,41.7193262 C16.814357,41.8698413 17.0173243,41.9428183 17.2214318,41.9428183 C17.4301004,41.9428183 17.6376288,41.8664205 17.7984062,41.7113443 L18.0321607,41.4855718 L18.5669453,42.1423648 L17.0994234,50.3602592 C17.0196048,50.8118043 17.3183544,51.2416845 17.7698996,51.3226433 C17.818931,51.3329057 17.8679624,51.3363265 17.9158536,51.3363265 C18.3103855,51.3363265 18.6593068,51.0535407 18.7311435,50.6521672 L20.265941,42.0591254 C20.3081309,41.8219501 20.244276,41.5779333 20.0926207,41.3909297 L19.2282993,40.3282021 L21.0264982,38.5892971 L22.8269776,40.3293424 L21.9649368,41.3909297 C21.8132815,41.5779333 21.7494266,41.8219501 21.7916165,42.0591254 L23.326414,50.6521672 C23.3982507,51.0535407 23.747172,51.3363265 24.1417039,51.3363265 C24.1907353,51.3363265 24.2386265,51.3329057 24.2887982,51.3226433 C24.7403434,51.2428247 25.039093,50.8118043 24.9592744,50.3602592 L23.4917525,42.1423648 L24.0253968,41.4878523 L24.2568707,41.7113443 C24.4176482,41.8664205 24.6251765,41.9428183 24.8338452,41.9428183 C25.0368124,41.9428183 25.24092,41.8698413 25.4005572,41.7193262 L29.0266019,38.327036 C29.3606997,38.0146032 29.378944,37.490081 29.0653709,37.1548429 C28.7529381,36.8207451 28.2284159,36.8036411 27.8931778,37.1160739 L24.8429673,39.971299 L24.4792225,39.6178167 L22.6091869,37.8104956 C24.5978102,37.1377389 27.5830256,35.8731843 28.4199806,34.1285779 C29.0790541,34.261989 29.7369874,34.412504 30.3846582,34.6063492 C31.0106641,34.7671267 31.6685973,34.9609718 32.4531001,35.2141108 C34.1247295,35.7545967 35.6629478,36.3828831 37.0278458,37.0841464 C39.0837447,38.1400324 40.3608422,40.2084742 40.3608422,42.4833042 L40.3608422,50.5062132 C40.3608422,50.9634597 40.7314286,51.3351863 41.1898154,51.3351863 C41.6470619,51.3351863 42.0199287,50.9645999 42.0199287,50.5062132 L42.0199287,42.4833042 C42.0142274,39.5836087 40.3904891,36.9495951 37.7804211,35.6086427 Z M13.1620862,8.14762553 C14.6581147,6.25478458 17.2989699,5.29582119 21.012815,5.29582119 C24.7278005,5.29582119 27.3697959,6.25478458 28.8646842,8.14762553 C30.1714286,9.79758989 30.3458892,11.8591902 30.2877357,13.2115452 C29.0254616,12.6847425 27.9057208,12.3700292 27.2933981,12.2172336 L26.4803887,9.5649757 C26.3891675,9.26964691 26.1405896,9.04843537 25.8372789,8.99256236 C25.5294072,8.93668934 25.2215355,9.05641723 25.0322514,9.30043408 L23.2887852,11.5456171 C21.6924133,11.4190476 16.4414901,11.2320441 11.7606997,13.541082 C11.6580758,12.2126725 11.744736,9.9401231 13.1620862,8.14762553 Z M12.3445157,21.6882799 C12.2829414,21.4476838 12.0936573,21.2538387 11.8678847,21.1489342 C11.6443926,21.0428895 11.3581859,21.0520117 11.1346939,21.1603369 C11.0788209,21.1705993 11.0001425,21.1272692 10.9123421,21.0554325 C10.5953482,20.7920311 10.2373048,20.1101523 10.1540654,19.1808358 C10.0331973,17.8307613 10.5474571,17.043978 10.8416456,17.0337156 C11.092504,17.1123939 11.3650275,17.065643 11.5771169,16.9094266 C11.7892063,16.7532102 11.9146356,16.5057726 11.9146356,16.2423712 C11.9146356,16.1021186 11.9157758,15.6836411 11.9191966,15.3358601 C17.0617946,12.5045805 23.4997344,13.2275089 23.5658698,13.2354908 C23.8600583,13.2685585 24.1417039,13.1511111 24.3207256,12.9207775 L25.3640687,11.5775445 L25.8498218,13.1625138 C25.9399028,13.4532815 26.1827794,13.6722125 26.481529,13.7326466 C26.4997732,13.7360674 28.1999093,14.0872692 30.1030126,14.9401879 C30.1109945,15.3974344 30.1166958,15.9858115 30.1166958,16.2435115 C30.1166958,16.5069129 30.2694914,16.7475089 30.4815808,16.9037253 C30.69253,17.061082 30.9935601,17.0987107 31.2466991,17.0223129 C31.482734,17.0462585 31.9969938,17.8330418 31.8761257,19.1831163 C31.7928863,20.1112925 31.4348429,20.7931714 31.117849,21.057713 C31.0300486,21.1295497 30.9525105,21.1683188 30.8476061,21.147794 C30.624114,21.0383285 30.3641335,21.0371882 30.1372206,21.1443732 C29.911448,21.2492776 29.7449692,21.4499644 29.6845351,21.6905604 C28.9502041,24.5856948 27.4256689,26.9916553 25.3914351,28.4682993 C22.7209329,30.4090314 19.3035569,30.4078912 16.6307742,28.4637383 C14.6011014,26.9848137 13.0777065,24.5799935 12.3445157,21.6882799 Z M21.0264982,36.5687464 C18.4073081,35.8013476 15.5942728,34.4284678 15.1336054,33.4489796 C15.9933657,32.4979981 16.5019242,31.4820214 16.7949725,30.5173567 C18.1222417,31.2311629 19.5578361,31.6085909 21.012815,31.6085909 C22.4757758,31.6085909 23.9182119,31.2277421 25.2500421,30.505954 C25.5430904,31.4786006 26.0493683,32.5002786 26.9136897,33.4558212 C26.4450405,34.4353094 23.639987,35.8047684 21.0264982,36.5687464 Z" id="Shape" fill="#8C8C8C" fill-rule="nonzero"></path>
                </g>
            </g>
        </g>
    </g>
</svg>