<?xml version="1.0" encoding="UTF-8"?>
<svg width="24px" height="24px" viewBox="0 0 24 24" version="1.1" xmlns="http://www.w3.org/2000/svg" xmlns:xlink="http://www.w3.org/1999/xlink">
    <!-- Generator: sketchtool 51.2 (57519) - http://www.bohemiancoding.com/sketch -->
    <title>677EB671-A061-4D50-A6E8-4D4CFCC61985</title>
    <desc>Created with sketchtool.</desc>
    <defs></defs>
    <g id="Profile" stroke="none" stroke-width="1" fill="none" fill-rule="evenodd">
        <g id="Profile---Reseller" transform="translate(-18.000000, -389.000000)">
            <g id="Group-3" transform="translate(0.000000, 376.000000)">
                <g id="ic-buku-alamat" transform="translate(15.000000, 10.000000)">
                    <rect id="Rectangle" x="0" y="0" width="30" height="30"></rect>
                    <g id="Group" transform="translate(3.000000, 3.000000)" fill="#F5821F">
                        <path d="M2.59493878,21.482449 C3.4084898,21.316898 4.02318367,20.5959184 4.02318367,19.7343673 C4.02318367,19.5374694 3.8635102,19.3777959 3.66661224,19.3777959 C3.47020408,19.3777959 3.31053061,19.5369796 3.31053061,19.7343673 C3.31053061,20.1996735 3.01028571,20.5929796 2.59493878,20.740898 L2.59493878,16.4404898 C3.4084898,16.2749388 4.02318367,15.5539592 4.02318367,14.6924082 C4.02318367,14.4955102 3.8635102,14.3358367 3.66661224,14.3358367 C3.47020408,14.3358367 3.31053061,14.4950204 3.31053061,14.6924082 C3.31053061,15.1577143 3.01028571,15.5510204 2.59493878,15.6989388 L2.59493878,11.3990204 C3.4084898,11.2329796 4.02318367,10.512 4.02318367,9.65044898 C4.02318367,9.45404082 3.8635102,9.29436735 3.66661224,9.29436735 C3.47020408,9.29436735 3.31053061,9.45355102 3.31053061,9.65044898 C3.31053061,10.1162449 3.01028571,10.509551 2.59493878,10.6574694 L2.59493878,6.35706122 C3.4084898,6.1915102 4.02318367,5.47053061 4.02318367,4.60897959 C4.02318367,4.41208163 3.8635102,4.25240816 3.66661224,4.25240816 C3.47020408,4.25240816 3.31053061,4.41159184 3.31053061,4.60897959 C3.31053061,5.07428571 3.01028571,5.46759184 2.59493878,5.616 L2.59493878,1.12995918 L5.69877551,1.12995918 L5.69877551,23.2153469 L2.59493878,23.2153469 L2.59493878,21.482449 Z" id="Path" fill-opacity="0.2"></path>
                        <path d="M23.6840816,7.2724898 L23.6840816,3.44326531 C23.6840816,3.30514286 23.6037551,3.17926531 23.4788571,3.1204898 L21.3967347,2.1482449 L21.3967347,0.771918367 C21.3967347,0.575020408 21.237551,0.415346939 21.0406531,0.415346939 L6.05534694,0.415346939 L2.23885714,0.415346939 C2.04244898,0.415346939 1.88277551,0.574530612 1.88277551,0.771918367 L1.88277551,2.85893878 C1.06873469,3.0244898 0.454530612,3.74546939 0.454530612,4.6075102 C0.454530612,5.46955102 1.06873469,6.19004082 1.88277551,6.35559184 L1.88277551,7.90089796 C1.06873469,8.06644898 0.454530612,8.78742857 0.454530612,9.64897959 C0.454530612,10.5105306 1.06873469,11.2315102 1.88277551,11.397551 L1.88277551,12.9428571 C1.06873469,13.1079184 0.454530612,13.8293878 0.454530612,14.6909388 C0.454530612,15.5524898 1.06873469,16.2734694 1.88277551,16.4390204 L1.88277551,17.9843265 C1.06873469,18.1498776 0.454530612,18.8708571 0.454530612,19.732898 C0.454530612,20.5949388 1.06873469,21.3154286 1.88277551,21.4809796 L1.88277551,23.568 C1.88277551,23.764898 2.04244898,23.9245714 2.23885714,23.9245714 L6.05534694,23.9245714 L21.0406531,23.9245714 C21.2370612,23.9245714 21.3967347,23.762449 21.3967347,23.565551 L21.3967347,19.2543673 L23.4788571,18.2821224 C23.6042449,18.2233469 23.6840816,18.0974694 23.6840816,17.9593469 L23.6840816,14.1301224 C23.6840816,13.992 23.6037551,13.8661224 23.4788571,13.8073469 L22.5492245,13.372898 L23.4788571,12.938449 C23.6042449,12.8801633 23.6840816,12.7542857 23.6840816,12.6161633 L23.6840816,8.78644898 C23.6840816,8.64832653 23.6037551,8.52293878 23.4788571,8.46416327 L22.5492245,8.02922449 L23.4788571,7.59477551 C23.6042449,7.5364898 23.6840816,7.41061224 23.6840816,7.2724898 Z M1.16669388,4.6075102 C1.16669388,4.14220408 1.46693878,3.74840816 1.88228571,3.6004898 L1.88228571,5.61404082 C1.46693878,5.46612245 1.16669388,5.07281633 1.16669388,4.6075102 Z M1.16669388,9.64946939 C1.16669388,9.18465306 1.46693878,8.79085714 1.88228571,8.64293878 L1.88228571,10.6555102 C1.46693878,10.5085714 1.16669388,10.1152653 1.16669388,9.64946939 Z M1.16669388,14.6919184 C1.16669388,14.2261224 1.46693878,13.8333061 1.88228571,13.6853878 L1.88228571,15.6979592 C1.46693878,15.5505306 1.16669388,15.1572245 1.16669388,14.6919184 Z M1.16669388,19.7343673 C1.16669388,19.2685714 1.46693878,18.8752653 1.88228571,18.7273469 L1.88228571,20.7404082 C1.46693878,20.5924898 1.16669388,20.1996735 1.16669388,19.7343673 Z M2.59493878,21.482449 C3.4084898,21.316898 4.02318367,20.5959184 4.02318367,19.7343673 C4.02318367,19.5374694 3.8635102,19.3777959 3.66661224,19.3777959 C3.47020408,19.3777959 3.31053061,19.5369796 3.31053061,19.7343673 C3.31053061,20.1996735 3.01028571,20.5929796 2.59493878,20.740898 L2.59493878,16.4404898 C3.4084898,16.2749388 4.02318367,15.5539592 4.02318367,14.6924082 C4.02318367,14.4955102 3.8635102,14.3358367 3.66661224,14.3358367 C3.47020408,14.3358367 3.31053061,14.4950204 3.31053061,14.6924082 C3.31053061,15.1577143 3.01028571,15.5510204 2.59493878,15.6989388 L2.59493878,11.3990204 C3.4084898,11.2329796 4.02318367,10.512 4.02318367,9.65044898 C4.02318367,9.45404082 3.8635102,9.29436735 3.66661224,9.29436735 C3.47020408,9.29436735 3.31053061,9.45355102 3.31053061,9.65044898 C3.31053061,10.1162449 3.01028571,10.509551 2.59493878,10.6574694 L2.59493878,6.35706122 C3.4084898,6.1915102 4.02318367,5.47053061 4.02318367,4.60897959 C4.02318367,4.41208163 3.8635102,4.25240816 3.66661224,4.25240816 C3.47020408,4.25240816 3.31053061,4.41159184 3.31053061,4.60897959 C3.31053061,5.07428571 3.01028571,5.46759184 2.59493878,5.616 L2.59493878,1.12995918 L5.69877551,1.12995918 L5.69877551,23.2153469 L2.59493878,23.2153469 L2.59493878,21.482449 Z M22.9719184,14.3573878 L22.9719184,17.733551 L21.3967347,18.4692245 L21.3967347,13.9121633 L21.7072653,13.7671837 L22.9719184,14.3573878 Z M22.9719184,9.01420408 L22.9719184,12.3903673 L21.3967347,13.1260408 L21.3967347,8.5684898 L21.7067755,8.4235102 L22.9719184,9.01420408 Z M22.9719184,7.04571429 L20.8902857,8.01795918 C20.7644082,8.07673469 20.6845714,8.20261224 20.6845714,8.34073469 L20.6845714,8.40881633 L20.6845714,13.684898 L20.6845714,13.749551 L20.6845714,19.0280816 L20.6845714,23.212898 L6.41142857,23.212898 L6.41142857,1.1275102 L20.6845714,1.1275102 L20.6845714,2.37404082 C20.6845714,2.51216327 20.7644082,2.63804082 20.8902857,2.69681633 L22.9719184,3.66906122 L22.9719184,7.04571429 Z" id="Shape" fill-rule="nonzero"></path>
                        <path d="M17.6444082,15.6705306 L9.45110204,15.6705306 C9.25469388,15.6705306 9.09502041,15.8292245 9.09502041,16.0266122 C9.09502041,16.224 9.25469388,16.3831837 9.45110204,16.3831837 L17.6444082,16.3831837 C17.8413061,16.3831837 18.0004898,16.224 18.0004898,16.0266122 C18.0004898,15.8292245 17.8413061,15.6705306 17.6444082,15.6705306 Z" id="Shape" fill-rule="nonzero"></path>
                        <path d="M15.4574694,18.0146939 L9.45110204,18.0146939 C9.25469388,18.0146939 9.09502041,18.1738776 9.09502041,18.3712653 C9.09502041,18.5676735 9.25469388,18.7273469 9.45110204,18.7273469 L15.4574694,18.7273469 C15.6543673,18.7273469 15.813551,18.5681633 15.813551,18.3712653 C15.813551,18.1738776 15.6543673,18.0146939 15.4574694,18.0146939 Z" id="Shape" fill-rule="nonzero"></path>
                        <path d="M13.5477551,4.44734694 C11.0924082,4.44734694 9.09502041,6.44473469 9.09502041,8.90008163 C9.09502041,10.5193469 9.97714286,12.0122449 11.3965714,12.7973878 C12.052898,13.1603265 12.7973878,13.3528163 13.5477551,13.3528163 C14.2995918,13.3528163 15.043102,13.1603265 15.6989388,12.7978776 C15.6989388,12.7978776 15.6994286,12.796898 15.6999184,12.796898 C16.2651429,12.4844082 16.7515102,12.0514286 17.1457959,11.5082449 C17.7046531,10.7392653 18.0004898,9.83706122 18.0004898,8.90008163 C18.0004898,8.01697959 17.7418776,7.16277551 17.2525714,6.43004082 C16.4233469,5.18791837 15.0382041,4.44734694 13.5477551,4.44734694 Z M11.8192653,12.2150204 C11.8006531,12.187102 11.7835102,12.1586939 11.7673469,12.1297959 C11.7516735,12.1028571 11.7355102,12.0764082 11.7217959,12.0484898 C11.7012245,12.0053878 11.6845714,11.9608163 11.6684082,11.9162449 C11.6586122,11.8893061 11.6468571,11.8633469 11.6385306,11.8359184 C11.6233469,11.7849796 11.6130612,11.7330612 11.6032653,11.6811429 C11.5983673,11.6566531 11.5915102,11.6331429 11.5880816,11.6091429 C11.5768163,11.5312653 11.570449,11.4514286 11.570449,11.3686531 C11.570449,11.2741224 11.5792653,11.1766531 11.5929796,11.0796735 C11.5973878,11.0483265 11.6062041,11.016 11.6120816,10.9846531 C11.6243265,10.9190204 11.637551,10.8543673 11.6556735,10.7897143 C11.666449,10.752 11.6801633,10.7147755 11.6924082,10.6770612 C11.712,10.6182857 11.7320816,10.5604898 11.7555918,10.5031837 C11.7717551,10.464 11.7898776,10.4257959 11.8075102,10.3875918 C11.8329796,10.3332245 11.8594286,10.2788571 11.8888163,10.2254694 C11.9098776,10.1877551 11.9319184,10.1505306 11.954449,10.1133061 C11.9853061,10.0623673 12.0186122,10.0124082 12.052898,9.96391837 C12.0773878,9.92865306 12.1028571,9.89289796 12.1293061,9.85910204 C12.1660408,9.81159184 12.2052245,9.76653061 12.2444082,9.72244898 C12.2723265,9.69159184 12.2997551,9.65926531 12.3286531,9.63036735 C12.3722449,9.58579592 12.4177959,9.54612245 12.4633469,9.50644898 C12.4922449,9.48146939 12.5191837,9.4555102 12.5490612,9.4324898 C12.5564082,9.42710204 12.5632653,9.42269388 12.5706122,9.41828571 C12.5779592,9.42367347 12.5853061,9.42759184 12.5926531,9.43297959 C12.6205714,9.45404082 12.6494694,9.47020408 12.6778776,9.48881633 C12.7327347,9.52555102 12.7885714,9.56032653 12.8463673,9.59020408 C12.8963265,9.61616327 12.9467755,9.63771429 12.9982041,9.65779592 C13.0275918,9.66906122 13.0569796,9.67934694 13.0868571,9.68865306 C13.2377143,9.73861224 13.3915102,9.77289796 13.5487347,9.77289796 C13.706449,9.77289796 13.8607347,9.73861224 14.0120816,9.68865306 C14.0409796,9.67934694 14.068898,9.66955102 14.0977959,9.65877551 C14.1497143,9.63771429 14.2011429,9.61616327 14.2515918,9.58971429 C14.3084082,9.56032653 14.3637551,9.52604082 14.4181224,9.48979592 C14.4470204,9.47020408 14.4759184,9.45404082 14.5043265,9.43297959 C14.5106939,9.42759184 14.517551,9.42416327 14.5244082,9.4197551 C14.539102,9.43053061 14.5542857,9.43885714 14.5689796,9.45061224 C14.5841633,9.46285714 14.5988571,9.47755102 14.6140408,9.49028571 C14.685551,9.5515102 14.7565714,9.61861224 14.8256327,9.69306122 C14.8388571,9.7077551 14.8520816,9.72195918 14.8653061,9.73665306 C14.9020408,9.77828571 14.9373061,9.82089796 14.971102,9.864 C14.9926531,9.89240816 15.0127347,9.92130612 15.0333061,9.95020408 C15.0617143,9.98840816 15.0896327,10.0275918 15.1155918,10.0677551 C15.1577143,10.1338776 15.196898,10.2004898 15.2331429,10.2700408 C15.2537143,10.3092245 15.2713469,10.3498776 15.2899592,10.3900408 C15.307102,10.4257959 15.3237551,10.461551 15.3389388,10.4982857 C15.3590204,10.5462857 15.3766531,10.5942857 15.3933061,10.6427755 C15.4021224,10.6682449 15.4099592,10.6937143 15.4177959,10.7191837 C15.4790204,10.9165714 15.5157551,11.1173878 15.5211429,11.3118367 C15.5216327,11.3206531 15.525551,11.3622857 15.5265306,11.3706122 C15.5265306,11.4533878 15.5206531,11.5332245 15.5093878,11.6115918 C15.5059592,11.6360816 15.4986122,11.6600816 15.4937143,11.6840816 C15.4834286,11.7355102 15.4736327,11.7884082 15.4589388,11.8378776 C15.4501224,11.8657959 15.4383673,11.8922449 15.4285714,11.9191837 C15.4119184,11.9637551 15.3957551,12.0083265 15.3751837,12.050449 C15.3614694,12.0788571 15.3448163,12.1053061 15.3296327,12.1327347 C15.3129796,12.1616327 15.2953469,12.189551 15.2772245,12.2179592 C14.2138776,12.770449 12.8840816,12.770449 11.8192653,12.2150204 Z M14.2310204,8.72130612 C13.8293878,9.1557551 13.2666122,9.1557551 12.8649796,8.72130612 C12.6171429,8.45289796 12.4687347,8.07673469 12.4687347,7.71526531 C12.4687347,7.06138776 12.9526531,6.52995918 13.5477551,6.52995918 C14.1428571,6.52995918 14.6267755,7.06138776 14.6267755,7.71526531 C14.6267755,8.07673469 14.4788571,8.45289796 14.2310204,8.72130612 Z M16.5697959,11.0894694 C16.4654694,11.2329796 16.3533061,11.3671837 16.2342857,11.4925714 C16.2367347,11.4509388 16.2377143,11.4097959 16.2377143,11.3681633 C16.2377143,11.3431837 16.2357551,11.3182041 16.2323265,11.2878367 C16.2313469,11.260898 16.2269388,11.2339592 16.2254694,11.2065306 C16.2166531,11.0605714 16.1965714,10.9146122 16.1652245,10.7691429 C16.1622857,10.7554286 16.1598367,10.7412245 16.1564082,10.728 C16.0138776,10.1049796 15.676898,9.51232653 15.2150204,9.0715102 C15.1738776,9.03183673 15.1317551,8.99510204 15.0901224,8.95836735 C15.0597551,8.93240816 15.0328163,8.9035102 15.0019592,8.87902041 C15.0039184,8.87608163 15.004898,8.87216327 15.0068571,8.86922449 C15.069551,8.76783673 15.1214694,8.65959184 15.1675102,8.54987755 C15.1812245,8.51657143 15.1929796,8.48179592 15.2052245,8.4475102 C15.2360816,8.36179592 15.2610612,8.27510204 15.2811429,8.18693878 C15.2894694,8.15167347 15.2977959,8.11640816 15.3041633,8.08065306 C15.3252245,7.95967347 15.3394286,7.83820408 15.3394286,7.71526531 C15.3394286,6.66857143 14.5356735,5.81779592 13.5477551,5.81779592 C12.5598367,5.81779592 11.7560816,6.66857143 11.7560816,7.71526531 C11.7560816,7.83869388 11.7707755,7.96163265 11.7923265,8.08310204 C11.7982041,8.11640816 11.8060408,8.14922449 11.8133878,8.18253061 C11.8339592,8.27363265 11.8599184,8.36277551 11.8917551,8.45044898 C11.9035102,8.48326531 11.9137959,8.51608163 11.9275102,8.54791837 C11.9740408,8.66008163 12.0269388,8.77077551 12.091102,8.87412245 C12.0915918,8.87559184 12.0925714,8.87706122 12.093551,8.87902041 L12.0930612,8.87902041 C12.0925714,8.8795102 12.0925714,8.88 12.0920816,8.88 C11.9926531,8.95836735 11.8986122,9.04457143 11.8084898,9.13518367 C11.7781224,9.16604082 11.7511837,9.19934694 11.7222857,9.23118367 C11.6644898,9.29534694 11.6071837,9.3595102 11.5542857,9.42759184 C11.5229388,9.4677551 11.4945306,9.50987755 11.4651429,9.5515102 C11.419102,9.61665306 11.3745306,9.68228571 11.3333878,9.75036735 C11.3059592,9.79591837 11.2804898,9.84195918 11.2550204,9.8884898 C11.2173061,9.95755102 11.1825306,10.027102 11.1502041,10.099102 C11.1281633,10.147102 11.1066122,10.1946122 11.0870204,10.2435918 C11.0571429,10.3180408 11.0316735,10.3934694 11.0071837,10.4693878 C10.992,10.516898 10.9758367,10.5639184 10.963102,10.6124082 C10.9405714,10.6961633 10.9239184,10.7804082 10.9087347,10.8656327 C10.900898,10.9067755 10.891102,10.9474286 10.8852245,10.9890612 C10.8680816,11.1154286 10.8573061,11.2417959 10.8573061,11.3676735 C10.8573061,11.4117551 10.8582857,11.4563265 10.8607347,11.4999184 C10.195102,10.8117551 9.80718367,9.88261224 9.80718367,8.89910204 C9.80718367,6.83608163 11.4852245,5.15853061 13.5472653,5.15853061 C14.7986939,5.15853061 15.962449,5.78106122 16.6589388,6.82432653 L16.6594286,6.82432653 C17.0698776,7.4395102 17.2873469,8.15706122 17.2873469,8.89861224 C17.2878367,9.68571429 17.04,10.442449 16.5697959,11.0894694 Z" id="Shape" fill-rule="nonzero"></path>
                    </g>
                </g>
            </g>
        </g>
    </g>
</svg>