<?xml version="1.0" encoding="UTF-8"?>
<svg width="24px" height="21px" viewBox="0 0 24 21" version="1.1" xmlns="http://www.w3.org/2000/svg" xmlns:xlink="http://www.w3.org/1999/xlink">
    <!-- Generator: sketchtool 51.2 (57519) - http://www.bohemiancoding.com/sketch -->
    <title>B69CE0E9-217A-4302-9EF7-E92CD596A876</title>
    <desc>Created with sketchtool.</desc>
    <defs></defs>
    <g id="Profile" stroke="none" stroke-width="1" fill="none" fill-rule="evenodd">
        <g id="Profile---Prioritas---TDS" transform="translate(-18.000000, -610.000000)">
            <g id="Group-3" transform="translate(0.000000, 595.000000)">
                <g id="ic-cek-member" transform="translate(15.000000, 10.000000)">
                    <rect id="Rectangle" x="0" y="0" width="30" height="30"></rect>
                    <g id="Group" transform="translate(3.000000, 5.000000)" fill="#F5821F">
                        <path d="M3.46873469,0.725877551 C9.36195918,0.78122449 11.4181224,2.21240816 11.8378776,2.5684898 L11.8378776,4.64669388 C10.531102,4.73534694 9.24881633,5.27216327 8.25208163,6.26938776 C6.06465306,8.45730612 6.06465306,12.0161633 8.25208163,14.2040816 C9.25028571,15.2017959 10.5281633,15.7498776 11.8378776,15.837551 L11.8378776,19.2754286 C10.8347755,18.6489796 8.45338776,17.6419592 3.46873469,17.5959184 L3.46873469,0.725877551 Z" id="Path" fill-opacity="0.2"></path>
                        <path d="M2.03902041,19.6413061 C1.55020408,19.6413061 1.15297959,19.2435918 1.15297959,18.7557551 L1.15297959,3.54514286 C1.15297959,3.05730612 1.55020408,2.65959184 2.03902041,2.65959184 L2.75608163,2.65959184 L2.75608163,17.949551 C2.75608163,18.146449 2.9157551,18.3061224 3.11216327,18.3061224 C7.55657143,18.3061224 9.90220408,19.0755918 11.0277551,19.6413061 L2.03902041,19.6413061 Z" id="Path" fill-opacity="0.2"></path>
                        <path d="M22.3528163,1.94791837 L21.6357551,1.94791837 L21.6357551,0.367346939 C21.6357551,0.17044898 21.4760816,0.0107755102 21.2796735,0.0107755102 C15.2958367,0.0107755102 12.9247347,1.37240816 12.1959184,1.94057143 C11.467102,1.37240816 9.096,0.0107755102 3.11265306,0.0107755102 C2.9162449,0.0107755102 2.75657143,0.169959184 2.75657143,0.367346939 L2.75657143,1.94791837 L2.0395102,1.94791837 C1.15836735,1.94791837 0.441306122,2.6644898 0.441306122,3.54563265 L0.441306122,18.7562449 C0.441306122,19.6373878 1.15836735,20.3539592 2.0395102,20.3539592 L17.6204082,20.3539592 C17.8173061,20.3539592 17.9764898,20.1947755 17.9764898,19.9973878 C17.9764898,19.8009796 17.8173061,19.6413061 17.6204082,19.6413061 L13.3611429,19.6413061 C13.9459592,19.3454694 14.8574694,18.9952653 16.2279184,18.7288163 C16.420898,18.691102 16.5467755,18.504 16.509551,18.3105306 C16.4723265,18.1170612 16.2847347,17.9906939 16.0917551,18.0293878 C14.2491429,18.3874286 13.1554286,18.9007347 12.5549388,19.2759184 L12.5549388,15.8429388 C13.5012245,15.7836735 14.4406531,15.4834286 15.2811429,14.9319184 L16.0241633,15.6754286 L15.8723265,15.8272653 C15.8052245,15.8943673 15.768,15.9844898 15.768,16.0790204 C15.768,16.173551 15.8057143,16.2641633 15.8723265,16.3317551 L19.2754286,19.7343673 C19.5673469,20.0267755 19.9503673,20.1727347 20.3338776,20.1727347 C20.7173878,20.1727347 21.100898,20.0267755 21.3928163,19.7343673 L21.717551,19.4096327 C22.3013878,18.8262857 22.3013878,17.8760816 21.717551,17.2927347 L18.314449,13.8896327 C18.1753469,13.7505306 17.9500408,13.7505306 17.8109388,13.8896327 L17.659102,14.0419592 L16.9160816,13.298449 C18.3722449,11.0786939 18.0862041,8.16832653 16.1882449,6.26987755 C15.1792653,5.26089796 13.8788571,4.72408163 12.5554286,4.64571429 L12.5554286,2.56653061 C12.9688163,2.20604082 14.9769796,0.78122449 20.9245714,0.726367347 L20.9245714,15.0832653 C20.9245714,15.2801633 21.0842449,15.4398367 21.2811429,15.4398367 C21.477551,15.4398367 21.6372245,15.2806531 21.6372245,15.0832653 L21.6372245,2.66155102 L22.3542857,2.66155102 C22.8426122,2.66155102 23.2398367,3.05926531 23.2398367,3.54710204 L23.2398367,18.7577143 C23.2398367,18.96 23.1732245,19.1510204 23.0473469,19.3087347 C22.924898,19.4625306 22.9498776,19.6863673 23.1036735,19.8093061 C23.2574694,19.9317551 23.4817959,19.9067755 23.6042449,19.7524898 C23.8285714,19.4718367 23.952,19.1177143 23.952,18.7577143 L23.952,3.54710204 C23.9510204,2.6644898 23.2339592,1.94791837 22.3528163,1.94791837 Z M3.46873469,0.725877551 C9.36195918,0.78122449 11.4181224,2.21240816 11.8378776,2.5684898 L11.8378776,4.64669388 C10.531102,4.73534694 9.24881633,5.27216327 8.25208163,6.26938776 C6.06465306,8.45730612 6.06465306,12.0161633 8.25208163,14.2040816 C9.25028571,15.2017959 10.5281633,15.7498776 11.8378776,15.837551 L11.8378776,19.2754286 C10.8347755,18.6489796 8.45338776,17.6419592 3.46873469,17.5959184 L3.46873469,0.725877551 Z M2.03902041,19.6413061 C1.55020408,19.6413061 1.15297959,19.2435918 1.15297959,18.7557551 L1.15297959,3.54514286 C1.15297959,3.05730612 1.55020408,2.65959184 2.03902041,2.65959184 L2.75608163,2.65959184 L2.75608163,17.949551 C2.75608163,18.146449 2.9157551,18.3061224 3.11216327,18.3061224 C7.55657143,18.3061224 9.90220408,19.0755918 11.0277551,19.6413061 L2.03902041,19.6413061 Z M21.2125714,17.7957551 C21.5186939,18.1018776 21.5186939,18.6 21.2125714,18.9056327 L20.8878367,19.2303673 C20.5817143,19.5364898 20.0840816,19.5364898 19.7779592,19.2303673 L16.6266122,16.0785306 L17.3441633,15.3614694 L17.9093878,14.7962449 L18.0612245,14.6439184 L21.2125714,17.7957551 Z M16.1647347,13.128 C16.060898,13.269551 16.0755918,13.4659592 16.2,13.5903673 L17.1531429,14.544 L16.8396735,14.8574694 L16.5262041,15.1709388 L15.5730612,14.2182857 C15.504,14.1487347 15.4124082,14.1139592 15.3208163,14.1139592 C15.2473469,14.1139592 15.1733878,14.1364898 15.1102041,14.1830204 C13.1485714,15.624 10.4762449,15.4207347 8.75510204,13.7005714 C6.84538776,11.7908571 6.84538776,8.68310204 8.75510204,6.77289796 C10.6653061,4.86367347 13.7725714,4.86416327 15.6822857,6.77289796 C17.4034286,8.49306122 17.6062041,11.1663673 16.1647347,13.128 Z" id="Shape" fill-rule="nonzero"></path>
                        <path d="M5.01012245,3.6244898 C6.60636735,3.71216327 8.01355102,3.91689796 9.19297959,4.23134694 C9.22383673,4.23967347 9.25420408,4.24310204 9.28506122,4.24310204 C9.44277551,4.24310204 9.58677551,4.13779592 9.62938776,3.97861224 C9.67983673,3.78857143 9.56718367,3.59363265 9.37714286,3.54220408 C8.15069388,3.21502041 6.69453061,3.00244898 5.05028571,2.91232653 C4.85093878,2.90204082 4.68587755,3.05142857 4.67461224,3.24832653 C4.66334694,3.44522449 4.81371429,3.61273469 5.01012245,3.6244898 Z" id="Shape" fill-rule="nonzero"></path>
                        <path d="M5.01012245,6.11804082 C5.61502041,6.15134694 6.20081633,6.20228571 6.75085714,6.26938776 C6.76555102,6.27085714 6.7802449,6.27183673 6.79444898,6.27183673 C6.9717551,6.27183673 7.12555102,6.13910204 7.14759184,5.95836735 C7.17110204,5.76293878 7.032,5.58563265 6.83706122,5.56163265 C6.27134694,5.49257143 5.66987755,5.44065306 5.04979592,5.40685714 C4.85044898,5.39755102 4.68538776,5.54595918 4.67412245,5.74285714 C4.66334694,5.93877551 4.81371429,6.10677551 5.01012245,6.11804082 Z" id="Shape" fill-rule="nonzero"></path>
                        <path d="M5.01012245,8.61208163 C5.22514286,8.62383673 5.43477551,8.63755102 5.63804082,8.65322449 C5.64734694,8.65371429 5.65665306,8.65420408 5.66595918,8.65420408 C5.85012245,8.65420408 6.00587755,8.51216327 6.02057143,8.32555102 C6.0357551,8.12914286 5.88881633,7.95820408 5.69289796,7.94253061 C5.48473469,7.92685714 5.27069388,7.91216327 5.04979592,7.90040816 C4.85779592,7.89061224 4.68538776,8.0395102 4.67412245,8.23640816 C4.66334694,8.43232653 4.81371429,8.60081633 5.01012245,8.61208163 Z" id="Shape" fill-rule="nonzero"></path>
                        <path d="M5.01012245,11.1051429 C5.15755102,11.1134694 5.30253061,11.1222857 5.44457143,11.1325714 C5.45289796,11.1330612 5.46171429,11.133551 5.47004082,11.133551 C5.65518367,11.133551 5.81191837,10.9900408 5.82514286,10.8019592 C5.83885714,10.605551 5.69093878,10.4355918 5.49502041,10.4218776 C5.34955102,10.4115918 5.20114286,10.4027755 5.04979592,10.3939592 C4.85338776,10.3851429 4.68538776,10.533551 4.67461224,10.730449 C4.66334694,10.9268571 4.81420408,11.0948571 5.01012245,11.1051429 Z" id="Shape" fill-rule="nonzero"></path>
                        <path d="M6.25077551,12.979102 C5.86579592,12.9413878 5.46171429,12.9110204 5.04930612,12.888 C4.85534694,12.8669388 4.68489796,13.0275918 4.67412245,13.2244898 C4.66334694,13.4204082 4.81371429,13.5884082 5.01061224,13.5991837 C5.41273469,13.6217143 5.80653061,13.6515918 6.18171429,13.6883265 C6.19346939,13.6897959 6.20522449,13.6902857 6.21697959,13.6902857 C6.39820408,13.6902857 6.55297959,13.5526531 6.57110204,13.3689796 C6.58971429,13.1720816 6.44669388,12.9982041 6.25077551,12.979102 Z" id="Shape" fill-rule="nonzero"></path>
                        <path d="M9.75134694,7.76865306 C8.39069388,9.12930612 8.39069388,11.3436735 9.75134694,12.7043265 C10.4316735,13.3851429 11.325551,13.7250612 12.2194286,13.7250612 C13.1133061,13.7250612 14.0066939,13.3851429 14.6875102,12.7043265 C16.0481633,11.3441633 16.0481633,9.12881633 14.6875102,7.76865306 C13.3258776,6.408 11.112,6.408 9.75134694,7.76865306 Z M14.1835102,8.27216327 C15.2659592,9.35559184 15.2659592,11.1178776 14.1835102,12.2008163 C13.1000816,13.2837551 11.3377959,13.2832653 10.2548571,12.2008163 C9.17240816,11.1178776 9.17240816,9.35559184 10.2548571,8.27216327 C10.7965714,7.73093878 11.5077551,7.46008163 12.2189388,7.46008163 C12.9301224,7.46008163 13.6417959,7.73093878 14.1835102,8.27216327 Z" id="Shape" fill-rule="nonzero"></path>
                        <path d="M19.3425306,2.91281633 C17.6982857,3.00342857 16.2416327,3.2155102 15.0156735,3.54269388 C14.8256327,3.59363265 14.7124898,3.78906122 14.7634286,3.97910204 C14.805551,4.13828571 14.9500408,4.24359184 15.1072653,4.24359184 C15.1376327,4.24359184 15.1684898,4.23967347 15.1993469,4.23183673 C16.3787755,3.91689796 17.7859592,3.71216327 19.3822041,3.62497959 C19.5786122,3.61371429 19.7289796,3.44571429 19.7186939,3.24881633 C19.7069388,3.05191837 19.5453061,2.904 19.3425306,2.91281633 Z" id="Shape" fill-rule="nonzero"></path>
                        <path d="M19.3425306,5.40685714 C18.722449,5.44065306 18.1209796,5.49306122 17.5552653,5.56163265 C17.3598367,5.58563265 17.2212245,5.76244898 17.2447347,5.95836735 C17.2667755,6.13861224 17.4205714,6.27183673 17.5978776,6.27183673 C17.6120816,6.27183673 17.6267755,6.27085714 17.6414694,6.26938776 C18.192,6.20228571 18.7773061,6.15183673 19.3822041,6.11804082 C19.5786122,6.10726531 19.7289796,5.93926531 19.7186939,5.74236735 C19.7069388,5.54595918 19.5453061,5.39902041 19.3425306,5.40685714 Z" id="Shape" fill-rule="nonzero"></path>
                        <path d="M19.3420408,7.89991837 C19.1211429,7.91167347 18.907102,7.92636735 18.6989388,7.94204082 C18.5030204,7.95771429 18.3560816,8.12865306 18.3712653,8.32506122 C18.3859592,8.51167347 18.5417143,8.65371429 18.7263673,8.65371429 C18.7356735,8.65371429 18.7449796,8.65322449 18.7537959,8.65273469 C18.957551,8.63706122 19.1666939,8.62334694 19.3822041,8.61159184 C19.5786122,8.60081633 19.7289796,8.43232653 19.7182041,8.23542857 C19.706449,8.0395102 19.5374694,7.89159184 19.3420408,7.89991837 Z" id="Shape" fill-rule="nonzero"></path>
                        <path d="M19.3425306,10.3939592 C19.1911837,10.4027755 19.0427755,10.4115918 18.8973061,10.4218776 C18.700898,10.4355918 18.5529796,10.605551 18.5671837,10.8019592 C18.5804082,10.9900408 18.7366531,11.133551 18.9222857,11.133551 C18.9306122,11.133551 18.9389388,11.1330612 18.9477551,11.1325714 C19.0897959,11.1222857 19.2342857,11.1134694 19.3817143,11.1051429 C19.5781224,11.0948571 19.7284898,10.9268571 19.7182041,10.7299592 C19.7069388,10.533551 19.5340408,10.3846531 19.3425306,10.3939592 Z" id="Shape" fill-rule="nonzero"></path>
                    </g>
                </g>
            </g>
        </g>
    </g>
</svg>