<?xml version="1.0" encoding="UTF-8"?>
<svg width="22px" height="19px" viewBox="0 0 22 19" version="1.1" xmlns="http://www.w3.org/2000/svg" xmlns:xlink="http://www.w3.org/1999/xlink">
    <!-- Generator: sketchtool 51.2 (57519) - http://www.bohemiancoding.com/sketch -->
    <title>7F0BCE03-B913-423E-B4AF-59615F31B411</title>
    <desc>Created with sketchtool.</desc>
    <defs></defs>
    <g id="Landing-Page" stroke="none" stroke-width="1" fill="none" fill-rule="evenodd">
        <g id="Landing-Page---No-Fill" transform="translate(-16.000000, -3143.000000)">
            <g id="Footer" transform="translate(0.000000, 2875.000000)">
                <g id="ic-career" transform="translate(15.000000, 266.000000)">
                    <rect id="Rectangle" x="0" y="0" width="24" height="24"></rect>
                    <path d="M21.4202563,5.2416324 C21.8080019,5.24503028 22.0751428,5.50793551 22.1,5.93689022 C22.1,5.93803354 22.1,5.93803354 22.1,5.93917682 L22.1,18.804878 C22.1,19.8284211 21.2666324,20.6609756 20.2421875,20.6609756 L3.7578125,20.6609756 C2.73336758,20.6609756 1.9,19.8284211 1.9,18.804878 L1.9,5.92682927 C1.9,5.55084594 2.20691567,5.24146341 2.5859375,5.24146341 L7.7984375,5.24146341 L7.7984375,4.75609756 C7.7984375,3.73255454 8.63180508,2.9 9.65625,2.9 L14.34375,2.9 C15.3681949,2.9 16.2015625,3.73255454 16.2015625,4.75609756 L16.2015625,5.24146341 L21.4140625,5.24146341 C21.4181208,5.24155144 21.4194852,5.24158103 21.4205139,5.24163133 Z M9.1703125,5.24146341 L14.8296875,5.24146341 L14.8296875,4.75609756 C14.8296875,4.48863449 14.6115719,4.27073171 14.34375,4.27073171 L9.65625,4.27073171 C9.38842808,4.27073171 9.1703125,4.48863449 9.1703125,4.75609756 L9.1703125,5.24146341 Z M20.4622876,6.61219512 L3.53771245,6.61219512 L5.31340752,11.9339345 C5.37958295,12.1325199 5.56471394,12.2658537 5.77426148,12.2658537 L8.9703125,12.2658537 L8.9703125,11.7804878 C8.9703125,11.4019143 9.27740446,11.095122 9.65625,11.095122 L14.34375,11.095122 C14.7225955,11.095122 15.0296875,11.4019143 15.0296875,11.7804878 L15.0296875,12.2658537 L18.2257385,12.2658537 C18.4352861,12.2658537 18.620417,12.1325199 18.6866048,11.9338974 L20.4622876,6.61219512 Z M13.6578125,12.4658537 L10.3421875,12.4658537 L10.3421875,13.4365854 L13.6578125,13.4365854 L13.6578125,12.4658537 Z M20.728125,10.1496196 L19.9880821,12.3674617 C19.7349169,13.1265384 19.0265715,13.6365854 18.2257385,13.6365854 L15.0296875,13.6365854 L15.0296875,14.1219512 C15.0296875,14.5005247 14.7225955,14.8073171 14.34375,14.8073171 L9.65625,14.8073171 C9.27740446,14.8073171 8.9703125,14.5005247 8.9703125,14.1219512 L8.9703125,13.6365854 L5.77426148,13.6365854 C4.97342854,13.6365854 4.26508307,13.1265384 4.01192247,12.3674753 L3.271875,10.1496196 L3.271875,18.804878 C3.271875,19.0723411 3.48999058,19.2902439 3.7578125,19.2902439 L20.2421875,19.2902439 C20.5100094,19.2902439 20.728125,19.0723411 20.728125,18.804878 L20.728125,10.1496196 Z" id="Shape" stroke="#16B8B2" stroke-width="0.2" fill="#16B8B2" fill-rule="nonzero"></path>
                </g>
            </g>
        </g>
    </g>
</svg>