<?xml version="1.0" encoding="UTF-8"?>
<svg width="24px" height="24px" viewBox="0 0 24 24" version="1.1" xmlns="http://www.w3.org/2000/svg" xmlns:xlink="http://www.w3.org/1999/xlink">
    <!-- Generator: sketchtool 51.1 (57501) - http://www.bohemiancoding.com/sketch -->
    <title>B634DCC9-C1DC-4A87-AA51-8181EDFE6632</title>
    <desc>Created with sketchtool.</desc>
    <defs></defs>
    <g id="Burger-Menu" stroke="none" stroke-width="1" fill="none" fill-rule="evenodd">
        <g id="Burger-Menu---Visitor" transform="translate(-78.000000, -170.000000)">
            <g id="Menu" transform="translate(60.000000, 0.000000)">
                <g id="ic-daftar" transform="translate(15.000000, 167.000000)">
                    <rect id="Rectangle" x="0" y="0" width="30" height="30"></rect>
                    <g id="Group" transform="translate(3.000000, 3.000000)" fill="#F5821F">
                        <rect id="Rectangle" fill-opacity="0.2" x="0.979591837" y="1.95918367" width="8.32653061" height="21.0612245"></rect>
                        <path d="M17.4362449,1.53110204 L15.8556735,1.53110204 C15.6901224,0.71755102 14.9691429,0.102857143 14.107102,0.102857143 C13.2450612,0.102857143 12.5245714,0.71755102 12.3590204,1.53110204 L10.8137143,1.53110204 C10.6481633,0.71755102 9.92718367,0.102857143 9.06563265,0.102857143 C8.20359184,0.102857143 7.48261224,0.71755102 7.31706122,1.53110204 L5.7717551,1.53110204 C5.60620408,0.71755102 4.88522449,0.102857143 4.02318367,0.102857143 C3.16114286,0.102857143 2.44065306,0.71755102 2.27510204,1.53110204 L0.694530612,1.53110204 C0.497632653,1.53110204 0.33844898,1.69077551 0.33844898,1.88767347 L0.33844898,23.2574694 C0.33844898,23.4543673 0.497632653,23.613551 0.694530612,23.613551 L17.4367347,23.613551 C17.6331429,23.613551 17.7928163,23.4548571 17.7928163,23.2574694 L17.7928163,1.88767347 C17.7923265,1.69126531 17.6326531,1.53110204 17.4362449,1.53110204 Z M14.107102,0.816 C14.572898,0.816 14.9657143,1.1162449 15.1136327,1.53159184 L13.1005714,1.53159184 C13.2484898,1.1162449 13.6417959,0.816 14.107102,0.816 Z M9.06514286,0.816 C9.53044898,0.816 9.9237551,1.1162449 10.0716735,1.53159184 L8.05861224,1.53159184 C8.20604082,1.1162449 8.59934694,0.816 9.06514286,0.816 Z M4.02269388,0.816 C4.4884898,0.816 4.88130612,1.1162449 5.02922449,1.53159184 L3.01616327,1.53159184 C3.16408163,1.1162449 3.55738776,0.816 4.02269388,0.816 Z M17.0801633,22.900898 L1.05061224,22.900898 L1.05061224,2.2442449 L2.27510204,2.2442449 C2.44065306,3.05779592 3.16163265,3.6724898 4.02318367,3.6724898 C4.21959184,3.6724898 4.37926531,3.51281633 4.37926531,3.31591837 C4.37926531,3.11902041 4.21959184,2.95934694 4.02318367,2.95934694 C3.55787755,2.95934694 3.16457143,2.65959184 3.01665306,2.2437551 L7.31657143,2.2437551 C7.48212245,3.05730612 8.20310204,3.672 9.06514286,3.672 C9.26155102,3.672 9.42122449,3.51232653 9.42122449,3.31542857 C9.42122449,3.11853061 9.26155102,2.95885714 9.06514286,2.95885714 C8.59934694,2.95885714 8.20604082,2.65910204 8.05812245,2.24326531 L12.3585306,2.24326531 C12.5240816,3.05681633 13.2450612,3.6715102 14.1066122,3.6715102 C14.3035102,3.6715102 14.4631837,3.51183673 14.4631837,3.31493878 C14.4631837,3.11804082 14.3035102,2.95836735 14.1066122,2.95836735 C13.6408163,2.95836735 13.248,2.65861224 13.1000816,2.24277551 L17.0791837,2.24277551 L17.0791837,22.900898 L17.0801633,22.900898 Z" id="Shape" fill-rule="nonzero"></path>
                        <path d="M23.6169796,3.29926531 C23.616,3.26155102 23.6076735,3.22481633 23.5949388,3.18808163 C23.5915102,3.17828571 23.5885714,3.16946939 23.5841633,3.16016327 C23.5812245,3.15379592 23.5802449,3.14742857 23.5768163,3.14155102 L22.0780408,0.336 C22.0163265,0.219918367 21.8953469,0.147428571 21.7640816,0.147428571 C21.6323265,0.147428571 21.5118367,0.219428571 21.4496327,0.336 L19.9503673,3.14155102 C19.9469388,3.14742857 19.9459592,3.15379592 19.9430204,3.16016327 C19.9386122,3.16946939 19.9356735,3.17828571 19.9327347,3.18808163 C19.9195102,3.22432653 19.9116735,3.26106122 19.9102041,3.29926531 C19.9102041,3.30269388 19.9082449,3.30612245 19.9082449,3.30955102 L19.9082449,21.0093061 C19.9082449,21.2062041 20.0679184,21.3658776 20.2643265,21.3658776 L20.5802449,21.3658776 L20.5802449,23.2574694 C20.5802449,23.4543673 20.7399184,23.613551 20.9363265,23.613551 L22.5908571,23.613551 C22.7872653,23.613551 22.9469388,23.4548571 22.9469388,23.2574694 L22.9469388,21.3658776 L23.2628571,21.3658776 C23.4597551,21.3658776 23.6194286,21.2066939 23.6194286,21.0093061 L23.6194286,3.30955102 C23.6194286,3.30612245 23.6169796,3.30269388 23.6169796,3.29926531 Z M22.5913469,20.6532245 L22.1201633,20.6532245 L22.1201633,16.1196735 C22.2612245,16.0124082 22.3533061,15.8439184 22.3533061,15.6533878 C22.3533061,15.3276735 22.0893061,15.0636735 21.7640816,15.0636735 C21.4383673,15.0636735 21.1743673,15.3276735 21.1743673,15.6533878 C21.1743673,15.8444082 21.266449,16.0119184 21.4075102,16.1196735 L21.4075102,20.6532245 L20.9368163,20.6532245 L20.620898,20.6532245 L20.620898,10.0324898 L22.9067755,10.0324898 L22.9067755,20.6532245 L22.5913469,20.6532245 Z M22.9067755,5.75804082 L20.620898,5.75804082 L20.620898,3.66563265 L22.9067755,3.66563265 L22.9067755,5.75804082 Z M22.9067755,6.47020408 L22.9067755,7.53942857 L20.620898,7.53942857 L20.620898,6.47020408 L22.9067755,6.47020408 Z M20.620898,9.32081633 L20.620898,8.25159184 L22.9067755,8.25159184 L22.9067755,9.32081633 L20.620898,9.32081633 Z M21.7640816,1.2602449 L22.6687347,2.95346939 L20.8589388,2.95346939 L21.7640816,1.2602449 Z M22.2347755,22.900898 L21.292898,22.900898 L21.292898,21.3653878 L22.2347755,21.3653878 L22.2347755,22.900898 Z" id="Shape" fill-rule="nonzero"></path>
                        <path d="M6.57159184,6.41338776 L11.5586939,6.41338776 C11.755102,6.41338776 11.9147755,6.25420408 11.9147755,6.05681633 C11.9147755,5.86040816 11.755102,5.70073469 11.5586939,5.70073469 L6.57159184,5.70073469 C6.37469388,5.70073469 6.2155102,5.85991837 6.2155102,6.05681633 C6.2155102,6.25420408 6.37469388,6.41338776 6.57159184,6.41338776 Z" id="Shape" fill-rule="nonzero"></path>
                        <path d="M14.0522449,8.44702041 L4.07804082,8.44702041 C3.88163265,8.44702041 3.72146939,8.60669388 3.72146939,8.80408163 C3.72146939,9 3.88114286,9.16016327 4.07804082,9.16016327 L14.0522449,9.16016327 C14.2486531,9.16016327 14.4088163,9.0004898 14.4088163,8.80408163 C14.4083265,8.60669388 14.2486531,8.44702041 14.0522449,8.44702041 Z" id="Shape" fill-rule="nonzero"></path>
                        <path d="M14.0522449,11.1991837 L4.07804082,11.1991837 C3.88163265,11.1991837 3.72146939,11.3588571 3.72146939,11.5562449 C3.72146939,11.7521633 3.88114286,11.9123265 4.07804082,11.9123265 L14.0522449,11.9123265 C14.2486531,11.9123265 14.4088163,11.7526531 14.4088163,11.5562449 C14.4083265,11.3588571 14.2486531,11.1991837 14.0522449,11.1991837 Z" id="Shape" fill-rule="nonzero"></path>
                        <path d="M14.0522449,13.9513469 L4.07804082,13.9513469 C3.88163265,13.9513469 3.72146939,14.1110204 3.72146939,14.3079184 C3.72146939,14.5048163 3.88114286,14.6644898 4.07804082,14.6644898 L14.0522449,14.6644898 C14.2486531,14.6644898 14.4088163,14.5048163 14.4088163,14.3079184 C14.4088163,14.1110204 14.2486531,13.9513469 14.0522449,13.9513469 Z" id="Shape" fill-rule="nonzero"></path>
                        <path d="M14.0522449,16.7157551 L4.07804082,16.7157551 C3.88163265,16.7157551 3.72146939,16.874449 3.72146939,17.0718367 C3.72146939,17.2692245 3.88114286,17.4284082 4.07804082,17.4284082 L14.0522449,17.4284082 C14.2486531,17.4284082 14.4088163,17.2692245 14.4088163,17.0718367 C14.4088163,16.874449 14.2486531,16.7157551 14.0522449,16.7157551 Z" id="Shape" fill-rule="nonzero"></path>
                        <path d="M14.0522449,19.4620408 L10.5046531,19.4620408 C10.3077551,19.4620408 10.1485714,19.6212245 10.1485714,19.8186122 C10.1485714,20.0145306 10.3077551,20.1746939 10.5046531,20.1746939 L14.0522449,20.1746939 C14.2486531,20.1746939 14.4088163,20.0150204 14.4088163,19.8186122 C14.4083265,19.6212245 14.2486531,19.4620408 14.0522449,19.4620408 Z" id="Shape" fill-rule="nonzero"></path>
                    </g>
                </g>
            </g>
        </g>
    </g>
</svg>