<?xml version="1.0" encoding="UTF-8"?>
<svg width="24px" height="24px" viewBox="0 0 24 24" version="1.1" xmlns="http://www.w3.org/2000/svg" xmlns:xlink="http://www.w3.org/1999/xlink">
    <!-- Generator: sketchtool 51.1 (57501) - http://www.bohemiancoding.com/sketch -->
    <title>DFE1B898-5F3B-4821-9679-33AF9ECBD2B3</title>
    <desc>Created with sketchtool.</desc>
    <defs></defs>
    <g id="Burger-Menu" stroke="none" stroke-width="1" fill="none" fill-rule="evenodd">
        <g id="Burger-Menu---Visitor" transform="translate(-78.000000, -320.000000)">
            <g id="Menu" transform="translate(60.000000, 0.000000)">
                <g id="ic-etika-reseller" transform="translate(15.000000, 317.000000)">
                    <rect id="Rectangle" x="0" y="0" width="30" height="30"></rect>
                    <g id="Group" transform="translate(3.000000, 3.000000)">
                        <path d="M13.0741224,18.7425306 L4.62955102,18.7425306 C4.43265306,18.7425306 4.27297959,18.9017143 4.27297959,19.0986122 C4.27297959,19.2955102 4.43265306,19.4551837 4.62955102,19.4551837 L13.0741224,19.4551837 C13.2710204,19.4551837 13.4302041,19.2955102 13.4302041,19.0986122 C13.4302041,18.9017143 13.2710204,18.7425306 13.0741224,18.7425306 Z" id="Shape" fill="#F5821F" fill-rule="nonzero"></path>
                        <path d="M4.62955102,16.2484898 L9.92277551,16.2484898 C10.1196735,16.2484898 10.2793469,16.0893061 10.2793469,15.8924082 C10.2793469,15.6955102 10.1196735,15.5353469 9.92277551,15.5353469 L4.62955102,15.5353469 C4.43265306,15.5353469 4.27297959,15.6955102 4.27297959,15.8924082 C4.27297959,16.0893061 4.43265306,16.2484898 4.62955102,16.2484898 Z" id="Shape" fill="#F5821F" fill-rule="nonzero"></path>
                        <path d="M4.62955102,13.0427755 L6.30563265,13.0427755 C6.50253061,13.0427755 6.66171429,12.8835918 6.66171429,12.6857143 C6.66171429,12.4893061 6.50253061,12.3296327 6.30563265,12.3296327 L4.62955102,12.3296327 C4.43265306,12.3296327 4.27297959,12.4888163 4.27297959,12.6857143 C4.27297959,12.8835918 4.43265306,13.0427755 4.62955102,13.0427755 Z" id="Shape" fill="#F5821F" fill-rule="nonzero"></path>
                        <path d="M22.2857143,11.9985306 C23.1208163,10.7818776 23.5606531,9.3962449 23.5606531,7.97926531 C23.5606531,3.69208163 19.6124082,0.203755102 14.76,0.203755102 C9.90710204,0.203755102 5.95836735,3.69208163 5.95836735,7.97926531 C5.95836735,8.1717551 5.96914286,8.36081633 5.98481633,8.54889796 C2.53714286,9.60244898 0.0504489796,12.4927347 0.0504489796,15.892898 C0.0504489796,17.3093878 0.490285714,18.6955102 1.32489796,19.9111837 L0.524081633,22.7911837 C0.49077551,22.9116735 0.522612245,23.0409796 0.608816327,23.131102 C0.694040816,23.2226939 0.821387755,23.2613878 0.943346939,23.234449 L4.24653061,22.5124898 C5.63559184,23.2687347 7.22497959,23.6674286 8.85159184,23.6674286 C13.704,23.6674286 17.6527347,20.1800816 17.6527347,15.8924082 C17.6527347,15.7013878 17.6404898,15.5137959 17.6238367,15.3262041 C18.2282449,15.1410612 18.8125714,14.9000816 19.3645714,14.5998367 L22.6672653,15.3217959 C22.7897143,15.3492245 22.9165714,15.309551 23.0022857,15.218449 C23.088,15.1268571 23.1198367,14.9980408 23.0865306,14.8785306 L22.2857143,11.9985306 Z" id="Path" fill-opacity="0.2" fill="#F5821F"></path>
                        <path d="M22.2857143,11.9985306 C23.1208163,10.7818776 23.5606531,9.3962449 23.5606531,7.97926531 C23.5606531,3.69208163 19.6124082,0.203755102 14.76,0.203755102 C9.90710204,0.203755102 5.95836735,3.69208163 5.95836735,7.97926531 C5.95836735,8.1717551 5.96914286,8.36081633 5.98481633,8.54889796 C2.53714286,9.60244898 0.0504489796,12.4927347 0.0504489796,15.892898 C0.0504489796,17.3093878 0.490285714,18.6955102 1.32489796,19.9111837 L0.524081633,22.7911837 C0.49077551,22.9116735 0.522612245,23.0409796 0.608816327,23.131102 C0.694040816,23.2226939 0.821387755,23.2613878 0.943346939,23.234449 L4.24653061,22.5124898 C5.63559184,23.2687347 7.22497959,23.6674286 8.85159184,23.6674286 C13.704,23.6674286 17.6527347,20.1800816 17.6527347,15.8924082 C17.6527347,15.7013878 17.6404898,15.5137959 17.6238367,15.3262041 C18.2282449,15.1410612 18.8125714,14.9000816 19.3645714,14.5998367 L22.6672653,15.3217959 C22.7897143,15.3492245 22.9165714,15.309551 23.0022857,15.218449 C23.088,15.1268571 23.1198367,14.9980408 23.0865306,14.8785306 L22.2857143,11.9985306 Z M16.9405714,15.892898 C16.9405714,19.7872653 13.3116735,22.9557551 8.85159184,22.9557551 C7.30040816,22.9557551 5.78742857,22.5653878 4.47673469,21.8262857 C4.42285714,21.7959184 4.36261224,21.7802449 4.30187755,21.7802449 C4.27689796,21.7802449 4.25093878,21.7831837 4.22595918,21.7880816 L1.36946939,22.4120816 L2.05714286,19.9395918 C2.08604082,19.8357551 2.06644898,19.7245714 2.00326531,19.636898 C1.19216327,18.5084082 0.763591837,17.2143673 0.763591837,15.8924082 C0.763591837,12.8478367 2.98334694,10.252898 6.08130612,9.26204082 C6.77583673,12.940898 10.4022857,15.7547755 14.7604898,15.7547755 C15.4951837,15.7547755 16.2210612,15.6690612 16.9258776,15.5098776 C16.9342041,15.6362449 16.9405714,15.7640816 16.9405714,15.892898 Z M19.3861224,13.8754286 C19.2994286,13.8568163 19.2112653,13.8700408 19.1348571,13.9131429 C17.8241633,14.6522449 16.3111837,15.0426122 14.7604898,15.0426122 C10.3004082,15.0426122 6.6715102,11.8741224 6.6715102,7.97926531 C6.6715102,4.08489796 10.3004082,0.916408163 14.7604898,0.916408163 C19.2200816,0.916408163 22.8489796,4.08489796 22.8489796,7.97926531 C22.8489796,9.30073469 22.4199184,10.5957551 21.6093061,11.7237551 C21.5461224,11.8124082 21.5260408,11.923102 21.5554286,12.0274286 L22.243102,14.4999184 L19.3861224,13.8754286 Z" id="Shape" fill="#F5821F" fill-rule="nonzero"></path>
                        <path d="M19.3861224,13.8754286 C19.2994286,13.8568163 19.2112653,13.8700408 19.1348571,13.9131429 C17.8241633,14.6522449 16.3111837,15.0426122 14.7604898,15.0426122 C10.3004082,15.0426122 6.6715102,11.8741224 6.6715102,7.97926531 C6.6715102,4.08489796 10.3004082,0.916408163 14.7604898,0.916408163 C19.2200816,0.916408163 22.8489796,4.08489796 22.8489796,7.97926531 C22.8489796,9.30073469 22.4199184,10.5957551 21.6093061,11.7237551 C21.5461224,11.8124082 21.5260408,11.923102 21.5554286,12.0274286 L22.243102,14.4999184 L19.3861224,13.8754286 Z" id="Path" fill="#FFFFFF"></path>
                        <path d="M16.9298415,4.02906122 C16.1051588,4.02906122 15.3216857,4.39406059 14.7854702,5.00729878 C14.2497453,4.39406059 13.4667628,4.02906122 12.6415895,4.02906122 C11.0712091,4.02906122 9.79371135,5.30655901 9.79371135,6.87742995 C9.79371135,9.97599986 14.4033001,12.8282933 14.5990458,12.9475068 C14.6564449,12.9828293 14.7212028,13 14.7849796,13 C14.8497375,13 14.9140049,12.9828293 14.9709134,12.9475068 C15.1671496,12.8282933 19.7762478,9.97599986 19.7762478,6.87742995 C19.777229,5.3070496 18.4997312,4.02906122 16.9298415,4.02906122 Z M14.7854702,12.2194704 C13.9401827,11.6631408 10.50703,9.25924707 10.50703,6.87693936 C10.50703,5.70001263 11.4641722,4.74237988 12.6415895,4.74237988 C13.3912118,4.74237988 14.0947187,5.14515472 14.4783605,5.79469661 C14.6073858,6.01153763 14.9640451,6.01153763 15.0930705,5.79469661 C15.4762217,5.14564531 16.1802191,4.74237988 16.9298415,4.74237988 C18.1062776,4.74237988 19.0639104,5.69952204 19.0639104,6.87693936 C19.0634198,9.25630352 15.6307577,11.6636313 14.7854702,12.2194704 Z" id="Shape" fill="#F5821F" fill-rule="nonzero"></path>
                    </g>
                </g>
            </g>
        </g>
    </g>
</svg>