<?xml version="1.0" encoding="UTF-8"?>
<svg width="18px" height="18px" viewBox="0 0 18 18" version="1.1" xmlns="http://www.w3.org/2000/svg" xmlns:xlink="http://www.w3.org/1999/xlink">
    <!-- Generator: sketchtool 51.1 (57501) - http://www.bohemiancoding.com/sketch -->
    <title>D3813970-9DF9-47FA-947B-0E746E2AE57E</title>
    <desc>Created with sketchtool.</desc>
    <defs></defs>
    <g id="Buku-Alamat" stroke="none" stroke-width="1" fill="none" fill-rule="evenodd">
        <g transform="translate(-48.000000, -245.000000)" id="Group-1">
            <g transform="translate(0.000000, 65.000000)">
                <g id="cta-ubah" transform="translate(48.000000, 180.000000)">
                    <g id="ic-edit">
                        <rect id="Rectangle" x="0" y="0" width="18" height="18"></rect>
                        <path d="M14.25,10.995 C14.25,10.5807864 14.5857864,10.245 15,10.245 C15.4142136,10.245 15.75,10.5807864 15.75,10.995 L15.75,15 C15.75,16.2426407 14.7426407,17.25 13.5,17.25 L3,17.25 C1.75735931,17.25 0.75,16.2426407 0.75,15 L0.75,4.5 C0.75,3.25735931 1.75735931,2.25 3,2.25 L7.005,2.25 C7.41921356,2.25 7.755,2.58578644 7.755,3 C7.755,3.41421356 7.41921356,3.75 7.005,3.75 L3,3.75 C2.58578644,3.75 2.25,4.08578644 2.25,4.5 L2.25,15 C2.25,15.4142136 2.58578644,15.75 3,15.75 L13.5,15.75 C13.9142136,15.75 14.25,15.4142136 14.25,15 L14.25,10.995 Z M14.0303301,0.969669914 L17.0303301,3.96966991 C17.3232233,4.26256313 17.3232233,4.73743687 17.0303301,5.03033009 L9.53033009,12.5303301 C9.3896778,12.6709824 9.19891237,12.75 9,12.75 L6,12.75 C5.58578644,12.75 5.25,12.4142136 5.25,12 L5.25,9 C5.25,8.80108763 5.32901763,8.6103222 5.46966991,8.46966991 L12.9696699,0.969669914 C13.2625631,0.676776695 13.7374369,0.676776695 14.0303301,0.969669914 Z M6.75,9.31066017 L6.75,11.25 L8.68933983,11.25 L15.4393398,4.5 L13.5,2.56066017 L6.75,9.31066017 Z" id="Combined-Shape" fill="#16B8B2" fill-rule="nonzero"></path>
                    </g>
                </g>
            </g>
        </g>
    </g>
</svg>