<?xml version="1.0" encoding="UTF-8"?>
<svg width="18px" height="16px" viewBox="0 0 18 16" version="1.1" xmlns="http://www.w3.org/2000/svg" xmlns:xlink="http://www.w3.org/1999/xlink">
    <!-- Generator: sketchtool 51.2 (57519) - http://www.bohemiancoding.com/sketch -->
    <title>C9B6F265-03D0-493F-A2A7-CADDEDCC3FA7</title>
    <desc>Created with sketchtool.</desc>
    <defs></defs>
    <g id="Profile" stroke="none" stroke-width="1" fill="none" fill-rule="evenodd">
        <g id="Profile---Saldo---Tabs-2" transform="translate(-311.000000, -587.000000)">
            <g id="Floating-Button" transform="translate(295.000000, 570.000000)">
                <g id="ic-filter" transform="translate(13.000000, 13.000000)">
                    <rect id="Rectangle" x="0" y="0" width="24" height="24"></rect>
                    <path d="M9.54588341,12.6603586 L3.19498146,5.31649517 C2.74533878,4.796551 3.12327376,4 3.81961136,4 L20.1803886,4 C20.8767262,4 21.2546612,4.796551 20.8050185,5.31649517 L14.4541166,12.6603586 L14.4541166,19.1990195 C14.4541166,19.7936868 13.8141546,20.1804584 13.2702396,19.9145151 L9.99808417,18.3146183 C9.72094567,18.1791134 9.54588341,17.9021208 9.54588341,17.5991227 L9.54588341,12.6603586 Z M18.4172665,5.59989679 L5.58273352,5.59989679 L10.9885522,11.8509134 C11.1134374,11.9953245 11.1819611,12.178334 11.1819611,12.3674602 L11.1819611,17.1047274 L12.8180389,17.9046758 L12.8180389,12.3674602 C12.8180389,12.178334 12.8865626,11.9953245 13.0114478,11.8509134 L18.4172665,5.59989679 Z" id="Shape" fill="#FFFFFF" fill-rule="nonzero"></path>
                </g>
            </g>
        </g>
    </g>
</svg>