<?xml version="1.0" encoding="UTF-8"?>
<svg width="20px" height="20px" viewBox="0 0 20 20" version="1.1" xmlns="http://www.w3.org/2000/svg" xmlns:xlink="http://www.w3.org/1999/xlink">
    <!-- Generator: sketchtool 51.2 (57519) - http://www.bohemiancoding.com/sketch -->
    <title>4A84BC22-00F4-47F6-AD13-C90F3CCD318A</title>
    <desc>Created with sketchtool.</desc>
    <defs></defs>
    <g id="Landing-Page" stroke="none" stroke-width="1" fill="none" fill-rule="evenodd">
        <g id="Landing-Page---No-Fill" transform="translate(-17.000000, -3187.000000)">
            <g id="Footer" transform="translate(0.000000, 2875.000000)">
                <g id="ic-faq" transform="translate(15.000000, 310.000000)">
                    <rect id="Rectangle" x="0" y="0" width="24" height="24"></rect>
                    <g id="faq" transform="translate(2.000000, 2.000000)" fill="#16B8B2" fill-rule="nonzero">
                        <circle id="Oval" cx="9.47368421" cy="14.7368421" r="1.05263158"></circle>
                        <path d="M10,0 C4.47328125,0 0,4.47253906 0,10 C0,15.5267188 4.47253906,20 10,20 C15.5267188,20 20,15.5274609 20,10 C20,4.47328125 15.5274609,0 10,0 Z M10,18.4375 C5.33683594,18.4375 1.5625,14.6637891 1.5625,10 C1.5625,5.33683594 5.33621094,1.5625 10,1.5625 C14.6631641,1.5625 18.4375,5.33621094 18.4375,10 C18.4375,14.6631641 14.6637891,18.4375 10,18.4375 Z" id="Shape"></path>
                        <path d="M9.47368421,4.21052632 C7.73242105,4.21052632 6.31578947,5.64964411 6.31578947,7.41854637 C6.31578947,7.86149373 6.66923684,8.22055138 7.10526316,8.22055138 C7.54128947,8.22055138 7.89473684,7.86149373 7.89473684,7.41854637 C7.89473684,6.53409524 8.60305263,5.81453634 9.47368421,5.81453634 C10.3443158,5.81453634 11.0526316,6.53409524 11.0526316,7.41854637 C11.0526316,8.30299749 10.3443158,9.02255639 9.47368421,9.02255639 C9.03765789,9.02255639 8.68421053,9.38161404 8.68421053,9.8245614 L8.68421053,11.8295739 C8.68421053,12.2725213 9.03765789,12.6315789 9.47368421,12.6315789 C9.90971053,12.6315789 10.2631579,12.2725213 10.2631579,11.8295739 L10.2631579,10.5250727 C11.6236579,10.1680602 12.6315789,8.91063659 12.6315789,7.41854637 C12.6315789,5.64964411 11.2149474,4.21052632 9.47368421,4.21052632 Z" id="Shape"></path>
                    </g>
                </g>
            </g>
        </g>
    </g>
</svg>