<?xml version="1.0" encoding="UTF-8"?>
<svg width="55px" height="53px" viewBox="0 0 55 53" version="1.1" xmlns="http://www.w3.org/2000/svg" xmlns:xlink="http://www.w3.org/1999/xlink">
    <!-- Generator: sketchtool 51.2 (57519) - http://www.bohemiancoding.com/sketch -->
    <title>DA11CAB8-3E5B-46E1-B270-0BC441F053E9</title>
    <desc>Created with sketchtool.</desc>
    <defs></defs>
    <g id="Upgrade-Reseller" stroke="none" stroke-width="1" fill="none" fill-rule="evenodd">
        <g id="Profile---Upgrade-Reseller" transform="translate(-28.000000, -873.000000)">
            <g id="ic-free-ongkir" transform="translate(15.000000, 859.000000)">
                <rect id="Rectangle" x="0" y="0" width="80" height="80"></rect>
                <g id="Group" transform="translate(13.000000, 14.000000)">
                    <path d="M17.5270408,50.9660204 C15.2114286,50.9660204 13.3268367,49.0814286 13.3268367,46.7669388 C13.3268367,44.4513265 15.2103061,42.5667347 17.5270408,42.5667347 C19.8437755,42.5667347 21.7272449,44.4513265 21.7272449,46.7669388 C21.7272449,49.082551 19.8437755,50.9660204 17.5270408,50.9660204 Z" id="Path" fill="#E6E6E6"></path>
                    <path d="M43.6116327,50.9660204 C41.294898,50.9660204 39.4103061,49.0814286 39.4103061,46.7669388 C39.4103061,44.4513265 41.294898,42.5667347 43.6116327,42.5667347 C45.9272449,42.5667347 47.8118367,44.4513265 47.8118367,46.7669388 C47.8118367,49.082551 45.9272449,50.9660204 43.6116327,50.9660204 Z" id="Path" fill="#E6E6E6"></path>
                    <circle id="Oval" fill="#8C8C8C" fill-rule="nonzero" cx="17.5270408" cy="46.7658163" r="1"></circle>
                    <circle id="Oval" fill="#8C8C8C" fill-rule="nonzero" cx="43.6116327" cy="46.7658163" r="1"></circle>
                    <path d="M41.3184694,34.4402041 L37.4415306,34.4402041 C36.9914286,34.4402041 36.6243878,34.805 36.6243878,35.2573469 C36.6243878,35.7096939 36.9903061,36.0744898 37.4415306,36.0744898 L41.3184694,36.0744898 C41.7696939,36.0744898 42.1356122,35.7096939 42.1356122,35.2573469 C42.1356122,34.805 41.7696939,34.4402041 41.3184694,34.4402041 Z" id="Shape" fill="#8C8C8C" fill-rule="nonzero"></path>
                    <path d="M54.2423469,35.7456122 C54.2423469,35.7063265 54.2255102,35.6726531 54.219898,35.6333673 L54.2109184,32.5185714 C54.2064286,30.5666327 52.6136735,28.9783673 50.6606122,28.9783673 L48.8837755,28.9783673 L44.187449,16.9670408 C43.6509184,15.5942857 42.3533673,14.7086735 40.8807143,14.7086735 L38.0128571,14.7086735 C37.8220408,11.0629592 36.3740816,7.75397959 34.0854082,5.19928571 C34.0618367,5.16336735 34.0506122,5.12295918 34.0203061,5.08928571 C33.9911224,5.05673469 33.9518367,5.03989796 33.9181633,5.01408163 C31.0828571,1.94867347 27.0409184,0.0135714286 22.5443878,0.0135714286 C14.267449,0.0135714286 7.50469388,6.5372449 7.07591837,14.7086735 L3.91734694,14.7086735 C1.95979592,14.7086735 0.365918367,16.3014286 0.365918367,18.260102 L0.365918367,43.8553061 C0.365918367,45.8139796 1.95979592,47.4078571 3.91959184,47.4078571 L11.7329592,47.4078571 C12.0528571,50.3228571 14.5289796,52.6003061 17.5292857,52.6003061 C20.5295918,52.6003061 23.0045918,50.3228571 23.3256122,47.4078571 L37.8186735,47.4078571 C38.1385714,50.3228571 40.6146939,52.6003061 43.615,52.6003061 C46.6153061,52.6003061 49.0903061,50.3228571 49.4113265,47.4078571 L50.6931633,47.4078571 C52.6529592,47.4078571 54.2457143,45.8139796 54.2457143,43.8530612 L54.2389796,41.4117347 C54.2389796,41.4005102 54.2457143,41.3904082 54.2457143,41.3791837 L54.2457143,35.7456122 L54.2423469,35.7456122 Z M52.6013265,40.5620408 L52.0614286,40.5620408 C50.9591837,40.5620408 50.0612245,39.6640816 50.0612245,38.5629592 C50.0612245,37.4607143 50.9580612,36.5627551 52.0614286,36.5627551 L52.5912245,36.5627551 L52.6013265,40.5620408 Z M17.5270408,50.9660204 C15.2114286,50.9660204 13.3268367,49.0814286 13.3268367,46.7669388 C13.3268367,44.4513265 15.2103061,42.5667347 17.5270408,42.5667347 C19.8437755,42.5667347 21.7272449,44.4513265 21.7272449,46.7669388 C21.7272449,49.082551 19.8437755,50.9660204 17.5270408,50.9660204 Z M32.3063265,45.7735714 L23.2694898,45.7735714 C22.7958163,43.0303061 20.405,40.932449 17.5270408,40.932449 C14.6490816,40.932449 12.2582653,43.0291837 11.7845918,45.7735714 L3.91734694,45.7735714 C2.85887755,45.7735714 1.99683673,44.9126531 1.99683673,43.8541837 L1.99683673,37.7042857 L32.3052041,37.7042857 L32.3052041,45.7735714 L32.3063265,45.7735714 Z M1.99795918,36.0733673 L1.99795918,18.260102 C1.99795918,17.2016327 2.85887755,16.3407143 3.91622449,16.3407143 L7.07479592,16.3407143 C7.26561224,19.9864286 8.71469388,23.2954082 11.0033673,25.8512245 C11.0269388,25.8860204 11.0381633,25.9264286 11.0673469,25.9589796 C11.0954082,25.9892857 11.132449,26.0027551 11.1638776,26.0285714 C13.9991837,29.0984694 18.0444898,31.0358163 22.5432653,31.0358163 C26.2406122,31.0358163 29.6371429,29.7315306 32.3063265,27.5629592 L32.3063265,36.0744898 L1.99795918,36.0744898 L1.99795918,36.0733673 Z M43.6116327,50.9660204 C41.294898,50.9660204 39.4103061,49.0814286 39.4103061,46.7669388 C39.4103061,44.4513265 41.294898,42.5667347 43.6116327,42.5667347 C45.9272449,42.5667347 47.8118367,44.4513265 47.8118367,46.7669388 C47.8118367,49.082551 45.9272449,50.9660204 43.6116327,50.9660204 Z M50.6897959,45.7735714 L49.3540816,45.7735714 C48.8804082,43.0303061 46.4895918,40.932449 43.6116327,40.932449 C40.7336735,40.932449 38.3428571,43.0291837 37.8691837,45.7735714 L33.9383673,45.7735714 L33.9383673,26.0106122 C36.310102,23.4345918 37.8164286,20.0616327 38.0117347,16.3407143 L40.8795918,16.3407143 C41.6742857,16.3407143 42.3758163,16.82 42.6665306,17.5619388 L47.1293878,28.9783673 L37.4404082,28.9783673 C36.9903061,28.9783673 36.6232653,29.3431633 36.6232653,29.7943878 C36.6232653,30.2456122 36.9891837,30.6115306 37.4404082,30.6115306 L50.6594898,30.6115306 C51.7134694,30.6115306 52.5755102,31.4713265 52.5766327,32.5253061 L52.5833673,34.9307143 L52.0591837,34.9307143 C50.0567347,34.9307143 48.4269388,36.5605102 48.4269388,38.5640816 C48.4269388,40.5665306 50.0567347,42.1963265 52.0591837,42.1963265 L52.6035714,42.1963265 L52.6080612,43.8564286 C52.6103061,44.9137755 51.7493878,45.7735714 50.6897959,45.7735714 Z" id="Shape" fill="#8C8C8C" fill-rule="nonzero"></path>
                    <circle id="Oval" fill="#FFFFFF" cx="22.5" cy="15.5" r="14"></circle>
                    <path d="M14,18.9149606 L14,11.0913386 C14,10.4818898 14.4818898,10 15.0913386,10 L18.5354331,10 C19.7968504,10 20.7748031,10.3543307 21.4267717,11.0062992 C21.9795276,11.5590551 22.2771654,12.3385827 22.2771654,13.2740157 L22.2771654,13.3023622 C22.2771654,14.8614173 21.4976378,15.8251969 20.2929134,16.3212598 L21.8094488,18.1637795 C22.0220472,18.4330709 22.1637795,18.6598425 22.1637795,19 C22.1637795,19.6094488 21.6535433,20.0062992 21.1291339,20.0062992 C20.6330709,20.0062992 20.3070866,19.7653543 20.0519685,19.4393701 L17.9259843,16.7464567 L16.1826772,16.7464567 L16.1826772,18.9149606 C16.1826772,19.5244094 15.7007874,20.0062992 15.0913386,20.0062992 C14.4818898,20.0062992 14,19.5244094 14,18.9149606 Z M16.1826772,14.8188976 L18.3937008,14.8188976 C19.4566929,14.8188976 20.0661417,14.2519685 20.0661417,13.415748 L20.0661417,13.3874016 C20.0661417,12.4519685 19.4141732,11.9700787 18.3511811,11.9700787 L16.1826772,11.9700787 L16.1826772,14.8188976 Z M24.0204724,21.1968504 L24.0204724,13.3165354 C24.0204724,12.7212598 24.5023622,12.2393701 25.0976378,12.2393701 C25.6929134,12.2393701 26.1748031,12.7212598 26.1748031,13.3165354 L26.1748031,13.415748 C26.6992126,12.7070866 27.4220472,12.1826772 28.5417323,12.1826772 C30.3133858,12.1826772 32,13.5716535 32,16.1086614 L32,16.1370079 C32,18.6740157 30.3417323,20.0629921 28.5417323,20.0629921 C27.3937008,20.0629921 26.6850394,19.5385827 26.1748031,18.9291339 L26.1748031,21.1968504 C26.1748031,21.792126 25.6929134,22.2740157 25.0976378,22.2740157 C24.5023622,22.2740157 24.0204724,21.792126 24.0204724,21.1968504 Z M27.9889764,18.2346457 C28.9952756,18.2346457 29.8456693,17.4125984 29.8456693,16.1370079 L29.8456693,16.1086614 C29.8456693,14.8472441 28.9952756,14.0110236 27.9889764,14.0110236 C26.9826772,14.0110236 26.1464567,14.8472441 26.1464567,16.1086614 L26.1464567,16.1370079 C26.1464567,17.3984252 26.9826772,18.2346457 27.9889764,18.2346457 Z" id="Rp" fill="#16B8B2"></path>
                    <path d="M30.5,3.5 L13.4023438,26.7412109" id="Line" stroke="#8C8C8C" stroke-width="1.5" stroke-linecap="square"></path>
                </g>
            </g>
        </g>
    </g>
</svg>