<?xml version="1.0" encoding="UTF-8"?>
<svg width="126px" height="124px" viewBox="0 0 126 124" version="1.1" xmlns="http://www.w3.org/2000/svg" xmlns:xlink="http://www.w3.org/1999/xlink">
    <!-- Generator: sketchtool 51.2 (57519) - http://www.bohemiancoding.com/sketch -->
    <title>F74A0218-484C-475A-9901-D5269A6DB7E4</title>
    <desc>Created with sketchtool.</desc>
    <defs></defs>
    <g id="Landing-Page" stroke="none" stroke-width="1" fill="none" fill-rule="evenodd">
        <g id="ic-hadiah-langsung" transform="translate(-7.000000, -8.000000)">
            <rect id="Rectangle" x="0" y="0" width="140" height="140"></rect>
            <g id="Group" transform="translate(7.000000, 8.400000)">
                <path d="M83.8045169,55.0182888 C82.5681214,54.9867883 81.2529746,54.8686613 79.9745783,54.6114071 C79.4180691,54.4932801 78.8431845,54.6350325 78.3969271,54.9920384 C77.9559198,55.3464193 77.6934154,55.8819282 77.6855403,56.4489376 C77.6540398,58.1630911 77.3757852,59.5254887 77.06603,60.5256303 C68.0883809,51.4324793 65.7100914,38.6248915 65.1089564,33.7633108 L65.5210883,33.7633108 C67.6079979,33.7633108 69.4980293,32.9731727 70.9706788,31.7131517 L73.4172194,32.6187918 C73.7794754,36.3542288 75.5461298,48.2640516 83.8045169,55.0182888 Z" id="Path" fill="#E6E6E6"></path>
                <path d="M48.9544381,60.5203802 C48.6420579,59.5176136 48.3638033,58.160466 48.3349278,56.4436875 C48.3218026,55.8766781 48.0619233,55.3411692 47.620916,54.9867883 C47.1772836,54.6297824 46.5971489,54.4906551 46.0432647,54.606157 C44.7674936,54.8660363 43.4523467,54.9841633 42.2159512,55.0130387 C50.4769634,48.2588015 52.2436177,36.3358535 52.6058738,32.6030415 L55.031414,31.7026516 C56.5066885,32.9626725 58.3940949,33.7528106 60.4836296,33.7528106 L60.9167618,33.7528106 C60.3208769,38.6091413 57.9609627,51.4036038 48.9544381,60.5203802 Z" id="Path" fill="#E6E6E6"></path>
                <path d="M30.7103851,26.4263139 C31.4453973,24.1267757 31.5215236,21.7117356 31.0148901,19.3701967 C33.293428,20.0894587 36.0392236,20.47009 38.8138947,20.47009 C41.8983209,20.47009 44.9853722,20.0264576 47.3872871,19.1339428 L52.3433694,17.2964123 C52.1674915,17.9762986 52.0414894,18.6745602 52.0414894,19.4121974 L52.0414894,25.3264207 C52.0414894,26.4525644 52.2724932,27.5262072 52.6741249,28.5079735 L46.05639,30.9623893 C42.1319498,32.4219135 35.4958396,32.4192885 31.5661493,30.9623893 C30.3113785,30.4977565 29.804745,30.0646244 29.620992,29.8546209 L30.7103851,26.4263139 Z" id="Path" fill="#E6E6E6"></path>
                <path d="M69.4560286,27.6994601 C68.6448901,29.0356073 67.193241,29.9412473 65.5210883,29.9412473 L60.4783795,29.9412473 C58.8062267,29.9412473 57.3519526,29.0356073 56.5408141,27.6994601 L56.5408141,17.0339079 C57.3519526,15.6977607 58.8036017,14.7947457 60.4783795,14.7947457 L65.5210883,14.7947457 C67.193241,14.7947457 68.6448901,15.6977607 69.4560286,17.0339079 L69.4560286,27.6994601 Z" id="Path"></path>
                <path d="M73.3227178,28.5053485 C73.7243495,27.5235821 73.9553534,26.4499393 73.9553534,25.3237956 L73.9553534,19.4095724 C73.9553534,18.6745602 73.8319763,17.9736735 73.6534733,17.2937872 L78.6121807,19.1313178 C81.0167206,20.0238326 84.0985218,20.467465 87.1829481,20.467465 C89.9549941,20.467465 92.7034147,20.0868336 94.9819526,19.3675717 C94.4779442,21.7117356 94.5514454,24.1267757 95.2864576,26.4236889 L96.3784758,29.8546209 C96.1658473,30.0882497 95.606713,30.526632 94.4306934,30.9597642 C90.5062533,32.4192885 83.870143,32.4166634 79.9378277,30.9597642 L73.3227178,28.5053485 Z" id="Path" fill="#E6E6E6"></path>
                <polygon id="Path" fill="#16B8B2" points="34.0310652 106.637146 29.4372389 104.586987 27.5550827 103.746973 27.5550827 42.7409599 34.0310652 45.636383"></polygon>
                <polygon id="Path" fill="#16B8B2" points="98.4575103 103.744348 94.0395619 105.715756 91.9789027 106.637146 91.9789027 45.6337579 98.4575103 42.7383349"></polygon>
                <path d="M125.920716,28.660226 C125.915466,28.6366006 125.904966,28.6208504 125.899716,28.6024751 C125.84984,28.4580977 125.789464,28.3268455 125.710713,28.1982184 C125.687088,28.1588427 125.658212,28.1273422 125.631962,28.0879665 C125.561085,27.9882149 125.479709,27.8963383 125.390458,27.8097119 C125.348457,27.7703362 125.306456,27.7362107 125.261831,27.7020851 C125.217205,27.6653345 125.180454,27.6259588 125.133203,27.5944583 C125.078077,27.5577077 125.017701,27.5393324 124.959951,27.5104569 C124.925825,27.4947067 124.904825,27.4684562 124.870699,27.455331 L99.8094078,16.2595201 L99.8776589,16.0337663 C100.192664,15.414256 100.279291,14.8419965 100.279291,14.4141144 C100.279291,13.2748455 99.6912808,11.1511852 95.7563405,9.68903593 C92.2020314,8.368639 87.1514475,8.03263342 82.8148755,8.66789397 L63.7780593,0.165377747 C63.2845511,-0.0551259156 62.7175417,-0.0551259156 62.2214085,0.165377747 L43.1845923,8.66789397 C38.8506453,8.03263342 33.8000614,8.368639 30.2405023,9.68903593 C26.3055619,11.1511852 25.7175522,13.2748455 25.7175522,14.4141144 C25.7175522,14.8419965 25.8041786,15.414256 26.1191838,16.0337663 L26.1848099,16.2595201 L1.12876875,27.455331 C1.08676805,27.4737063 1.06051761,27.5052068 1.02114196,27.5209571 C0.971266132,27.5498326 0.916140217,27.5655828 0.868889432,27.5944583 C0.826888734,27.6207088 0.798013255,27.6548343 0.7586376,27.6863349 C0.700886641,27.7335856 0.645760726,27.7755863 0.593259854,27.8280872 C0.519758633,27.8963383 0.456757586,27.9750896 0.396381584,28.053841 C0.354380886,28.1089669 0.312380188,28.1640928 0.275629578,28.2218437 C0.220503662,28.3163453 0.178502965,28.418722 0.136502267,28.5210987 C0.115501918,28.5762246 0.0866264388,28.6261005 0.0735012208,28.6864765 C0.026250436,28.8518542 0,29.019857 0,29.1957349 L0,94.3808176 C0,95.1342051 0.441007325,95.8193415 1.13139379,96.1264716 L24.8617879,106.726398 L27.2400774,107.786915 L62.2214085,123.4138 C62.252909,123.42955 62.2922846,123.4243 62.3264102,123.437425 C62.5390387,123.518802 62.7569174,123.573927 62.9826711,123.576553 C62.9879212,123.576553 62.9905462,123.581803 62.9984214,123.581803 C62.9984214,123.581803 62.9984214,123.581803 63.0010464,123.581803 C63.0036715,123.581803 63.0036715,123.581803 63.0036715,123.581803 C63.0089215,123.581803 63.0115466,123.576553 63.0194217,123.576553 C63.2451755,123.573927 63.4656791,123.521427 63.6756826,123.437425 C63.7098082,123.4243 63.7491838,123.42955 63.7806844,123.4138 L93.8348085,109.989327 L101.140305,106.726398 C101.14293,106.723773 101.14293,106.723773 101.145555,106.723773 L124.868074,96.1264716 C125.555835,95.8193415 125.999468,95.1342051 125.999468,94.3808176 L125.999468,29.1957349 C126.004718,29.0093568 125.970592,28.8334789 125.920716,28.660226 Z M88.1594643,53.3855117 C86.3718096,52.2934936 84.8755347,50.9127206 83.6207639,49.3639449 L88.1594643,47.3374112 L88.1594643,53.3855117 Z M83.8045169,55.0182888 C82.5681214,54.9867883 81.2529746,54.8686613 79.9745783,54.6114071 C79.4180691,54.4932801 78.8431845,54.6350325 78.3969271,54.9920384 C77.9559198,55.3464193 77.6934154,55.8819282 77.6855403,56.4489376 C77.6540398,58.1630911 77.3757852,59.5254887 77.06603,60.5256303 C68.0883809,51.4324793 65.7100914,38.6248915 65.1089564,33.7633108 L65.5210883,33.7633108 C67.6079979,33.7633108 69.4980293,32.9731727 70.9706788,31.7131517 L73.4172194,32.6187918 C73.7794754,36.3542288 75.5461298,48.2640516 83.8045169,55.0182888 Z M48.9544381,60.5203802 C48.6420579,59.5176136 48.3638033,58.160466 48.3349278,56.4436875 C48.3218026,55.8766781 48.0619233,55.3411692 47.620916,54.9867883 C47.1772836,54.6297824 46.5971489,54.4906551 46.0432647,54.606157 C44.7674936,54.8660363 43.4523467,54.9841633 42.2159512,55.0130387 C50.4769634,48.2588015 52.2436177,36.3358535 52.6058738,32.6030415 L55.031414,31.7026516 C56.5066885,32.9626725 58.3940949,33.7528106 60.4836296,33.7528106 L60.9167618,33.7528106 C60.3208769,38.6091413 57.9609627,51.4036038 48.9544381,60.5203802 Z M37.8478786,53.3960119 L37.8478786,47.3347862 L42.3997042,49.3665699 C41.1423083,50.9205958 39.6407834,52.3039937 37.8478786,53.3960119 Z M30.7103851,26.4263139 C31.4453973,24.1267757 31.5215236,21.7117356 31.0148901,19.3701967 C33.293428,20.0894587 36.0392236,20.47009 38.8138947,20.47009 C41.8983209,20.47009 44.9853722,20.0264576 47.3872871,19.1339428 L52.3433694,17.2964123 C52.1674915,17.9762986 52.0414894,18.6745602 52.0414894,19.4121974 L52.0414894,25.3264207 C52.0414894,26.4525644 52.2724932,27.5262072 52.6741249,28.5079735 L46.05639,30.9623893 C42.1319498,32.4219135 35.4958396,32.4192885 31.5661493,30.9623893 C30.3113785,30.4977565 29.804745,30.0646244 29.620992,29.8546209 L30.7103851,26.4263139 Z M69.4560286,27.6994601 C68.6448901,29.0356073 67.193241,29.9412473 65.5210883,29.9412473 L60.4783795,29.9412473 C58.8062267,29.9412473 57.3519526,29.0356073 56.5408141,27.6994601 L56.5408141,17.0339079 C57.3519526,15.6977607 58.8036017,14.7947457 60.4783795,14.7947457 L65.5210883,14.7947457 C67.193241,14.7947457 68.6448901,15.6977607 69.4560286,17.0339079 L69.4560286,27.6994601 Z M73.3227178,28.5053485 C73.7243495,27.5235821 73.9553534,26.4499393 73.9553534,25.3237956 L73.9553534,19.4095724 C73.9553534,18.6745602 73.8319763,17.9736735 73.6534733,17.2937872 L78.6121807,19.1313178 C81.0167206,20.0238326 84.0985218,20.467465 87.1829481,20.467465 C89.9549941,20.467465 92.7034147,20.0868336 94.9819526,19.3675717 C94.4779442,21.7117356 94.5514454,24.1267757 95.2864576,26.4236889 L96.3784758,29.8546209 C96.1658473,30.0882497 95.606713,30.526632 94.4306934,30.9597642 C90.5062533,32.4192885 83.870143,32.4166634 79.9378277,30.9597642 L73.3227178,28.5053485 Z M94.4306934,13.2669704 C95.7615905,13.7604786 96.2472236,14.2146111 96.4073513,14.4114894 C96.2445986,14.6057426 95.7589655,15.0572501 94.4306934,15.5533833 C90.5010032,17.0129076 83.8648929,17.0129076 79.9378277,15.5533833 L76.8560265,14.4114894 L79.9378277,13.2669704 C83.8648929,11.8100712 90.5010032,11.8100712 94.4306934,13.2669704 Z M63.0010464,3.9979414 L77.0424046,10.2691706 L70.7029243,12.6212096 C70.6871741,12.6264597 70.6766739,12.6369599 70.6609236,12.64221 C70.6267981,12.6579602 70.5979226,12.6737105 70.563797,12.6920858 C69.1515236,11.6315682 67.4189948,10.9805574 65.5210883,10.9805574 L60.4783795,10.9805574 C58.580473,10.9805574 56.8479442,11.6315682 55.4382958,12.6920858 C55.4041702,12.6763355 55.3726697,12.6579602 55.3385441,12.64221 C55.3254189,12.6369599 55.3122937,12.6264597 55.2965434,12.6212096 L48.9570631,10.2691706 L63.0010464,3.9979414 Z M31.5687743,13.2669704 C35.4984646,11.8074461 42.1345748,11.8074461 46.059015,13.2669704 L49.1408162,14.4114894 L46.059015,15.5533833 C42.1345748,17.0129076 35.4984646,17.0129076 31.5687743,15.5533833 C30.2378772,15.0598751 29.7522442,14.6083676 29.5921165,14.4114894 C29.7522442,14.2172361 30.2378772,13.7604786 31.5687743,13.2669704 Z M23.7330192,102.03807 L3.82206348,93.1444221 L3.82206348,32.1410338 L23.7330192,41.0346816 L23.7330192,102.03807 Z M26.3921884,38.0368818 C26.3895633,38.0368818 26.3843132,38.0342567 26.3790631,38.0316317 L6.59410952,29.1957349 L27.2505776,19.9660816 C27.6679595,21.7196107 27.6259588,23.538766 27.0746997,25.2660447 L25.8120537,29.2377356 C25.7543028,29.4241137 25.7228022,29.620992 25.7228022,29.8204953 C25.7228022,30.9571392 26.310812,33.0834245 30.2457524,34.5429487 C32.6502923,35.4354636 35.7320935,35.8790959 38.8191448,35.8790959 C41.903571,35.8790959 44.9906223,35.4354636 47.3925372,34.5429487 L48.5580565,34.1098165 C48.1091741,37.0524904 47.0276561,41.8195696 44.5758654,46.1613917 L36.6928594,42.6385832 C36.6876094,42.6385832 36.6849843,42.6359582 36.6823593,42.6359582 L26.3921884,38.0368818 Z M34.0310652,106.637146 L29.4372389,104.586987 L27.5550827,103.746973 L27.5550827,42.7409599 L34.0310652,45.636383 L34.0310652,106.637146 Z M61.0926397,118.725472 L37.8505037,108.343425 L37.8505037,58.6592243 C39.5620321,58.8324772 42.0453233,58.9663544 44.6703669,58.6775996 C45.156,62.552164 46.6155243,64.6101981 46.8071524,64.8648274 C47.1274078,65.2874594 47.6051657,65.5604639 48.1327995,65.6129648 C48.1984255,65.623465 48.2666767,65.62609 48.3349278,65.62609 C48.7916854,65.62609 49.2353178,65.4607123 49.5844486,65.1614573 C52.7528762,62.4156617 55.2781681,59.2682344 57.2915766,56.0184304 L61.0952648,57.7168336 L61.0952648,118.725472 L61.0926397,118.725472 Z M63.0010464,54.3856533 L59.1658577,52.6741249 C60.9115117,49.2563181 62.1479072,45.8385113 63.0062965,42.7698354 C63.8541856,45.8122609 65.0800809,49.2326927 66.8336101,52.6741249 L63.0010464,54.3856533 Z M64.9173282,118.725472 L64.9173282,57.7194587 L68.7183914,56.0210555 C70.7212996,59.2524841 73.2465916,62.4025365 76.4360196,65.1640823 C76.7825253,65.4633373 77.2287827,65.6287151 77.6855403,65.6287151 C77.7511664,65.6287151 77.8194175,65.62609 77.8876687,65.6155898 C78.4126774,65.5604639 78.8930604,65.2900844 79.2106906,64.8674524 C79.4023188,64.6101981 80.8644681,62.552164 81.3474761,58.6802246 C83.9698947,58.9689794 86.4453108,58.8377273 88.1568392,58.6618493 L88.1568392,108.34605 L64.9173282,118.725472 Z M98.4575103,103.744348 L94.0395619,105.715756 L91.9789027,106.637146 L91.9789027,45.6337579 L98.4575103,42.7383349 L98.4575103,103.744348 Z M81.4524779,46.1482665 C79.0111873,41.8169446 77.9244193,37.0577405 77.4702867,34.1150666 L78.6095557,34.5403237 C81.0140956,35.4328385 84.0958968,35.8764709 87.180323,35.8764709 C90.2647492,35.8764709 93.3518005,35.4328385 95.7537154,34.5403237 C99.6886558,33.0834245 100.276666,30.9571392 100.276666,29.8178703 C100.276666,29.620992 100.245165,29.4241137 100.187414,29.2351106 L98.922143,25.2634196 C98.3735089,23.5361409 98.3288832,21.7169857 98.7462651,19.9608315 L119.407983,29.1931099 L81.4524779,46.1482665 Z M122.187904,93.1444221 L102.276949,102.03807 L102.276949,41.0320565 L122.187904,32.1410338 L122.187904,93.1444221 Z" id="Shape" fill="#8C8C8C" fill-rule="nonzero"></path>
            </g>
        </g>
    </g>
</svg>