<?xml version="1.0" encoding="UTF-8"?>
<svg width="23px" height="24px" viewBox="0 0 23 24" version="1.1" xmlns="http://www.w3.org/2000/svg" xmlns:xlink="http://www.w3.org/1999/xlink">
    <!-- Generator: sketchtool 51.2 (57519) - http://www.bohemiancoding.com/sketch -->
    <title>C0784B7A-9A0D-4234-B459-EC42B14DAD1E</title>
    <desc>Created with sketchtool.</desc>
    <defs></defs>
    <g id="Profile" stroke="none" stroke-width="1" fill="none" fill-rule="evenodd">
        <g id="Profile---Prioritas---TDS" transform="translate(-19.000000, -533.000000)">
            <g id="Group-2" transform="translate(0.000000, 265.000000)">
                <g id="ic-informasi-stok-barang" transform="translate(15.000000, 265.000000)">
                    <rect id="Rectangle" x="0" y="0" width="30" height="30"></rect>
                    <g id="Group" transform="translate(3.750000, 3.000000)" fill="#F5821F">
                        <path d="M6.71216327,7.35330612 L5.69681633,7.35330612 C5.10220408,7.35330612 4.61828571,7.83722449 4.61828571,8.43232653 L4.61828571,9.44718367 C4.61828571,10.0422857 5.10220408,10.5257143 5.69681633,10.5257143 L6.71216327,10.5257143 C7.30726531,10.5257143 7.79118367,10.0422857 7.79118367,9.44718367 L7.79118367,8.43232653 C7.79118367,7.83722449 7.30726531,7.35330612 6.71216327,7.35330612 Z M7.07167347,9.44767347 C7.07167347,9.64555102 6.91004082,9.80718367 6.71167347,9.80718367 L5.69632653,9.80718367 C5.49795918,9.80718367 5.33681633,9.64555102 5.33681633,9.44767347 L5.33681633,8.43281633 C5.33681633,8.23444898 5.49795918,8.07330612 5.69632653,8.07330612 L6.71167347,8.07330612 C6.91004082,8.07330612 7.07167347,8.23444898 7.07167347,8.43281633 L7.07167347,9.44767347 Z" id="Shape" fill-rule="nonzero"></path>
                        <path d="M6.71216327,12.2610612 L5.69681633,12.2610612 C5.10220408,12.2610612 4.61828571,12.7449796 4.61828571,13.3400816 L4.61828571,14.3549388 C4.61828571,14.9500408 5.10220408,15.4334694 5.69681633,15.4334694 L6.71216327,15.4334694 C7.30726531,15.4334694 7.79118367,14.9500408 7.79118367,14.3549388 L7.79118367,13.3400816 C7.79118367,12.7449796 7.30726531,12.2610612 6.71216327,12.2610612 Z M7.07167347,14.3549388 C7.07167347,14.5528163 6.91004082,14.714449 6.71167347,14.714449 L5.69632653,14.714449 C5.49795918,14.714449 5.33681633,14.5528163 5.33681633,14.3549388 L5.33681633,13.3400816 C5.33681633,13.1417143 5.49795918,12.9805714 5.69632653,12.9805714 L6.71167347,12.9805714 C6.91004082,12.9805714 7.07167347,13.1417143 7.07167347,13.3400816 L7.07167347,14.3549388 Z" id="Shape" fill-rule="nonzero"></path>
                        <path d="M6.71216327,17.1683265 L5.69681633,17.1683265 C5.10220408,17.1683265 4.61828571,17.6517551 4.61828571,18.2473469 L4.61828571,19.2622041 C4.61828571,19.8573061 5.10220408,20.3412245 5.69681633,20.3412245 L6.71216327,20.3412245 C7.30726531,20.3412245 7.79118367,19.8573061 7.79118367,19.2622041 L7.79118367,18.2473469 C7.79118367,17.6522449 7.30726531,17.1683265 6.71216327,17.1683265 Z M7.07167347,19.2626939 C7.07167347,19.4605714 6.91004082,19.6222041 6.71167347,19.6222041 L5.69632653,19.6222041 C5.49795918,19.6222041 5.33681633,19.4605714 5.33681633,19.2626939 L5.33681633,18.2478367 C5.33681633,18.0494694 5.49795918,17.8878367 5.69632653,17.8878367 L6.71167347,17.8878367 C6.91004082,17.8878367 7.07167347,18.0494694 7.07167347,18.2478367 L7.07167347,19.2626939 Z" id="Shape" fill-rule="nonzero"></path>
                        <path d="M9.29338776,8.07281633 L16.5492245,8.07281633 C16.7480816,8.07281633 16.9092245,7.91167347 16.9092245,7.71330612 C16.9092245,7.51444898 16.7480816,7.35379592 16.5492245,7.35379592 L9.29338776,7.35379592 C9.09453061,7.35379592 8.93387755,7.51444898 8.93387755,7.71330612 C8.93387755,7.91167347 9.09453061,8.07281633 9.29338776,8.07281633 Z" id="Shape" fill-rule="nonzero"></path>
                        <path d="M9.29338776,12.9800816 L16.5492245,12.9800816 C16.7480816,12.9800816 16.9092245,12.8189388 16.9092245,12.6205714 C16.9092245,12.4217143 16.7480816,12.2610612 16.5492245,12.2610612 L9.29338776,12.2610612 C9.09453061,12.2610612 8.93387755,12.4217143 8.93387755,12.6205714 C8.93387755,12.8189388 9.09453061,12.9800816 9.29338776,12.9800816 Z" id="Shape" fill-rule="nonzero"></path>
                        <path d="M9.29338776,15.4334694 L14.0546939,15.4334694 C14.2540408,15.4334694 14.4146939,15.2728163 14.4146939,15.0739592 C14.4146939,14.8755918 14.2540408,14.7149388 14.0546939,14.7149388 L9.29338776,14.7149388 C9.09453061,14.7149388 8.93387755,14.8755918 8.93387755,15.0739592 C8.93387755,15.2728163 9.09453061,15.4334694 9.29338776,15.4334694 Z" id="Shape" fill-rule="nonzero"></path>
                        <path d="M9.29338776,10.5262041 L14.930449,10.5262041 C15.1293061,10.5262041 15.290449,10.365551 15.290449,10.1666939 C15.290449,9.96832653 15.1293061,9.80767347 14.930449,9.80767347 L9.29338776,9.80767347 C9.09453061,9.80767347 8.93387755,9.96832653 8.93387755,10.1666939 C8.93387755,10.365551 9.09453061,10.5262041 9.29338776,10.5262041 Z" id="Shape" fill-rule="nonzero"></path>
                        <path d="M9.29338776,17.8873469 L14.0546939,17.8873469 C14.2540408,17.8873469 14.4146939,17.7266939 14.4146939,17.5278367 C14.4146939,17.3294694 14.2540408,17.1688163 14.0546939,17.1688163 L9.29338776,17.1688163 C9.09453061,17.1688163 8.93387755,17.3294694 8.93387755,17.5278367 C8.93387755,17.7266939 9.09453061,17.8873469 9.29338776,17.8873469 Z" id="Shape" fill-rule="nonzero"></path>
                        <path d="M14.930449,19.6222041 L9.29338776,19.6222041 C9.09453061,19.6222041 8.93387755,19.7828571 8.93387755,19.9817143 C8.93387755,20.1800816 9.09453061,20.3412245 9.29338776,20.3412245 L14.930449,20.3412245 C15.1293061,20.3412245 15.290449,20.1800816 15.290449,19.9817143 C15.290449,19.7828571 15.1293061,19.6222041 14.930449,19.6222041 Z" id="Shape" fill-rule="nonzero"></path>
                        <polygon id="Path" fill-opacity="0.2" points="3.24440816 5.40195918 11.2992245 5.40195918 11.2992245 22.9297959 3.24440816 22.9297959"></polygon>
                        <path d="M22.4179592,16.7451429 C22.4179592,14.8829388 20.9960816,13.3474286 19.1813878,13.1666939 L19.1813878,2.77028571 C19.1813878,1.31902041 18.0004898,0.138122449 16.5492245,0.138122449 L2.88489796,0.138122449 C1.43363265,0.138122449 0.25322449,1.31902041 0.25322449,2.77028571 C0.25322449,4.09910204 1.24359184,5.19820408 2.52538776,5.37404082 L2.52538776,23.2883265 C2.52538776,23.3838367 2.56359184,23.4754286 2.63020408,23.5430204 C2.69779592,23.6106122 2.78938776,23.6488163 2.88489796,23.6488163 L18.8218776,23.6483265 C19.0212245,23.6483265 19.1818776,23.4871837 19.1818776,23.2888163 L19.1818776,20.323102 C20.9960816,20.1423673 22.4179592,18.6068571 22.4179592,16.7451429 Z M0.972734694,2.77028571 C0.972734694,1.7157551 1.83036735,0.857632653 2.88489796,0.857632653 L3.80620408,0.857632653 L14.7433469,0.857632653 C14.2354286,1.33763265 13.917551,2.01746939 13.917551,2.77028571 C13.917551,3.52261224 14.2349388,4.20244898 14.7433469,4.68244898 L2.88489796,4.68244898 C1.83036735,4.68244898 0.972734694,3.82432653 0.972734694,2.77028571 Z M3.24440816,22.9288163 L3.24440816,5.40195918 L16.5492245,5.40195918 C16.7480816,5.40195918 16.9092245,5.24081633 16.9092245,5.04244898 C16.9092245,4.84408163 16.7480816,4.68293878 16.5492245,4.68293878 C15.4946939,4.68293878 14.6370612,3.82481633 14.6370612,2.77077551 C14.6370612,1.7162449 15.4946939,0.858122449 16.5492245,0.858122449 C17.6037551,0.858122449 18.4618776,1.7162449 18.4618776,2.77077551 L18.4618776,13.1676735 C16.6471837,13.3484082 15.2253061,14.8839184 15.2253061,16.7461224 C15.2253061,18.6078367 16.6471837,20.1433469 18.4618776,20.3240816 L18.4618776,22.9297959 L3.24440816,22.9297959 L3.24440816,22.9288163 Z M18.8213878,19.6222041 C17.2349388,19.6222041 15.9443265,18.331102 15.9443265,16.7451429 C15.9443265,15.1586939 17.2349388,13.8680816 18.8213878,13.8680816 C20.4083265,13.8680816 21.6989388,15.1586939 21.6989388,16.7451429 C21.6989388,18.331102 20.4083265,19.6222041 18.8213878,19.6222041 Z" id="Shape" fill-rule="nonzero"></path>
                        <path d="M20.2599184,16.3856327 L19.1813878,16.3856327 L19.1813878,15.3066122 C19.1813878,15.1082449 19.0207347,14.9475918 18.8213878,14.9475918 C18.6225306,14.9475918 18.4618776,15.1082449 18.4618776,15.3066122 L18.4618776,16.3856327 L17.3828571,16.3856327 C17.184,16.3856327 17.0233469,16.5462857 17.0233469,16.7451429 C17.0233469,16.9435102 17.184,17.1046531 17.3828571,17.1046531 L18.4618776,17.1046531 L18.4618776,18.1831837 C18.4618776,18.3820408 18.6225306,18.5426939 18.8213878,18.5426939 C19.0207347,18.5426939 19.1813878,18.3820408 19.1813878,18.1831837 L19.1813878,17.1046531 L20.2599184,17.1046531 C20.4592653,17.1046531 20.6199184,16.9435102 20.6199184,16.7451429 C20.6199184,16.5462857 20.4592653,16.3856327 20.2599184,16.3856327 Z" id="Shape" fill-rule="nonzero"></path>
                    </g>
                </g>
            </g>
        </g>
    </g>
</svg>