<?xml version="1.0" encoding="UTF-8"?>
<svg width="55px" height="55px" viewBox="0 0 55 55" version="1.1" xmlns="http://www.w3.org/2000/svg" xmlns:xlink="http://www.w3.org/1999/xlink">
    <!-- Generator: sketchtool 51.2 (57519) - http://www.bohemiancoding.com/sketch -->
    <title>37754AAC-B44D-41D2-8D84-EB4E2B117781</title>
    <desc>Created with sketchtool.</desc>
    <defs></defs>
    <g id="Upgrade-Reseller" stroke="none" stroke-width="1" fill="none" fill-rule="evenodd">
        <g id="Profile---Upgrade-Reseller" transform="translate(-28.000000, -1007.000000)">
            <g id="ic-komunitas" transform="translate(15.000000, 994.000000)">
                <rect id="Rectangle" x="0" y="0" width="80" height="80"></rect>
                <g id="Group" transform="translate(13.000000, 13.000000)">
                    <path d="M27.3732167,53.1523421 C10.2350243,53.1515819 1.66592809,44.5821056 1.66592809,27.4439132 C1.66592809,10.3057208 10.2350243,1.73662455 27.3732167,1.73662455 L27.3732167,53.1523421 Z" id="Path" fill="#E6E6E6"></path>
                    <path d="M51.7817428,39.8169355 C53.7179138,36.0016067 54.7395918,31.7324522 54.7395918,27.4427729 C54.7395918,12.3547781 42.4623518,0.0763977972 27.3732167,0.0763977972 C12.2840816,0.0763977972 0.00684159378,12.3547781 0.00684159378,27.4427729 C0.00684159378,42.5330483 12.2840816,54.809148 27.3732167,54.809148 C31.6606155,54.809148 35.9320505,53.78747 39.7450988,51.8524393 L53.7395789,54.7920441 C53.7965922,54.804587 53.8547457,54.809148 53.9106187,54.809148 C54.1284095,54.809148 54.3393586,54.7247684 54.4967153,54.5662715 C54.6951215,54.3678652 54.7795011,54.0839391 54.7224879,53.8102753 L51.7817428,39.8169355 Z M39.797551,50.1705475 C39.6071267,50.1306382 39.4121412,50.1580045 39.2433819,50.245805 C35.5466408,52.1739942 31.5534305,53.1523421 27.3732167,53.1523421 C13.1974344,53.1523421 1.66592809,41.6208358 1.66592809,27.4439132 C1.66592809,13.2692711 13.1974344,1.73662455 27.3732167,1.73662455 C41.548999,1.73662455 53.0805053,13.2692711 53.0805053,27.4439132 C53.0805053,31.6252672 52.1032977,35.6196178 50.1739683,39.3152187 C50.0838873,39.4862585 50.0576612,39.6812439 50.0975705,39.870528 L52.8364885,52.9094655 L39.797551,50.1705475 Z" id="Shape" fill="#8C8C8C" fill-rule="nonzero"></path>
                    <path d="M35.5147133,13.3468092 C33.7997538,13.3468092 32.4052089,14.7436346 32.4052089,16.4585941 L32.4052089,16.5042047 C25.8053515,22.253424 20.0937609,21.1211403 18.4130094,20.6000389 L18.4130094,19.5680985 C18.4130094,19.1097117 18.0424231,18.7379851 17.582896,18.7379851 L12.6409848,18.7379851 C8.98301263,18.7379851 6.00691934,21.7140784 6.00691934,25.3720505 L6.00691934,29.5191966 C6.00691934,32.8806997 8.52234532,35.659527 11.7686816,36.0894072 L11.7686816,43.6847166 C11.7686816,43.9606608 11.9066537,44.2195011 12.1347068,44.373437 C13.7310787,45.4441464 15.4608617,46.3529381 17.2773048,47.0758665 C17.3753677,47.1146356 17.4791318,47.1351603 17.582896,47.1351603 C17.7470943,47.1351603 17.9101523,47.0861289 18.0492647,46.9914869 C18.2761775,46.837551 18.4130094,46.579851 18.4130094,46.305047 L18.4130094,35.324289 L18.4130094,34.3185747 C20.0960415,33.8145773 25.858944,32.7096599 32.4052089,38.4098477 L32.4052089,38.4337933 C32.4052089,40.1487528 33.7997538,41.544438 35.5147133,41.544438 C37.2285326,41.544438 38.625358,40.1487528 38.625358,38.4337933 L38.625358,16.4597344 C38.625358,14.7424943 37.2296728,13.3468092 35.5147133,13.3468092 Z M32.4052089,18.6581665 L32.4052089,26.6160803 L18.4130094,26.6160803 L18.4130094,22.3195594 C20.7231876,22.9079365 26.1816391,23.5031552 32.4052089,18.6581665 Z M7.66486557,29.5180564 L7.66486557,25.3709103 C7.66486557,22.6274312 9.89750567,20.3947911 12.6409848,20.3947911 L16.7539229,20.3947911 L16.7539229,21.1815743 L16.7539229,33.7279171 L16.7539229,34.4930353 L12.6409848,34.4930353 C9.89750567,34.4930353 7.66486557,32.2603952 7.66486557,29.5180564 Z M16.7539229,45.0507548 C15.595413,44.5239521 14.4802332,43.918471 13.4266278,43.2354519 L13.4266278,36.1521218 L16.7539229,36.1521218 L16.7539229,45.0507548 Z M21.6411014,32.2033819 C20.278484,32.2033819 19.1747068,32.3995076 18.4118691,32.5933528 L18.4118691,28.2740266 L32.4040687,28.2740266 L32.4040687,36.2547457 C28.2341173,33.0061289 24.4085261,32.2033819 21.6411014,32.2033819 Z M36.9662715,38.4326531 C36.9662715,39.2331195 36.3151798,39.8842112 35.5147133,39.8842112 C34.7142468,39.8842112 34.0642954,39.2331195 34.0642954,38.4326531 L34.0642954,38.028999 L34.0642954,16.8827729 L34.0642954,16.4574538 C34.0642954,15.6558471 34.7153871,15.0058957 35.5147133,15.0058957 C36.3140395,15.0058957 36.9662715,15.6558471 36.9662715,16.4574538 L36.9662715,38.4326531 Z" id="Shape" fill="#8C8C8C" fill-rule="nonzero"></path>
                    <path d="M46.8569355,19.0755037 C46.451001,19.2875931 46.2936443,19.7881697 46.506874,20.1941043 C48.601542,24.1918756 48.601542,30.697091 46.506874,34.6948623 C46.2936443,35.0996566 46.451001,35.6013735 46.8569355,35.8134629 C46.9800842,35.8795983 47.1112148,35.908105 47.2400648,35.908105 C47.5388144,35.908105 47.8284419,35.7461872 47.9755361,35.4634014 C50.3313249,30.967334 50.3313249,23.9204924 47.9755361,19.4232847 C47.764587,19.0196307 47.2628701,18.8622741 46.8569355,19.0755037 Z" id="Shape" fill="#16B8B2" fill-rule="nonzero"></path>
                    <path d="M42.7097894,21.4358536 C42.3038549,21.6490833 42.1464982,22.1496599 42.3597279,22.5544542 C43.7713767,25.2489018 43.7713767,29.636644 42.3597279,32.3333722 C42.1464982,32.7381665 42.3038549,33.2398834 42.7097894,33.4519728 C42.8329381,33.5158277 42.9652089,33.5466148 43.094059,33.5466148 C43.3928086,33.5466148 43.6812958,33.3835569 43.8295303,33.100771 C45.4920376,29.9274117 45.4920376,24.9558536 43.8295303,21.7836346 C43.6163006,21.3799806 43.1145837,21.2214836 42.7097894,21.4358536 Z" id="Shape" fill="#16B8B2" fill-rule="nonzero"></path>
                </g>
            </g>
        </g>
    </g>
</svg>