<?xml version="1.0" encoding="UTF-8"?>
<svg width="125px" height="89px" viewBox="0 0 125 89" version="1.1" xmlns="http://www.w3.org/2000/svg" xmlns:xlink="http://www.w3.org/1999/xlink">
    <!-- Generator: sketchtool 51.2 (57519) - http://www.bohemiancoding.com/sketch -->
    <title>93F7AF15-1C37-4B4F-BC84-B8E008732C02</title>
    <desc>Created with sketchtool.</desc>
    <defs></defs>
    <g id="Keranjang" stroke="none" stroke-width="1" fill="none" fill-rule="evenodd">
        <g id="Keranjang-Kosong" transform="translate(-117.000000, -160.000000)">
            <g id="ic-keranjang-kosong" transform="translate(117.000000, 160.000000)">
                <path d="M12.9775391,88 C12.2082853,88 10,87.3284271 10,86.5 C10,85.6715729 10.6236034,85 11.3928571,85 L24.6071429,85 C25.3763966,85 26,85.6715729 26,86.5 C26,87.3284271 25.3763966,88 24.6071429,88 L12.9775391,88 Z" id="Line" fill="#B4B4B4" fill-rule="nonzero" transform="translate(18.000000, 86.500000) rotate(-180.000000) translate(-18.000000, -86.500000) "></path>
                <path d="M1.39285714,88 C0.623603384,88 1.27897692e-13,87.3284271 1.27897692e-13,86.5 C1.27897692e-13,85.6715729 0.623603384,85 1.39285714,85 L5.60714286,85 C6.37639662,85 7,85.6715729 7,86.5 C7,87.3284271 6.37639662,88 5.60714286,88 L1.39285714,88 Z" id="Line" fill="#B4B4B4" fill-rule="nonzero" transform="translate(3.500000, 86.500000) rotate(-180.000000) translate(-3.500000, -86.500000) "></path>
                <path d="M100.392857,88 C99.6236034,88 99,87.3284271 99,86.5 C99,85.6715729 101.552768,85 102.322021,85 L118.607143,85 C119.376397,85 120,85.6715729 120,86.5 C120,87.3284271 119.376397,88 118.607143,88 L100.392857,88 Z" id="Line" fill="#B4B4B4" fill-rule="nonzero"></path>
                <path d="M122.392857,88 C121.623603,88 121,87.3284271 121,86.5 C121,85.6715729 121.623603,85 122.392857,85 L123.607143,85 C124.376397,85 125,85.6715729 125,86.5 C125,87.3284271 124.376397,88 123.607143,88 L122.392857,88 Z" id="Line" fill="#B4B4B4" fill-rule="nonzero"></path>
                <path d="M29.2839355,19.6977539 L96.1845703,19.6977539 L101.01123,53.9770508 C88.5148112,64.4484049 75.8608398,69.684082 63.0493164,69.684082 C50.237793,69.684082 37.3924967,64.4484049 24.5134277,53.9770508 L29.2839355,19.6977539 Z" id="Path" fill="#E6E6E6"></path>
                <polygon id="Path" fill="#E6E6E6" points="31.0336872 17.2723448 40.4532765 10.1604593 85.1025391 10.1604593 94.575786 17.2723448"></polygon>
                <path d="M107.327172,78.9170545 L98.7095172,18.2879469 C98.6741379,18.1082018 98.6313103,17.9669735 98.5568276,17.8349159 C98.46,17.6900194 98.4004138,17.6001469 98.3184828,17.5212792 L85.9022069,8.46188382 C85.6731724,8.29864596 85.5782069,8.21977823 85.4646207,8.1739249 C85.3007586,8.10606197 85.1238621,8.06937931 84.9413793,8.06937931 L40.4937931,8.06937931 C40.3131724,8.06937931 40.1362759,8.10606197 39.9724138,8.1739249 C39.8569655,8.21977823 39.7638621,8.29864596 39.6670345,8.37201129 C39.6397241,8.39402089 35.4568966,11.4437768 27.1185517,17.5212792 C27.0384828,17.6001469 26.9770345,17.6900194 26.9193103,17.7835602 C26.8075862,17.9651394 26.7628966,18.1063677 26.7386897,18.2549325 C26.7374483,18.2634917 23.8611724,38.4841991 18.1098621,78.9170545 C17.7821379,81.22256 18.4822759,83.5482409 20.0333793,85.3053405 C21.5826207,87.0624402 23.8264138,88.0693793 26.1893793,88.0693793 L99.2495172,88.0693793 C101.612483,88.0693793 103.856276,87.0624402 105.407379,85.3053405 C106.954759,83.5482409 107.654897,81.22256 107.327172,78.9170545 Z M31.0336872,17.1342771 L40.4532765,10.1290878 L85.1025391,10.1290878 L94.575786,17.1342771 L31.0336872,17.1342771 Z M103.351655,83.5482409 C102.318207,84.7184179 100.821103,85.3897107 99.2457931,85.3897107 L26.1856552,85.3897107 C24.6103448,85.3897107 23.1151034,84.7184179 22.0797931,83.5482409 C21.0463448,82.3762298 20.5789655,80.8245531 20.7986897,79.2875495 L29.2524828,19.8139457 L96.1789655,19.8139457 L104.632759,79.2875495 C104.852483,80.8245531 104.385103,82.3762298 103.351655,83.5482409 Z" id="Shape" fill="#B4B4B4" fill-rule="nonzero"></path>
                <path d="M83.7215321,0 C80.6016958,0 78.0620574,2.78565517 78.0620574,6.21 C78.0620574,9.15765517 79.9468525,11.6193103 82.4593471,12.2524138 C82.2150533,23.4974483 73.8208444,32.5713103 63.5163931,32.5713103 C53.2119419,32.5713103 44.817733,23.4974483 44.5734391,12.2524138 C47.0859338,11.6193103 48.9707288,9.15765517 48.9707288,6.21 C48.9707288,2.78565517 46.4310905,0 43.3129506,0 C40.1948108,0 37.6551724,2.78565517 37.6551724,6.21 C37.6551724,9.17627586 39.5620218,11.6546897 42.0982672,12.2673103 C42.3510435,25.0075862 51.8530572,35.289931 63.5180896,35.289931 C75.183122,35.289931 84.6851357,25.0075862 84.9362155,12.2673103 C87.4741574,11.6546897 89.3793103,9.17627586 89.3793103,6.21 C89.3793103,2.78565517 86.8413685,0 83.7215321,0 Z M40.1337373,6.21 C40.1337373,4.28648276 41.5604814,2.72048276 43.3129506,2.72048276 C45.0671163,2.72048276 46.4938604,4.28648276 46.4938604,6.21 C46.4938604,7.65124138 45.6931194,8.89137931 44.5530813,9.4257931 L44.5530813,6.21 C44.5530813,5.45958621 43.9983307,4.85068966 43.3146471,4.85068966 C42.6309636,4.85068966 42.0762129,5.45958621 42.0762129,6.21 L42.0762129,9.4257931 C40.9344783,8.89324138 40.1337373,7.65310345 40.1337373,6.21 Z M84.9599663,9.4257931 L84.9599663,6.21 C84.9599663,5.45958621 84.4052157,4.85068966 83.7215321,4.85068966 C83.0378486,4.85068966 82.4830979,5.45958621 82.4830979,6.21 L82.4830979,9.4257931 C81.3430598,8.89324138 80.5406223,7.65310345 80.5406223,6.21 C80.5406223,4.28648276 81.9673664,2.72048276 83.7215321,2.72048276 C85.4740014,2.72048276 86.9007454,4.28648276 86.9007454,6.21 C86.9007454,7.65310345 86.1000044,8.89324138 84.9599663,9.4257931 Z" id="Shape" fill="#B4B4B4" fill-rule="nonzero" transform="translate(63.517241, 17.644966) scale(1, -1) translate(-63.517241, -17.644966) "></path>
                <path d="M51.8457195,49.283839 C51.1615194,49.750917 50.2282242,49.5749048 49.7611463,48.8907048 C49.2940683,48.2065048 49.4700805,47.2732095 50.1542805,46.8061316 C58.5623775,41.0662358 67.2258139,41.0662358 75.8313655,46.7964536 C76.5209105,47.2556041 76.7076822,48.1868058 76.2485317,48.8763508 C75.7893812,49.5658958 74.8581795,49.7526675 74.1686345,49.293517 C66.5749974,44.2371073 59.2384338,44.2371073 51.8457195,49.283839 Z" id="Path" fill="#B4B4B4" fill-rule="nonzero"></path>
            </g>
        </g>
    </g>
</svg>