<?xml version="1.0" encoding="UTF-8"?>
<svg width="101px" height="84px" viewBox="0 0 101 84" version="1.1" xmlns="http://www.w3.org/2000/svg" xmlns:xlink="http://www.w3.org/1999/xlink">
    <!-- Generator: sketchtool 51.2 (57519) - http://www.bohemiancoding.com/sketch -->
    <title>1D987E1D-18E6-4365-AE8D-2DD936C1AF0F</title>
    <desc>Created with sketchtool.</desc>
    <defs></defs>
    <g id="Wishlist" stroke="none" stroke-width="1" fill="none" fill-rule="evenodd">
        <g id="Wishlist-Kosong" transform="translate(-133.000000, -163.000000)">
            <g id="ic-love-sad" transform="translate(130.000000, 155.000000)">
                <rect id="Rectangle" x="0" y="0" width="100" height="100"></rect>
                <g id="Group" transform="translate(3.000000, 8.000000)">
                    <path d="M47.9192364,80.7949219 C42.7833415,88.7157179 2,50.6925464 2,25.5687262 C2,13.1212233 13.0689967,3 26.6779402,3 C35.3487933,3 43.4857987,7.26357483 47.9192364,14.1280066 C49.0161264,15.8136059 67.8937072,49.9894416 47.9192364,80.7949219 Z" id="Path" fill="#E6E6E6"></path>
                    <path d="M46.5020169,8.61066905 C51.5626151,3.16691412 58.7038985,0 66.1613951,0 C80.960884,0 93.0036405,12.0438842 92.9999992,26.8420417 C92.9999992,39.6417889 84.888422,52.7302491 71.3531427,65.5273986 C66.5914699,70.0293994 61.4548332,74.1993616 56.2646751,77.9499654 C54.3958863,79.3004226 52.6334916,80.5134536 51.0205039,81.5760056 C49.9631861,82.2725112 49.1051673,82.8155232 48.5956159,83.1250955 C47.9647431,83.5166717 47.2385922,83.7184593 46.5017184,83.7184593 C45.7692815,83.7184593 45.0449186,83.5171686 44.4187882,83.1318377 C43.8866542,82.807841 43.0388476,82.2711085 41.9837106,81.575965 C40.3702073,80.5129595 38.6082001,79.3001801 36.7396971,77.9499815 C31.5487166,74.198928 26.4119376,70.0292356 21.64993,65.5274606 C8.11264896,52.7299603 0,39.6417251 0,26.8420417 C0,12.042023 12.0408955,0 26.8420417,0 C34.2983717,0 41.4446531,3.16840067 46.5020169,8.61066905 Z M66.1613951,3 C59.0194759,3 52.1919167,6.27939257 47.665139,11.8417928 L46.5012997,13.2718917 L45.3379644,11.8413829 C40.8163655,6.28134626 33.9829925,3 26.8420417,3 C13.6978127,3 3,13.6988144 3,26.8420417 C3,38.6134177 10.7174471,51.0640688 23.7108465,63.3474094 C28.3692604,67.7512518 33.405986,71.8397276 38.4967881,75.5183912 C40.3291526,76.8424758 42.0557098,78.0308552 43.6341745,79.0707765 C44.659262,79.7461229 45.476965,80.2637973 45.9850113,80.5731478 C46.1400899,80.6685807 46.3195823,80.7184593 46.5017184,80.7184593 C46.6862929,80.7184593 46.8637323,80.6691512 47.0255899,80.5687665 C47.5160943,80.2706907 48.343315,79.7471699 49.3701632,79.0707359 C50.9480479,78.031308 52.6749347,76.8427166 54.5075395,75.5184073 C59.5974841,71.8402216 64.6340349,67.7515099 69.2920951,63.3474714 C82.2835705,51.0644701 89.9999992,38.6136029 89.9999993,26.8416726 C90.0032328,13.7003909 79.3038439,3 66.1613951,3 Z" id="Shape" fill="#B4B4B4" fill-rule="nonzero"></path>
                    <path d="M5.39285714,84 C4.62360338,84 4,83.3284271 4,82.5 C4,81.6715729 4.62360338,81 5.39285714,81 L26.6071429,81 C27.3763966,81 28,81.6715729 28,82.5 C28,83.3284271 27.3763966,84 26.6071429,84 L5.39285714,84 Z" id="Line" fill="#B4B4B4" fill-rule="nonzero" transform="translate(16.000000, 82.500000) rotate(-180.000000) translate(-16.000000, -82.500000) "></path>
                    <path d="M33.3928571,84 C32.6236034,84 32,83.3284271 32,82.5 C32,81.6715729 32.6236034,81 33.3928571,81 L45.6071429,81 C46.3763966,81 47,81.6715729 47,82.5 C47,83.3284271 46.3763966,84 45.6071429,84 L33.3928571,84 Z" id="Line" fill="#B4B4B4" fill-rule="nonzero" transform="translate(39.500000, 82.500000) rotate(-180.000000) translate(-39.500000, -82.500000) "></path>
                    <path d="M68.3928571,3 C67.6236034,3 67,2.32842712 67,1.5 C67,0.671572875 67.6236034,0 68.3928571,0 L91.6071429,0 C92.3763966,0 93,0.671572875 93,1.5 C93,2.32842712 92.3763966,3 91.6071429,3 L68.3928571,3 Z" id="Line" fill="#B4B4B4" fill-rule="nonzero"></path>
                    <path d="M96.3928571,3 C95.6236034,3 95,2.32842712 95,1.5 C95,0.671572875 95.6236034,0 96.3928571,0 L99.6071429,0 C100.376397,0 101,0.671572875 101,1.5 C101,2.32842712 100.376397,3 99.6071429,3 L96.3928571,3 Z" id="Line" fill="#B4B4B4" fill-rule="nonzero"></path>
                    <ellipse id="Oval" fill="#B4B4B4" cx="32" cy="34" rx="3" ry="4"></ellipse>
                    <ellipse id="Oval" fill="#B4B4B4" cx="62" cy="34" rx="3" ry="4"></ellipse>
                    <path d="M38.8457195,45.2725927 C38.1615194,45.7396707 37.2282242,45.5636585 36.7611463,44.8794585 C36.2940683,44.1952584 36.4700805,43.2619632 37.1542805,42.7948852 C43.5872761,38.4033179 50.2507125,38.4033179 56.8313655,42.7852073 C57.5209105,43.2443578 57.7076822,44.1755595 57.2485317,44.8651045 C56.7893812,45.5546495 55.8581795,45.7414212 55.1686345,45.2822707 C49.599896,41.5741894 44.2633324,41.5741894 38.8457195,45.2725927 Z" id="Path" fill="#B4B4B4" fill-rule="nonzero"></path>
                </g>
            </g>
        </g>
    </g>
</svg>