<?xml version="1.0" encoding="UTF-8"?>
<svg width="119px" height="126px" viewBox="0 0 119 126" version="1.1" xmlns="http://www.w3.org/2000/svg" xmlns:xlink="http://www.w3.org/1999/xlink">
    <!-- Generator: sketchtool 51.2 (57519) - http://www.bohemiancoding.com/sketch -->
    <title>AF3ABB60-EEDB-4E96-8D27-5B00929D30D5</title>
    <desc>Created with sketchtool.</desc>
    <defs></defs>
    <g id="Landing-Page" stroke="none" stroke-width="1" fill="none" fill-rule="evenodd">
        <g id="ic-murni-jualbeli" transform="translate(-10.000000, -7.000000)">
            <rect id="Rectangle" x="0" y="0" width="140" height="140"></rect>
            <g id="Group" transform="translate(10.150000, 7.000000)">
                <path d="M28.7092494,3.85801453 L58.7886917,3.85801453 L58.7886917,19.3885714 L46.3815012,19.3885714 L21.2276998,19.3885714 L21.2276998,11.3343341 C21.2303148,7.21307506 24.5879903,3.85801453 28.7092494,3.85801453 Z" id="Path" fill="#E6E6E6"></path>
                <path d="M59.2360401,121.771525 L28.7118644,121.771525 C24.5879903,121.771525 21.2329298,118.416465 21.2329298,114.289976 L21.2329298,106.557385 L59.2360401,106.557385 L59.2360401,121.771525 Z" id="Path" fill="#E6E6E6"></path>
                <path d="M59.0848385,102.752542 L21.2329298,102.752542 L21.2329298,60.9515738 C29.6768039,60.9515738 36.9465375,56.3386925 40.2519128,49.7305569 C42.453753,54.1359806 48.7313949,57.8763196 59.0848385,60.9515738 L59.0848385,102.752542 Z" id="Path" fill="#E6E6E6"></path>
                <path d="M49.7600969,13.3661985 L68.7764649,13.3661985 C69.8276998,13.3661985 70.6775787,12.5163196 70.6775787,11.4624697 C70.6775787,10.4138499 69.8276998,9.56135593 68.7764649,9.56135593 L49.7600969,9.56135593 C48.708862,9.56135593 47.853753,10.4112349 47.853753,11.4624697 C47.853753,12.5163196 48.708862,13.3661985 49.7600969,13.3661985 Z" id="Shape" fill="#8C8C8C" fill-rule="nonzero"></path>
                <path d="M40.2492978,116.073414 C41.2953027,116.073414 42.1530266,115.218305 42.1530266,114.1723 C42.1530266,113.10799 41.2953027,112.265956 40.2492978,112.265956 C39.203293,112.265956 38.345569,113.105375 38.345569,114.1723 C38.348184,115.21569 39.203293,116.073414 40.2492978,116.073414 Z" id="Shape" fill="#8C8C8C" fill-rule="nonzero"></path>
                <path d="M59.2682809,116.073414 C60.3116707,116.073414 61.1693947,115.218305 61.1693947,114.1723 C61.1693947,113.10799 60.3116707,112.265956 59.2682809,112.265956 C58.222276,112.265956 57.3645521,113.105375 57.3645521,114.1723 C57.3645521,115.21569 58.219661,116.073414 59.2682809,116.073414 Z" id="Shape" fill="#8C8C8C" fill-rule="nonzero"></path>
                <path d="M78.2846489,116.073414 C79.3306538,116.073414 80.1883777,115.218305 80.1883777,114.1723 C80.1883777,113.10799 79.3332688,112.265956 78.2846489,112.265956 C77.2412591,112.265956 76.3835351,113.105375 76.3835351,114.1723 C76.3835351,115.21569 77.2412591,116.073414 78.2846489,116.073414 Z" id="Shape" fill="#8C8C8C" fill-rule="nonzero"></path>
                <circle id="Oval" fill="#8C8C8C" fill-rule="nonzero" cx="77.1941889" cy="11.4650847" r="1.9011138"></circle>
                <path d="M76.2527845,43.700339 C75.2041646,51.268184 67.9867312,57.1467312 59.2656659,57.1467312 C50.5472155,57.1467312 43.3271671,51.268184 42.2811622,43.700339 L76.2527845,43.700339 Z" id="Path" fill-opacity="0.4" fill="#16B8B2"></path>
                <path d="M4.24581114,43.700339 L38.2174334,43.700339 C37.1688136,51.268184 29.9513801,57.1467312 21.2303148,57.1467312 C12.5092494,57.1467312 5.29443099,51.265569 4.24581114,43.700339 Z" id="Path" fill="#16B8B2"></path>
                <path d="M97.306247,57.1441162 C88.5851816,57.1441162 81.3677482,51.265569 80.3191283,43.697724 L114.293366,43.697724 C113.242131,51.265569 106.024697,57.1441162 97.306247,57.1441162 Z" id="Path" fill="#16B8B2"></path>
                <path d="M118.223729,41.7966102 C118.223729,41.76523 118.208039,41.7416949 118.208039,41.7129298 C118.197579,41.5011138 118.163584,41.2997579 118.085133,41.1010169 C118.079903,41.0853269 118.077288,41.0644068 118.072058,41.0487167 C117.998838,40.8813559 117.904697,40.7244552 117.784407,40.5780145 L101.11109,20.6045521 L101.11109,11.3343341 C101.11109,5.11322034 96.0484262,0.0557869249 89.8299274,0.0557869249 L28.7144794,0.0557869249 C22.4933656,0.0557869249 17.4333172,5.11583535 17.4333172,11.3343341 L17.4333172,20.6045521 L0.76,40.5780145 C0.639709443,40.7244552 0.545569007,40.8787409 0.472348668,41.0487167 C0.467118644,41.0644068 0.464503632,41.0853269 0.459273608,41.1010169 C0.380823245,41.2945278 0.344213075,41.5011138 0.333753027,41.7129298 C0.333753027,41.7443099 0.315447942,41.767845 0.315447942,41.7966102 C0.315447942,51.1661985 7.70808717,58.9720097 17.4333172,60.6142373 L17.4333172,114.287361 C17.4333172,120.508475 22.4959806,125.571138 28.7144794,125.571138 L89.8299274,125.571138 C96.0510412,125.571138 101.11109,120.50586 101.11109,114.287361 L101.11109,60.6142373 C110.828475,58.9746247 118.223729,51.1661985 118.223729,41.7966102 Z M70.735109,23.1960291 L75.7297821,39.8981114 L42.8015496,39.8981114 L47.7988378,23.1960291 L70.735109,23.1960291 Z M76.2527845,43.700339 C75.2041646,51.268184 67.9867312,57.1467312 59.2656659,57.1467312 C50.5472155,57.1467312 43.3271671,51.268184 42.2811622,43.700339 L76.2527845,43.700339 Z M79.7019855,39.8981114 L74.7073123,23.1960291 L98.3182567,23.1960291 L112.258886,39.8981114 L79.7019855,39.8981114 Z M28.7092494,3.85801453 L89.8246973,3.85801453 C93.9485714,3.85801453 97.303632,7.21046005 97.303632,11.3343341 L97.303632,19.3885714 L72.1498305,19.3885714 L46.3815012,19.3885714 L21.2276998,19.3885714 L21.2276998,11.3343341 C21.2303148,7.21307506 24.5879903,3.85801453 28.7092494,3.85801453 Z M20.2209201,23.1960291 L43.8318644,23.1960291 L38.8345763,39.8981114 L6.28029056,39.8981114 L20.2209201,23.1960291 Z M4.24581114,43.700339 L38.2174334,43.700339 C37.1688136,51.268184 29.9513801,57.1467312 21.2303148,57.1467312 C12.5092494,57.1467312 5.29443099,51.265569 4.24581114,43.700339 Z M97.306247,114.289976 C97.306247,118.416465 93.9511864,121.771525 89.8273123,121.771525 L28.7118644,121.771525 C24.5879903,121.771525 21.2329298,118.416465 21.2329298,114.289976 L21.2329298,106.557385 L97.306247,106.557385 L97.306247,114.289976 Z M97.306247,102.752542 L21.2329298,102.752542 L21.2329298,60.9515738 C29.6768039,60.9515738 36.9465375,56.3386925 40.2519128,49.7305569 C43.5546731,56.3386925 50.8270218,60.9515738 59.2682809,60.9515738 C67.712155,60.9515738 74.9845036,56.3386925 78.2846489,49.7305569 C81.5874092,56.3386925 88.8623729,60.9515738 97.303632,60.9515738 L97.303632,102.752542 L97.306247,102.752542 Z M97.306247,57.1441162 C88.5851816,57.1441162 81.3677482,51.265569 80.3191283,43.697724 L114.293366,43.697724 C113.242131,51.265569 106.024697,57.1441162 97.306247,57.1441162 Z" id="Shape" fill="#8C8C8C" fill-rule="nonzero"></path>
            </g>
        </g>
    </g>
</svg>