<?xml version="1.0" encoding="UTF-8"?>
<svg width="18px" height="15px" viewBox="0 0 18 15" version="1.1" xmlns="http://www.w3.org/2000/svg" xmlns:xlink="http://www.w3.org/1999/xlink">
    <!-- Generator: sketchtool 51.1 (57501) - http://www.bohemiancoding.com/sketch -->
    <title>3D98FC74-1B63-460C-86E2-F1004937E302</title>
    <desc>Created with sketchtool.</desc>
    <defs></defs>
    <g id="Landing-Page" stroke="none" stroke-width="1" fill="none" fill-rule="evenodd">
        <g transform="translate(-18.000000, -2574.000000)" id="Footer">
            <g transform="translate(0.000000, 2435.000000)">
                <g id="ic-mail" transform="translate(15.000000, 134.000000)">
                    <rect id="Rectangle" x="0" y="0" width="24" height="24"></rect>
                    <path d="M20.9998892,7.44033213 C21.000022,7.44840772 21.0000353,7.45648084 20.9999297,7.46454872 L20.9999297,17.2726315 C20.9999297,18.6244903 19.8972622,19.7271578 18.5454035,19.7271578 L5.45459655,19.7271578 C4.10273776,19.7271578 3.00007025,18.6244903 3.00007025,17.2726315 L3.00007025,7.46454872 C2.99996468,7.45648084 2.99997802,7.44840772 3.00011079,7.44033213 C3.00779679,6.09495754 4.10747221,5 5.45459655,5 L18.5454035,5 C19.8925278,5 20.9922032,6.09495754 20.9998892,7.44033213 Z M19.2763799,7.089578 C19.1410699,6.82201387 18.8628238,6.63635086 18.5454035,6.63635086 L5.45459655,6.63635086 C5.1371762,6.63635086 4.85893009,6.82201387 4.72362011,7.089578 L12,12.1830439 L19.2763799,7.089578 Z M19.3635789,9.02595949 L12.4691928,13.8520297 C12.1874785,14.0492298 11.8125215,14.0492298 11.5308072,13.8520297 L4.63642111,9.02595949 L4.63642111,17.2726315 C4.63642111,17.7207586 5.00646938,18.0908069 5.45459655,18.0908069 L18.5454035,18.0908069 C18.9935306,18.0908069 19.3635789,17.7207586 19.3635789,17.2726315 L19.3635789,9.02595949 Z" id="Combined-Shape" fill="#16B8B2" fill-rule="nonzero"></path>
                </g>
            </g>
        </g>
    </g>
</svg>