<?xml version="1.0" encoding="UTF-8"?>
<svg width="22px" height="26px" viewBox="0 0 22 26" version="1.1" xmlns="http://www.w3.org/2000/svg" xmlns:xlink="http://www.w3.org/1999/xlink">
    <!-- Generator: sketchtool 51.1 (57501) - http://www.bohemiancoding.com/sketch -->
    <title>30114633-B21A-419F-9A19-48A1B3D94781</title>
    <desc>Created with sketchtool.</desc>
    <defs></defs>
    <g id="Burger-Menu" stroke="none" stroke-width="1" fill="none" fill-rule="evenodd">
        <g id="Burger-Menu---Visitor" transform="translate(-79.000000, -119.000000)">
            <g id="Menu" transform="translate(60.000000, 0.000000)">
                <g id="ic-masuk" transform="translate(30.000000, 132.000000) scale(-1, 1) translate(-30.000000, -132.000000) translate(15.000000, 117.000000)">
                    <rect id="Rectangle" x="0" y="0" width="30" height="30"></rect>
                    <g id="group" transform="translate(14.333333, 15.000000) scale(-1, 1) translate(-14.333333, -15.000000) translate(3.333333, 3.000000)">
                        <rect id="Rectangle-2" fill-opacity="0.2" fill="#F5821F" x="0" y="0" width="8" height="24"></rect>
                        <path d="M14.3529596,16.705864 L14.3529596,22.7646875 C14.3529596,23.3169722 13.9052443,23.7646875 13.3529596,23.7646875 L1.2353125,23.7646875 C0.68302775,23.7646875 0.2353125,23.3169722 0.2353125,22.7646875 L0.2353125,1.2353125 C0.2353125,0.68302775 0.68302775,0.2353125 1.2353125,0.2353125 L13.3529596,0.2353125 C13.9052443,0.2353125 14.3529596,0.68302775 14.3529596,1.2353125 L14.3529596,7.29413603" id="Shape" stroke="#F5821F" stroke-width="0.75" fill-rule="nonzero"></path>
                        <path d="M11.3333333,12.6666667 L20.6666667,12.6666667" id="Line" stroke="#F5821F" stroke-width="0.75" stroke-linecap="square"></path>
                        <polyline id="Path" stroke="#F5821F" stroke-width="0.75" points="17.3182722 16.0478234 21.0212058 12.6266315 17.3182722 9.52899038"></polyline>
                    </g>
                </g>
            </g>
        </g>
    </g>
</svg>