<?xml version="1.0" encoding="UTF-8"?>
<svg width="22px" height="24px" viewBox="0 0 22 24" version="1.1" xmlns="http://www.w3.org/2000/svg" xmlns:xlink="http://www.w3.org/1999/xlink">
    <!-- Generator: sketchtool 51.2 (57519) - http://www.bohemiancoding.com/sketch -->
    <title>01648573-5943-4B54-9D1A-AD7568DC98D5</title>
    <desc>Created with sketchtool.</desc>
    <defs></defs>
    <g id="Profile" stroke="none" stroke-width="1" fill="none" fill-rule="evenodd">
        <g id="Profile---Prioritas---TDS" transform="translate(-19.000000, -453.000000)">
            <g id="Group-2" transform="translate(0.000000, 265.000000)">
                <g id="ic-menu-penjualan" transform="translate(15.000000, 185.000000)">
                    <rect id="Rectangle" x="0" y="0" width="30" height="30"></rect>
                    <g id="Group" transform="translate(3.750000, 3.000000)" fill="#F5821F">
                        <path d="M17.539102,21.6274286 C17.3426939,21.6274286 17.1830204,21.7866122 17.1830204,21.9835102 L17.1830204,22.1319184 C17.1830204,22.7211429 16.7035102,23.2006531 16.1142857,23.2006531 L2.09436735,23.2006531 C1.50514286,23.2006531 1.02563265,22.7211429 1.02563265,22.1319184 L1.02563265,4.67706122 C1.02563265,4.08832653 1.50514286,3.60881633 2.09436735,3.60881633 L5.18595918,3.60881633 L5.18595918,3.96489796 C5.18595918,4.55412245 5.66546939,5.03412245 6.25469388,5.03412245 L11.9539592,5.03412245 C12.5431837,5.03412245 13.0226939,4.55461224 13.0226939,3.96489796 L13.0226939,3.60881633 L16.1142857,3.60881633 C16.7035102,3.60881633 17.1830204,4.08832653 17.1830204,4.67706122 L17.1830204,8.17273469 C17.1830204,8.36914286 17.3426939,8.52979592 17.539102,8.52979592 C17.736,8.52979592 17.8951837,8.36963265 17.8951837,8.17273469 L17.8951837,4.67706122 C17.8951837,3.69502041 17.0963265,2.89616327 16.1142857,2.89616327 L13.0222041,2.89616327 L13.0222041,2.53959184 C13.0222041,1.95036735 12.5426939,1.47085714 11.9534694,1.47085714 L10.4777143,1.47085714 C10.3185306,0.858122449 9.76555102,0.401632653 9.10383673,0.401632653 C8.44163265,0.401632653 7.88865306,0.858122449 7.72946939,1.47085714 L6.25469388,1.47085714 C5.66546939,1.47085714 5.18595918,1.95036735 5.18595918,2.53959184 L5.18595918,2.89616327 L2.09436735,2.89616327 C1.11232653,2.89616327 0.312979592,3.69502041 0.312979592,4.67706122 L0.312979592,22.1319184 C0.312979592,23.1139592 1.11183673,23.9133061 2.09436735,23.9133061 L16.1142857,23.9133061 C17.0963265,23.9133061 17.8951837,23.1139592 17.8951837,22.1319184 L17.8951837,21.9835102 C17.8951837,21.7866122 17.7355102,21.6274286 17.539102,21.6274286 Z M9.10432653,1.11477551 C9.49714286,1.11477551 9.81697959,1.43461224 9.81697959,1.82693878 C9.81697959,2.2202449 9.49714286,2.53959184 9.10432653,2.53959184 C8.7115102,2.53959184 8.39167347,2.2202449 8.39167347,1.82693878 C8.39167347,1.43461224 8.7115102,1.11477551 9.10432653,1.11477551 Z M5.89812245,2.53959184 C5.89812245,2.34318367 6.05828571,2.1835102 6.25469388,2.1835102 L7.72995918,2.1835102 C7.88914286,2.7962449 8.44212245,3.2517551 9.10432653,3.2517551 C9.76604082,3.2517551 10.3190204,2.7962449 10.4782041,2.1835102 L11.9539592,2.1835102 C12.1503673,2.1835102 12.3105306,2.34269388 12.3105306,2.53959184 L12.3105306,3.96440816 C12.3105306,4.16081633 12.1503673,4.32097959 11.9539592,4.32097959 L6.25469388,4.32097959 C6.05828571,4.32097959 5.89812245,4.16130612 5.89812245,3.96440816 L5.89812245,2.53959184 Z" id="Shape" fill-rule="nonzero"></path>
                        <g id="Group-6" transform="translate(3.000000, 6.750000)" fill-opacity="0.2">
                            <path d="M2.21926531,1.60053061 C2.21926531,1.79644898 2.05959184,1.95710204 1.86318367,1.95710204 L0.79444898,1.95710204 C0.598040816,1.95710204 0.438367347,1.79693878 0.438367347,1.60053061 L0.438367347,0.531795918 C0.438367347,0.335387755 0.598040816,0.17522449 0.79444898,0.17522449 L1.86318367,0.17522449 C2.05959184,0.17522449 2.21926531,0.334897959 2.21926531,0.531795918 L2.21926531,1.60053061 Z" id="Path"></path>
                            <path d="M2.21926531,6.58812245 C2.21926531,6.78404082 2.05959184,6.94469388 1.86318367,6.94469388 L0.79444898,6.94469388 C0.598040816,6.94469388 0.438367347,6.78453061 0.438367347,6.58812245 L0.438367347,5.51938776 C0.438367347,5.32346939 0.598040816,5.16281633 0.79444898,5.16281633 L1.86318367,5.16281633 C2.05959184,5.16281633 2.21926531,5.32297959 2.21926531,5.51938776 L2.21926531,6.58812245 Z" id="Path"></path>
                            <path d="M2.21926531,11.5757143 C2.21926531,11.7721224 2.05959184,11.9317959 1.86318367,11.9317959 L0.79444898,11.9317959 C0.598040816,11.9317959 0.438367347,11.7726122 0.438367347,11.5757143 L0.438367347,10.5064898 C0.438367347,10.3105714 0.598040816,10.1504082 0.79444898,10.1504082 L1.86318367,10.1504082 C2.05959184,10.1504082 2.21926531,10.3100816 2.21926531,10.5064898 L2.21926531,11.5757143 Z" id="Path"></path>
                        </g>
                        <path d="M5.93191837,7.28228571 C5.93191837,6.69257143 5.45240816,6.21306122 4.86318367,6.21306122 L3.79444898,6.21306122 C3.20522449,6.21306122 2.72571429,6.69257143 2.72571429,7.28228571 L2.72571429,8.35102041 C2.72571429,8.9402449 3.20522449,9.4197551 3.79444898,9.4197551 L4.86318367,9.4197551 C5.45240816,9.4197551 5.93191837,8.9402449 5.93191837,8.35102041 L5.93191837,7.28228571 Z M5.21926531,8.35053061 C5.21926531,8.54644898 5.05959184,8.70710204 4.86318367,8.70710204 L3.79444898,8.70710204 C3.59804082,8.70710204 3.43836735,8.54693878 3.43836735,8.35053061 L3.43836735,7.28179592 C3.43836735,7.08538776 3.59804082,6.92522449 3.79444898,6.92522449 L4.86318367,6.92522449 C5.05959184,6.92522449 5.21926531,7.08489796 5.21926531,7.28179592 L5.21926531,8.35053061 Z" id="Shape" fill-rule="nonzero"></path>
                        <path d="M5.93191837,12.2693878 C5.93191837,11.6801633 5.45240816,11.2006531 4.86318367,11.2006531 L3.79444898,11.2006531 C3.20522449,11.2006531 2.72571429,11.6801633 2.72571429,12.2693878 L2.72571429,13.3381224 C2.72571429,13.9273469 3.20522449,14.4068571 3.79444898,14.4068571 L4.86318367,14.4068571 C5.45240816,14.4068571 5.93191837,13.9273469 5.93191837,13.3381224 L5.93191837,12.2693878 Z M5.21926531,13.3381224 C5.21926531,13.5340408 5.05959184,13.6946939 4.86318367,13.6946939 L3.79444898,13.6946939 C3.59804082,13.6946939 3.43836735,13.5345306 3.43836735,13.3381224 L3.43836735,12.2693878 C3.43836735,12.0734694 3.59804082,11.9128163 3.79444898,11.9128163 L4.86318367,11.9128163 C5.05959184,11.9128163 5.21926531,12.0729796 5.21926531,12.2693878 L5.21926531,13.3381224 Z" id="Shape" fill-rule="nonzero"></path>
                        <path d="M4.86318367,16.1882449 L3.79444898,16.1882449 C3.20522449,16.1882449 2.72571429,16.6677551 2.72571429,17.2564898 L2.72571429,18.3257143 C2.72571429,18.9149388 3.20522449,19.394449 3.79444898,19.394449 L4.86318367,19.394449 C5.45240816,19.394449 5.93191837,18.9149388 5.93191837,18.3257143 L5.93191837,17.2564898 C5.93191837,16.6677551 5.45240816,16.1882449 4.86318367,16.1882449 Z M5.21926531,18.3257143 C5.21926531,18.5221224 5.05959184,18.6817959 4.86318367,18.6817959 L3.79444898,18.6817959 C3.59804082,18.6817959 3.43836735,18.5226122 3.43836735,18.3257143 L3.43836735,17.2564898 C3.43836735,17.0605714 3.59804082,16.9004082 3.79444898,16.9004082 L4.86318367,16.9004082 C5.05959184,16.9004082 5.21926531,17.0600816 5.21926531,17.2564898 L5.21926531,18.3257143 Z" id="Shape" fill-rule="nonzero"></path>
                        <path d="M15.4829388,7.81616327 C15.4829388,7.61926531 15.3232653,7.45959184 15.1268571,7.45959184 L7.69077551,7.45959184 C7.49436735,7.45959184 7.33420408,7.61877551 7.33420408,7.81616327 C7.33420408,8.01257143 7.49387755,8.1722449 7.69077551,8.1722449 L15.1268571,8.1722449 C15.3232653,8.1722449 15.4829388,8.01306122 15.4829388,7.81616327 Z" id="Shape" fill-rule="nonzero"></path>
                        <path d="M7.69077551,13.1603265 L11.2158367,13.1573878 C11.4127347,13.156898 11.5719184,12.9977143 11.5719184,12.8008163 C11.5719184,12.6039184 11.4122449,12.4447347 11.2158367,12.4447347 L11.2153469,12.4447347 L7.69077551,12.4476735 C7.49436735,12.4476735 7.33469388,12.6068571 7.33469388,12.8042449 C7.33469388,13.0006531 7.49387755,13.1603265 7.69077551,13.1603265 Z" id="Shape" fill-rule="nonzero"></path>
                        <path d="M7.69077551,18.1474286 L11.5714286,18.1474286 C11.7683265,18.1474286 11.9275102,17.9882449 11.9275102,17.7908571 C11.9275102,17.5934694 11.7683265,17.4342857 11.5714286,17.4342857 L7.69077551,17.4342857 C7.49436735,17.4342857 7.33420408,17.5934694 7.33420408,17.7908571 C7.33420408,17.9882449 7.49387755,18.1474286 7.69077551,18.1474286 Z" id="Shape" fill-rule="nonzero"></path>
                        <g id="Group-5" transform="translate(13.500000, 10.500000)" fill-opacity="0.2">
                            <path d="M1.92416327,1.0684898 C1.92416327,0.583591837 2.31844898,0.188816327 2.80334694,0.188816327 C3.2882449,0.188816327 3.68253061,0.583591837 3.68253061,1.0684898 L3.68253061,1.94522449 L2.77542857,1.94522449 C2.3037551,1.92955102 1.92416327,1.54359184 1.92416327,1.0684898 Z" id="Path"></path>
                            <path d="M0.298530612,2.65738776 L2.77542857,2.65738776 C2.78522449,2.65738776 2.79355102,2.66032653 2.80334694,2.66032653 L3.68253061,2.66032653 L3.68253061,3.94359184 L0.298530612,3.94359184 L0.298530612,2.65738776 Z" id="Path"></path>
                            <polygon id="Path" points="0.832897959 4.6562449 3.68253061 4.6562449 3.68253061 9.34604082 0.832897959 9.34604082"></polygon>
                        </g>
                        <path d="M21.6352653,12.4452245 L20.620898,12.4452245 C20.8927347,12.1111837 21.0568163,11.6860408 21.0568163,11.2231837 C21.0568163,10.1549388 20.1879184,9.28604082 19.1196735,9.28604082 C18.3477551,9.28604082 17.6816327,9.74106122 17.3706122,10.3964082 C17.0875102,10.1382857 16.7152653,9.97665306 16.3033469,9.97665306 C15.4256327,9.97665306 14.7115102,10.6912653 14.7115102,11.5689796 C14.7115102,11.8927347 14.8099592,12.1934694 14.9769796,12.4457143 L13.442449,12.4457143 C13.2460408,12.4457143 13.0863673,12.604898 13.0863673,12.8017959 L13.0863673,14.8006531 C13.0863673,14.9970612 13.2460408,15.1572245 13.442449,15.1572245 L13.6207347,15.1572245 L13.6207347,20.2035918 C13.6207347,20.4 13.7804082,20.5596735 13.9768163,20.5596735 L21.1013878,20.5596735 C21.2977959,20.5596735 21.4574694,20.4004898 21.4574694,20.2035918 L21.4574694,15.1572245 L21.6357551,15.1572245 C21.8321633,15.1572245 21.9923265,14.997551 21.9923265,14.8006531 L21.9923265,12.8017959 C21.9918367,12.6044082 21.8321633,12.4452245 21.6352653,12.4452245 Z M21.2791837,14.4435918 L17.8951837,14.4435918 L17.8951837,13.1603265 L19.1196735,13.1603265 C19.1382857,13.1603265 19.1564082,13.1578776 19.1745306,13.1573878 L21.2786939,13.1573878 L21.2786939,14.4435918 L21.2791837,14.4435918 Z M17.8951837,11.2231837 C17.8951837,10.5482449 18.4447347,9.99869388 19.1196735,9.99869388 C19.7946122,9.99869388 20.3441633,10.5482449 20.3441633,11.2231837 C20.3441633,11.8888163 19.8093061,12.4300408 19.147102,12.4452245 L17.8946939,12.4452245 L17.8946939,11.5684898 L17.8946939,11.2231837 L17.8951837,11.2231837 Z M15.4241633,11.5684898 C15.4241633,11.0835918 15.818449,10.6888163 16.3033469,10.6888163 C16.7882449,10.6888163 17.1825306,11.0835918 17.1825306,11.5684898 L17.1825306,12.4452245 L16.2754286,12.4452245 C15.8037551,12.429551 15.4241633,12.0435918 15.4241633,11.5684898 Z M13.7985306,13.1573878 L16.2754286,13.1573878 C16.2852245,13.1573878 16.293551,13.1603265 16.3033469,13.1603265 L17.1825306,13.1603265 L17.1825306,14.4435918 L13.7985306,14.4435918 L13.7985306,13.1573878 Z M14.332898,15.1562449 L17.1825306,15.1562449 L17.1825306,19.8460408 L14.332898,19.8460408 L14.332898,15.1562449 Z M20.7448163,19.8460408 L17.8951837,19.8460408 L17.8951837,15.1562449 L20.7448163,15.1562449 L20.7448163,19.8460408 Z" id="Shape" fill-rule="nonzero"></path>
                    </g>
                </g>
            </g>
        </g>
    </g>
</svg>