<?xml version="1.0" encoding="UTF-8"?>
<svg width="55px" height="55px" viewBox="0 0 55 55" version="1.1" xmlns="http://www.w3.org/2000/svg" xmlns:xlink="http://www.w3.org/1999/xlink">
    <!-- Generator: sketchtool 51.2 (57519) - http://www.bohemiancoding.com/sketch -->
    <title>8495D802-7431-49C4-9A49-96358C2F0E0A</title>
    <desc>Created with sketchtool.</desc>
    <defs></defs>
    <g id="Upgrade-Reseller" stroke="none" stroke-width="1" fill="none" fill-rule="evenodd">
        <g id="Profile---Upgrade-Reseller" transform="translate(-28.000000, -717.000000)">
            <g id="ic-profit-tinggi" transform="translate(15.000000, 704.000000)">
                <rect id="Rectangle" x="0" y="0" width="80" height="80"></rect>
                <g id="Group" transform="translate(13.000000, 13.000000)">
                    <polygon id="Path" fill="#E6E6E6" points="52.8370408 52.8314286 47.0059184 52.8314286 47.0059184 19.6821429 52.8370408 19.6821429 52.8370408 52.8314286"></polygon>
                    <polygon id="Path" fill="#E6E6E6" points="37.9095918 52.8314286 32.0784694 52.8314286 32.0784694 28.8581633 37.9095918 28.8581633"></polygon>
                    <polygon id="Path" fill="#E6E6E6" points="22.9821429 52.8314286 17.1510204 52.8314286 17.1510204 39.6707143 22.9821429 39.6707143"></polygon>
                    <polygon id="Path" fill="#E6E6E6" points="8.05469388 52.8314286 2.22469388 52.8314286 2.22469388 49.8906122 8.05469388 49.8906122"></polygon>
                    <path d="M53.6530612,18.0489796 L46.1887755,18.0489796 C45.7386735,18.0489796 45.3727551,18.4137755 45.3727551,18.865 L45.3727551,53.647449 C45.3727551,54.0997959 45.737551,54.4657143 46.1887755,54.4657143 L53.6530612,54.4657143 C54.1042857,54.4657143 54.4690816,54.1009184 54.4690816,53.647449 L54.4690816,18.865 C54.4690816,18.4137755 54.1042857,18.0489796 53.6530612,18.0489796 Z M52.8370408,52.8314286 L47.0059184,52.8314286 L47.0059184,19.6821429 L52.8370408,19.6821429 L52.8370408,52.8314286 Z" id="Shape" fill="#8C8C8C" fill-rule="nonzero"></path>
                    <path d="M38.7256122,27.2261224 L31.2613265,27.2261224 C30.8112245,27.2261224 30.4453061,27.5931633 30.4453061,28.0432653 L30.4453061,53.647449 C30.4453061,54.0997959 30.8112245,54.4657143 31.2613265,54.4657143 L38.7256122,54.4657143 C39.1757143,54.4657143 39.5416327,54.1009184 39.5416327,53.647449 L39.5416327,28.0432653 C39.5427551,27.5931633 39.1768367,27.2261224 38.7256122,27.2261224 Z M37.9095918,52.8314286 L32.0784694,52.8314286 L32.0784694,28.8581633 L37.9095918,28.8581633 L37.9095918,52.8314286 Z" id="Shape" fill="#8C8C8C" fill-rule="nonzero"></path>
                    <path d="M23.7992857,38.0386735 L16.3361224,38.0386735 C15.884898,38.0386735 15.5189796,38.4034694 15.5189796,38.8546939 L15.5189796,53.647449 C15.5189796,54.0997959 15.884898,54.4657143 16.3361224,54.4657143 L23.7992857,54.4657143 C24.2493878,54.4657143 24.6164286,54.1009184 24.6164286,53.647449 L24.6164286,38.8546939 C24.6153061,38.4034694 24.2493878,38.0386735 23.7992857,38.0386735 Z M22.9821429,52.8314286 L17.1510204,52.8314286 L17.1510204,39.6707143 L22.9821429,39.6707143 L22.9821429,52.8314286 Z" id="Shape" fill="#8C8C8C" fill-rule="nonzero"></path>
                    <path d="M8.87071429,48.2585714 L1.40755102,48.2585714 C0.956326531,48.2585714 0.590408163,48.6222449 0.590408163,49.0745918 L0.590408163,53.647449 C0.590408163,54.0997959 0.956326531,54.4657143 1.40755102,54.4657143 L8.87071429,54.4657143 C9.32193878,54.4657143 9.68673469,54.1009184 9.68673469,53.647449 L9.68673469,49.0745918 C9.68673469,48.6222449 9.32193878,48.2585714 8.87071429,48.2585714 Z M8.05469388,52.8314286 L2.22469388,52.8314286 L2.22469388,49.8906122 L8.05469388,49.8906122 L8.05469388,52.8314286 Z" id="Shape" fill="#8C8C8C" fill-rule="nonzero"></path>
                    <path d="M50.3541837,15.4740816 C50.5921429,15.3259184 50.7369388,15.0655102 50.7369388,14.7837755 L50.7369388,4.36520408 L52.8707143,7.26112245 C53.0312245,7.4777551 53.2781633,7.5944898 53.5284694,7.5944898 C53.6968367,7.5944898 53.8663265,7.54285714 54.0122449,7.43397959 C54.3747959,7.16795918 54.4522449,6.65612245 54.185102,6.29244898 L50.577551,1.39408163 C50.567449,1.38061224 50.5506122,1.37836735 50.5405102,1.36602041 C50.390102,1.18418367 50.1734694,1.06295918 49.9197959,1.06295918 C49.6661224,1.06295918 49.4494898,1.18306122 49.3002041,1.36602041 C49.2889796,1.3794898 49.2732653,1.38173469 49.2631633,1.39408163 L45.6556122,6.29244898 C45.3884694,6.655 45.4659184,7.16683673 45.8284694,7.43397959 C46.1932653,7.70336735 46.7028571,7.62479592 46.97,7.26112245 L49.1037755,4.36520408 L49.1037755,13.4806122 L42.2893878,10.1727551 C41.8954082,9.98193878 41.4194898,10.1345918 41.2129592,10.5229592 L34.617449,22.9327551 L27.7727551,20.1771429 C27.3855102,20.02 26.9443878,20.1816327 26.7479592,20.547551 L19.6866327,33.7531633 L11.9653061,30.7539796 C11.5668367,30.5990816 11.1156122,30.7797959 10.9326531,31.1670408 L4.40112245,45.0045918 C4.20806122,45.4097959 4.38316327,45.8991837 4.79061224,46.0911224 C4.90285714,46.1438776 5.02183673,46.1685714 5.13857143,46.1685714 C5.44387755,46.1685714 5.73795918,45.9957143 5.87714286,45.6993878 L12.0831633,32.549898 L19.7708163,35.5356122 C20.1558163,35.6860204 20.5902041,35.5221429 20.7855102,35.1595918 L27.8423469,21.9652041 L34.6881633,24.7208163 C35.0754082,24.8745918 35.5187755,24.7140816 35.7140816,24.3459184 L42.284898,11.9832653 L49.5639796,15.5167347 C49.8176531,15.6390816 50.1162245,15.6244898 50.3541837,15.4740816 Z" id="Shape" fill="#16B8B2" fill-rule="nonzero"></path>
                    <path d="M11.4826531,22.5073469 C17.4877551,22.5073469 22.3737755,17.6202041 22.3737755,11.6162245 C22.3737755,5.60887755 17.4877551,0.725102041 11.4826531,0.725102041 C5.47755102,0.725102041 0.591530612,5.61 0.591530612,11.6162245 C0.591530612,17.6213265 5.47755102,22.5073469 11.4826531,22.5073469 Z M11.4826531,2.35826531 C16.587551,2.35826531 20.7406122,6.51020408 20.7406122,11.6162245 C20.7406122,16.7222449 16.587551,20.8741837 11.4826531,20.8741837 C6.3777551,20.8741837 2.22469388,16.7222449 2.22469388,11.6162245 C2.22469388,6.51020408 6.3777551,2.35826531 11.4826531,2.35826531 Z" id="Shape" fill="#8C8C8C" fill-rule="nonzero"></path>
                    <path d="M6.6,13.1480315 L6.6,8.36692913 C6.6,7.99448819 6.89448819,7.7 7.26692913,7.7 L9.37165354,7.7 C10.1425197,7.7 10.7401575,7.91653543 11.1385827,8.31496063 C11.476378,8.65275591 11.6582677,9.12913386 11.6582677,9.7007874 L11.6582677,9.71811024 C11.6582677,10.6708661 11.1818898,11.2598425 10.4456693,11.5629921 L11.3724409,12.6889764 C11.5023622,12.8535433 11.5889764,12.992126 11.5889764,13.2 C11.5889764,13.5724409 11.2771654,13.8149606 10.9566929,13.8149606 C10.6535433,13.8149606 10.4543307,13.6677165 10.2984252,13.4685039 L8.9992126,11.8228346 L7.93385827,11.8228346 L7.93385827,13.1480315 C7.93385827,13.5204724 7.63937008,13.8149606 7.26692913,13.8149606 C6.89448819,13.8149606 6.6,13.5204724 6.6,13.1480315 Z M7.93385827,10.6448819 L9.28503937,10.6448819 C9.93464567,10.6448819 10.3070866,10.2984252 10.3070866,9.78740157 L10.3070866,9.77007874 C10.3070866,9.1984252 9.90866142,8.90393701 9.25905512,8.90393701 L7.93385827,8.90393701 L7.93385827,10.6448819 Z M12.723622,14.5425197 L12.723622,9.72677165 C12.723622,9.36299213 13.0181102,9.06850394 13.3818898,9.06850394 C13.7456693,9.06850394 14.0401575,9.36299213 14.0401575,9.72677165 L14.0401575,9.78740157 C14.3606299,9.35433071 14.8023622,9.03385827 15.4866142,9.03385827 C16.5692913,9.03385827 17.6,9.88267717 17.6,11.4330709 L17.6,11.4503937 C17.6,13.0007874 16.5866142,13.8496063 15.4866142,13.8496063 C14.7850394,13.8496063 14.3519685,13.5291339 14.0401575,13.1566929 L14.0401575,14.5425197 C14.0401575,14.9062992 13.7456693,15.2007874 13.3818898,15.2007874 C13.0181102,15.2007874 12.723622,14.9062992 12.723622,14.5425197 Z M15.1488189,12.7322835 C15.7637795,12.7322835 16.2834646,12.2299213 16.2834646,11.4503937 L16.2834646,11.4330709 C16.2834646,10.6622047 15.7637795,10.1511811 15.1488189,10.1511811 C14.5338583,10.1511811 14.0228346,10.6622047 14.0228346,11.4330709 L14.0228346,11.4503937 C14.0228346,12.2212598 14.5338583,12.7322835 15.1488189,12.7322835 Z" id="Rp" fill="#16B8B2"></path>
                </g>
            </g>
        </g>
    </g>
</svg>