<?xml version="1.0" encoding="UTF-8"?>
<svg width="99px" height="124px" viewBox="0 0 99 124" version="1.1" xmlns="http://www.w3.org/2000/svg" xmlns:xlink="http://www.w3.org/1999/xlink">
    <!-- Generator: sketchtool 51.2 (57519) - http://www.bohemiancoding.com/sketch -->
    <title>832B48EF-6521-4364-A785-EE52AE15D266</title>
    <desc>Created with sketchtool.</desc>
    <defs></defs>
    <g id="Landing-Page" stroke="none" stroke-width="1" fill="none" fill-rule="evenodd">
        <g id="ic-point-reward-copy" transform="translate(-20.000000, -9.000000)">
            <rect id="Rectangle" x="0" y="0" width="140" height="140"></rect>
            <g id="Group" transform="translate(20.250000, 8.400000)">
                <path d="M51.272399,20.8328006 C50.6053047,20.7866186 49.9320582,20.7631429 49.2534286,20.7631429 C33.2951429,20.7631429 20.3094286,33.7488571 20.3094286,49.7097143 C20.3094286,65.6705714 33.2925714,78.6562857 49.2534286,78.6562857 C49.9326597,78.6562857 50.606498,78.6327684 51.2741726,78.5865052 L51.2745714,91.5725714 C50.0274286,90.8242857 48.4742857,90.8217143 47.2245714,91.5725714 L41.5185714,95.008 C41.4362857,95.0517143 41.336,95.0388571 41.2742857,94.9617143 L37.052,89.7391429 C36.296,88.8057143 35.1722857,88.2785714 33.9997143,88.2785714 C33.7528571,88.2785714 33.506,88.3042857 33.2591429,88.348 L26.7354286,89.5925714 C26.6377143,89.608 26.5528571,89.5565714 26.522,89.4691429 L24.3028571,83.0585714 C23.8322857,81.6982857 22.6597143,80.7082857 21.2402857,80.4691429 L14.6574286,79.3685714 C14.5674286,79.3531429 14.5005714,79.2734286 14.5031429,79.1834286 L14.5777143,72.3511429 C14.5931429,70.9291429 13.8345714,69.61 12.5977143,68.9002857 L6.75542857,65.56 C6.67314286,65.5111429 6.63971429,65.416 6.67057143,65.3285714 L9.04914286,58.9257143 C9.54285714,57.5962857 9.28057143,56.1022857 8.36514286,55.0197143 L3.97571429,49.828 C3.93628571,49.7817143 5.39942857,47.9705714 8.36514286,44.3945714 C9.27542857,43.312 9.53771429,41.818 9.04657143,40.4911429 L6.668,34.0857143 C6.63457143,33.9957143 6.67057143,33.9005714 6.75028571,33.8542857 L12.5951429,30.514 C13.8294286,29.8068571 14.588,28.4851429 14.5751429,27.0631429 L14.5005714,20.2282857 C14.5005714,20.1382857 14.5648571,20.0585714 14.6574286,20.0431429 L21.2377143,18.9477143 C22.6597143,18.706 23.8322857,17.716 24.3028571,16.3557143 L26.5245714,9.94771429 C26.5554286,9.85771429 26.648,9.80628571 26.7354286,9.82171429 L33.2642857,11.0662857 C34.6837143,11.3414286 36.1417143,10.804 37.052,9.67514286 L41.2742857,4.45 C41.3334286,4.378 41.4362857,4.36257143 41.516,4.40628571 L47.222,7.84171429 C48.4691429,8.59 50.0222857,8.59 51.272,7.84171429 L51.272399,20.8328006 Z" id="Combined-Shape" fill="#E6E6E6"></path>
                <path d="M34.946,118.138 L27.4142857,103.190286 C27.0568571,102.483143 26.2854286,102.084571 25.5037143,102.177143 L8.90257143,104.314 L19.6845714,84.0022857 L20.6231429,84.1617143 C20.69,84.172 20.7465714,84.2182857 20.7697143,84.2851429 L22.9888571,90.6982857 C23.6214286,92.5291429 25.5371429,93.6297143 27.4348571,93.2697143 L33.9585714,92.0277143 C34.0254286,92.0148571 34.0948571,92.0405714 34.1385714,92.092 L38.3634286,97.3171429 C39.1297143,98.266 40.2714286,98.77 41.426,98.77 C42.1202857,98.77 42.8171429,98.59 43.442,98.2094286 L46.4942857,96.376 L34.946,118.138 Z" id="Path" fill="#E6E6E6"></path>
                <path d="M97.3777143,52.2477143 C98.6197143,50.7768571 98.6197143,48.6451429 97.3777143,47.1742857 L92.9908571,41.9877143 C92.9445714,41.9337143 92.9342857,41.8617143 92.9574286,41.7974286 L95.3334286,35.3894286 C96.0045714,33.5817143 95.2794286,31.576 93.6002857,30.6142857 L87.7554286,27.274 C87.6962857,27.238 87.6577143,27.1762857 87.6602857,27.1094286 L87.7348571,20.2797143 C87.7554286,18.3331429 86.3771429,16.6874286 84.4537143,16.3634286 L77.876,15.2654286 C77.8091429,15.2551429 77.7525714,15.2088571 77.7294286,15.142 L75.5102857,8.73142857 C74.8777143,6.90057143 72.9594286,5.8 71.0617143,6.15742857 L64.5431429,7.39942857 C64.466,7.40971429 64.4017143,7.38657143 64.358,7.33514286 L60.1357143,2.11257143 C58.9091429,0.590285714 56.7234286,0.202 55.0545714,1.21514286 L49.3485714,4.648 C49.2894286,4.68142857 49.2122857,4.68142857 49.1531429,4.648 L43.4471429,1.21514286 C41.7731429,0.202 39.5874286,0.592857143 38.366,2.11 L34.1437143,7.33514286 C34.1,7.38914286 34.0331429,7.41485714 33.9637143,7.39942857 L27.4374286,6.15742857 C25.532,5.78971429 23.6265714,6.90314286 22.994,8.73142857 L20.7722857,15.142 C20.7491429,15.2062857 20.6951429,15.2551429 20.6257143,15.2654286 L14.0454286,16.3634286 C12.122,16.6874286 10.7437143,18.3357143 10.7668571,20.2797143 L10.8414286,27.1094286 C10.8414286,27.1762857 10.8054286,27.2431429 10.7462857,27.274 L4.904,30.6117143 C3.22485714,31.5682857 2.49457143,33.5791429 3.16828571,35.3894286 L5.54685714,41.7974286 C5.57,41.8617143 5.55714286,41.9337143 5.51342857,41.9851429 L1.12657143,47.1742857 C-0.115428571,48.6451429 -0.115428571,50.7742857 1.12657143,52.2477143 L5.51342857,57.4368571 C5.51342857,57.4368571 5.54685714,57.622 5.54685714,57.6245714 L3.16828571,64.03 C2.49714286,65.8377143 3.22485714,67.846 4.90142857,68.8077143 L10.7437143,72.1505714 C10.8028571,72.1814286 10.8414286,72.2457143 10.8388571,72.3125714 L10.7642857,79.1397143 C10.7411429,81.0888571 12.122,82.7371429 14.0428571,83.056 L15.7965714,83.3465714 L3.90371429,105.751429 C3.57714286,106.368571 3.61828571,107.116857 4.01685714,107.692857 C4.41542857,108.268857 5.102,108.564571 5.79371429,108.484857 L24.6654286,106.052286 L33.2282857,123.049429 C33.5445714,123.671714 34.1797143,124.067714 34.8791429,124.072857 L34.8997143,124.072857 C35.5914286,124.072857 36.2265714,123.694857 36.5505714,123.080286 L49.2482857,99.1634286 L61.9434286,123.080286 C62.2674286,123.692286 62.9051429,124.072857 63.5968571,124.072857 L63.6174286,124.072857 C64.3142857,124.067714 64.952,123.671714 65.2682857,123.049429 L73.8311429,106.052286 L92.7054286,108.484857 C93.4048571,108.564571 94.0862857,108.268857 94.4822857,107.692857 C94.8808571,107.116857 94.9245714,106.368571 94.5954286,105.751429 L82.7025714,83.3465714 L84.4511429,83.056 C86.3745714,82.7371429 87.7528571,81.0862857 87.7322857,79.1422857 L87.6577143,72.3151429 C87.6577143,72.2457143 87.6937143,72.1814286 87.7528571,72.1505714 L93.6002857,68.8077143 C95.2768571,67.846 96.0045714,65.8402857 95.3308571,64.0325714 L92.9548571,57.622 C92.9317143,57.5602857 92.942,57.4908571 92.9857143,57.4368571 L97.3777143,52.2477143 Z M34.946,118.138 L27.4142857,103.190286 C27.0568571,102.483143 26.2854286,102.084571 25.5037143,102.177143 L8.90257143,104.314 L19.6845714,84.0022857 L20.6231429,84.1617143 C20.69,84.172 20.7465714,84.2182857 20.7697143,84.2851429 L22.9888571,90.6982857 C23.6214286,92.5291429 25.5371429,93.6297143 27.4348571,93.2697143 L33.9585714,92.0277143 C34.0254286,92.0148571 34.0948571,92.0405714 34.1385714,92.092 L38.3634286,97.3171429 C39.1297143,98.266 40.2714286,98.77 41.426,98.77 C42.1202857,98.77 42.8171429,98.59 43.442,98.2094286 L46.4942857,96.376 L34.946,118.138 Z M89.5991429,104.314 L72.998,102.177143 C72.2188571,102.094857 71.4448571,102.480571 71.0874286,103.190286 L63.5557143,118.138 L52.0022857,96.3734286 L55.0571429,98.2094286 C56.7285714,99.2225714 58.9117143,98.8317143 60.1382857,97.3145714 L64.3605714,92.0894286 C64.4068571,92.0354286 64.4737143,92.0122857 64.5431429,92.0251429 L71.0668571,93.2671429 C72.9722857,93.6297143 74.8828571,92.5265714 75.5154286,90.6957143 L77.7345714,84.2825714 C77.7577143,84.2182857 77.8142857,84.1694286 77.8811429,84.1591429 L78.8197143,83.9997143 L89.5991429,104.314 Z M89.45,58.9231429 L91.8285714,65.3285714 C91.8594286,65.4185714 91.8234286,65.5111429 91.7462857,65.56 L85.9014286,68.9002857 C84.6645714,69.6074286 83.906,70.9317143 83.9214286,72.3537143 L83.996,79.1834286 C83.996,79.2734286 83.9291429,79.3531429 83.8391429,79.3685714 L77.2588571,80.4691429 C75.8394286,80.7082857 74.6668571,81.6982857 74.1962857,83.0585714 L71.9771429,89.4691429 C71.9462857,89.5565714 71.8588571,89.6105714 71.7637143,89.5925714 L65.2425714,88.348 C63.8231429,88.078 62.3651429,88.6102857 61.4497143,89.7391429 L57.2274286,94.9617143 C57.1682857,95.0362857 57.0654286,95.0517143 56.9831429,95.008 L51.2745714,91.5725714 C50.0274286,90.8242857 48.4742857,90.8217143 47.2245714,91.5725714 L41.5185714,95.008 C41.4362857,95.0517143 41.336,95.0388571 41.2742857,94.9617143 L37.052,89.7391429 C36.296,88.8057143 35.1722857,88.2785714 33.9997143,88.2785714 C33.7528571,88.2785714 33.506,88.3042857 33.2591429,88.348 L26.7354286,89.5925714 C26.6377143,89.608 26.5528571,89.5565714 26.522,89.4691429 L24.3028571,83.0585714 C23.8322857,81.6982857 22.6597143,80.7082857 21.2402857,80.4691429 L14.6574286,79.3685714 C14.5674286,79.3531429 14.5005714,79.2734286 14.5031429,79.1834286 L14.5777143,72.3511429 C14.5931429,70.9291429 13.8345714,69.61 12.5977143,68.9002857 L6.75542857,65.56 C6.67314286,65.5111429 6.63971429,65.416 6.67057143,65.3285714 L9.04914286,58.9257143 C9.54285714,57.5962857 9.28057143,56.1022857 8.36514286,55.0197143 L3.97571429,49.828 C3.91657143,49.7585714 3.91657143,49.6582857 3.97571429,49.5862857 L8.36514286,44.3945714 C9.27542857,43.312 9.53771429,41.818 9.04657143,40.4911429 L6.668,34.0857143 C6.63457143,33.9957143 6.67057143,33.9005714 6.75028571,33.8542857 L12.5951429,30.514 C13.8294286,29.8068571 14.588,28.4851429 14.5751429,27.0631429 L14.5005714,20.2282857 C14.5005714,20.1382857 14.5648571,20.0585714 14.6574286,20.0431429 L21.2377143,18.9477143 C22.6597143,18.706 23.8322857,17.716 24.3028571,16.3557143 L26.5245714,9.94771429 C26.5554286,9.85771429 26.648,9.80628571 26.7354286,9.82171429 L33.2642857,11.0662857 C34.6837143,11.3414286 36.1417143,10.804 37.052,9.67514286 L41.2742857,4.45 C41.3334286,4.378 41.4362857,4.36257143 41.516,4.40628571 L47.222,7.84171429 C48.4691429,8.59 50.0222857,8.59 51.272,7.84171429 L56.978,4.40628571 C57.0602857,4.35742857 57.1631429,4.37285714 57.2222857,4.45257143 L61.4445714,9.67514286 C62.3548571,10.804 63.8128571,11.3362857 65.2348571,11.0662857 L71.756,9.82171429 C71.8511429,9.80371429 71.9411429,9.85771429 71.9694286,9.94771429 L74.1885714,16.3557143 C74.6591429,17.716 75.8342857,18.706 77.2537143,18.9477143 L83.8314286,20.0431429 C83.924,20.0585714 83.9908571,20.1408571 83.9908571,20.2308571 L83.9162857,27.0631429 C83.9008571,28.4851429 84.6594286,29.8042857 85.8962857,30.514 L91.7411429,33.8542857 C91.8208571,33.9005714 91.8568571,33.9957143 91.826,34.0857143 L89.4474286,40.4911429 C88.9562857,41.818 89.2185714,43.312 90.1314286,44.3945714 L94.5208571,49.5862857 C94.58,49.6557143 94.58,49.7585714 94.5208571,49.828 L90.1314286,55.0197143 C89.2211429,56.1048571 88.9588571,57.5988571 89.45,58.9231429 Z" id="Shape" fill="#8C8C8C" fill-rule="nonzero"></path>
                <path d="M49.2534286,17.0268571 C31.2328571,17.0268571 16.5705714,31.6865714 16.5705714,49.7122857 C16.5705714,67.7354286 31.2328571,82.3977143 49.2534286,82.3977143 C67.2765714,82.3977143 81.9388571,67.7354286 81.9388571,49.7122857 C81.9388571,31.6865714 67.2765714,17.0268571 49.2534286,17.0268571 Z M49.2534286,78.6562857 C33.2925714,78.6562857 20.3094286,65.6705714 20.3094286,49.7097143 C20.3094286,33.7488571 33.2951429,20.7631429 49.2534286,20.7631429 C65.2142857,20.7631429 78.1974286,33.7488571 78.1974286,49.7097143 C78.1974286,65.6705714 65.2142857,78.6562857 49.2534286,78.6562857 Z" id="Shape" fill="#8C8C8C" fill-rule="nonzero"></path>
                <path d="M32.6,55.1412598 L32.6,40.5371654 C32.6,39.3995276 33.4995276,38.5 34.6371654,38.5 L41.0661417,38.5 C43.4207874,38.5 45.2462992,39.1614173 46.4633071,40.3784252 C47.4951181,41.4102362 48.0507087,42.8653543 48.0507087,44.6114961 L48.0507087,44.6644094 C48.0507087,47.5746457 46.5955906,49.3737008 44.3467717,50.299685 L47.1776378,53.7390551 C47.5744882,54.2417323 47.8390551,54.6650394 47.8390551,55.3 C47.8390551,56.4376378 46.8866142,57.1784252 45.9077165,57.1784252 C44.9817323,57.1784252 44.3732283,56.7286614 43.8970079,56.1201575 L39.9285039,51.0933858 L36.6743307,51.0933858 L36.6743307,55.1412598 C36.6743307,56.2788976 35.7748031,57.1784252 34.6371654,57.1784252 C33.4995276,57.1784252 32.6,56.2788976 32.6,55.1412598 Z M36.6743307,47.4952756 L40.8015748,47.4952756 C42.7858268,47.4952756 43.9234646,46.4370079 43.9234646,44.876063 L43.9234646,44.8231496 C43.9234646,43.0770079 42.7064567,42.1774803 40.7222047,42.1774803 L36.6743307,42.1774803 L36.6743307,47.4952756 Z M51.3048819,59.4007874 L51.3048819,44.6908661 C51.3048819,43.579685 52.2044094,42.6801575 53.3155906,42.6801575 C54.4267717,42.6801575 55.3262992,43.579685 55.3262992,44.6908661 L55.3262992,44.876063 C56.3051969,43.5532283 57.6544882,42.5743307 59.7445669,42.5743307 C63.0516535,42.5743307 66.2,45.1670866 66.2,49.9028346 L66.2,49.955748 C66.2,54.6914961 63.1045669,57.284252 59.7445669,57.284252 C57.6015748,57.284252 56.2787402,56.3053543 55.3262992,55.1677165 L55.3262992,59.4007874 C55.3262992,60.5119685 54.4267717,61.4114961 53.3155906,61.4114961 C52.2044094,61.4114961 51.3048819,60.5119685 51.3048819,59.4007874 Z M58.7127559,53.8713386 C60.5911811,53.8713386 62.1785827,52.3368504 62.1785827,49.955748 L62.1785827,49.9028346 C62.1785827,47.548189 60.5911811,45.9872441 58.7127559,45.9872441 C56.8343307,45.9872441 55.2733858,47.548189 55.2733858,49.9028346 L55.2733858,49.955748 C55.2733858,52.3103937 56.8343307,53.8713386 58.7127559,53.8713386 Z" id="Rp" fill="#16B8B2"></path>
            </g>
        </g>
    </g>
</svg>