<?xml version="1.0" encoding="UTF-8"?>
<svg width="124px" height="125px" viewBox="0 0 124 125" version="1.1" xmlns="http://www.w3.org/2000/svg" xmlns:xlink="http://www.w3.org/1999/xlink">
    <!-- Generator: sketchtool 51.2 (57519) - http://www.bohemiancoding.com/sketch -->
    <title>1B384D15-457C-4058-98EC-5D1F38E87FB5</title>
    <desc>Created with sketchtool.</desc>
    <defs></defs>
    <g id="Landing-Page" stroke="none" stroke-width="1" fill="none" fill-rule="evenodd">
        <g transform="translate(-117.000000, -580.000000)" id="ic-produk-ekslusif">
            <g transform="translate(110.000000, 572.000000)">
                <rect id="Rectangle" x="0" y="0" width="140" height="140"></rect>
                <g id="Group" transform="translate(7.000000, 8.000000)">
                    <path d="M62.7017143,23.7409126 C62.5469083,23.762692 62.4039074,23.7860744 62.2722857,23.8102857 C62.4053691,24.5522549 62.5576014,25.4607657 62.7017143,26.4562987 L62.7017143,36.8512728 C60.9366808,41.9534126 57.1703184,46.585844 53.8354286,50.6868571 C51.2871429,53.824 48.654,57.0614286 48.654,58.72 L48.654,87.9237143 C48.654,88.5485714 49.1631429,89.0577143 49.788,89.0577143 L62.7017143,89.0577143 L62.7017143,115.098571 C62.4471429,114.977714 62.1771429,114.921143 61.9045714,114.921143 C61.632,114.921143 61.362,114.977714 61.1074286,115.098571 L50.454,120.112857 L42.5314286,111.400857 C42.156,110.986857 41.6057143,110.750286 41.0605714,110.791429 L29.2988571,111.349429 L25.3131429,100.269143 C25.1254286,99.742 24.7114286,99.3305714 24.1868571,99.1402857 L13.104,95.1571429 L13.6645714,83.398 C13.6902857,82.84 13.4665714,82.3 13.0551429,81.9245714 L4.34057143,74.002 L9.36,63.346 C9.59914286,62.8445714 9.59914286,62.2582857 9.36,61.7568571 L4.34057143,51.0982857 L13.0551429,43.1808571 C13.4665714,42.8054286 13.6928571,42.2628571 13.6645714,41.7048571 L13.104,29.9431429 L24.1868571,25.96 C24.7114286,25.7697143 25.1254286,25.3582857 25.3131429,24.8337143 L29.2988571,13.7534286 L41.0605714,14.314 C41.6082857,14.3448571 42.156,14.116 42.5314286,13.702 L50.454,4.99 L61.1074286,10.0042857 C61.614,10.2434286 62.1951429,10.2434286 62.7017143,10.0042857 L62.7017143,23.7409126 Z M36.774,87.052 L36.774,61.1577143 C36.774,60.0494286 35.8765714,59.1494286 34.7682857,59.1494286 L31.0551429,59.1494286 C29.9494286,59.1494286 29.0468571,60.0468571 29.0468571,61.1577143 L29.0468571,87.052 C29.0468571,88.1602857 29.9468571,89.0602857 31.0551429,89.0602857 L34.7682857,89.0602857 C35.874,89.0602857 36.774,88.1628571 36.774,87.052 Z" id="Combined-Shape" fill="#E6E6E6"></path>
                    <path d="M118.208571,62.5514286 L123.441429,51.4454286 C123.791143,50.7022857 123.613714,49.8177143 123.009429,49.2648571 L113.924571,41.0054286 L114.508286,28.7397143 C114.546857,27.9194286 114.048,27.1711429 113.274,26.8908571 L101.720571,22.738 L97.5651429,11.1845714 C97.2874286,10.4157143 96.5082857,9.904 95.7162857,9.95028571 L83.4531429,10.5365714 L75.1937143,1.45171429 C74.6408571,0.847428571 73.7562857,0.664857143 73.0105714,1.01714286 L61.9045714,6.25 L50.7985714,1.01714286 C50.0528571,0.667428571 49.1682857,0.847428571 48.6154286,1.45171429 L40.356,10.5365714 L28.0928571,9.95028571 C27.2957143,9.90657143 26.5242857,10.4182857 26.244,11.1845714 L22.0885714,22.738 L10.5351429,26.8908571 C9.76114286,27.1685714 9.25971429,27.9168571 9.30085714,28.7397143 L9.88457143,41.0054286 L0.799714286,49.2648571 C0.192857143,49.8177143 0.0154285714,50.7022857 0.367714286,51.4454286 L5.60057143,62.5514286 L0.367714286,73.66 C0.018,74.4031429 0.195428571,75.2877143 0.799714286,75.8405714 L9.88457143,84.1 L9.30085714,96.3605714 C9.26228571,97.1834286 9.76114286,97.9317143 10.5351429,98.2145714 L22.0885714,102.367429 L26.244,113.918286 C26.5217143,114.692286 27.3162857,115.193714 28.0928571,115.155143 L40.356,114.568857 L48.6154286,123.653714 C49.1682857,124.258 50.0502857,124.438 50.7985714,124.085714 L61.9045714,118.855429 L73.0105714,124.085714 C73.2677143,124.206571 73.5377143,124.263143 73.8077143,124.263143 C74.3245714,124.263143 74.8285714,124.049714 75.1937143,123.653714 L83.4531429,114.568857 L95.7162857,115.155143 C96.5391429,115.201429 97.2874286,114.689714 97.5651429,113.918286 L101.720571,102.367429 L113.274,98.2145714 C114.048,97.9342857 114.549429,97.186 114.508286,96.3605714 L113.924571,84.1 L123.009429,75.8405714 C123.616286,75.2877143 123.793714,74.4031429 123.441429,73.66 L118.208571,62.5514286 Z M110.754,81.9245714 C110.342571,82.3 110.116286,82.84 110.144571,83.398 L110.705143,95.1571429 L99.6222857,99.1402857 C99.0977143,99.3305714 98.6837143,99.742 98.496,100.269143 L94.5102857,111.349429 L82.7485714,110.791429 C82.1905714,110.755429 81.6531429,110.986857 81.2777143,111.400857 L73.3551429,120.112857 L62.7017143,115.098571 C62.4471429,114.977714 62.1771429,114.921143 61.9045714,114.921143 C61.632,114.921143 61.362,114.977714 61.1074286,115.098571 L50.454,120.112857 L42.5314286,111.400857 C42.156,110.986857 41.6057143,110.750286 41.0605714,110.791429 L29.2988571,111.349429 L25.3131429,100.269143 C25.1254286,99.742 24.7114286,99.3305714 24.1868571,99.1402857 L13.104,95.1571429 L13.6645714,83.398 C13.6902857,82.84 13.4665714,82.3 13.0551429,81.9245714 L4.34057143,74.002 L9.36,63.346 C9.59914286,62.8445714 9.59914286,62.2582857 9.36,61.7568571 L4.34057143,51.0982857 L13.0551429,43.1808571 C13.4665714,42.8054286 13.6928571,42.2628571 13.6645714,41.7048571 L13.104,29.9431429 L24.1868571,25.96 C24.7114286,25.7697143 25.1254286,25.3582857 25.3131429,24.8337143 L29.2988571,13.7534286 L41.0605714,14.314 C41.6082857,14.3448571 42.156,14.116 42.5314286,13.702 L50.454,4.99 L61.1074286,10.0042857 C61.614,10.2434286 62.1951429,10.2434286 62.7017143,10.0042857 L73.3551429,4.99 L81.2777143,13.702 C81.6531429,14.116 82.188,14.3397143 82.7485714,14.314 L94.5102857,13.7534286 L98.496,24.8337143 C98.6837143,25.3582857 99.0977143,25.7697143 99.6222857,25.96 L110.705143,29.9431429 L110.144571,41.7048571 C110.118857,42.2628571 110.342571,42.8054286 110.754,43.1808571 L119.468571,51.0982857 L114.449143,61.7568571 C114.21,62.2582857 114.21,62.8445714 114.449143,63.346 L119.468571,74.002 L110.754,81.9245714 Z" id="Shape" fill="#8C8C8C" fill-rule="nonzero"></path>
                    <path d="M99.2262857,58.882 C100.280571,57.5577143 101.044286,55.642 101.044286,53.1631429 C101.044286,48.8765714 97.74,45.2508571 93.8262857,45.2508571 L75.6308571,45.2508571 C76.1502857,42.6871429 76.6568571,38.7991429 76.2634286,34.4225714 C75.5048571,25.942 71.37,20.1022857 65.9802857,19.8888571 C61.3928571,19.7062857 59.4874286,20.7194286 59.1505714,20.9251429 C58.4794286,21.334 58.1374286,22.1234286 58.2942857,22.8922857 C59.04,26.5642857 59.9682857,33.1677143 59.2842857,35.2865714 C57.798,39.8842857 54.1517143,44.3714286 50.9348571,48.3288571 C47.5714286,52.4662857 44.9151429,55.7371429 44.9151429,58.72 L44.9151429,87.9237143 C44.9151429,90.6134286 47.1034286,92.7991429 49.7905714,92.7991429 L87.8708571,92.7991429 C88.0945714,92.7991429 88.3131429,92.7811429 88.4622857,92.7554286 C92.8748571,92.3337143 96.2022857,88.672 96.2022857,84.2362857 C96.2022857,83.5162857 96.1097143,82.7962857 95.9297143,82.0994286 C98.766,80.6722857 100.666286,77.7305714 100.666286,74.4622857 C100.666286,72.9142857 100.247143,71.4177143 99.4705714,70.1088571 C100.797429,68.5685714 101.556,66.5808571 101.556,64.5185714 C101.550857,62.0705714 100.586571,60.1317143 99.2262857,58.882 Z M95.6082857,71.1657143 C96.4542857,72.0708571 96.9222857,73.2434286 96.9222857,74.4648571 C96.9222857,76.7148571 95.3151429,78.6948571 93.1011429,79.1654286 C92.5225714,79.2862857 92.0365714,79.6745714 91.7897143,80.2145714 C91.5428571,80.7494286 91.566,81.3742857 91.8488571,81.8911429 C92.2474286,82.6137143 92.4582857,83.4288571 92.4582857,84.2362857 C92.4582857,86.7331429 90.5837143,88.7928571 88.1022857,89.032 C88.0765714,89.0345714 87.8914286,89.0551429 87.8682857,89.0577143 L49.788,89.0577143 C49.1631429,89.0577143 48.654,88.5485714 48.654,87.9237143 L48.654,58.72 C48.654,57.0614286 51.2871429,53.824 53.8354286,50.6868571 C57.2605714,46.4748571 61.1408571,41.7022857 62.8405714,36.436 C63.7997143,33.466 62.8534286,27.0502857 62.2722857,23.8102857 C63.0411429,23.6688571 64.1982857,23.5557143 65.8285714,23.6251429 C69.1508571,23.7562857 71.9691429,28.4362857 72.5348571,34.7594286 C73.0311429,40.2545714 71.946,44.8831429 71.4574286,46.6162857 C71.298,47.1794286 71.4111429,47.7811429 71.766,48.2517143 C72.1182857,48.7197143 72.6711429,48.9922857 73.2574286,48.9922857 L93.8262857,48.9922857 C95.4668571,48.9922857 97.3054286,50.7768571 97.3054286,53.1631429 C97.3054286,56.1897143 95.7085714,57.1977143 95.3434286,57.3005714 C94.3405714,57.334 93.5357143,58.1568571 93.5357143,59.17 C93.5357143,60.2011429 94.374,61.0394286 95.4051429,61.042 C96.246,61.042 97.8145714,62.0628571 97.8145714,64.5237143 C97.8145714,66.0614286 97.1048571,67.4705714 95.8628571,68.3911429 C95.4334286,68.7074286 95.1608571,69.1934286 95.112,69.7231429 C95.0631429,70.2554286 95.2431429,70.78 95.6082857,71.1657143 Z" id="Shape" fill="#16B8B2" fill-rule="nonzero"></path>
                    <path d="M34.7682857,55.4054286 L31.0551429,55.4054286 C27.8845714,55.4054286 25.308,57.9845714 25.308,61.1551429 L25.308,87.0494286 C25.308,90.2174286 27.8845714,92.7965714 31.0551429,92.7965714 L34.7682857,92.7965714 C37.9362857,92.7965714 40.5154286,90.2174286 40.5154286,87.0494286 L40.5154286,61.1551429 C40.5154286,57.9845714 37.9362857,55.4054286 34.7682857,55.4054286 Z M36.774,87.052 C36.774,88.1628571 35.874,89.0602857 34.7682857,89.0602857 L31.0551429,89.0602857 C29.9468571,89.0602857 29.0468571,88.1602857 29.0468571,87.052 L29.0468571,61.1577143 C29.0468571,60.0468571 29.9494286,59.1494286 31.0551429,59.1494286 L34.7682857,59.1494286 C35.8765714,59.1494286 36.774,60.0494286 36.774,61.1577143 L36.774,87.052 Z" id="Shape" fill="#16B8B2" fill-rule="nonzero"></path>
                </g>
            </g>
        </g>
    </g>
</svg>