<?xml version="1.0" encoding="UTF-8"?>
<svg width="18px" height="18px" viewBox="0 0 18 18" version="1.1" xmlns="http://www.w3.org/2000/svg" xmlns:xlink="http://www.w3.org/1999/xlink">
    <!-- Generator: sketchtool 51.1 (57501) - http://www.bohemiancoding.com/sketch -->
    <title>1FD2C52D-4472-4384-A11E-1DFDDC3E1393</title>
    <desc>Created with sketchtool.</desc>
    <defs></defs>
    <g id="Landing-Page" stroke="none" stroke-width="1" fill="none" fill-rule="evenodd">
        <g transform="translate(-18.000000, -2528.000000)" id="Footer">
            <g transform="translate(0.000000, 2435.000000)">
                <g id="ic-phone" transform="translate(15.000000, 90.000000)">
                    <rect id="Rectangle" x="0" y="0" width="24" height="24"></rect>
                    <path d="M19.3263099,16.0689263 C19.3369018,15.631868 19.0333191,15.2735698 18.6279168,15.2163437 C17.7784107,15.1043025 16.9443062,14.8965184 16.1396618,14.5962614 C15.8396714,14.4834954 15.5014858,14.5556203 15.2768616,14.7777267 L14.2343093,15.820279 C13.9730038,16.0815845 13.5693108,16.1360826 13.2480702,15.9534201 C11.0644423,14.711775 9.25643091,12.9037636 8.01478582,10.7201358 C7.83212336,10.3988951 7.88662143,9.9952021 8.14792691,9.73389661 L9.18724033,8.69460137 C9.41258559,8.46672006 9.48471048,8.12853446 9.37125087,7.82669211 C9.07168748,7.02389972 8.86390343,6.18979517 8.75289329,5.34783656 C8.6952249,4.93983226 8.34402564,4.6378009 7.92390686,4.641896 L5.4619579,4.64189564 C5.23152684,4.64211264 5.01179675,4.73916892 4.85644259,4.90935589 C4.70108843,5.07954286 4.62441618,5.30718864 4.64389664,5.5238792 C4.89973791,7.93308205 5.71948801,10.2481418 7.04062188,12.2875631 C8.23635631,14.1693008 9.83174139,15.7646859 11.7198655,16.9645201 C13.7440353,18.2771868 16.047891,19.0967508 18.4315277,19.3558877 C18.6617363,19.3766928 18.8900486,19.2994796 19.0603746,19.1432172 C19.2307007,18.9869548 19.3272549,18.7661253 19.3263099,18.5316483 L19.3263099,16.0689263 Z M13.073371,14.6593407 L14.0596101,14.5261996 C13.879209,14.4236207 13.7017135,14.3166608 13.5272616,14.205458 L13.073371,14.6593407 Z M20.9681178,18.5283163 C20.9709325,19.2217512 20.6812698,19.8842397 20.1702918,20.3530269 C19.6593138,20.8218141 18.9743768,21.0534537 18.2689629,20.9895668 C15.6152509,20.7012193 13.0661738,19.7944213 10.8329386,18.3461346 C8.7477698,17.0211315 6.97991066,15.2532724 5.65879374,13.1741604 C4.20133865,10.9243653 3.29433468,8.36289156 3.01000333,5.68444869 C2.94778661,4.99596068 3.17780337,4.31302334 3.64386584,3.80246244 C4.10992832,3.29190153 4.76911859,3.00073268 5.46118483,3.00008131 L7.91582778,3.00012106 C9.15194685,2.98795502 10.2055446,3.89404912 10.3795809,5.12560951 C10.4754312,5.85235461 10.6531887,6.56592382 10.9087689,7.25085375 C11.2470669,8.15082477 11.0306922,9.16538158 10.3514175,9.85228258 L9.76275099,10.4409491 C10.7280198,11.9552349 12.0129754,13.2401899 13.5272616,14.205458 L14.1191804,13.6135494 C14.8028243,12.9375137 15.8173811,12.721139 16.7155002,13.0587434 C17.4022821,13.3150172 18.1158513,13.4927747 18.8499311,13.589626 C20.0844464,13.763786 20.993451,14.8327943 20.9681246,16.0781014 L20.9681178,18.5283163 Z" id="Shape" fill="#16B8B2" fill-rule="nonzero"></path>
                </g>
            </g>
        </g>
    </g>
</svg>