<?xml version="1.0" encoding="UTF-8"?>
<svg width="24px" height="24px" viewBox="0 0 24 24" version="1.1" xmlns="http://www.w3.org/2000/svg" xmlns:xlink="http://www.w3.org/1999/xlink">
    <!-- Generator: sketchtool 51.2 (57519) - http://www.bohemiancoding.com/sketch -->
    <title>A6705DC8-EF04-4392-B5BC-587B7A7AB26F</title>
    <desc>Created with sketchtool.</desc>
    <defs></defs>
    <g id="Profile" stroke="none" stroke-width="1" fill="none" fill-rule="evenodd">
        <g id="Profile---Reseller" transform="translate(-18.000000, -233.000000)">
            <g id="Group-2" transform="translate(0.000000, 205.000000)">
                <g id="ic-pesan" transform="translate(15.000000, 25.000000)">
                    <rect id="Rectangle" x="0" y="0" width="30" height="30"></rect>
                    <g id="Group" transform="translate(3.000000, 3.000000)" fill="#F5821F">
                        <path d="M23.8711837,23.3911837 C23.8834286,23.3539592 23.8893061,23.3167347 23.8893061,23.2790204 C23.8893061,23.2785306 23.8893061,23.2785306 23.8893061,23.2785306 L23.8893061,11.832 C23.8893061,11.8084898 23.8839184,11.786449 23.8795102,11.7639184 C23.8780408,11.7560816 23.8785306,11.7487347 23.8765714,11.740898 C23.8657959,11.7002449 23.8471837,11.6630204 23.8231837,11.6287347 C23.8207347,11.6253061 23.8207347,11.620898 23.8177959,11.618449 C23.8138776,11.6125714 23.8075102,11.6101224 23.803102,11.6052245 C23.781551,11.5792653 23.7565714,11.5567347 23.7276735,11.5376327 C23.7193469,11.5322449 23.712,11.5258776 23.7036735,11.5209796 C23.6997551,11.5185306 23.6963265,11.515102 23.6924082,11.5131429 C23.6595918,11.4964898 23.6243265,11.4862041 23.5890612,11.4813061 C23.5817143,11.4798367 23.5743673,11.4808163 23.5670204,11.4803265 C23.5327347,11.4764082 23.4989388,11.4788571 23.4651429,11.4852245 C23.4548571,11.4876735 23.4445714,11.4896327 23.4342857,11.4925714 C23.3936327,11.5043265 23.354449,11.5214694 23.3196735,11.5469388 L15.8963265,17.1100408 L12.3482449,14.4509388 C12.2218776,14.3554286 12.0475102,14.3554286 11.9211429,14.4509388 L8.37306122,17.1100408 L1.32979592,11.832 L4.07853061,9.77191837 C4.2362449,9.65387755 4.26808163,9.43053061 4.15004082,9.27281633 C4.032,9.11559184 3.80914286,9.08326531 3.65093878,9.20130612 L0.521632653,11.546449 C0.518693878,11.548898 0.51722449,11.5528163 0.514285714,11.5552653 C0.476571429,11.5861224 0.445714286,11.6223673 0.423183673,11.6644898 C0.419265306,11.6723265 0.416326531,11.6796735 0.412897959,11.688 C0.392816327,11.7330612 0.378612245,11.7805714 0.378612245,11.832 L0.378612245,23.2780408 C0.378612245,23.2780408 0.378612245,23.2785306 0.378612245,23.2790204 C0.378612245,23.3162449 0.384489796,23.3534694 0.396734694,23.3911837 C0.398204082,23.3965714 0.402122449,23.4 0.404081633,23.404898 C0.408979592,23.4181224 0.416326531,23.4293878 0.423183673,23.4411429 C0.436408163,23.467102 0.452081633,23.491102 0.470693878,23.5126531 C0.480489796,23.5234286 0.49077551,23.5332245 0.50155102,23.5435102 C0.523591837,23.5621224 0.547102041,23.5777959 0.573061224,23.5910204 C0.584816327,23.5978776 0.595591837,23.6042449 0.608816327,23.6096327 C0.648979592,23.6243265 0.690612245,23.635102 0.734693878,23.635102 L23.5327347,23.635102 C23.5773061,23.635102 23.6189388,23.6248163 23.6586122,23.6096327 C23.6713469,23.6042449 23.6821224,23.5978776 23.6943673,23.5910204 C23.7203265,23.5782857 23.7438367,23.5621224 23.7653878,23.5435102 C23.7766531,23.5332245 23.786449,23.5239184 23.7962449,23.5126531 C23.8153469,23.491102 23.8305306,23.467102 23.8437551,23.4411429 C23.8506122,23.4293878 23.8579592,23.4181224 23.8628571,23.404898 C23.8657959,23.4 23.8697143,23.3965714 23.8711837,23.3911837 Z M23.1771429,12.5446531 L23.1771429,22.5663673 L16.4899592,17.5557551 L23.1771429,12.5446531 Z M7.77893878,17.5552653 L1.0917551,22.5658776 L1.0917551,12.5441633 L7.77893878,17.5552653 Z M1.80489796,22.9219592 L12.1342041,15.1812245 L22.4635102,22.9219592 L1.80489796,22.9219592 Z" id="Shape" fill-rule="nonzero"></path>
                        <path d="M6.73616327,0.837061224 L15.2649796,0.837061224 L15.2649796,9.97763265 L11.9137959,9.97763265 C11.8398367,9.97763265 11.7678367,10.0006531 11.7075918,10.0432653 L8.72718367,12.1586939 L8.72718367,10.3332245 C8.72718367,10.1368163 8.5675102,9.97714286 8.37110204,9.97714286 L6.73665306,9.97714286 C6.34383673,9.97714286 6.024,9.65730612 6.024,9.2644898 L6.024,1.54971429 C6.0235102,1.15689796 6.34285714,0.837061224 6.73616327,0.837061224 Z" id="Path" fill-opacity="0.2"></path>
                        <path d="M6.73567347,10.6897959 L8.01404082,10.6897959 L8.01404082,12.8488163 C8.01404082,12.981551 8.0884898,13.104 8.20653061,13.1652245 C8.25795918,13.1921633 8.31428571,13.204898 8.37012245,13.204898 C8.44261224,13.204898 8.51461224,13.1828571 8.57632653,13.1387755 L12.026449,10.6897959 L22.464,10.6897959 C23.2496327,10.6897959 23.8888163,10.0506122 23.8888163,9.26497959 L23.8888163,1.54971429 C23.8888163,0.764081633 23.2496327,0.124897959 22.464,0.124897959 L6.73518367,0.124897959 C5.94955102,0.124897959 5.31036735,0.764081633 5.31036735,1.54971429 L5.31036735,9.26497959 C5.31085714,10.0506122 5.95004082,10.6897959 6.73567347,10.6897959 Z M6.0235102,1.54971429 C6.0235102,1.15689796 6.34285714,0.837061224 6.73616327,0.837061224 L22.4649796,0.837061224 C22.8577959,0.837061224 23.1776327,1.15689796 23.1776327,1.54971429 L23.1776327,9.26497959 C23.1776327,9.65779592 22.8582857,9.97763265 22.4649796,9.97763265 L11.9137959,9.97763265 C11.8398367,9.97763265 11.7678367,10.0006531 11.7075918,10.0432653 L8.72718367,12.1586939 L8.72718367,10.3332245 C8.72718367,10.1368163 8.5675102,9.97714286 8.37110204,9.97714286 L6.73665306,9.97714286 C6.34383673,9.97714286 6.024,9.65730612 6.024,9.2644898 L6.024,1.54971429 L6.0235102,1.54971429 Z" id="Shape" fill-rule="nonzero"></path>
                        <path d="M17.8070204,3.26938776 L21.0122449,3.26938776 C21.2086531,3.26938776 21.3683265,3.11020408 21.3683265,2.91281633 C21.3683265,2.71640816 21.2086531,2.55673469 21.0122449,2.55673469 L17.8070204,2.55673469 C17.6106122,2.55673469 17.4509388,2.71591837 17.4509388,2.91281633 C17.4509388,3.11020408 17.6106122,3.26938776 17.8070204,3.26938776 Z" id="Shape" fill-rule="nonzero"></path>
                        <path d="M8.18840816,3.26938776 L15.6680816,3.26938776 C15.8644898,3.26938776 16.0241633,3.11020408 16.0241633,2.91281633 C16.0241633,2.71640816 15.8644898,2.55673469 15.6680816,2.55673469 L8.18840816,2.55673469 C7.9915102,2.55673469 7.83183673,2.71591837 7.83183673,2.91281633 C7.83232653,3.11020408 7.9915102,3.26938776 8.18840816,3.26938776 Z" id="Shape" fill-rule="nonzero"></path>
                        <path d="M21.0122449,5.05077551 L13.176,5.05077551 C12.9795918,5.05077551 12.8199184,5.20995918 12.8199184,5.40734694 C12.8199184,5.6037551 12.9795918,5.76342857 13.176,5.76342857 L21.0122449,5.76342857 C21.2086531,5.76342857 21.3683265,5.6042449 21.3683265,5.40734694 C21.3683265,5.20995918 21.2086531,5.05077551 21.0122449,5.05077551 Z" id="Shape" fill-rule="nonzero"></path>
                        <path d="M8.18840816,5.76293878 L11.0365714,5.76293878 C11.2334694,5.76293878 11.3931429,5.6037551 11.3931429,5.40685714 C11.3931429,5.20995918 11.2334694,5.05028571 11.0365714,5.05028571 L8.18840816,5.05028571 C7.9915102,5.05028571 7.83183673,5.20946939 7.83183673,5.40685714 C7.83232653,5.6037551 7.9915102,5.76293878 8.18840816,5.76293878 Z" id="Shape" fill-rule="nonzero"></path>
                        <path d="M8.18840816,8.25697959 L18.1621224,8.25697959 C18.3585306,8.25697959 18.5182041,8.09730612 18.5182041,7.90040816 C18.5182041,7.7035102 18.3585306,7.54383673 18.1621224,7.54383673 L8.18840816,7.54383673 C7.9915102,7.54383673 7.83183673,7.70302041 7.83183673,7.90040816 C7.83232653,8.09730612 7.9915102,8.25697959 8.18840816,8.25697959 Z" id="Shape" fill-rule="nonzero"></path>
                    </g>
                </g>
            </g>
        </g>
    </g>
</svg>