<?xml version="1.0" encoding="UTF-8"?>
<svg width="24px" height="24px" viewBox="0 0 24 24" version="1.1" xmlns="http://www.w3.org/2000/svg" xmlns:xlink="http://www.w3.org/1999/xlink">
    <!-- Generator: sketchtool 51.2 (57519) - http://www.bohemiancoding.com/sketch -->
    <title>C4FDDD4A-A8B6-49F6-A138-FCC1823FF3CC</title>
    <desc>Created with sketchtool.</desc>
    <defs></defs>
    <g id="Profile" stroke="none" stroke-width="1" fill="none" fill-rule="evenodd">
        <g id="Profile---Prioritas" transform="translate(-18.000000, -447.000000)">
            <g id="Group-3" transform="translate(0.000000, 434.000000)">
                <g id="ic-request-jadi-tds" transform="translate(15.000000, 10.000000)">
                    <rect id="Rectangle" x="0" y="0" width="30" height="30"></rect>
                    <g id="Group" transform="translate(3.000000, 3.000000)" fill="#F5821F" fill-rule="nonzero">
                        <path d="M1.19608163,11.1237551 C1.29795918,10.8847347 1.30432653,10.7172245 1.21518367,10.6212245 C0.97322449,10.3591837 0.874285714,10.0089796 0.943836735,9.6597551 C1.01338776,9.31004082 1.23869388,9.0244898 1.56244898,8.87510204 C2.41763265,8.48277551 2.8315102,7.48310204 2.50432653,6.6004898 C2.38089796,6.26595918 2.42302041,5.9044898 2.62138776,5.60865306 C2.81926531,5.31281633 3.13714286,5.13502041 3.49322449,5.12130612 C4.43314286,5.08555102 5.19820408,4.3204898 5.23395918,3.38057143 C5.24718367,3.024 5.42546939,2.70612245 5.72179592,2.50922449 C6.01812245,2.31134694 6.37910204,2.2682449 6.71314286,2.39216327 C7.5962449,2.71885714 8.59493878,2.30546939 8.9877551,1.45028571 C9.13665306,1.12604082 9.42220408,0.900734694 9.77191837,0.830693878 C10.1206531,0.760163265 10.4713469,0.860571429 10.732898,1.10302041 C10.9730781,1.32531476 11.4026766,1.48481058 12.0216935,1.58150789 L12.0216935,22.0753614 L11.3268495,22.6390306 L10.3747874,23.1634779 L9.41209609,23.1634779 L8.48713861,22.2813563 L7.72576531,21.6285077 L6.71314286,21.6285077 L5.72179592,21.6285077 L5.01084184,20.8403486 L4.54198554,19.5481505 L3.75605867,19.0170068 L2.50432653,18.5037202 L2.08025085,17.6428571 L2.25616497,16.526148 L2.08025085,15.5227466 L0.943836735,14.8162202 L0.53337585,14.0702594 L0.943836735,12.9795918 L1.19608163,12.6312713 L1.19608163,11.1237551 Z" id="Shape" fill-opacity="0.2"></path>
                        <path d="M22.7319184,12.5789388 C22.5874286,12.7131429 22.579102,12.938449 22.7128163,13.082449 C22.9547755,13.3435102 23.0537143,13.6937143 22.9841633,14.0439184 C22.9146122,14.3936327 22.6888163,14.6791837 22.365551,14.8275918 C21.5103673,15.220898 21.0964898,16.2195918 21.4231837,17.1022041 C21.547102,17.4367347 21.5044898,17.7982041 21.3066122,18.0945306 C21.1087347,18.3903673 20.7908571,18.5686531 20.4347755,18.5813878 C19.4943673,18.6171429 18.7297959,19.3822041 18.6940408,20.323102 C18.6803265,20.6791837 18.5025306,20.9965714 18.2062041,21.194449 C17.9103673,21.3923265 17.5484082,21.4349388 17.2143673,21.3115102 C16.3322449,20.9843265 15.3330612,21.3982041 14.9397551,22.2533878 C14.7908571,22.5771429 14.5048163,22.8029388 14.1555918,22.872 C13.8063673,22.9420408 13.4561633,22.8426122 13.1946122,22.6006531 C12.5044898,21.9604898 11.4230204,21.9604898 10.732898,22.6006531 C10.4713469,22.8426122 10.1211429,22.941551 9.77191837,22.872 C9.42269388,22.8029388 9.13714286,22.5771429 8.9877551,22.2533878 C8.59493878,21.3982041 7.59526531,20.9843265 6.71314286,21.3115102 C6.37910204,21.4349388 6.01812245,21.3923265 5.72179592,21.194449 C5.42546939,20.9965714 5.24767347,20.6786939 5.23395918,20.323102 C5.19820408,19.3822041 4.43363265,18.6176327 3.49322449,18.5813878 C3.13714286,18.5686531 2.81926531,18.3903673 2.62138776,18.0945306 C2.4235102,17.7982041 2.38089796,17.4362449 2.50432653,17.1022041 C2.83102041,16.2195918 2.41714286,15.220898 1.56244898,14.8275918 C1.23869388,14.6791837 1.01289796,14.3936327 0.943836735,14.0439184 C0.874285714,13.6937143 0.97322449,13.3435102 1.21518367,13.082449 C1.34889796,12.938449 1.34057143,12.7131429 1.19608163,12.5789388 C1.05208163,12.4457143 0.826285714,12.4540408 0.693061224,12.5985306 C0.293877551,13.0290612 0.13077551,13.6065306 0.244897959,14.1825306 C0.359510204,14.7585306 0.731265306,15.2302041 1.26514286,15.4746122 C1.78383673,15.7136327 2.03510204,16.32 1.83673469,16.8548571 C1.63297959,17.4053878 1.70302041,18.0014694 2.02922449,18.4902857 C2.35591837,18.9781224 2.8795102,19.2710204 3.46628571,19.2940408 C4.03689796,19.3155918 4.50073469,19.7794286 4.52228571,20.3500408 C4.54432653,20.9368163 4.83771429,21.460898 5.32604082,21.7866122 C5.81485714,22.1128163 6.41093878,22.1833469 6.96097959,21.9795918 C7.49681633,21.7826939 8.10269388,22.032 8.34073469,22.5506939 C8.58612245,23.0845714 9.05730612,23.4563265 9.63330612,23.5709388 C9.75428571,23.5954286 9.87477551,23.6066939 9.99428571,23.6066939 C10.444898,23.6066939 10.8773878,23.4386939 11.2177959,23.1232653 C11.6365714,22.7353469 12.2924082,22.7353469 12.7111837,23.1232653 C13.1422041,23.5219592 13.7196735,23.6850612 14.2951837,23.5709388 C14.8711837,23.4563265 15.3423673,23.0845714 15.5877551,22.5506939 C15.8262857,22.032 16.4321633,21.7817143 16.9675102,21.9795918 C17.5185306,22.1828571 18.1141224,22.1128163 18.602449,21.7866122 C19.0907755,21.460898 19.3836735,20.9373061 19.4062041,20.3500408 C19.4277551,19.7794286 19.8920816,19.3155918 20.4622041,19.2940408 C21.0489796,19.2710204 21.5725714,18.9786122 21.8987755,18.4902857 C22.2249796,18.0014694 22.2955102,17.4058776 22.0917551,16.8548571 C21.8933878,16.3195102 22.1446531,15.7136327 22.6633469,15.4746122 C23.1967347,15.2302041 23.5689796,14.7585306 23.6835918,14.1825306 C23.7982041,13.6060408 23.6346122,13.0290612 23.2354286,12.5985306 C23.1017143,12.4540408 22.8764082,12.4457143 22.7319184,12.5789388 Z" id="Shape"></path>
                        <path d="M1.19608163,11.1237551 C1.34057143,10.9905306 1.34889796,10.7652245 1.21518367,10.6212245 C0.97322449,10.3591837 0.874285714,10.0089796 0.943836735,9.6597551 C1.01338776,9.31004082 1.23869388,9.0244898 1.56244898,8.87510204 C2.41763265,8.48277551 2.8315102,7.48310204 2.50432653,6.6004898 C2.38089796,6.26595918 2.42302041,5.9044898 2.62138776,5.60865306 C2.81926531,5.31281633 3.13714286,5.13502041 3.49322449,5.12130612 C4.43314286,5.08555102 5.19820408,4.3204898 5.23395918,3.38057143 C5.24718367,3.024 5.42546939,2.70612245 5.72179592,2.50922449 C6.01812245,2.31134694 6.37910204,2.2682449 6.71314286,2.39216327 C7.5962449,2.71885714 8.59493878,2.30546939 8.9877551,1.45028571 C9.13665306,1.12604082 9.42220408,0.900734694 9.77191837,0.830693878 C10.1206531,0.760163265 10.4713469,0.860571429 10.732898,1.10302041 C11.4235102,1.74220408 12.5049796,1.74220408 13.1946122,1.10302041 C13.4561633,0.860571429 13.8068571,0.761632653 14.1555918,0.830693878 C14.5048163,0.900734694 14.7908571,1.12604082 14.9397551,1.45028571 C15.3325714,2.3044898 16.3312653,2.71885714 17.2143673,2.39216327 C17.5484082,2.26873469 17.9098776,2.31134694 18.2062041,2.50922449 C18.5025306,2.70612245 18.6803265,3.0244898 18.6940408,3.38057143 C18.7297959,4.3204898 19.4943673,5.08506122 20.4347755,5.12130612 C20.7908571,5.13502041 21.1082449,5.31232653 21.3066122,5.60865306 C21.5044898,5.9044898 21.547102,6.26644898 21.4236735,6.6004898 C21.0969796,7.48310204 21.5103673,8.48277551 22.365551,8.87510204 C22.6893061,9.0244898 22.915102,9.31004082 22.9841633,9.6597551 C23.0537143,10.0089796 22.9547755,10.3591837 22.7128163,10.6212245 C22.579102,10.7652245 22.5874286,10.9905306 22.7319184,11.1237551 C22.8004898,11.1879184 22.8871837,11.2182857 22.9738776,11.2182857 C23.0693878,11.2182857 23.164898,11.1805714 23.2349388,11.1051429 C23.6341224,10.6741224 23.7972245,10.0961633 23.683102,9.52065306 C23.5684898,8.94416327 23.1967347,8.47346939 22.6628571,8.22808163 C22.1441633,7.99004082 21.892898,7.38367347 22.0912653,6.84881633 C22.2950204,6.29779592 22.2244898,5.70122449 21.8982857,5.21289796 C21.5720816,4.72506122 21.0484898,4.43216327 20.4617143,4.40963265 C19.891102,4.38808163 19.4272653,3.9242449 19.4057143,3.35363265 C19.3836735,2.76685714 19.0902857,2.24277551 18.6019592,1.91657143 C18.1136327,1.58987755 17.5180408,1.52032653 16.9670204,1.72408163 C16.4316735,1.92195918 15.8253061,1.67118367 15.5872653,1.152 C15.3418776,0.618122449 14.8711837,0.246367347 14.2946939,0.131755102 C13.7186939,0.0171428571 13.1417143,0.180734694 12.7106939,0.580408163 C12.2919184,0.967836735 11.6360816,0.967836735 11.2173061,0.580408163 C10.7862857,0.180734694 10.2088163,0.0171428571 9.63281633,0.131755102 C9.05681633,0.246367347 8.58563265,0.618122449 8.3402449,1.152 C8.10220408,1.67118367 7.49632653,1.92097959 6.9604898,1.72408163 C6.40995918,1.52032653 5.81387755,1.59085714 5.32555102,1.91657143 C4.83722449,2.24277551 4.54383673,2.76636735 4.52179592,3.35363265 C4.5002449,3.9242449 4.03640816,4.38808163 3.46579592,4.40963265 C2.87902041,4.43216327 2.35493878,4.72506122 2.02873469,5.21338776 C1.70253061,5.70122449 1.6324898,6.29779592 1.8362449,6.84881633 C2.03461224,7.38416327 1.78334694,7.99004082 1.26465306,8.22808163 C0.731265306,8.47346939 0.359020408,8.94416327 0.244408163,9.52065306 C0.129795918,10.0966531 0.292897959,10.6741224 0.692571429,11.1051429 C0.826285714,11.2486531 1.05159184,11.2574694 1.19608163,11.1237551 Z" id="Shape"></path>
                        <path d="M12.2816327,7.1642449 C12.1611429,6.92081633 11.7629388,6.92081633 11.642449,7.1642449 L10.5105306,9.45746939 L7.9797551,9.82530612 C7.84555102,9.84489796 7.73436735,9.93844898 7.6922449,10.0677551 C7.65061224,10.1970612 7.68538776,10.3386122 7.78236735,10.4331429 L9.61371429,12.218449 L9.18122449,14.7389388 C9.15869388,14.8721633 9.21355102,15.0073469 9.32277551,15.0871837 C9.43297959,15.1665306 9.57844898,15.1777959 9.69795918,15.1146122 L11.9617959,13.9239184 L14.2256327,15.1146122 C14.277551,15.1420408 14.3348571,15.1552653 14.3911837,15.1552653 C14.4646531,15.1552653 14.5386122,15.1322449 14.6008163,15.0871837 C14.7105306,15.0073469 14.764898,14.8726531 14.7423673,14.7389388 L14.3103673,12.218449 L16.1412245,10.4331429 C16.2382041,10.3386122 16.2734694,10.1970612 16.2313469,10.0677551 C16.1892245,9.93844898 16.0780408,9.84489796 15.9438367,9.82530612 L13.4130612,9.45746939 L12.2816327,7.1642449 Z M13.6790204,11.8383673 C13.5952653,11.9201633 13.5565714,12.0377143 13.5766531,12.1537959 L13.9185306,14.1472653 L12.1278367,13.2058776 C12.0764082,13.178449 12.019102,13.1652245 11.9622857,13.1652245 C11.9054694,13.1652245 11.8481633,13.178449 11.7967347,13.2058776 L10.0060408,14.1472653 L10.3479184,12.1537959 C10.368,12.0382041 10.3293061,11.9201633 10.245551,11.8383673 L8.79673469,10.4262857 L10.7985306,10.1358367 C10.9146122,10.1186939 11.0150204,10.0452245 11.0669388,9.94089796 L11.9622857,8.12718367 L12.8576327,9.94089796 C12.909551,10.0457143 13.0099592,10.1186939 13.1260408,10.1358367 L15.1278367,10.4262857 L13.6790204,11.8383673 Z" id="Shape"></path>
                        <path d="M3.09012245,15.0866939 C3.20032653,15.1660408 3.34530612,15.1773061 3.46530612,15.1141224 L4.84065306,14.3906939 L6.216,15.1141224 C6.26791837,15.141551 6.32522449,15.1547755 6.38155102,15.1547755 C6.45502041,15.1547755 6.52897959,15.1317551 6.59118367,15.0866939 C6.70089796,15.0068571 6.7557551,14.8721633 6.73322449,14.738449 L6.47069388,13.2068571 L7.58302041,12.122449 C7.6804898,12.0279184 7.71526531,11.8868571 7.67314286,11.757551 C7.6315102,11.6282449 7.51983673,11.5342041 7.38563265,11.515102 L5.84816327,11.2912653 L5.1604898,9.89828571 C5.04,9.65534694 4.64179592,9.65534694 4.52130612,9.89828571 L3.83363265,11.2912653 L2.29616327,11.515102 C2.16195918,11.5342041 2.05077551,11.6282449 2.00865306,11.757551 C1.96702041,11.8868571 2.00179592,12.0279184 2.09877551,12.122449 L3.21110204,13.2068571 L2.94857143,14.738449 C2.92555102,14.8721633 2.98040816,15.0068571 3.09012245,15.0866939 Z M3.11216327,12.1165714 L4.12114286,11.9691429 C4.23722449,11.9529796 4.33714286,11.8795102 4.38906122,11.7751837 L4.84016327,10.8612245 L5.29126531,11.7751837 C5.34318367,11.88 5.44359184,11.9529796 5.55918367,11.9691429 L6.56816327,12.1165714 L5.83836735,12.8272653 C5.75461224,12.9090612 5.71591837,13.0275918 5.736,13.1431837 L5.90840816,14.1477551 L5.00620408,13.6736327 C4.95428571,13.6462041 4.89746939,13.6324898 4.84065306,13.6324898 C4.78383673,13.6324898 4.72702041,13.6462041 4.67510204,13.6736327 L3.77289796,14.1477551 L3.94530612,13.1431837 C3.96489796,13.0280816 3.92669388,12.9090612 3.84293878,12.8272653 L3.11216327,12.1165714 Z" id="Shape"></path>
                        <path d="M21.9213061,11.757551 C21.8796735,11.6282449 21.768,11.5342041 21.6337959,11.515102 L20.0958367,11.2912653 L19.4086531,9.89828571 C19.2881633,9.65534694 18.8899592,9.65534694 18.7694694,9.89828571 L18.0817959,11.2912653 L16.5443265,11.515102 C16.4101224,11.5342041 16.2989388,11.6282449 16.2568163,11.757551 C16.2146939,11.8868571 16.2499592,12.0279184 16.3469388,12.122449 L17.4592653,13.2068571 L17.1962449,14.738449 C17.1737143,14.8716735 17.2285714,15.0068571 17.3382857,15.0866939 C17.4484898,15.1660408 17.5934694,15.1773061 17.7134694,15.1141224 L19.0888163,14.3906939 L20.4641633,15.1141224 C20.5160816,15.141551 20.5733878,15.1547755 20.6297143,15.1547755 C20.7031837,15.1547755 20.7771429,15.1317551 20.8388571,15.0866939 C20.9485714,15.0068571 21.0034286,14.8721633 20.980898,14.738449 L20.7178776,13.2068571 L21.8302041,12.122449 C21.9286531,12.0279184 21.9634286,11.8868571 21.9213061,11.757551 Z M20.0875102,12.8272653 C20.0037551,12.9090612 19.9650612,13.0275918 19.9851429,13.1431837 L20.157551,14.1477551 L19.2553469,13.6736327 C19.2034286,13.6462041 19.1466122,13.6324898 19.0897959,13.6324898 C19.0329796,13.6324898 18.9761633,13.6462041 18.9242449,13.6736327 L18.0220408,14.1477551 L18.194449,13.1431837 C18.2145306,13.0280816 18.1758367,12.9090612 18.0920816,12.8272653 L17.3622857,12.1165714 L18.3712653,11.9691429 C18.4873469,11.9529796 18.5872653,11.8795102 18.6391837,11.7751837 L19.0902857,10.8612245 L19.540898,11.7751837 C19.5928163,11.88 19.6932245,11.9529796 19.8093061,11.9691429 L20.8182857,12.1165714 L20.0875102,12.8272653 Z" id="Shape"></path>
                        <path d="M4.22302041,17.6532245 C8.49208163,16.483102 15.4378776,16.483102 19.7069388,17.6532245 C19.7382857,17.6620408 19.7701224,17.6659592 19.8014694,17.6659592 C19.9577143,17.6659592 20.1012245,17.5621224 20.1448163,17.4034286 C20.1967347,17.2138776 20.0850612,17.018449 19.8955102,16.965551 C15.5226122,15.7675102 8.40734694,15.7675102 4.03493878,16.965551 C3.84489796,17.0179592 3.73371429,17.2138776 3.78563265,17.4034286 C3.83706122,17.5934694 4.03346939,17.7056327 4.22302041,17.6532245 Z" id="Shape"></path>
                        <path d="M9.44326531,7.59820408 C7.46742857,7.47036735 5.66204082,7.19510204 4.22302041,6.80032653 C4.03346939,6.74742857 3.83706122,6.86008163 3.78514286,7.05012245 C3.73322449,7.23967347 3.84489796,7.43559184 4.03444898,7.4875102 C5.5195102,7.89502041 7.37387755,8.17910204 9.39722449,8.30987755 C9.40506122,8.30987755 9.41289796,8.31036735 9.4202449,8.31036735 C9.60636735,8.31036735 9.76359184,8.16538776 9.77534694,7.97681633 C9.78808163,7.77991837 9.63967347,7.61093878 9.44326531,7.59820408 Z" id="Shape"></path>
                        <path d="M14.5322449,8.30938776 C16.5555918,8.17861224 18.4099592,7.89453061 19.8950204,7.48702041 C20.0845714,7.43559184 20.1967347,7.23918367 20.1443265,7.04963265 C20.0924082,6.85959184 19.896,6.74693878 19.706449,6.79983673 C18.2669388,7.19461224 16.4620408,7.46987755 14.4857143,7.59771429 C14.2897959,7.60995918 14.1404082,7.77942857 14.1531429,7.97583673 C14.1653878,8.16440816 14.3221224,8.30938776 14.5082449,8.30938776 C14.5165714,8.30987755 14.5244082,8.30938776 14.5322449,8.30938776 Z" id="Shape"></path>
                    </g>
                </g>
            </g>
        </g>
    </g>
</svg>