<?xml version="1.0" encoding="UTF-8"?>
<svg width="20px" height="18px" viewBox="0 0 20 18" version="1.1" xmlns="http://www.w3.org/2000/svg" xmlns:xlink="http://www.w3.org/1999/xlink">
    <!-- Generator: sketchtool 51.2 (57519) - http://www.bohemiancoding.com/sketch -->
    <title>49467909-E938-4D70-A50B-400CD89E4BDA</title>
    <desc>Created with sketchtool.</desc>
    <defs></defs>
    <g id="Komunitas" stroke="none" stroke-width="1" fill="none" fill-rule="evenodd">
        <g id="Artikel-Detail" transform="translate(-261.000000, -683.000000)">
            <g id="Group-2" transform="translate(0.000000, 665.000000)">
                <g id="ic-share" transform="translate(258.000000, 15.000000)">
                    <rect id="Rectangle-2" x="0" y="0" width="24" height="24"></rect>
                    <path d="M21.7963047,9.32982812 L16.6571289,4.19075781 C16.5299687,4.06359766 16.3794648,4 16.2054766,4 C16.0314883,4 15.8808789,4.06359766 15.7538242,4.19075781 C15.6266641,4.31798828 15.5629961,4.4685625 15.5629961,4.64251562 L15.5629961,7.21205078 L13.3146484,7.21205078 C8.54338281,7.21205078 5.61599219,8.56043359 4.53180859,11.2571289 C4.17725781,12.1536836 4,13.2679609 4,14.5995742 C4,15.7103008 4.42493359,17.219207 5.27473047,19.1263633 C5.29476953,19.1732969 5.32978516,19.253418 5.38005859,19.3671484 C5.43029687,19.4808086 5.47540234,19.5811797 5.51555078,19.6682617 C5.55583984,19.7551328 5.59936328,19.82875 5.64615625,19.8889023 C5.72638281,20.0027031 5.82010937,20.0597266 5.92719531,20.0597266 C6.02756641,20.0597266 6.10621094,20.026293 6.16312891,19.9593906 C6.21990625,19.8925234 6.24834766,19.8087812 6.24834766,19.7086563 C6.24834766,19.6482578 6.23998047,19.5597344 6.22321094,19.4425586 C6.20647656,19.3253828 6.19807422,19.2469492 6.19807422,19.2067305 C6.16457031,18.7518789 6.14783594,18.3400234 6.14783594,17.9722539 C6.14783594,17.2964453 6.20647656,16.6908437 6.32347656,16.1555547 C6.44065234,15.6201602 6.60289844,15.1568711 6.81039062,14.7653711 C7.01784766,14.3737305 7.28542187,14.0360547 7.61339453,13.7516406 C7.94122656,13.4672266 8.29416016,13.2347734 8.67223047,13.0540703 C9.05037109,12.873332 9.49534375,12.731125 10.0072539,12.6274492 C10.5191289,12.5237383 11.0343437,12.4517734 11.5530039,12.4115898 C12.0716641,12.3714062 12.6588437,12.3514375 13.3146484,12.3514375 L15.5629961,12.3514375 L15.5629961,14.921043 C15.5629961,15.0949961 15.6265234,15.2456055 15.7535781,15.3726953 C15.8808437,15.4997148 16.0313477,15.5633828 16.2052305,15.5633828 C16.3791836,15.5633828 16.529793,15.4997148 16.6571289,15.3726953 L21.7961992,10.2334492 C21.9233594,10.1062891 21.9868867,9.95578516 21.9868867,9.78179687 C21.9868516,9.60784375 21.9233594,9.45723438 21.7963047,9.32982812 Z" id="Shape" stroke="#282828" stroke-width="1.5" fill-rule="nonzero"></path>
                </g>
            </g>
        </g>
    </g>
</svg>