<?xml version="1.0" encoding="UTF-8"?>
<svg width="30px" height="30px" viewBox="0 0 30 30" version="1.1" xmlns="http://www.w3.org/2000/svg" xmlns:xlink="http://www.w3.org/1999/xlink">
    <!-- Generator: sketchtool 51.2 (57519) - http://www.bohemiancoding.com/sketch -->
    <title>DC9109FC-1E61-4BB4-A6E6-60E5058070CE</title>
    <desc>Created with sketchtool.</desc>
    <defs></defs>
    <g id="Profile" stroke="none" stroke-width="1" fill="none" fill-rule="evenodd">
        <g id="Profile---Transaksi---Status---Pembayaran-Diterima" transform="translate(-165.000000, -140.000000)">
            <g id="Group" transform="translate(0.000000, 110.000000)">
                <g id="Steps" transform="translate(85.000000, 30.000000)">
                    <g id="ic-steps-pesanan-diproses" transform="translate(80.000000, 0.000000)">
                        <circle id="Oval" fill="#B4B4B4" cx="15" cy="15" r="15"></circle>
                        <path d="M24.4434894,10.8630638 C24.4193617,9.49429787 23.8108085,8.19446809 22.7733191,7.29753191 C21.7216596,6.3887234 20.3758723,5.98812766 18.9814468,6.16621277 C17.2208936,6.39293617 15.7349362,7.61693617 15.1129787,9.23617021 L13.4971915,8.5146383 C13.4251915,8.48208511 13.3420851,8.48208511 13.2700851,8.5146383 L6.22595745,11.6611915 C6.22059574,11.6638723 6.21638298,11.6680851 6.21102128,11.670766 C6.2033617,11.6749787 6.19531915,11.6772766 6.18804255,11.6818723 C6.18191489,11.6857021 6.17731915,11.6906809 6.17157447,11.6952766 C6.16353191,11.7017872 6.15587234,11.7079149 6.14821277,11.7151915 C6.13710638,11.7255319 6.12714894,11.7374043 6.11795745,11.7496596 C6.11221277,11.7573191 6.10646809,11.7645957 6.10148936,11.7730213 C6.09306383,11.7871915 6.08617021,11.8025106 6.08042553,11.8178298 C6.0773617,11.8258723 6.07353191,11.832766 6.07161702,11.8408085 C6.0647234,11.8649362 6.06051064,11.8898298 6.06051064,11.9154894 L6.06051064,20.2674894 C6.06051064,20.3774043 6.12523404,20.4769787 6.22557447,20.5217872 L13.2697021,23.6687234 C13.2742979,23.6710213 13.2792766,23.6698723 13.2838723,23.6717872 C13.3156596,23.6840426 13.3482128,23.6924681 13.3819149,23.6928511 C13.3822979,23.6928511 13.3826809,23.693234 13.3830638,23.693234 L13.3834468,23.693234 C13.3838298,23.693234 13.3842128,23.6928511 13.3845957,23.6928511 C13.4182979,23.6924681 13.451234,23.6844255 13.4826383,23.6717872 C13.487234,23.6698723 13.4922128,23.6710213 13.4968085,23.6687234 L20.5417021,20.5217872 C20.6420426,20.4769787 20.706766,20.3774043 20.706766,20.2674894 L20.706766,15.6426383 C22.8817021,15.1340426 24.4829362,13.1440851 24.4434894,10.8630638 Z M13.3834468,9.07417021 L14.946383,9.77195745 C14.8958298,9.97148936 14.8540851,10.1744681 14.8303404,10.3824255 C14.8142553,10.5218298 14.8050638,10.661617 14.801234,10.8014043 L9.66510638,13.0954468 L7.02293617,11.9154894 L13.3834468,9.07417021 Z M13.1050213,22.9847234 L6.61812766,20.0871064 L6.61812766,12.3451915 L10.6731064,14.1562979 L13.1046383,15.2420426 L13.1046383,22.9847234 L13.1050213,22.9847234 Z M13.3834468,14.7564255 L10.3479574,13.4006809 L14.8242128,11.400766 C14.9023404,12.2195745 15.1830638,13.0081277 15.6556596,13.6894468 C15.6644681,13.7028511 15.6709787,13.7174043 15.6790213,13.7311915 L13.3834468,14.7564255 Z M20.1502979,20.0871064 L13.6626383,22.9847234 L13.6626383,15.2416596 L15.7280426,14.3198298 L15.5813617,15.8168936 C15.5721702,15.9103404 15.6104681,16.0018723 15.683617,16.061234 C15.7337872,16.1014468 15.7958298,16.1228936 15.8586383,16.1228936 C15.8869787,16.1228936 15.9157021,16.1182979 15.9436596,16.1094894 L17.7425106,15.5334894 C17.8700426,15.4925106 18.0017872,15.4909787 18.113234,15.5269787 C18.761617,15.7425957 19.4337447,15.8157447 20.1108511,15.7464255 C20.1242553,15.7448936 20.1368936,15.7418298 20.1502979,15.7402979 L20.1502979,20.0871064 Z M20.0545532,15.1922553 C19.4555745,15.2539149 18.8619574,15.1884255 18.2886383,14.9984681 C18.0626809,14.9237872 17.8156596,14.9253191 17.5728511,15.0026809 L16.1768936,15.449617 L16.3048085,14.1451915 C16.332,13.8644681 16.2645957,13.5894894 16.1137021,13.3719574 C15.5239149,12.5217447 15.2646383,11.4823404 15.3837447,10.445617 C15.6035745,8.53148936 17.1465957,6.96395745 19.0526809,6.71885106 C20.2854894,6.55876596 21.4788511,6.91493617 22.4091064,7.71880851 C23.3271064,8.51195745 23.8655745,9.66165957 23.8866383,10.8726383 C23.9245532,13.0709362 22.2413617,14.9685957 20.0545532,15.1922553 Z" id="Shape" fill="#FFFFFF" fill-rule="nonzero"></path>
                        <path d="M18.963141,12.0064685 L19.1595596,12.202887 C19.0510806,12.094408 18.8752014,12.094408 18.7667225,12.202887 L18.963141,12.0064685 Z M18.963141,11.3779291 L19.3166944,11.7314825 L18.6095876,11.7314825 L18.963141,11.3779291 Z" id="Shape" stroke="#FFFFFF" fill="#FFFFFF" fill-rule="nonzero"></path>
                    </g>
                </g>
            </g>
        </g>
    </g>
</svg>