<?xml version="1.0" encoding="UTF-8"?>
<svg width="30px" height="30px" viewBox="0 0 30 30" version="1.1" xmlns="http://www.w3.org/2000/svg" xmlns:xlink="http://www.w3.org/1999/xlink">
    <!-- Generator: sketchtool 51.2 (57519) - http://www.bohemiancoding.com/sketch -->
    <title>1C40C5A2-9205-4E6E-A593-2B8549FDC939</title>
    <desc>Created with sketchtool.</desc>
    <defs></defs>
    <g id="Profile" stroke="none" stroke-width="1" fill="none" fill-rule="evenodd">
        <g id="Profile---Transaksi---Status---Pembayaran-Diterima" transform="translate(-125.000000, -140.000000)">
            <g id="Group" transform="translate(0.000000, 110.000000)">
                <g id="Steps" transform="translate(85.000000, 30.000000)">
                    <g id="ic-steps-pembayaran-diterima" transform="translate(40.000000, 0.000000)">
                        <circle id="Oval" fill="#F5821F" cx="15" cy="15" r="15"></circle>
                        <path d="M23.9128889,9.04711111 L8.19644444,9.04711111 C7.80266667,9.04711111 7.48311111,9.36711111 7.48311111,9.76044444 L7.48311111,10.1435556 C7.48311111,10.3213333 7.62755556,10.4666667 7.80622222,10.4666667 C7.98488889,10.4666667 8.12933333,10.3217778 8.12933333,10.1435556 L8.12933333,9.76044444 C8.12933333,9.72355556 8.15955556,9.69333333 8.19644444,9.69333333 L23.9128889,9.69333333 C23.9497778,9.69333333 23.98,9.72355556 23.98,9.76044444 L23.98,18.456 C23.98,18.4928889 23.9497778,18.5231111 23.9128889,18.5231111 L23.5302222,18.5231111 C23.3515556,18.5231111 23.2066667,18.6675556 23.2066667,18.8466667 C23.2066667,19.0244444 23.3515556,19.1697778 23.5302222,19.1697778 L23.9128889,19.1697778 C24.3066667,19.1697778 24.6262222,18.8493333 24.6262222,18.4564444 L24.6262222,9.76088889 C24.6266667,9.36711111 24.3066667,9.04711111 23.9128889,9.04711111 Z" id="Shape" fill="#FFFFFF" fill-rule="nonzero"></path>
                        <path d="M21.8595556,11.1093333 L21.7626667,11.1093333 L19.996,11.1093333 L8.02355556,11.1093333 L6.22177778,11.1093333 L6.12533333,11.1093333 C5.73644444,11.1093333 5.42044444,11.4257778 5.42044444,11.8142222 L5.42044444,11.9097778 C5.42044444,11.9102222 5.42044444,11.9106667 5.42044444,11.9111111 L5.42044444,20.6884444 C5.42044444,20.6888889 5.42044444,20.6893333 5.42044444,20.6902222 L5.42044444,20.7853333 C5.42044444,21.1737778 5.73644444,21.4906667 6.12533333,21.4906667 L6.22177778,21.4906667 L8.02355556,21.4906667 L19.996,21.4906667 L21.7626667,21.4906667 L21.8595556,21.4906667 C22.2484444,21.4906667 22.564,21.1737778 22.564,20.7853333 L22.564,20.6884444 L22.564,18.8888889 L22.564,13.7111111 L22.564,11.9111111 L22.564,11.8142222 C22.5644444,11.4257778 22.2484444,11.1093333 21.8595556,11.1093333 Z M6.06666667,14.0137778 C7.24355556,13.8671111 8.17777778,12.9328889 8.32444444,11.756 L19.696,11.756 C19.8422222,12.9137778 20.7608889,13.8453333 21.9177778,14.0066667 L21.9177778,18.592 C20.7604444,18.7537778 19.8422222,19.6848889 19.6955556,20.8431111 L8.32444444,20.8431111 C8.17777778,19.6662222 7.24355556,18.732 6.06666667,18.5853333 L6.06666667,14.0137778 Z M21.7626667,11.756 C21.848,11.756 21.9177778,11.8253333 21.9177778,11.9111111 L21.9177778,13.3551111 C21.1164444,13.2044444 20.4826667,12.56 20.3466667,11.756 L21.7626667,11.756 Z M7.67377778,11.756 C7.53688889,12.5764444 6.88711111,13.2257778 6.06711111,13.3626667 L6.06711111,11.9097778 C6.06755556,11.8248889 6.13688889,11.7555556 6.22222222,11.7555556 L7.67377778,11.7555556 L7.67377778,11.756 Z M6.22177778,20.8435556 C6.13644444,20.8435556 6.06755556,20.7742222 6.06666667,20.6888889 L6.06666667,19.2364444 C6.88711111,19.3737778 7.53644444,20.0231111 7.67333333,20.8431111 L6.22177778,20.8431111 L6.22177778,20.8435556 Z M20.3466667,20.8435556 C20.4826667,20.0395556 21.116,19.3946667 21.9177778,19.2444444 L21.9177778,20.688 C21.9177778,20.7737778 21.8484444,20.8435556 21.7626667,20.8435556 L20.3466667,20.8435556 Z" id="Shape" fill="#FFFFFF" fill-rule="nonzero"></path>
                        <path d="M12.104004,16.4806648 C11.9955251,16.3721858 11.8196459,16.3721858 11.7111669,16.4806648 C11.6026879,16.5891438 11.6026879,16.7650229 11.7111669,16.8735019 L13.1000558,18.2623908 C13.2085348,18.3708697 13.3844139,18.3708697 13.4928929,18.2623908 L16.5484485,15.2068352 C16.6569274,15.0983562 16.6569274,14.9224771 16.5484485,14.8139981 C16.4399695,14.7055191 16.2640903,14.7055191 16.1556114,14.8139981 L13.2964744,17.6731351 L12.104004,16.4806648 Z" id="Shape" stroke="#FFFFFF" stroke-width="0.5" fill="#FFFFFF" fill-rule="nonzero"></path>
                        <path d="M19.5355556,17.4168889 C20.1524444,17.4168889 20.6537778,16.9151111 20.6537778,16.2982222 C20.6537778,15.6822222 20.1524444,15.1804444 19.5355556,15.1804444 C18.9191111,15.1804444 18.4177778,15.6822222 18.4177778,16.2982222 C18.4173333,16.9151111 18.9191111,17.4168889 19.5355556,17.4168889 Z M19.5355556,15.8271111 C19.7955556,15.8271111 20.0071111,16.0391111 20.0071111,16.2986667 C20.0071111,16.5591111 19.7955556,16.7706667 19.5355556,16.7706667 C19.2755556,16.7706667 19.064,16.5591111 19.064,16.2986667 C19.064,16.0386667 19.2755556,15.8271111 19.5355556,15.8271111 Z" id="Shape" fill="#FFFFFF" fill-rule="nonzero"></path>
                        <path d="M8.44933333,17.4168889 C9.06577778,17.4168889 9.56755556,16.9151111 9.56755556,16.2982222 C9.56755556,15.6822222 9.06622222,15.1804444 8.44933333,15.1804444 C7.83288889,15.1804444 7.33111111,15.6822222 7.33111111,16.2982222 C7.33111111,16.9151111 7.83288889,17.4168889 8.44933333,17.4168889 Z M8.44933333,15.8271111 C8.70933333,15.8271111 8.92088889,16.0391111 8.92088889,16.2986667 C8.92088889,16.5591111 8.70933333,16.7706667 8.44933333,16.7706667 C8.18933333,16.7706667 7.97777778,16.5591111 7.97777778,16.2986667 C7.97777778,16.0386667 8.18888889,15.8271111 8.44933333,15.8271111 Z" id="Shape" fill="#FFFFFF" fill-rule="nonzero"></path>
                    </g>
                </g>
            </g>
        </g>
    </g>
</svg>