<?xml version="1.0" encoding="UTF-8"?>
<svg width="30px" height="30px" viewBox="0 0 30 30" version="1.1" xmlns="http://www.w3.org/2000/svg" xmlns:xlink="http://www.w3.org/1999/xlink">
    <!-- Generator: sketchtool 51.2 (57519) - http://www.bohemiancoding.com/sketch -->
    <title>BF894B67-1314-43D9-AF95-7BE427CF7952</title>
    <desc>Created with sketchtool.</desc>
    <defs></defs>
    <g id="Profile" stroke="none" stroke-width="1" fill="none" fill-rule="evenodd">
        <g id="Profile---Transaksi---Status---Pesanan-Diterima" transform="translate(-205.000000, -140.000000)">
            <g id="Group" transform="translate(0.000000, 110.000000)">
                <g id="Steps" transform="translate(85.000000, 30.000000)">
                    <g id="ic-steps-pesanan-dikirim" transform="translate(120.000000, 0.000000)">
                        <circle id="Oval" fill="#F5821F" cx="15" cy="15" r="15"></circle>
                        <circle id="Oval" fill="#FFFFFF" fill-rule="nonzero" cx="10.4505" cy="21.87375" r="1"></circle>
                        <circle id="Oval" fill="#FFFFFF" fill-rule="nonzero" cx="19.71075" cy="21.87375" r="1"></circle>
                        <path d="M23.48625,16.482 C23.18025,16.17525 22.753875,15.997125 22.219875,15.946875 C22.097625,15.24825 21.645375,13.064625 20.60175,11.967 C20.115375,11.456625 19.41525,11.163 18.6795,11.163 L17.829,11.163 C17.7855,10.35375 17.5545,9.59475 17.173125,8.9295 C17.16975,8.921625 17.169375,8.913 17.164875,8.9055 C17.158875,8.89575 17.149875,8.88975 17.1435,8.881125 C16.705125,8.135625 16.08225,7.513125 15.337125,7.074375 C15.3285,7.067625 15.322125,7.058625 15.312375,7.052625 C15.3045,7.04775 15.295875,7.04775 15.287625,7.044375 C14.54775,6.620625 13.693875,6.374625 12.781875,6.374625 C11.8695,6.374625 11.015625,6.620625 10.276125,7.044375 C10.267875,7.048125 10.258875,7.048125 10.251,7.052625 C10.240875,7.058625 10.23525,7.067625 10.22625,7.074375 C9.481125,7.513125 8.859,8.13525 8.420625,8.880375 C8.4135,8.889 8.404125,8.895375 8.398125,8.9055 C8.39325,8.913375 8.39325,8.922375 8.389875,8.930625 C8.008875,9.5955 7.777875,10.3545 7.734375,11.163 L6.354,11.163 C6.20325,11.163 6.081,11.284875 6.081,11.436 L6.081,20.900625 C6.081,21.555 6.6135,22.087875 7.267875,22.087875 L8.51475,22.087875 C8.621625,23.06175 9.448875,23.82225 10.450875,23.82225 C11.452875,23.82225 12.27975,23.06175 12.387,22.087875 L17.77425,22.087875 C17.8815,23.06175 18.708375,23.82225 19.71075,23.82225 C20.71275,23.82225 21.54,23.06175 21.646875,22.087875 L22.89375,22.087875 C23.5485,22.087875 24.081,21.555 24.081,20.900625 L24.081,18.59325 C24.08175,17.99025 24.082875,17.079 23.48625,16.482 Z M20.2065,12.343125 C21.0885,13.2705 21.5205,15.181125 21.6615,15.930375 L18.828,15.930375 C18.284625,15.930375 17.842875,15.48825 17.842875,14.944875 L17.842875,11.708625 L18.679125,11.708625 C19.266,11.708625 19.822875,11.939625 20.2065,12.343125 Z M10.293,7.671 L10.52775,8.07825 C10.578375,8.16525 10.67025,8.214375 10.764375,8.214375 C10.810875,8.214375 10.85775,8.20275 10.9005,8.178 C11.031,8.10225 11.075625,7.93575 11.00025,7.80525 L10.766625,7.40025 C11.296875,7.134 11.885625,6.970875 12.508875,6.933375 L12.508875,7.401 C12.508875,7.55175 12.63075,7.674 12.781875,7.674 C12.932625,7.674 13.0545,7.552125 13.0545,7.401 L13.0545,6.933375 C13.67775,6.97125 14.266125,7.134 14.79675,7.40025 L14.56275,7.80525 C14.487375,7.93575 14.532,8.10225 14.662875,8.178 C14.705625,8.202375 14.7525,8.214375 14.799,8.214375 C14.893125,8.214375 14.985,8.16525 15.03525,8.07825 L15.27,7.671 C15.77625,8.007 16.2105,8.44125 16.546125,8.947125 L16.13925,9.18225 C16.008375,9.257625 15.96375,9.4245 16.039125,9.554625 C16.08975,9.642375 16.181625,9.69075 16.27575,9.69075 C16.32225,9.69075 16.36875,9.6795 16.4115,9.654375 L16.816875,9.420375 C17.08275,9.951 17.245875,10.539375 17.283375,11.162625 L16.816125,11.162625 C16.665375,11.162625 16.5435,11.2845 16.5435,11.435625 C16.5435,11.58675 16.665375,11.708625 16.816125,11.708625 L17.283375,11.708625 C17.245875,12.331875 17.08275,12.920625 16.816875,13.450875 L16.4115,13.21725 C16.281375,13.141875 16.1145,13.186875 16.039125,13.317375 C15.96375,13.447875 16.008375,13.614375 16.13925,13.68975 L16.546125,13.9245 C16.2105,14.43075 15.775875,14.865375 15.27,15.200625 L15.03525,14.794125 C14.959875,14.66325 14.792625,14.618625 14.662875,14.694 C14.532,14.769 14.48775,14.935875 14.56275,15.066375 L14.79675,15.471375 C14.266125,15.73725 13.67775,15.900375 13.0545,15.937875 L13.0545,15.470625 C13.0545,15.319875 12.932625,15.197625 12.781875,15.197625 C12.631125,15.197625 12.508875,15.3195 12.508875,15.470625 L12.508875,15.937875 C11.88525,15.9 11.296875,15.73725 10.766625,15.471375 L11.00025,15.066375 C11.076,14.9355 11.031,14.769 10.9005,14.694 C10.770375,14.618625 10.6035,14.66325 10.52775,14.794125 L10.293,15.200625 C9.78675,14.865 9.3525,14.430375 9.016875,13.9245 L9.42375,13.68975 C9.55425,13.614375 9.59925,13.4475 9.5235,13.317375 C9.448125,13.186875 9.280875,13.141875 9.151125,13.21725 L8.74575,13.450875 C8.479875,12.920625 8.31675,12.33225 8.279625,11.708625 L8.746875,11.708625 C8.897625,11.708625 9.0195,11.58675 9.0195,11.435625 C9.0195,11.2845 8.897625,11.162625 8.746875,11.162625 L8.279625,11.162625 C8.317125,10.53975 8.479875,9.951 8.74575,9.420375 L9.151125,9.654375 C9.193875,9.679125 9.241125,9.69075 9.28725,9.69075 C9.38175,9.69075 9.47325,9.642 9.5235,9.554625 C9.59925,9.424125 9.55425,9.257625 9.42375,9.18225 L9.016875,8.947125 C9.3525,8.440875 9.78675,8.006625 10.293,7.671 Z M10.450875,23.276625 C9.67725,23.276625 9.047625,22.647 9.047625,21.87375 C9.047625,21.100125 9.67725,20.4705 10.450875,20.4705 C11.2245,20.4705 11.85375,21.100125 11.85375,21.87375 C11.85375,22.647 11.2245,23.276625 10.450875,23.276625 Z M15.661125,21.54225 L12.369,21.54225 C12.21075,20.625375 11.412,19.924875 10.450875,19.924875 C9.489375,19.924875 8.690625,20.625375 8.532375,21.54225 L7.2675,21.54225 C6.913875,21.54225 6.62625,21.25425 6.62625,20.900625 L6.62625,20.8215 L7.82925,20.8215 C7.920375,20.8215 8.005125,20.776125 8.05575,20.700375 C8.106375,20.624625 8.116125,20.528625 8.080875,20.444625 L7.4715,18.971625 C7.4295,18.87 7.32975,18.802875 7.2195,18.802875 L6.62625,18.802875 L6.62625,18.30075 L15.661125,18.30075 L15.661125,21.54225 Z M6.628875,20.27625 L6.628875,19.3485 L7.036875,19.3485 L7.420875,20.27625 L6.628875,20.27625 Z M6.62625,17.755125 L6.62625,11.708625 L7.734,11.708625 C7.7775,12.5175 8.0085,13.27575 8.3895,13.940625 C8.39325,13.948875 8.39325,13.95825 8.39775,13.9665 C8.407125,13.981875 8.419125,13.995 8.430375,14.008125 C8.868375,14.746125 9.486375,15.361875 10.22625,15.79725 C10.234875,15.804 10.240875,15.813375 10.250625,15.819 C10.2615,15.82575 10.2735,15.82875 10.285125,15.83325 C11.02275,16.253625 11.87325,16.497375 12.7815,16.497375 C13.689375,16.497375 14.539875,16.254 15.277875,15.83325 C15.289125,15.82875 15.301125,15.825375 15.312,15.819 C15.32175,15.813375 15.32775,15.804 15.336375,15.79725 C15.446625,15.732375 15.55575,15.665625 15.66075,15.592875 L15.66075,17.755125 L6.62625,17.755125 Z M19.71075,23.276625 C18.937125,23.276625 18.3075,22.647 18.3075,21.87375 C18.3075,21.100125 18.937125,20.4705 19.71075,20.4705 C20.484375,20.4705 21.114,21.100125 21.114,21.87375 C21.114,22.647 20.484375,23.276625 19.71075,23.276625 Z M23.535375,20.27625 L22.517625,20.27625 L22.133625,19.3485 L23.535375,19.3485 L23.535375,20.27625 Z M23.535375,18.802875 L21.725625,18.802875 C21.6345,18.802875 21.549375,18.848625 21.499125,18.924375 C21.448125,18.99975 21.43875,19.096125 21.474,19.180125 L22.083375,20.653125 C22.125375,20.75475 22.225125,20.8215 22.335375,20.8215 L23.53575,20.8215 L23.53575,20.900625 C23.53575,21.25425 23.24775,21.54225 22.894125,21.54225 L21.629625,21.54225 C21.47175,20.625375 20.672625,19.924875 19.711125,19.924875 C18.749625,19.924875 17.950875,20.625375 17.792625,21.54225 L16.20675,21.54225 L16.20675,15.1515 C16.569,14.81775 16.881,14.433 17.13375,14.007 C17.144625,13.99425 17.15625,13.981875 17.164875,13.966875 C17.169375,13.959 17.16975,13.95 17.173125,13.942125 C17.217,13.866 17.257875,13.788 17.297625,13.70925 L17.297625,14.94525 C17.297625,15.789375 17.984625,16.476375 18.828375,16.476375 L21.898875,16.476375 C22.437375,16.476375 22.841625,16.608 23.10075,16.8675 C23.538,17.30475 23.536875,18.049125 23.53575,18.5925 L23.53575,18.802875 L23.535375,18.802875 Z" id="Shape" fill="#FFFFFF" fill-rule="nonzero"></path>
                        <path d="M19.0305,17.755125 L17.57025,17.755125 C17.4195,17.755125 17.29725,17.877 17.29725,18.028125 C17.29725,18.1785 17.419125,18.301125 17.57025,18.301125 L19.0305,18.301125 C19.180875,18.301125 19.303125,18.178875 19.303125,18.028125 C19.30275,17.877 19.180875,17.755125 19.0305,17.755125 Z" id="Shape" fill="#FFFFFF" fill-rule="nonzero"></path>
                        <path d="M10.32825,10.33425 L12.645375,11.671875 C12.687375,11.695875 12.734625,11.708625 12.781875,11.708625 C12.82875,11.708625 12.876,11.69625 12.918,11.671875 C13.00275,11.623125 13.0545,11.533125 13.0545,11.435625 L13.0545,8.80275 C13.0545,8.652375 12.932625,8.52975 12.781875,8.52975 C12.631125,8.52975 12.508875,8.652 12.508875,8.80275 L12.508875,10.963125 L10.600875,9.861375 C10.470375,9.786 10.303875,9.83025 10.228125,9.9615 C10.15275,10.092375 10.19775,10.258875 10.32825,10.33425 Z" id="Shape" fill="#FFFFFF" fill-rule="nonzero"></path>
                    </g>
                </g>
            </g>
        </g>
    </g>
</svg>