<?xml version="1.0" encoding="UTF-8"?>
<svg width="30px" height="30px" viewBox="0 0 30 30" version="1.1" xmlns="http://www.w3.org/2000/svg" xmlns:xlink="http://www.w3.org/1999/xlink">
    <!-- Generator: sketchtool 51.2 (57519) - http://www.bohemiancoding.com/sketch -->
    <title>76BDDEDD-D90C-4669-B62F-8E673F9D3E3F</title>
    <desc>Created with sketchtool.</desc>
    <defs></defs>
    <g id="Profile" stroke="none" stroke-width="1" fill="none" fill-rule="evenodd">
        <g id="Profile---Transaksi---Status---Telah-Diambil" transform="translate(-205.000000, -140.000000)">
            <g id="Group" transform="translate(0.000000, 110.000000)">
                <g id="Steps" transform="translate(85.000000, 30.000000)">
                    <g id="ic-steps-persiapan-barang" transform="translate(120.000000, 0.000000)">
                        <circle id="Oval" fill="#F5821F" cx="15" cy="15" r="15"></circle>
                        <path d="M24.6225055,17.4256409 C24.398334,17.2368869 24.1312449,17.2223032 23.7783206,17.3123052 C23.794571,17.2456371 23.8062379,17.1777189 23.8070713,17.1064674 C23.808738,16.9052131 23.7391531,16.6106234 23.3999792,16.3506178 C23.081639,16.1060292 22.6274625,16.2176983 21.9549481,16.4877041 L21.9549481,9.67672425 C21.9549481,9.66964076 21.9516147,9.66464066 21.9507813,9.65755717 C21.9491146,9.63047326 21.9436978,9.60380601 21.9349476,9.5783888 C21.9311976,9.56838859 21.9286975,9.55838837 21.9241141,9.54880483 C21.9111971,9.52088756 21.8941134,9.494637 21.8720296,9.47130316 C21.8691129,9.46796976 21.8678629,9.46421968 21.8649461,9.46171962 C21.8641128,9.46130295 21.8641128,9.46088627 21.8636961,9.4604696 L19.4390606,7.08666853 C19.3823927,7.03125067 19.3065578,7 19.2273894,7 L11.8793147,7 C11.8001463,7 11.7238946,7.03125067 11.6676434,7.08666853 L9.24300794,9.4604696 C9.24259127,9.46088627 9.24217459,9.46130295 9.24217459,9.46171962 C9.23925786,9.46463635 9.23759116,9.46838643 9.23467443,9.47130316 C9.2130073,9.494637 9.19550692,9.52047089 9.18258998,9.54880483 C9.17800655,9.55838837 9.17508982,9.56838859 9.17217309,9.5783888 C9.16300622,9.60422269 9.15800612,9.63047326 9.15592274,9.65755717 C9.15592274,9.66464066 9.15217266,9.66964076 9.15217266,9.67672425 L9.15217266,15.6214355 C8.75549746,15.6122686 8.32465486,15.6072685 7.85089466,15.6072685 L5.30292318,15.6072685 C5.13541958,15.6072685 5,15.7426881 5,15.9101917 L5,21.3611423 C5,21.5286459 5.13541958,21.6644821 5.30292318,21.6644821 L7.80214361,21.6644821 C8.18506852,21.7890682 10.7692908,22.5865853 14.1131127,22.5865853 C17.2298464,22.5861686 21.004511,21.891987 24.260831,19.3110982 C24.3333326,19.2606804 24.971263,18.8035873 24.9991802,18.2031577 C25.0079304,18.0002366 24.9508459,17.7010635 24.6225055,17.4256409 Z M7.5475548,21.0573857 L5.60542969,21.0573857 L5.60542969,16.2126982 L7.5475548,16.2126982 L7.5475548,21.0573857 Z M23.0312212,16.8310448 C23.1837245,16.947714 23.2008082,17.0406327 23.2008082,17.1002173 C23.1995582,17.2806378 23.018721,17.5023093 22.8674677,17.6468957 C22.7982996,17.676063 22.7320481,17.7039803 22.6582965,17.7352309 C22.4478753,17.8248162 22.2137036,17.923985 21.9549481,18.0289873 L21.9549481,17.1427182 C22.4287083,16.9447973 22.9174688,16.7589599 23.0312212,16.8310448 Z M19.1036367,7.60584637 L20.9090922,9.37380107 L17.1581782,9.37380107 L16.7544195,7.60584637 L19.1036367,7.60584637 Z M14.9735479,7.60584637 L16.1327395,7.60584637 L16.5369149,9.37380107 L14.5693725,9.37380107 L14.9735479,7.60584637 Z M14.4927042,9.97964743 L16.6139998,9.97964743 L16.6139998,12.1009431 L14.4927042,12.1009431 L14.4927042,9.97964743 Z M12.0030673,7.60584637 L14.3518679,7.60584637 L13.9481092,9.37380107 L10.1980285,9.37380107 L12.0030673,7.60584637 Z M9.75801902,9.97964743 L13.8868578,9.97964743 L13.8868578,12.4038663 C13.8868578,12.5709532 14.0222774,12.7072061 14.189781,12.7072061 L16.9173397,12.7072061 C17.0848433,12.7072061 17.2206796,12.5713699 17.2206796,12.4038663 L17.2206796,9.97964743 L21.3495184,9.97964743 L21.3495184,18.2648257 C20.7157548,18.5027475 19.9644886,18.7535862 19.0669693,18.9781743 C19.10197,18.8765055 19.1182204,18.77817 19.1240538,18.6881681 C19.1578046,18.1406563 19.024885,17.7114804 18.7286287,17.4148074 C18.3061196,16.9906316 17.7119401,17.0210489 17.7011066,17.0214656 C14.91438,17.0689666 14.4422865,16.791044 13.8960247,16.4710371 C13.3155956,16.1306131 12.6693317,15.7514383 9.7584357,15.6397692 L9.7584357,9.97964743 L9.75801902,9.97964743 Z M23.8995732,18.823171 C17.7027733,23.73411 9.53968099,21.5586465 8.15340117,21.1386375 L8.15340117,16.2135315 C12.2909902,16.2318653 12.979755,16.6360406 13.5885181,16.9935483 C14.2135315,17.3602229 14.7543765,17.6777297 17.7231904,17.6268953 C17.7269405,17.6281453 18.0702812,17.6135617 18.2986194,17.8427333 C18.4669564,18.0119036 18.5411246,18.2839927 18.5182075,18.651084 C18.512374,18.7406692 18.495707,19.010675 17.9623622,19.225263 C17.9573621,19.2273464 17.9531953,19.2306798 17.9481952,19.2327632 C17.9465285,19.2331798 17.9440285,19.2327632 17.9423618,19.2340132 C17.3760996,19.4544346 16.1260727,19.644022 13.3918472,19.2898477 C13.2272603,19.271514 13.0739237,19.3852664 13.0526732,19.55152 C13.0314228,19.7173569 13.1485086,19.8694435 13.3147622,19.890694 C14.3552013,20.0252802 15.258554,20.0927817 16.0214871,20.0927817 C16.9285899,20.0927817 17.6361052,19.9969463 18.1381993,19.8065255 C20.3815809,19.3610993 21.8932801,18.7185854 22.895385,18.2927429 C23.515815,18.0285706 24.1020776,17.7798152 24.2329138,17.8894009 C24.3825003,18.015237 24.3962506,18.111489 24.3933339,18.1727404 C24.3820836,18.4294125 24.0354095,18.7273356 23.8995732,18.823171 Z" id="Shape" fill="#FFFFFF" fill-rule="nonzero"></path>
                    </g>
                </g>
            </g>
        </g>
    </g>
</svg>