<?xml version="1.0" encoding="UTF-8"?>
<svg width="30px" height="30px" viewBox="0 0 30 30" version="1.1" xmlns="http://www.w3.org/2000/svg" xmlns:xlink="http://www.w3.org/1999/xlink">
    <!-- Generator: sketchtool 51.2 (57519) - http://www.bohemiancoding.com/sketch -->
    <title>82B16EA6-813C-4181-A43A-300BEF975D7E</title>
    <desc>Created with sketchtool.</desc>
    <defs></defs>
    <g id="Profile" stroke="none" stroke-width="1" fill="none" fill-rule="evenodd">
        <g id="Profile---Transaksi---Status---Pembayaran-Diterima" transform="translate(-245.000000, -140.000000)">
            <g id="Group" transform="translate(0.000000, 110.000000)">
                <g id="Steps" transform="translate(85.000000, 30.000000)">
                    <g id="ic-steps-pesanan-diterima" transform="translate(160.000000, 0.000000)">
                        <circle id="Oval" fill="#B4B4B4" cx="15" cy="15" r="15"></circle>
                        <path d="M25.9442298,14.5909583 L23.4215493,10.7863124 C23.3977158,10.7574373 23.3862574,10.7432289 23.3729657,10.7308538 C23.3307988,10.6951036 23.3285071,10.6928119 23.3257571,10.6909786 C23.3031459,10.6799785 21.4167883,9.83602944 17.6666844,8.15913136 L16.9998058,7.86167139 L15.1357539,7.02933349 C15.092212,7.01100006 15.0472951,7 15.0000865,7 C14.9524195,7 14.907961,7.01054172 14.8671691,7.02841682 C14.8665579,7.02872238 14.021845,7.40578 12.3330302,8.15958969 L11.6666098,8.45750799 L6.72024939,10.6666868 C6.67212413,10.6928119 6.66983245,10.6955619 6.66754077,10.6973953 C6.61391548,10.7436872 6.60245708,10.7578956 6.59145702,10.7725624 C6.58840145,10.7768402 5.74307737,12.0497916 4.05548478,14.5914166 C4.00140115,14.6730004 3.98581774,14.7742926 4.01331789,14.8687098 C4.04081804,14.9626687 4.10819341,15.0396691 4.1975689,15.0795443 L6.52270664,16.1185917 L6.52270664,19.6610694 C6.52270664,19.7926118 6.6001654,19.9122375 6.72024939,19.9658628 L14.8639607,23.6036744 C14.9185027,23.6224661 14.9588362,23.6330079 15.0000865,23.6330079 C15.0413367,23.6330079 15.0816702,23.6229245 15.1201705,23.6073411 C15.1235316,23.6058133 17.8434493,22.3919872 23.2799235,19.9658628 C23.4000075,19.9122375 23.4774663,19.7926118 23.4774663,19.6610694 L23.4774663,16.1185917 L25.8030624,15.0795443 C25.8924378,15.0396691 25.9598132,14.9626687 25.9873134,14.8687098 C26.0138968,14.7738343 25.9983134,14.6720837 25.9442298,14.5909583 Z M4.82823902,14.6312918 L6.9773758,11.3903991 L13.1782015,14.1596643 L14.5041671,14.7518342 L12.3550303,17.9927269 L4.82823902,14.6312918 Z M14.6659596,22.7850865 L7.18912697,19.4447349 L7.18912697,16.4160516 L12.3408219,18.7173559 C12.3848221,18.736606 12.431114,18.7462311 12.4764893,18.7462311 C12.5851149,18.7462311 12.6909905,18.6930641 12.7542408,18.5972719 L14.6655013,15.7147978 L14.6655013,22.7850865 L14.6659596,22.7850865 Z M14.9996281,14.242623 L10.9552726,12.4367798 L8.38859188,11.2900235 L7.67312962,10.9705634 L11.6661515,9.18717866 L12.3325718,8.88880202 L14.666418,7.84700464 L14.666418,13.0491165 C14.666418,13.2329092 14.8158354,13.3823267 15.0000865,13.3823267 C15.1838791,13.3823267 15.3332966,13.2333675 15.3332966,13.0491165 L15.3332966,7.84700464 L16.9998058,8.59134206 L17.6662261,8.88926036 L22.3261266,10.9705634 L21.8453323,11.1855229 L14.9996281,14.242623 Z M22.8101293,19.4447349 L15.3328383,22.7850865 L15.3328383,15.7138811 L17.2440988,18.5963552 C17.3078074,18.6921474 17.4132247,18.7453144 17.5218503,18.7453144 C17.5676839,18.7453144 17.6139758,18.7356893 17.6575177,18.7164392 L22.8096709,16.415135 L22.8096709,19.4447349 L22.8101293,19.4447349 Z M17.6437676,17.9927269 L15.4950892,14.7518342 L23.0218804,11.3903991 L25.1714756,14.6312918 L17.6437676,17.9927269 Z" id="Shape" fill="#FFFFFF" fill-rule="nonzero"></path>
                    </g>
                </g>
            </g>
        </g>
    </g>
</svg>