<?xml version="1.0" encoding="UTF-8"?>
<svg width="30px" height="30px" viewBox="0 0 30 30" version="1.1" xmlns="http://www.w3.org/2000/svg" xmlns:xlink="http://www.w3.org/1999/xlink">
    <!-- Generator: sketchtool 51.2 (57519) - http://www.bohemiancoding.com/sketch -->
    <title>6E4280E5-6D6E-4C84-B856-C1E5845271E9</title>
    <desc>Created with sketchtool.</desc>
    <defs></defs>
    <g id="Profile" stroke="none" stroke-width="1" fill="none" fill-rule="evenodd">
        <g id="Profile---Transaksi---Status---Dibatalkan-Admin" transform="translate(-125.000000, -140.000000)">
            <g id="Group" transform="translate(0.000000, 110.000000)">
                <g id="Steps" transform="translate(85.000000, 30.000000)">
                    <g id="ic-steps-filed" transform="translate(40.000000, 0.000000)">
                        <circle id="Oval" fill="#E61E3C" cx="15" cy="15" r="15"></circle>
                        <path d="M9,19 C12.8326455,16.3333333 16.8326455,16.3333333 21,19" id="Path" stroke="#FFFFFF" stroke-width="0.75" stroke-linecap="round"></path>
                        <path d="M11.1182222,13.2364444 C11.7346667,13.2364444 12.2364444,12.7346667 12.2364444,12.1177778 C12.2364444,11.5017778 11.7351111,11 11.1182222,11 C10.5017778,11 10,11.5017778 10,12.1177778 C10,12.7346667 10.5017778,13.2364444 11.1182222,13.2364444 Z M11.1182222,11.6466667 C11.3782222,11.6466667 11.5897778,11.8586667 11.5897778,12.1182222 C11.5897778,12.3786667 11.3782222,12.5902222 11.1182222,12.5902222 C10.8582222,12.5902222 10.6466667,12.3786667 10.6466667,12.1182222 C10.6466667,11.8582222 10.8577778,11.6466667 11.1182222,11.6466667 Z" id="Shape" fill="#FFFFFF" fill-rule="nonzero"></path>
                        <path d="M19.1182222,13.2364444 C19.7346667,13.2364444 20.2364444,12.7346667 20.2364444,12.1177778 C20.2364444,11.5017778 19.7351111,11 19.1182222,11 C18.5017778,11 18,11.5017778 18,12.1177778 C18,12.7346667 18.5017778,13.2364444 19.1182222,13.2364444 Z M19.1182222,11.6466667 C19.3782222,11.6466667 19.5897778,11.8586667 19.5897778,12.1182222 C19.5897778,12.3786667 19.3782222,12.5902222 19.1182222,12.5902222 C18.8582222,12.5902222 18.6466667,12.3786667 18.6466667,12.1182222 C18.6466667,11.8582222 18.8577778,11.6466667 19.1182222,11.6466667 Z" id="Shape" fill="#FFFFFF" fill-rule="nonzero"></path>
                    </g>
                </g>
            </g>
        </g>
    </g>
</svg>