<?xml version="1.0" encoding="UTF-8"?>
<svg width="30px" height="30px" viewBox="0 0 30 30" version="1.1" xmlns="http://www.w3.org/2000/svg" xmlns:xlink="http://www.w3.org/1999/xlink">
    <!-- Generator: sketchtool 51.2 (57519) - http://www.bohemiancoding.com/sketch -->
    <title>87AA2175-F3C5-45A4-899D-9B8FFB35E69A</title>
    <desc>Created with sketchtool.</desc>
    <defs></defs>
    <g id="Profile" stroke="none" stroke-width="1" fill="none" fill-rule="evenodd">
        <g id="Profile---Transaksi---Status---Pesanan-Diproses-Copy" transform="translate(-85.000000, -140.000000)">
            <g id="Group-1" transform="translate(0.000000, 110.000000)">
                <g id="Steps" transform="translate(85.000000, 30.000000)">
                    <g id="ic-steps-menunggu-pembayaran">
                        <circle id="Oval" fill="#F5821F" cx="15" cy="15" r="15"></circle>
                        <path d="M21.7788163,8.16293878 C22.2207347,8.16293878 22.5803673,7.80330612 22.5803673,7.36138776 L22.5803673,7.09395918 C22.5803673,6.65204082 22.2207347,6.29204082 21.7788163,6.29204082 L8.95510204,6.29204082 C8.51281633,6.29204082 8.15355102,6.65167347 8.15355102,7.09395918 L8.15355102,7.36138776 C8.15355102,7.80330612 8.51318367,8.16293878 8.95510204,8.16293878 L9.22216327,8.16293878 L9.22216327,22.0552653 L8.95510204,22.0552653 C8.51281633,22.0552653 8.15355102,22.414898 8.15355102,22.8568163 L8.15355102,23.1242449 C8.15355102,23.5657959 8.51318367,23.9254286 8.95510204,23.9254286 L21.7788163,23.9254286 C22.2207347,23.9254286 22.5803673,23.5657959 22.5803673,23.1242449 L22.5803673,22.8568163 C22.5803673,22.414898 22.2207347,22.0552653 21.7788163,22.0552653 L21.5113878,22.0552653 L21.5113878,8.16293878 L21.7788163,8.16293878 Z M16.090449,15.2600816 L20.0405306,21.0355102 L17.5146531,19.0481633 C16.2502449,18.0530204 14.4840408,18.0533878 13.2196327,19.0481633 L10.6941224,21.0351429 L14.6442041,15.2600816 C14.7066531,15.1693469 14.7066531,15.0492245 14.6442041,14.9584898 L12.2028163,11.3889796 L18.5325714,11.3889796 L16.0911837,14.9584898 C16.028,15.0488571 16.028,15.1689796 16.090449,15.2600816 Z M18.8977143,10.8541224 L11.8365714,10.8541224 L9.99616327,8.16293878 L20.7384898,8.16293878 L18.8977143,10.8541224 Z M14.0994286,15.1087347 L9.75702041,21.4583265 L9.75702041,8.7595102 L14.0994286,15.1087347 Z M13.5495102,19.4676735 C14.6192245,18.6257143 16.1139592,18.6260816 17.1840408,19.4676735 L20.472898,22.0556327 L10.2606531,22.0556327 L13.5495102,19.4676735 Z M16.6344898,15.1087347 L20.9772653,8.75914286 L20.9772653,21.4583265 L16.6344898,15.1087347 Z M8.68840816,7.3617551 L8.68840816,7.09432653 C8.68840816,6.94702041 8.80816327,6.82689796 8.95546939,6.82689796 L21.7791837,6.82689796 C21.9264898,6.82689796 22.0466122,6.94665306 22.0466122,7.09432653 L22.0466122,7.3617551 C22.0466122,7.50869388 21.9268571,7.62881633 21.7791837,7.62881633 L8.95546939,7.62881633 C8.80779592,7.62844898 8.68840816,7.50869388 8.68840816,7.3617551 Z M22.0462449,22.8568163 L22.0462449,23.1242449 C22.0462449,23.271551 21.9264898,23.3913061 21.7788163,23.3913061 L8.95510204,23.3913061 C8.80779592,23.3913061 8.68804082,23.2719184 8.68804082,23.1242449 L8.68804082,22.8568163 C8.68804082,22.7095102 8.80779592,22.5897551 8.95510204,22.5897551 L9.48959184,22.5897551 L21.2446939,22.5897551 L21.7791837,22.5897551 C21.9264898,22.5901224 22.0462449,22.7095102 22.0462449,22.8568163 Z" id="Shape" fill="#FFFFFF" fill-rule="nonzero"></path>
                        <path d="M15.3686122,15.3765306 C15.4380408,15.3765306 15.504898,15.3471429 15.5555918,15.2990204 C15.6062857,15.2479592 15.633102,15.178898 15.633102,15.1094694 C15.633102,15.0400408 15.6062857,14.9702449 15.5555918,14.9191837 C15.4567755,14.8203673 15.2775102,14.8203673 15.1790612,14.9191837 C15.1283673,14.9702449 15.101551,15.0367347 15.101551,15.1094694 C15.101551,15.1785306 15.1283673,15.2479592 15.1790612,15.2990204 C15.2297551,15.3471429 15.2962449,15.3765306 15.3686122,15.3765306 Z" id="Shape" fill="#FFFFFF" fill-rule="nonzero"></path>
                        <path d="M15.3686122,15.972 C15.219102,15.972 15.101551,16.0924898 15.101551,16.2394286 C15.101551,16.3893061 15.219102,16.5068571 15.3686122,16.5068571 C15.515551,16.5068571 15.6356735,16.3896735 15.6356735,16.2394286 C15.6356735,16.0924898 15.5151837,15.972 15.3686122,15.972 Z" id="Shape" fill="#FFFFFF" fill-rule="nonzero"></path>
                        <path d="M15.1786939,17.1827755 C15.128,17.2334694 15.1011837,17.302898 15.1011837,17.3726939 C15.1011837,17.4417551 15.128,17.5111837 15.1786939,17.5622449 C15.226449,17.6103673 15.2962449,17.6397551 15.3682449,17.6397551 C15.4376735,17.6397551 15.507102,17.6103673 15.5552245,17.5622449 C15.6059184,17.5111837 15.6327347,17.4421224 15.6327347,17.3726939 C15.6327347,17.3032653 15.6059184,17.2334694 15.5552245,17.1827755 C15.4567755,17.0835918 15.2775102,17.0835918 15.1786939,17.1827755 Z" id="Shape" fill="#FFFFFF" fill-rule="nonzero"></path>
                    </g>
                </g>
            </g>
        </g>
    </g>
</svg>