<?xml version="1.0" encoding="UTF-8"?>
<svg width="24px" height="23px" viewBox="0 0 24 23" version="1.1" xmlns="http://www.w3.org/2000/svg" xmlns:xlink="http://www.w3.org/1999/xlink">
    <!-- Generator: sketchtool 51.2 (57519) - http://www.bohemiancoding.com/sketch -->
    <title>25020011-45DD-4687-A00E-6C960E6C08FF</title>
    <desc>Created with sketchtool.</desc>
    <defs></defs>
    <g id="Profile" stroke="none" stroke-width="1" fill="none" fill-rule="evenodd">
        <g id="Profile---Reseller" transform="translate(-18.000000, -314.000000)">
            <g id="Group-2" transform="translate(0.000000, 205.000000)">
                <g id="ic-tds" transform="translate(15.000000, 106.000000)">
                    <rect id="Rectangle" x="0" y="0" width="30" height="30"></rect>
                    <g id="Group" transform="translate(3.000000, 3.000000)" fill="#F5821F">
                        <path d="M11.9069388,6.96881633 C9.94285714,6.96881633 8.34514286,8.56653061 8.34514286,10.5306122 C8.34514286,12.3066122 9.67053061,13.824 11.4284082,14.0605714 C11.4450612,14.0630204 11.4607347,14.064 11.4764082,14.064 C11.6517551,14.064 11.8050612,13.9342041 11.8290612,13.7549388 C11.8550204,13.56 11.7183673,13.3807347 11.5234286,13.3547755 C10.1172245,13.1652245 9.05730612,11.9515102 9.05730612,10.5306122 C9.05730612,8.95934694 10.3356735,7.68097959 11.9069388,7.68097959 C13.3253878,7.68097959 14.539102,8.73844898 14.7306122,10.1412245 C14.7570612,10.3366531 14.9392653,10.4718367 15.1312653,10.4463673 C15.3262041,10.4194286 15.4628571,10.2401633 15.4364082,10.0457143 C15.196898,8.29077551 13.6795102,6.96881633 11.9069388,6.96881633 Z" id="Shape" fill-rule="nonzero"></path>
                        <path d="M6.56277551,19.848 L6.56277551,14.4200816 C6.56277551,14.2236735 6.40310204,14.064 6.20669388,14.064 C6.00979592,14.064 5.85012245,14.2231837 5.85012245,14.4200816 L5.85012245,19.5301224 L0.863510204,17.3025306 L0.863510204,6.20228571 L6.20522449,8.58808163 L6.50546939,8.72228571 C6.31444898,9.29093878 6.20669388,9.89779592 6.20669388,10.5306122 C6.20669388,13.5526531 8.57289796,16.0261224 11.5484082,16.2117551 L11.5484082,22.0760816 L6.56277551,19.848 Z" id="Path" fill-opacity="0.2"></path>
                        <path d="M11.9054694,0.951673469 L11.906449,4.83134694 C9.10155102,5.71330612 7.39167347,6.79053061 6.77681633,8.06302041 L1.38073469,5.65322449 L11.9054694,0.951673469 Z" id="Path" fill-opacity="0.2"></path>
                        <path d="M23.6047347,5.46416327 C23.6022857,5.4597551 23.5993469,5.45583673 23.5964082,5.45240816 C23.5812245,5.42987755 23.5640816,5.40979592 23.544,5.39167347 C23.5381224,5.38628571 23.5322449,5.38138776 23.5258776,5.37697959 C23.5170612,5.36963265 23.5097143,5.36130612 23.4999184,5.35444898 C23.4886531,5.34710204 23.4754286,5.34318367 23.4636735,5.33681633 C23.4587755,5.33436735 23.4548571,5.33044898 23.4499592,5.328 L12.0514286,0.236081633 C11.9593469,0.194938776 11.8530612,0.194938776 11.7609796,0.236081633 L0.362938776,5.328 C0.356081633,5.33142857 0.350693878,5.33681633 0.343346939,5.3402449 C0.33355102,5.34514286 0.323265306,5.34857143 0.313959184,5.35395918 C0.306122449,5.35934694 0.300734694,5.36620408 0.293387755,5.37159184 C0.283102041,5.37991837 0.272816327,5.3877551 0.263510204,5.39706122 C0.249306122,5.41077551 0.236571429,5.42546939 0.225306122,5.44114286 C0.217959184,5.45093878 0.210612245,5.4597551 0.204244898,5.47102041 C0.193469388,5.48914286 0.185142857,5.50873469 0.177795918,5.52881633 C0.173877551,5.53861224 0.168979592,5.54742857 0.166530612,5.55771429 C0.157714286,5.58857143 0.152326531,5.62089796 0.152326531,5.65322449 L0.152326531,17.5337143 C0.152326531,17.6742857 0.235102041,17.8016327 0.363428571,17.8589388 L11.7614694,22.9508571 C11.7673469,22.9537959 11.7737143,22.9523265 11.7800816,22.9547755 C11.8202449,22.970449 11.8618776,22.9812245 11.9049796,22.9817143 C11.9054694,22.9817143 11.906449,22.9822041 11.9069388,22.9822041 L11.9074286,22.9822041 L11.9079184,22.9822041 C11.9084082,22.9822041 11.908898,22.9817143 11.9093878,22.9817143 C11.952,22.9812245 11.9941224,22.9709388 12.0342857,22.9547755 C12.0401633,22.9523265 12.0465306,22.9537959 12.052898,22.9508571 L23.4519184,17.8589388 C23.5802449,17.8016327 23.6630204,17.6742857 23.6630204,17.5337143 L23.6630204,5.65322449 C23.6620408,5.58465306 23.6404898,5.52 23.6047347,5.46416327 Z M11.9054694,0.951673469 L16.4115918,2.9642449 L14.6811429,3.73763265 C14.5013878,3.81795918 14.4210612,4.02857143 14.500898,4.20832653 C14.5601633,4.34057143 14.690449,4.41942857 14.8266122,4.41942857 C14.875102,4.41942857 14.9245714,4.40914286 14.9715918,4.38808163 L17.284898,3.35510204 L22.4302041,5.65322449 L17.0355918,8.06253061 C16.1133061,6.15428571 14.1639184,4.83134694 11.906449,4.83134694 C9.6484898,4.83134694 7.69910204,6.15428571 6.77681633,8.06302041 L1.38073469,5.65322449 L11.9054694,0.951673469 Z M12.48,11.1036735 L19.3057959,13.4453878 L16.3278367,14.7707755 C16.2475102,14.8065306 16.1833469,14.8706939 16.147102,14.9515102 L14.8222041,17.9289796 L12.48,11.1036735 Z M16.7235918,11.8065306 L12.0225306,10.1936327 C11.8932245,10.149551 11.7511837,10.1828571 11.6551837,10.2788571 C11.5591837,10.3748571 11.5258776,10.5178776 11.5699592,10.6462041 L13.1818776,15.3433469 C12.7748571,15.4545306 12.3492245,15.5177143 11.9069388,15.5177143 C9.15722449,15.5177143 6.91983673,13.2808163 6.91983673,10.5306122 C6.91983673,7.78040816 9.15673469,5.5435102 11.9069388,5.5435102 C14.6571429,5.5435102 16.8940408,7.78040816 16.8940408,10.5306122 C16.893551,10.9724082 16.8318367,11.3990204 16.7235918,11.8065306 Z M6.56277551,19.848 L6.56277551,14.4200816 C6.56277551,14.2236735 6.40310204,14.064 6.20669388,14.064 C6.00979592,14.064 5.85012245,14.2231837 5.85012245,14.4200816 L5.85012245,19.5301224 L0.863510204,17.3025306 L0.863510204,6.20228571 L6.20522449,8.58808163 L6.50546939,8.72228571 C6.31444898,9.29093878 6.20669388,9.89779592 6.20669388,10.5306122 C6.20669388,13.5526531 8.57289796,16.0261224 11.5484082,16.2117551 L11.5484082,22.0760816 L6.56277551,19.848 Z M22.9493878,17.3025306 L12.2625306,22.0760816 L12.2625306,16.2137143 C12.6587755,16.1877551 13.0432653,16.1216327 13.4130612,16.0177959 L14.4426122,19.0177959 C14.4901224,19.1564082 14.6174694,19.2519184 14.7639184,19.2582857 C14.7693061,19.2582857 14.7742041,19.2582857 14.7795918,19.2582857 C14.9196735,19.2582857 15.0475102,19.176 15.1053061,19.0471837 L16.7431837,15.3663673 L20.424,13.7284898 C20.5577143,13.6687347 20.6414694,13.533551 20.635102,13.3875918 C20.6287347,13.2406531 20.5332245,13.1133061 20.395102,13.0662857 L17.3990204,12.0377143 C17.5317551,11.5572245 17.6071837,11.0527347 17.6071837,10.5306122 C17.6071837,9.89779592 17.4994286,9.29093878 17.3079184,8.72179592 L22.9503673,6.20179592 L22.9503673,17.3025306 L22.9493878,17.3025306 Z" id="Shape" fill-rule="nonzero"></path>
                    </g>
                </g>
            </g>
        </g>
    </g>
</svg>