<?xml version="1.0" encoding="UTF-8"?>
<svg width="19px" height="18px" viewBox="0 0 19 18" version="1.1" xmlns="http://www.w3.org/2000/svg" xmlns:xlink="http://www.w3.org/1999/xlink">
    <!-- Generator: sketchtool 51.2 (57519) - http://www.bohemiancoding.com/sketch -->
    <title>CD7DEEF1-6404-4A77-B6D5-CDB0D24BF55B</title>
    <desc>Created with sketchtool.</desc>
    <defs></defs>
    <g id="Perusahaan" stroke="none" stroke-width="1" fill="none" fill-rule="evenodd">
        <g id="Karir" transform="translate(-38.000000, -812.000000)">
            <g id="Group-1" transform="translate(15.000000, 758.000000)">
                <g id="ic-team" transform="translate(20.000000, 51.000000)">
                    <rect id="Rectangle" x="0" y="0" width="24" height="24"></rect>
                    <path d="M12.0556641,19.083375 L4.716,19.083375 C4.114125,19.083375 3.625125,18.593625 3.625125,17.9925 L3.625125,11.172 L5.96025,13.297875 L5.96025,14.036625 C5.96025,14.563125 6.3885,14.99175 6.915,14.99175 C7.441125,14.99175 7.869375,14.563125 7.869375,14.036625 L7.869375,13.387875 L9.625125,13.387875 C9.625875,14.27175 10.3455,14.99175 11.230125,14.99175 L12.0556641,14.99175 L12.0556641,19.083375 Z" id="Path" fill-opacity="0.2" fill="#F5821F"></path>
                    <path d="M12.0976562,9.99175 L11.229375,9.99175 C10.344375,9.99175 9.624375,10.71175 9.624375,11.596 L9.624375,12.84225 L7.868625,12.842625 L7.868625,6.265125 L12.0976562,6.265125 L12.0976562,9.99175 Z" id="Path" fill-opacity="0.2" fill="#F5821F"></path>
                    <path d="M7.32375,6.265125 L7.32375,14.037 C7.32375,14.26275 7.140375,14.4465 6.914625,14.4465 C6.688875,14.4465 6.5055,14.26275 6.5055,14.037 L6.5055,6.265125 L7.32375,6.265125 Z" id="Path" fill-opacity="0.2" fill="#F5821F"></path>
                    <path d="M3.62475,7.356375 C3.62475,6.754875 4.11375,6.265125 4.715625,6.265125 L5.959875,6.265125 L5.959875,12.56025 L3.62475,10.43475 L3.62475,9.958875 L3.62475,7.356375 Z" id="Path" fill-opacity="0.2" fill="#F5821F"></path>
                    <path d="M19.443,5.7195 L17.926125,5.7195 L16.562625,5.7195 L15.216,5.7195 L15.216,5.014875 C15.216,3.961875 14.359875,3.10575 13.306875,3.10575 L10.8525,3.10575 C9.7995,3.10575 8.943375,3.961875 8.943375,5.014875 L8.943375,5.7195 L7.59675,5.7195 L6.23325,5.7195 L4.716375,5.7195 C3.81375,5.7195 3.079875,6.453375 3.079875,7.356 L3.079875,9.862125 L3.079875,10.5555 L3.079875,17.9925 C3.079875,18.89475 3.81375,19.628625 4.716375,19.628625 L5.363625,19.628625 C5.493375,20.3685 6.139125,20.93325 6.915375,20.93325 C7.69125,20.93325 8.337,20.3685 8.46675,19.628625 L15.693375,19.628625 C15.823125,20.3685 16.4685,20.93325 17.24475,20.93325 C18.021,20.93325 18.66675,20.3685 18.7965,19.628625 L19.44375,19.628625 C20.346,19.628625 21.08025,18.89475 21.08025,17.9925 L21.08025,10.5555 L21.08025,9.565875 L21.08025,7.356 C21.079125,6.453375 20.344875,5.7195 19.443,5.7195 Z M17.653125,6.265125 L17.653125,14.037 C17.653125,14.26275 17.46975,14.4465 17.244,14.4465 C17.01825,14.4465 16.834875,14.26275 16.834875,14.037 L16.834875,6.265125 L17.653125,6.265125 Z M14.533875,12.84225 L14.533875,11.596 C14.533875,10.71175 13.813875,9.99175 12.928875,9.99175 L11.229375,9.99175 C10.344375,9.99175 9.624375,10.71175 9.624375,11.596 L9.624375,12.84225 L7.868625,12.842625 L7.868625,6.265125 L16.28925,6.265125 L16.28925,12.842625 L14.533875,12.84225 Z M13.98825,11.595625 L13.98825,13.386375 C13.98825,13.970625 13.513125,14.44575 12.928875,14.44575 L11.229375,14.44575 C10.645125,14.44575 10.17,13.97025 10.17,13.386375 L10.17,11.595625 C10.17,11.01175 10.645125,10.536625 11.229375,10.536625 L12.928875,10.536625 C13.5135,10.536625 13.98825,11.012125 13.98825,11.595625 Z M9.48825,5.01525 C9.48825,4.263375 10.099875,3.65175 10.852125,3.65175 L13.3065,3.65175 C14.058375,3.65175 14.670375,4.263375 14.670375,5.01525 L14.670375,5.719875 L9.488625,5.719875 L9.488625,5.01525 L9.48825,5.01525 Z M7.32375,6.265125 L7.32375,14.037 C7.32375,14.26275 7.140375,14.4465 6.914625,14.4465 C6.688875,14.4465 6.5055,14.26275 6.5055,14.037 L6.5055,6.265125 L7.32375,6.265125 Z M3.62475,7.356375 C3.62475,6.754875 4.11375,6.265125 4.715625,6.265125 L5.959875,6.265125 L5.959875,12.56025 L3.62475,10.43475 L3.62475,9.958875 L3.62475,7.356375 Z M6.914625,20.387625 C6.440625,20.387625 6.045,20.06475 5.92425,19.629 L7.90425,19.629 C7.783875,20.064375 7.38825,20.387625 6.914625,20.387625 Z M17.244,20.387625 C16.770375,20.387625 16.37475,20.06475 16.254,19.629 L18.234,19.629 C18.113625,20.064375 17.718,20.387625 17.244,20.387625 Z M19.443,19.083375 L4.716,19.083375 C4.114125,19.083375 3.625125,18.593625 3.625125,17.9925 L3.625125,11.172 L5.96025,13.297875 L5.96025,14.036625 C5.96025,14.563125 6.3885,14.99175 6.915,14.99175 C7.441125,14.99175 7.869375,14.563125 7.869375,14.036625 L7.869375,13.387875 L9.625125,13.387875 C9.625875,14.27175 10.3455,14.99175 11.230125,14.99175 L12.929625,14.99175 C13.81425,14.99175 14.533875,14.27175 14.534625,13.387875 L16.290375,13.387875 L16.290375,14.036625 C16.290375,14.563125 16.718625,14.99175 17.24475,14.99175 C17.770875,14.99175 18.1995,14.563125 18.1995,14.036625 L18.1995,13.297875 L20.534625,11.172 L20.534625,17.9925 C20.533875,18.593625 20.044875,19.083375 19.443,19.083375 Z M20.533875,10.43475 L18.19875,12.56025 L18.19875,6.265125 L19.443,6.265125 C20.044875,6.265125 20.533875,6.754875 20.533875,7.356375 L20.533875,9.857625 L20.533875,10.43475 Z" id="Shape" fill="#F5821F" fill-rule="nonzero"></path>
                </g>
            </g>
        </g>
    </g>
</svg>