<?xml version="1.0" encoding="UTF-8"?>
<svg width="20px" height="24px" viewBox="0 0 20 24" version="1.1" xmlns="http://www.w3.org/2000/svg" xmlns:xlink="http://www.w3.org/1999/xlink">
    <!-- Generator: sketchtool 51.2 (57519) - http://www.bohemiancoding.com/sketch -->
    <title>979A8CB3-0525-4022-A2B1-3E821B4C0084</title>
    <desc>Created with sketchtool.</desc>
    <defs></defs>
    <g id="Profil" stroke="none" stroke-width="1" fill="none" fill-rule="evenodd">
        <g id="Profile---MnR---B" transform="translate(-199.000000, -252.000000)">
            <g id="Group-2" transform="translate(0.000000, 144.000000)">
                <g id="ic-trial" transform="translate(194.000000, 105.000000)">
                    <rect id="Rectangle" x="0" y="0" width="30" height="30"></rect>
                    <g id="Group" transform="translate(5.000000, 3.000000)" fill="#F5821F">
                        <path d="M10.7872653,12.3467755 L16.0540408,20.0473469 L12.6862041,17.397551 C11.0003265,16.0706939 8.64538776,16.0711837 6.9595102,17.397551 L3.59216327,20.0468571 L8.85893878,12.3467755 C8.94220408,12.2257959 8.94220408,12.0656327 8.85893878,11.9446531 L5.6037551,7.18530612 L14.0434286,7.18530612 L10.7882449,11.9446531 C10.704,12.0651429 10.704,12.2253061 10.7872653,12.3467755 Z" id="Path" fill-opacity="0.2"></path>
                        <path d="M18.3717551,2.88391837 C18.9609796,2.88391837 19.4404898,2.40440816 19.4404898,1.81518367 L19.4404898,1.45861224 C19.4404898,0.869387755 18.9609796,0.389387755 18.3717551,0.389387755 L1.27346939,0.389387755 C0.683755102,0.389387755 0.204734694,0.868897959 0.204734694,1.45861224 L0.204734694,1.81518367 C0.204734694,2.40440816 0.684244898,2.88391837 1.27346939,2.88391837 L1.62955102,2.88391837 L1.62955102,21.4070204 L1.27346939,21.4070204 C0.683755102,21.4070204 0.204734694,21.8865306 0.204734694,22.4757551 L0.204734694,22.8323265 C0.204734694,23.4210612 0.684244898,23.9005714 1.27346939,23.9005714 L18.3717551,23.9005714 C18.9609796,23.9005714 19.4404898,23.4210612 19.4404898,22.8323265 L19.4404898,22.4757551 C19.4404898,21.8865306 18.9609796,21.4070204 18.3717551,21.4070204 L18.0151837,21.4070204 L18.0151837,2.88391837 L18.3717551,2.88391837 Z M10.7872653,12.3467755 L16.0540408,20.0473469 L12.6862041,17.397551 C11.0003265,16.0706939 8.64538776,16.0711837 6.9595102,17.397551 L3.59216327,20.0468571 L8.85893878,12.3467755 C8.94220408,12.2257959 8.94220408,12.0656327 8.85893878,11.9446531 L5.6037551,7.18530612 L14.0434286,7.18530612 L10.7882449,11.9446531 C10.704,12.0651429 10.704,12.2253061 10.7872653,12.3467755 Z M14.5302857,6.47216327 L5.11542857,6.47216327 L2.66155102,2.88391837 L16.9846531,2.88391837 L14.5302857,6.47216327 Z M8.13257143,12.1449796 L2.34269388,20.611102 L2.34269388,3.67934694 L8.13257143,12.1449796 Z M7.39934694,17.956898 C8.82563265,16.8342857 10.8186122,16.8347755 12.2453878,17.956898 L16.6305306,21.4075102 L3.01420408,21.4075102 L7.39934694,17.956898 Z M11.5126531,12.1449796 L17.3030204,3.67885714 L17.3030204,20.611102 L11.5126531,12.1449796 Z M0.917877551,1.81567347 L0.917877551,1.45910204 C0.917877551,1.26269388 1.07755102,1.10253061 1.27395918,1.10253061 L18.3722449,1.10253061 C18.5686531,1.10253061 18.7288163,1.26220408 18.7288163,1.45910204 L18.7288163,1.81567347 C18.7288163,2.01159184 18.5691429,2.1717551 18.3722449,2.1717551 L1.27395918,2.1717551 C1.07706122,2.17126531 0.917877551,2.01159184 0.917877551,1.81567347 Z M18.7283265,22.4757551 L18.7283265,22.8323265 C18.7283265,23.0287347 18.5686531,23.1884082 18.3717551,23.1884082 L1.27346939,23.1884082 C1.07706122,23.1884082 0.917387755,23.0292245 0.917387755,22.8323265 L0.917387755,22.4757551 C0.917387755,22.2793469 1.07706122,22.1196735 1.27346939,22.1196735 L1.98612245,22.1196735 L17.6595918,22.1196735 L18.3722449,22.1196735 C18.5686531,22.1201633 18.7283265,22.2793469 18.7283265,22.4757551 Z" id="Shape" fill-rule="nonzero"></path>
                        <path d="M9.82481633,12.5020408 C9.91738776,12.5020408 10.0065306,12.4628571 10.0741224,12.3986939 C10.1417143,12.3306122 10.1774694,12.2385306 10.1774694,12.1459592 C10.1774694,12.0533878 10.1417143,11.9603265 10.0741224,11.8922449 C9.94236735,11.7604898 9.70334694,11.7604898 9.57208163,11.8922449 C9.5044898,11.9603265 9.46873469,12.0489796 9.46873469,12.1459592 C9.46873469,12.2380408 9.5044898,12.3306122 9.57208163,12.3986939 C9.63967347,12.4628571 9.72832653,12.5020408 9.82481633,12.5020408 Z" id="Shape" fill-rule="nonzero"></path>
                        <path d="M9.82481633,13.296 C9.62546939,13.296 9.46873469,13.4566531 9.46873469,13.6525714 C9.46873469,13.8524082 9.62546939,14.0091429 9.82481633,14.0091429 C10.0207347,14.0091429 10.180898,13.852898 10.180898,13.6525714 C10.180898,13.4566531 10.0202449,13.296 9.82481633,13.296 Z" id="Shape" fill-rule="nonzero"></path>
                        <path d="M9.57159184,14.9103673 C9.504,14.9779592 9.4682449,15.0705306 9.4682449,15.1635918 C9.4682449,15.2556735 9.504,15.3482449 9.57159184,15.4163265 C9.63526531,15.4804898 9.72832653,15.5196735 9.82432653,15.5196735 C9.91689796,15.5196735 10.0094694,15.4804898 10.0736327,15.4163265 C10.1412245,15.3482449 10.1769796,15.2561633 10.1769796,15.1635918 C10.1769796,15.0710204 10.1412245,14.9779592 10.0736327,14.9103673 C9.94236735,14.7781224 9.70334694,14.7781224 9.57159184,14.9103673 Z" id="Shape" fill-rule="nonzero"></path>
                    </g>
                </g>
            </g>
        </g>
    </g>
</svg>