<?xml version="1.0" encoding="UTF-8"?>
<svg width="139px" height="131px" viewBox="0 0 139 131" version="1.1" xmlns="http://www.w3.org/2000/svg" xmlns:xlink="http://www.w3.org/1999/xlink">
    <!-- Generator: sketchtool 51.2 (57519) - http://www.bohemiancoding.com/sketch -->
    <title>F1DF18DF-BDF6-4F22-AE88-F72B81BD2E8A</title>
    <desc>Created with sketchtool.</desc>
    <defs></defs>
    <g id="Login-&amp;-Register" stroke="none" stroke-width="1" fill="none" fill-rule="evenodd">
        <g id="Thank-You-Page" transform="translate(-113.000000, -113.000000)">
            <g id="ic-thumbsup" transform="translate(113.000000, 113.000000)">
                <path d="M112.358678,7.66805129 L32.8118115,7.66805129 C25.680242,7.66805129 19.8750226,13.4708326 19.8750226,20.6048402 L19.8750226,97.538017 C19.8750226,104.672025 25.680242,110.474806 32.8118115,110.474806 L41.2331588,110.474806 L41.2331588,122.926404 C41.2331588,123.584703 41.594004,124.184486 42.171844,124.49413 C42.4327253,124.635543 42.7204262,124.701373 43.005689,124.701373 C43.3543435,124.701373 43.6981217,124.601409 43.9955752,124.399043 L64.6685931,110.474806 L112.358678,110.474806 C119.492686,110.474806 125.297905,104.672025 125.297905,97.538017 L125.297905,20.6048402 C125.297905,13.4708326 119.492686,7.66805129 112.358678,7.66805129 Z M121.750406,97.5355788 C121.750406,102.711757 117.534856,106.927307 112.358678,106.927307 L64.1297634,106.927307 C63.7762326,106.927307 63.4324544,107.032147 63.1398772,107.227199 L44.7806574,119.593462 L44.7806574,108.697399 C44.7806574,107.719704 43.9858226,106.924869 43.005689,106.924869 L32.8118115,106.924869 C27.635633,106.924869 23.4225212,102.709319 23.4225212,97.5331407 L23.4225212,20.6048402 C23.4225212,15.4262236 27.635633,11.2155499 32.8118115,11.2155499 L112.358678,11.2155499 C117.534856,11.2155499 121.750406,15.4262236 121.750406,20.6048402 L121.750406,97.5355788 Z" id="Shape" fill="#8C8C8C" fill-rule="nonzero"></path>
                <path d="M44.005689,106.924869 L32.8118115,106.924869 C27.635633,106.924869 23.4225212,102.709319 23.4225212,97.5331407 L23.4225212,20.6048402 C23.4225212,15.4262236 27.635633,11.2155499 32.8118115,11.2155499 L44.005689,11.2155499 L44.005689,106.924869 Z" id="Path" fill="#E6E6E6"></path>
                <circle id="Oval" fill="#E6E6E6" cx="37.7964602" cy="128.460177" r="1.99115044"></circle>
                <path d="M109.606014,62.1800614 C110.732436,60.82933 111.561405,58.8227379 111.561405,56.2090482 C111.561405,51.8398953 108.201643,48.146108 104.220155,48.146108 L85.0709771,48.146108 C85.6268738,45.493408 86.1900849,41.3729456 85.7707242,36.7160917 C84.9880802,27.9802239 80.750587,21.9653242 75.2330684,21.7458913 C70.5055084,21.5654687 68.5671844,22.591927 68.2234062,22.8016074 C67.5846126,23.186834 67.2603395,23.935344 67.4090663,24.6667871 C68.1892722,28.5019866 69.1572151,35.4189995 68.4355247,37.654777 C66.877551,42.4749865 63.0740473,47.1537836 59.7118476,51.2864367 C56.2350551,55.5653784 53.4872675,58.9470833 53.4872675,61.9923244 L53.4872675,92.3886581 C53.4872675,95.0876829 55.6864728,97.2893264 58.3879357,97.2893264 L98.0223948,97.2893264 C98.246704,97.2893264 98.4661369,97.2673831 98.6173018,97.2454398 C103.125429,96.8114502 106.519325,93.0762146 106.519325,88.5485823 C106.519325,87.7708145 106.412046,86.9881705 106.204804,86.2347842 C109.167148,84.803594 111.163988,81.760791 111.163988,78.376648 C111.163988,76.7577208 110.715369,75.1899946 109.876648,73.8270724 C111.283457,72.2422792 112.090482,70.1771718 112.090482,68.0316056 C112.090482,65.4618024 111.051833,63.4454578 109.606014,62.1800614 Z M106.441304,72.1910782 C106.034134,72.493408 105.775691,72.9542171 105.729366,73.4589128 C105.683041,73.9636085 105.85615,74.4634278 106.202366,74.8315875 C107.114232,75.8019686 107.616489,77.0624887 107.616489,78.376648 C107.616489,80.8026007 105.882969,82.9286617 103.500903,83.4382337 C102.952321,83.5552646 102.491512,83.9234242 102.259888,84.4329962 C102.025826,84.9450063 102.04777,85.5325989 102.318403,86.0251038 C102.745079,86.8028716 102.971826,87.6781651 102.971826,88.5461441 C102.971826,91.2378544 100.955481,93.4590031 98.21257,93.7223226 C98.1516164,93.729637 98.0857865,93.7393896 98.0223948,93.7393896 L58.3879357,93.7393896 C57.6394257,93.7393896 57.032328,93.1322919 57.032328,92.38622 L57.032328,61.9898862 C57.032328,60.2027271 59.7947444,56.8063934 62.4669496,53.5197761 C66.0193245,49.1481849 70.0471374,44.1938776 71.8099151,38.7421889 C72.8071158,35.6530612 71.7538378,28.7067907 71.1808741,25.515261 C71.9878996,25.3567817 73.2606104,25.2129312 75.089218,25.2860755 C78.6342785,25.4274878 81.6405093,30.3671663 82.2378544,37.0281741 C82.7547408,42.7748781 81.6210042,47.619469 81.108994,49.4334477 C80.955391,49.9674011 81.0675456,50.5403648 81.4040094,50.9841069 C81.738035,51.427849 82.2622359,51.6887304 82.8181326,51.6887304 L104.220155,51.6887304 C106.012191,51.6887304 108.016345,53.6197399 108.016345,56.2041719 C108.016345,59.520047 106.19749,60.6050208 105.824454,60.6830414 C104.863825,60.7049846 104.093372,61.4900668 104.093372,62.4580098 C104.09581,63.4332671 104.885768,64.2281019 105.865902,64.23054 C106.799711,64.23054 108.545422,65.3447715 108.545422,68.0291674 C108.542984,69.6822286 107.777407,71.2036301 106.441304,72.1910782 Z" id="Shape" fill="#16B8B2" fill-rule="nonzero"></path>
                <path d="M106.441304,72.1910782 C106.034134,72.493408 105.775691,72.9542171 105.729366,73.4589128 C105.683041,73.9636085 105.85615,74.4634278 106.202366,74.8315875 C107.114232,75.8019686 107.616489,77.0624887 107.616489,78.376648 C107.616489,80.8026007 105.882969,82.9286617 103.500903,83.4382337 C102.952321,83.5552646 102.491512,83.9234242 102.259888,84.4329962 C102.025826,84.9450063 102.04777,85.5325989 102.318403,86.0251038 C102.745079,86.8028716 102.971826,87.6781651 102.971826,88.5461441 C102.971826,91.2378544 100.955481,93.4590031 98.21257,93.7223226 C98.1516164,93.729637 98.0857865,93.7393896 98.0223948,93.7393896 L58.3879357,93.7393896 C57.6394257,93.7393896 57.032328,93.1322919 57.032328,92.38622 L57.032328,61.9898862 C57.032328,60.2027271 59.7947444,56.8063934 62.4669496,53.5197761 C66.0193245,49.1481849 70.0471374,44.1938776 71.8099151,38.7421889 C72.8071158,35.6530612 71.7538378,28.7067907 71.1808741,25.515261 C71.9878996,25.3567817 73.2606104,25.2129312 75.089218,25.2860755 C78.6342785,25.4274878 81.6405093,30.3671663 82.2378544,37.0281741 C82.7547408,42.7748781 81.6210042,47.619469 81.108994,49.4334477 C80.955391,49.9674011 81.0675456,50.5403648 81.4040094,50.9841069 C81.738035,51.427849 82.2622359,51.6887304 82.8181326,51.6887304 L104.220155,51.6887304 C106.012191,51.6887304 108.016345,53.6197399 108.016345,56.2041719 C108.016345,59.520047 106.19749,60.6050208 105.824454,60.6830414 C104.863825,60.7049846 104.093372,61.4900668 104.093372,62.4580098 C104.09581,63.4332671 104.885768,64.2281019 105.865902,64.23054 C106.799711,64.23054 108.545422,65.3447715 108.545422,68.0291674 C108.542984,69.6822286 107.777407,71.2036301 106.441304,72.1910782 Z" id="Path" fill="#FAFAFA"></path>
                <path d="M41.0234784,58.7154596 L40.5358497,58.7154596 C36.8176811,58.7154596 33.789507,61.7387574 33.789507,65.4618024 L33.789507,90.5405454 C33.789507,94.2611522 36.8176811,97.2893264 40.5358497,97.2893264 L41.0234784,97.2893264 C44.7416471,97.2893264 47.7698212,94.2635904 47.7698212,90.5405454 L47.7698212,65.4618024 C47.7698212,61.7411956 44.7440852,58.7154596 41.0234784,58.7154596 Z M44.2247607,90.5405454 C44.2247607,92.3057612 42.7886942,93.7418277 41.0234784,93.7418277 L40.5358497,93.7418277 C38.7706339,93.7418277 37.3345675,92.3057612 37.3345675,90.5405454 L37.3345675,65.4618024 C37.3345675,63.6965866 38.7706339,62.2605201 40.5358497,62.2605201 L41.0234784,62.2605201 C42.7886942,62.2605201 44.2247607,63.6965866 44.2247607,65.4618024 L44.2247607,90.5405454 Z" id="Shape" fill="#16B8B2" fill-rule="nonzero"></path>
                <path d="M44.2247607,90.5405454 C44.2247607,92.3057612 42.7886942,93.7418277 41.0234784,93.7418277 L40.5358497,93.7418277 C38.7706339,93.7418277 37.3345675,92.3057612 37.3345675,90.5405454 L37.3345675,65.4618024 C37.3345675,63.6965866 38.7706339,62.2605201 40.5358497,62.2605201 L41.0234784,62.2605201 C42.7886942,62.2605201 44.2247607,63.6965866 44.2247607,65.4618024 L44.2247607,90.5405454 Z" id="Path" fill="#FAFAFA"></path>
                <path d="M8.3846397,110.5 C7.61992431,110.5 7,109.716498 7,108.75 C7,107.783502 7.54950656,107 8.31422195,107 L33.5386641,107 C34.3033795,107 34.9233038,107.783502 34.9233038,108.75 C34.9233038,109.716498 34.3033795,110.5 33.5386641,110.5 L8.3846397,110.5 Z" id="Line-Copy" fill="#8C8C8C" fill-rule="nonzero" transform="translate(20.961652, 108.750000) rotate(-180.000000) translate(-20.961652, -108.750000) "></path>
                <path d="M125.38464,110.5 C124.619924,110.5 124,109.716498 124,108.75 C124,107.783502 124.549507,107 125.314222,107 L137.538664,107 C138.30338,107 138.923304,107.783502 138.923304,108.75 C138.923304,109.716498 138.30338,110.5 137.538664,110.5 L125.38464,110.5 Z" id="Line-Copy-3" fill="#8C8C8C" fill-rule="nonzero" transform="translate(131.461652, 108.750000) rotate(-180.000000) translate(-131.461652, -108.750000) "></path>
                <path d="M1.3846397,110.5 C0.619924308,110.5 0,109.716498 0,108.75 C0,107.783502 0.549506559,107 1.31422195,107 L3.53866414,107 C4.30337953,107 4.92330383,107.783502 4.92330383,108.75 C4.92330383,109.716498 4.30337953,110.5 3.53866414,110.5 L1.3846397,110.5 Z" id="Line-Copy-2" fill="#8C8C8C" fill-rule="nonzero" transform="translate(2.461652, 108.750000) rotate(-180.000000) translate(-2.461652, -108.750000) "></path>
                <g id="Group-2" transform="translate(10.000000, 0.000000)" fill="#F5821F">
                    <path d="M6.529725,13.05975 C5.790975,13.05975 5.192475,12.46125 5.192475,11.7225 L5.192475,1.33725 C5.192475,0.5985 5.790975,0 6.529725,0 C7.268475,0 7.866975,0.5985 7.866975,1.33725 L7.866975,11.7225 C7.866975,12.46125 7.268475,13.05975 6.529725,13.05975" id="Fill-27"></path>
                    <path d="M11.7225,7.8669 L1.33725,7.8669 C0.5985,7.8669 0,7.2684 0,6.52965 C0,5.7909 0.5985,5.1924 1.33725,5.1924 L11.7225,5.1924 C12.46125,5.1924 13.05975,5.7909 13.05975,6.52965 C13.05975,7.2684 12.46125,7.8669 11.7225,7.8669" id="Fill-28"></path>
                </g>
            </g>
        </g>
    </g>
</svg>