<?xml version="1.0" encoding="UTF-8"?>
<svg width="16px" height="18px" viewBox="0 0 16 18" version="1.1" xmlns="http://www.w3.org/2000/svg" xmlns:xlink="http://www.w3.org/1999/xlink">
    <!-- Generator: sketchtool 51.1 (57501) - http://www.bohemiancoding.com/sketch -->
    <title>7A2A5B7F-84B8-4FF9-AC32-F2E7186F217A</title>
    <desc>Created with sketchtool.</desc>
    <defs>
        <path d="M12.8208333,3.75 L15.8375,3.75 C16.2540147,3.75 16.5916667,4.08578644 16.5916667,4.5 C16.5916667,4.91421356 16.2540147,5.25 15.8375,5.25 L15.0833333,5.25 L15.0833333,15 C15.0833333,16.2426407 14.0703776,17.25 12.8208333,17.25 L5.27916667,17.25 C4.02962242,17.25 3.01666667,16.2426407 3.01666667,15 L3.01666667,5.25 L2.2625,5.25 C1.84598525,5.25 1.50833333,4.91421356 1.50833333,4.5 C1.50833333,4.08578644 1.84598525,3.75 2.2625,3.75 L5.27916667,3.75 L5.27916667,3 C5.27916667,1.75735931 6.29212242,0.75 7.54166667,0.75 L10.5583333,0.75 C11.8078776,0.75 12.8208333,1.75735931 12.8208333,3 L12.8208333,3.75 Z M11.3125,3.75 L11.3125,3 C11.3125,2.58578644 10.9748481,2.25 10.5583333,2.25 L7.54166667,2.25 C7.12515192,2.25 6.7875,2.58578644 6.7875,3 L6.7875,3.75 L11.3125,3.75 Z M13.575,5.25 L4.525,5.25 L4.525,15 C4.525,15.4142136 4.86265192,15.75 5.27916667,15.75 L12.8208333,15.75 C13.2373481,15.75 13.575,15.4142136 13.575,15 L13.575,5.25 Z M6.7875,8.25 C6.7875,7.83578644 7.12515192,7.5 7.54166667,7.5 C7.95818142,7.5 8.29583333,7.83578644 8.29583333,8.25 L8.29583333,12.75 C8.29583333,13.1642136 7.95818142,13.5 7.54166667,13.5 C7.12515192,13.5 6.7875,13.1642136 6.7875,12.75 L6.7875,8.25 Z M9.80416667,8.25 C9.80416667,7.83578644 10.1418186,7.5 10.5583333,7.5 C10.9748481,7.5 11.3125,7.83578644 11.3125,8.25 L11.3125,12.75 C11.3125,13.1642136 10.9748481,13.5 10.5583333,13.5 C10.1418186,13.5 9.80416667,13.1642136 9.80416667,12.75 L9.80416667,8.25 Z" id="path-1"></path>
    </defs>
    <g id="Buku-Alamat" stroke="none" stroke-width="1" fill="none" fill-rule="evenodd">
        <g transform="translate(-284.000000, -453.000000)" id="Group-2">
            <g transform="translate(0.000000, 293.000000)">
                <g id="cta-hapus" transform="translate(283.000000, 160.000000)">
                    <g id="ic-trash">
                        <rect id="Rectangle" x="0" y="0" width="18" height="18"></rect>
                        <mask id="mask-2" fill="white">
                            <use xlink:href="#path-1"></use>
                        </mask>
                        <use id="Combined-Shape" fill="#16B8B2" fill-rule="nonzero" xlink:href="#path-1"></use>
                    </g>
                </g>
            </g>
        </g>
    </g>
</svg>