<?xml version="1.0" encoding="UTF-8"?>
<svg width="24px" height="17px" viewBox="0 0 24 17" version="1.1" xmlns="http://www.w3.org/2000/svg" xmlns:xlink="http://www.w3.org/1999/xlink">
    <!-- Generator: sketchtool 51.2 (57519) - http://www.bohemiancoding.com/sketch -->
    <title>3873162E-AEB8-4DA0-A0B0-818098F8DBBD</title>
    <desc>Created with sketchtool.</desc>
    <defs></defs>
    <g id="Profile" stroke="none" stroke-width="1" fill="none" fill-rule="evenodd">
        <g id="Profile---Reseller" transform="translate(-197.000000, -236.000000)">
            <g id="Group-2" transform="translate(0.000000, 205.000000)">
                <g id="ic-transaksi" transform="translate(194.000000, 25.000000)">
                    <rect id="Rectangle" x="0" y="0" width="30" height="30"></rect>
                    <g id="Group" transform="translate(3.000000, 6.000000)" fill="#F5821F">
                        <path d="M3.48066749,17 C3.31889552,15.709915 2.29220895,14.6840348 1,14.5224672 L1,9.47802387 C2.29220895,9.31645632 3.31938723,8.29057604 3.48066749,7 L12,7 L12,17 L3.48066749,17 Z" id="Path" fill-opacity="0.2"></path>
                        <path d="M23.8869956,3.21712359 C23.8139956,3.15177477 23.7164956,3.11886187 23.6164956,3.12315485 C23.4954956,3.12887884 11.4429979,3.72226518 4.91199909,0.0484214626 C4.79999911,-0.0154963584 4.66099913,-0.0159733571 4.54699915,0.0460364693 C4.43349917,0.107569297 4.36399919,0.222048976 4.36399919,0.347022627 L4.36399919,2.95095834 C3.7734993,2.79784176 3.2039994,2.63232323 2.6679995,2.44915574 C2.55799952,2.41147285 2.43299955,2.4272138 2.33599957,2.49208562 C2.23899958,2.55695744 2.18199959,2.66285114 2.18199959,2.77589983 L2.18199959,5.89833308 L0.363499932,5.89833308 C0.16249997,5.89833308 0,6.05335765 0,6.24558811 L0,8.67398831 L0,14.2248218 L0,16.652745 C0,16.8444984 0.16249997,17 0.363499932,17 L2.90899946,17 L21.0904961,17 L23.6359956,17 C23.8369956,17 23.9999955,16.8449754 23.9999955,16.652745 L23.9999955,14.2248218 L23.9999955,8.67398831 L23.9999955,6.24558811 C23.9999955,6.2155372 23.9894955,6.18977927 23.9824955,6.16211334 C23.9884955,6.16259034 23.9939955,6.16306734 23.9999955,6.16402134 L23.9999955,5.2500919 L23.9999955,4.857522 L23.9999955,3.47040988 C24.0004955,3.37405615 23.9589955,3.28294941 23.8869956,3.21712359 Z M5.09149905,0.938977969 C11.2764979,4.08383016 21.1734961,3.90877165 23.2729957,3.83197487 L23.2729957,4.52028394 C21.358996,4.5703688 11.9289978,4.72348537 5.09149905,3.12983283 L5.09149905,0.938977969 Z M2.51249953,6.59141214 C2.35849956,7.46145771 1.6384997,8.14833578 0.727499865,8.29429738 L0.727499865,6.59141214 L2.51249953,6.59141214 Z M0.727499865,14.6016507 C1.63899969,14.7490433 2.35899956,15.4354444 2.51249953,16.3045359 L0.727499865,16.3045359 L0.727499865,14.6016507 Z M3.2504994,16.3050129 C3.08599943,15.0519375 2.04199962,14.0554872 0.727999865,13.8985547 L0.727999865,8.9988244 C2.04199962,8.84189184 3.08649943,7.84544163 3.2504994,6.59188914 L20.7504961,6.59188914 C20.9149961,7.84544163 21.9594959,8.84189184 23.2734957,8.9988244 L23.2734957,13.8985547 C21.9594959,14.0554872 20.9149961,15.0519375 20.7504961,16.3050129 L3.2504994,16.3050129 Z M23.2729957,8.29477437 C22.3614958,8.14833578 21.641496,7.46193471 21.487496,6.59188914 L23.2729957,6.59188914 L23.2729957,8.29477437 Z M21.487496,16.3050129 C21.641496,15.4359214 22.3614958,14.7490433 23.2729957,14.6021277 L23.2729957,16.3050129 L21.487496,16.3050129 Z M23.2729957,5.89785608 L21.0909961,5.89785608 L2.90949946,5.89785608 L2.90949946,3.26100747 C9.83649817,5.44089136 21.0764961,5.27251084 23.2729957,5.214794 L23.2729957,5.51673415 L23.2729957,5.89785608 Z" id="Shape" fill-rule="nonzero"></path>
                        <path d="M13.3349078,10 L11.6650922,10 C11.2984915,10 11,10.2985825 11,10.6652949 L11,12.3351623 C11,12.7018747 11.2984915,13 11.6650922,13 L13.3349078,13 C13.7010513,13 14,12.7018747 14,12.3351623 L14,10.6652949 C14,10.2985825 13.7010513,10 13.3349078,10 Z M11.6650922,12.3356196 L11.6650922,10.6657522 L13.3349078,10.6657522 L13.3349078,12.3356196 L11.6650922,12.3356196 Z" id="Shape" fill-rule="nonzero"></path>
                    </g>
                </g>
            </g>
        </g>
    </g>
</svg>