<?xml version="1.0" encoding="UTF-8"?>
<svg width="24px" height="24px" viewBox="0 0 24 24" version="1.1" xmlns="http://www.w3.org/2000/svg" xmlns:xlink="http://www.w3.org/1999/xlink">
    <!-- Generator: sketchtool 51.2 (57519) - http://www.bohemiancoding.com/sketch -->
    <title>210FAF75-A2D6-4337-82B4-814D9742E310</title>
    <desc>Created with sketchtool.</desc>
    <defs></defs>
    <g id="Profile" stroke="none" stroke-width="1" fill="none" fill-rule="evenodd">
        <g id="Profile---Prioritas---TDS" transform="translate(-18.000000, -660.000000)">
            <g id="Group-3" transform="translate(0.000000, 595.000000)">
                <g id="ic-titip-dropship" transform="translate(15.000000, 62.000000)">
                    <rect id="Rectangle" x="0" y="0" width="30" height="30"></rect>
                    <g id="Group" transform="translate(3.000000, 3.000000)" fill="#F5821F">
                        <g fill-opacity="0.2" id="Path">
                            <polygon points="3.05730612 22.0217143 0.774857143 22.0217143 0.774857143 16.3268571 3.05730612 16.3268571"></polygon>
                            <path d="M7.46595918,8.39510204 L7.46595918,8.87804082 C7.46595918,9.07444898 7.62514286,9.23412245 7.82253061,9.23412245 L12.4643555,9.23412245 L12.4399414,10.6760816 L5.1364898,10.6760816 L7.46595918,8.39510204 Z"></path>
                            <polygon points="4.6197551 13.5379592 4.6197551 11.3882449 12.4682449 11.3882449 12.4682449 13.5379592"></polygon>
                            <path d="M12.4363816,14.2506122 L12.4363816,17.2094707 C11.8582426,17.2094707 11.2192311,17.0163274 10.5193469,16.6300408 C9.81045553,16.2387828 9.07738776,15.7846531 5.65567347,15.652898 L5.65567347,14.2506122 L12.4363816,14.2506122 Z"></path>
                            <polygon points="9.42710204 1.06089796 12.468 1.06089796 12.468 2.77420408 7.93371429 2.77420408"></polygon>
                            <polygon points="7.50759184 3.48636735 12.4682449 3.48636735 12.4682449 4.98514286 7.50759184 4.98514286"></polygon>
                            <polygon points="12.468 5.69681633 12.468 8.52195918 8.17812245 8.52195918 8.17812245 5.69681633"></polygon>
                        </g>
                        <path d="M23.1286531,17.7531429 C22.8641633,17.5307755 22.5502041,17.5136327 22.1353469,17.6194286 C22.1549388,17.541551 22.1691429,17.4612245 22.1696327,17.3779592 C22.1715918,17.1413878 22.0907755,16.795102 21.6915918,16.4889796 C21.3173878,16.2014694 20.7835102,16.3332245 19.9929796,16.6506122 L19.9929796,14.2515918 L20.6723265,14.2515918 C20.8692245,14.2515918 21.028898,14.0924082 21.028898,13.8950204 L21.028898,11.0326531 C21.028898,11.0248163 21.0249796,11.018449 21.0244898,11.0101224 C21.0225306,10.9782857 21.0161633,10.9474286 21.0053878,10.9170612 C21.0014694,10.9053061 20.9980408,10.893551 20.9931429,10.8822857 C20.9774694,10.8494694 20.9573878,10.819102 20.9319184,10.7911837 C20.9289796,10.7872653 20.9265306,10.7828571 20.923102,10.7804082 C20.923102,10.7794286 20.9226122,10.7789388 20.9221224,10.778449 L17.6600816,7.5844898 C17.6086531,7.53355102 17.5410612,7.50710204 17.4705306,7.49436735 L17.4705306,5.69730612 L17.7854694,5.69730612 C17.9823673,5.69730612 18.141551,5.53812245 18.141551,5.34122449 L18.141551,3.12979592 C18.141551,3.12342857 18.1386122,3.11853061 18.1381224,3.11167347 C18.1366531,3.07591837 18.1293061,3.04065306 18.1170612,3.00636735 C18.1146122,3.0004898 18.1141224,2.99363265 18.1111837,2.98726531 C18.0969796,2.95493878 18.0783673,2.92310204 18.0538776,2.89567347 L15.9404082,0.469714286 C15.8728163,0.392326531 15.7748571,0.347755102 15.672,0.347755102 L9.26497959,0.347755102 C9.16212245,0.347755102 9.06416327,0.392326531 8.99657143,0.469714286 L6.88310204,2.89567347 C6.85861224,2.92310204 6.84,2.95444898 6.82628571,2.98726531 C6.82334694,2.99363265 6.82285714,3.0004898 6.82040816,3.00636735 C6.80767347,3.04065306 6.80081633,3.07591837 6.79934694,3.11167347 C6.79934694,3.11853061 6.79542857,3.12342857 6.79542857,3.12979592 L6.79542857,5.34122449 C6.79542857,5.53763265 6.95510204,5.69730612 7.1515102,5.69730612 L7.46644898,5.69730612 L7.46644898,7.49436735 C7.39591837,7.50661224 7.32832653,7.53355102 7.27689796,7.5844898 L4.01534694,10.778449 C4.01485714,10.7789388 4.01485714,10.7794286 4.01387755,10.7804082 C4.01044898,10.7833469 4.00897959,10.7877551 4.00555102,10.7911837 C3.97959184,10.819102 3.9595102,10.8489796 3.94432653,10.8822857 C3.93893878,10.893551 3.9355102,10.9053061 3.93159184,10.9170612 C3.92130612,10.9479184 3.91493878,10.9782857 3.91297959,11.0101224 C3.9124898,11.018449 3.90808163,11.0248163 3.90808163,11.0326531 L3.90808163,13.8950204 C3.90808163,14.0919184 4.06726531,14.2515918 4.26465306,14.2515918 L4.944,14.2515918 L4.944,15.6318367 C4.47771429,15.621551 3.97126531,15.6151837 3.41436735,15.6151837 L0.419265306,15.6151837 C0.222367347,15.6151837 0.0631836735,15.7743673 0.0631836735,15.9717551 L0.0631836735,22.3792653 C0.0631836735,22.5756735 0.222367347,22.7353469 0.419265306,22.7353469 L3.35755102,22.7353469 C3.80718367,22.8817959 6.84538776,23.8197551 10.7755102,23.8192653 C14.4396735,23.8187755 18.8767347,23.0027755 22.7044898,19.9689796 C22.7897143,19.9102041 23.5395918,19.3724082 23.5724082,18.667102 C23.5822041,18.4280816 23.5146122,18.0764082 23.1286531,17.7531429 Z M3.05730612,22.0217143 L0.774857143,22.0217143 L0.774857143,16.3268571 L3.05730612,16.3268571 L3.05730612,22.0217143 Z M21.2586122,17.0542041 C21.4378776,17.1913469 21.4579592,17.3000816 21.4574694,17.3706122 C21.456,17.5826939 21.2444082,17.8427755 21.0666122,18.0122449 C20.9853061,18.0465306 20.906449,18.0798367 20.8197551,18.1170612 C20.572898,18.2218776 20.2966531,18.338449 19.9929796,18.4618776 L19.9929796,17.4205714 C20.5498776,17.1869388 21.124898,16.9699592 21.2586122,17.0542041 Z M9.42710204,1.06089796 L15.5093878,1.06089796 L17.0022857,2.77420408 L7.93371429,2.77420408 L9.42710204,1.06089796 Z M7.50759184,3.48636735 L17.428898,3.48636735 L17.428898,4.98514286 L7.50759184,4.98514286 L7.50759184,3.48636735 Z M16.7578776,5.69681633 L16.7578776,8.52195918 L8.17812245,8.52195918 L8.17812245,5.69681633 L16.7578776,5.69681633 Z M7.46595918,8.39510204 L7.46595918,8.87804082 C7.46595918,9.07444898 7.62514286,9.23412245 7.82253061,9.23412245 L17.114449,9.23412245 C17.3108571,9.23412245 17.4705306,9.07493878 17.4705306,8.87804082 L17.4705306,8.39510204 L19.8,10.6760816 L5.1364898,10.6760816 L7.46595918,8.39510204 Z M4.6197551,13.5379592 L4.6197551,11.3882449 L20.3167347,11.3882449 L20.3167347,13.5379592 L4.6197551,13.5379592 Z M5.65567347,14.2506122 L19.2808163,14.2506122 L19.2808163,18.739102 C18.5358367,19.0187755 17.6527347,19.3131429 16.5977143,19.5771429 C16.6383673,19.4581224 16.6579592,19.3420408 16.6648163,19.2367347 C16.7044898,18.5926531 16.5482449,18.0886531 16.2,17.7394286 C15.7028571,17.2408163 15.0053878,17.2770612 14.9921633,17.2770612 C11.7149388,17.3314286 11.1609796,17.0071837 10.5193469,16.6300408 C9.83706122,16.2298776 9.07738776,15.7846531 5.65567347,15.652898 L5.65567347,14.2506122 Z M22.2793469,19.3954286 C14.9941224,25.1691429 5.39902041,22.6119184 3.76946939,22.1172245 L3.76946939,16.3278367 C8.63363265,16.3498776 9.44277551,16.8249796 10.1583673,17.2447347 C10.8930612,17.6757551 11.5302857,18.048 15.0186122,17.9892245 C15.0220408,17.9897143 15.4266122,17.973551 15.6950204,18.2434286 C15.892898,18.4417959 15.9795918,18.7616327 15.9531429,19.1931429 C15.9462857,19.298449 15.9266939,19.6158367 15.3007347,19.8680816 C15.2948571,19.8700408 15.290449,19.8749388 15.2850612,19.8764082 C15.2821224,19.8778776 15.2791837,19.876898 15.2762449,19.8783673 C14.6101224,20.1374694 13.1412245,20.3598367 9.92816327,19.944 C9.73518367,19.9209796 9.55444898,20.0561633 9.52897959,20.2520816 C9.5044898,20.4465306 9.64212245,20.6257959 9.83657143,20.6507755 C11.059102,20.8084898 12.1209796,20.8878367 13.0177959,20.8878367 C14.083102,20.8878367 14.9137959,20.7756735 15.5044898,20.5523265 C18.1420408,20.0282449 19.92,19.2729796 21.0974694,18.7719184 C21.8272653,18.4623673 22.5154286,18.1694694 22.6697143,18.2982857 C22.845551,18.4462041 22.8622041,18.5588571 22.8587755,18.6313469 C22.8460408,18.9330612 22.4390204,19.2832653 22.2793469,19.3954286 Z" id="Shape" fill-rule="nonzero"></path>
                        <circle id="Oval" fill-rule="nonzero" cx="1.91608163" cy="17.4979592" r="1"></circle>
                    </g>
                </g>
            </g>
        </g>
    </g>
</svg>