<?xml version="1.0" encoding="UTF-8"?>
<svg width="126px" height="121px" viewBox="0 0 126 121" version="1.1" xmlns="http://www.w3.org/2000/svg" xmlns:xlink="http://www.w3.org/1999/xlink">
    <!-- Generator: sketchtool 51.2 (57519) - http://www.bohemiancoding.com/sketch -->
    <title>94C7FAAD-8C68-49B1-81C5-AC45073B4F52</title>
    <desc>Created with sketchtool.</desc>
    <defs></defs>
    <g id="Landing-Page" stroke="none" stroke-width="1" fill="none" fill-rule="evenodd">
        <g id="ic-titip-dropship" transform="translate(-7.000000, -9.000000)">
            <rect id="Rectangle" x="0" y="0" width="140" height="140"></rect>
            <g id="Group" transform="translate(7.000000, 8.750000)">
                <polygon id="Path" fill="#E6E6E6" points="48.5642615 115.359516 4.27118644 95.5743341 4.27118644 42.7118644 31.9589346 55.0782567 48.5616465 62.491816 48.5616465 115.359516"></polygon>
                <path d="M125.933753,33.2054237 C125.769007,23.8593705 121.613753,14.9840194 114.529685,8.85966102 C107.348862,2.65423729 98.1597094,-0.0810653753 88.6384504,1.13491525 C76.6172397,2.68300242 66.4709927,11.0405811 62.2242131,22.0968523 L51.191477,17.1701695 C50.6998547,16.9478935 50.1323971,16.9478935 49.6407748,17.1701695 L1.54285714,38.655109 C1.50624697,38.673414 1.47748184,38.7021792 1.44087167,38.7204843 C1.38857143,38.7492494 1.33365617,38.7649395 1.28397094,38.7963196 C1.24213075,38.8224697 1.21075061,38.8564649 1.17152542,38.887845 C1.11661017,38.9323002 1.06430993,38.9741404 1.01200969,39.0238257 C0.936174334,39.094431 0.868184019,39.1754964 0.805423729,39.2591768 C0.766198547,39.311477 0.726973366,39.3611622 0.692978208,39.4186925 C0.635447942,39.5154479 0.588377724,39.6200484 0.549152542,39.7246489 C0.528232446,39.7795642 0.502082324,39.8266344 0.489007264,39.8815496 C0.441937046,40.0462954 0.413171913,40.2162712 0.413171913,40.391477 L0.413171913,97.419661 C0.413171913,98.1701695 0.855108959,98.8500726 1.54024213,99.1560291 L49.6381598,120.643584 C49.66954,120.659274 49.7035351,120.651429 49.7349153,120.664504 C49.9519613,120.748184 50.1742373,120.805714 50.4043584,120.808329 C50.4069734,120.808329 50.4095884,120.810944 50.4122034,120.810944 L50.4148184,120.810944 C50.4174334,120.810944 50.4200484,120.808329 50.4226634,120.808329 C50.6527845,120.805714 50.8776755,120.750799 51.0921065,120.664504 C51.1234867,120.651429 51.1574818,120.659274 51.188862,120.643584 L99.2920097,99.1560291 C99.9771429,98.8500726 100.41908,98.1701695 100.41908,97.419661 L100.41908,65.8407748 C115.269734,62.3680387 126.203099,48.7804358 125.933753,33.2054237 Z M50.4148184,20.9907022 L61.0866828,25.7552542 C60.7415012,27.1176755 60.4564649,28.503632 60.2943341,29.9235835 C60.1845036,30.8754479 60.1217433,31.8299274 60.0955932,32.7844068 L25.0256659,48.4483293 L6.98469734,40.391477 L50.4148184,20.9907022 Z M48.5137046,115.973172 L4.22062954,96.1879903 L4.22062954,43.3255206 L31.9083777,55.6919128 L48.5110896,63.1054722 L48.5110896,115.973172 L48.5137046,115.973172 Z M50.4148184,59.7896368 L29.6882324,50.5324939 L60.2524939,36.8769007 C60.7859564,42.4677966 62.7027603,47.8521065 65.9296852,52.5042131 C65.9898305,52.5957385 66.0342857,52.695109 66.089201,52.7892494 L50.4148184,59.7896368 Z M96.6194673,96.1879903 L52.3211622,115.973172 L52.3211622,63.1028571 L66.4239225,56.808523 L65.4223729,67.0306053 C65.3596126,67.6686683 65.6211138,68.2936562 66.1205811,68.6989831 C66.4631477,68.9735593 66.8867797,69.12 67.3156416,69.12 C67.5091525,69.12 67.7052785,69.0886199 67.8961743,69.0284746 L80.1788862,65.0954964 C81.0496852,64.8156901 81.9492494,64.80523 82.7102179,65.0510412 C87.1374334,66.523293 91.7267797,67.0227603 96.3501211,66.5494431 C96.4416465,66.5389831 96.5279419,66.518063 96.6194673,66.5076029 L96.6194673,96.1879903 Z M95.9657143,62.7655206 C91.8758354,63.1865375 87.8225666,62.7393705 83.9078935,61.4423245 C82.3650363,60.9323971 80.6783535,60.9428571 79.0204358,61.4710896 L69.4887167,64.5228087 L70.3621308,55.6160775 C70.5477966,53.6992736 70.0875545,51.8216949 69.0572397,50.336368 C65.0301211,44.5310412 63.2597579,37.4338983 64.0730266,30.3550605 C65.5740436,17.28523 76.1099274,6.58198547 89.1248426,4.90837772 C97.5425666,3.81530266 105.690944,6.24726392 112.042809,11.7361743 C118.310993,17.1518644 121.9877,25.0021308 122.131525,33.270799 C122.390412,48.2809685 110.897433,61.2383535 95.9657143,62.7655206 Z" id="Shape" fill="#8C8C8C" fill-rule="nonzero"></path>
                <path d="M92.9693853,48.8201176 C90.5526661,47.2475949 79.2104023,39.4429162 79.2104023,31.653608 C79.2104023,27.7944243 82.3483538,24.6564729 86.2063551,24.6564729 C88.6644564,24.6564729 90.9712172,25.9783379 92.2280531,28.1065642 C92.5390106,28.6291619 93.3985776,28.6291619 93.7083527,28.1065642 C94.9651886,25.9783379 97.2731317,24.6564729 99.7288684,24.6564729 C103.58687,24.6564729 106.724821,27.7944243 106.724821,31.653608 C106.727186,39.4358221 95.3849221,47.2452302 92.9693853,48.8201176 Z" id="Path" fill="#16B8B2"></path>
                <path d="M99.7312331,22.937339 C97.1016913,22.937339 94.6128489,24.1492456 92.9693853,26.1686959 C91.327104,24.1492456 88.8358969,22.937339 86.2075374,22.937339 C81.4012931,22.937339 77.4912684,26.848546 77.4912684,31.653608 C77.4912684,41.2826495 91.9076368,50.1999177 92.5212754,50.5735396 C92.6596101,50.6586687 92.81568,50.7000508 92.9693853,50.7000508 C93.1242728,50.7000508 93.2803428,50.6586687 93.4174951,50.5735396 C94.0323161,50.1999177 108.44632,41.2826495 108.44632,31.653608 C108.447502,26.848546 104.536295,22.937339 99.7312331,22.937339 Z M92.9693853,48.8201176 C90.5526661,47.2475949 79.2104023,39.4429162 79.2104023,31.653608 C79.2104023,27.7944243 82.3483538,24.6564729 86.2063551,24.6564729 C88.6644564,24.6564729 90.9712172,25.9783379 92.2280531,28.1065642 C92.5390106,28.6291619 93.3985776,28.6291619 93.7083527,28.1065642 C94.9651886,25.9783379 97.2731317,24.6564729 99.7288684,24.6564729 C103.58687,24.6564729 106.724821,27.7944243 106.724821,31.653608 C106.727186,39.4358221 95.3849221,47.2452302 92.9693853,48.8201176 Z" id="Shape" fill-rule="nonzero"></path>
            </g>
        </g>
    </g>
</svg>