<?xml version="1.0" encoding="UTF-8"?>
<svg width="25px" height="24px" viewBox="0 0 25 24" version="1.1" xmlns="http://www.w3.org/2000/svg" xmlns:xlink="http://www.w3.org/1999/xlink">
    <!-- Generator: sketchtool 51.2 (57519) - http://www.bohemiancoding.com/sketch -->
    <title>EA880B33-2062-4E60-8B91-6AB16F418388</title>
    <desc>Created with sketchtool.</desc>
    <defs></defs>
    <g id="Profil" stroke="none" stroke-width="1" fill="none" fill-rule="evenodd">
        <g id="Profile---MnR---A" transform="translate(-197.000000, -252.000000)">
            <g id="Group-2" transform="translate(0.000000, 144.000000)">
                <g id="ic-upgrade" transform="translate(194.000000, 105.000000)">
                    <rect id="Rectangle" x="0" y="0" width="30" height="30"></rect>
                    <g id="Group" transform="translate(3.000000, 3.000000)" fill="#F5821F">
                        <path d="M12.4045,21.219 L5.218,21.219 L3.6425,13.7585 L8.083,16.0565 C8.17,16.102 8.2725,16.1095 8.366,16.0785 C8.4595,16.047 8.536,15.979 8.5785,15.8895 L12.4045,7.8365 L12.4045,21.219 Z" id="Path" fill-opacity="0.2"></path>
                        <path d="M6.1955,6.387 L5.9675,7.7135 C5.9445,7.85 6.0005,7.988 6.1125,8.069 C6.176,8.1155 6.251,8.139 6.3265,8.139 C6.3845,8.139 6.4425,8.125 6.4955,8.097 L7.6865,7.4705 L8.878,8.097 C9.001,8.1615 9.149,8.151 9.261,8.069 C9.373,7.988 9.429,7.85 9.406,7.7135 L9.1785,6.387 L10.142,5.4475 C10.2415,5.3505 10.277,5.2065 10.234,5.0745 C10.1915,4.943 10.0775,4.847 9.9405,4.8275 L8.6085,4.634 L8.0125,3.427 C7.89,3.178 7.483,3.179 7.3605,3.427 L6.7655,4.634 L5.4335,4.8275 C5.2965,4.847 5.1825,4.943 5.14,5.0745 C5.0975,5.2065 5.133,5.3505 5.232,5.447 L6.1955,6.387 Z M7.059,5.326 C7.1775,5.309 7.28,5.2345 7.333,5.1275 L7.687,4.4095 L8.0415,5.1275 C8.0945,5.235 8.197,5.309 8.3155,5.326 L9.107,5.441 L8.534,5.999 C8.448,6.0825 8.409,6.2035 8.4295,6.3215 L8.565,7.1105 L7.8565,6.7375 C7.8035,6.7095 7.7455,6.696 7.6875,6.696 C7.6295,6.696 7.5715,6.7095 7.5185,6.7375 L6.81,7.1105 L6.9455,6.3215 C6.9655,6.204 6.9265,6.0825 6.841,5.9995 L6.268,5.441 L7.059,5.326 Z" id="Shape" fill-rule="nonzero"></path>
                        <path d="M4.161,11.2375 C4.214,11.2655 4.2725,11.2795 4.33,11.2795 C4.4055,11.2795 4.4805,11.256 4.544,11.2095 C4.656,11.1285 4.712,10.9905 4.689,10.8545 L4.4615,9.5275 L5.4255,8.588 C5.5245,8.4915 5.5605,8.347 5.5175,8.2155 C5.4745,8.0835 5.361,7.988 5.224,7.968 L3.892,7.7745 L3.296,6.5675 C3.1735,6.3195 2.766,6.3195 2.644,6.5675 L2.0485,7.7745 L0.7165,7.968 C0.5795,7.988 0.466,8.0835 0.423,8.2155 C0.38,8.347 0.416,8.4915 0.515,8.588 L1.479,9.5275 L1.2515,10.8545 C1.2285,10.9905 1.284,11.1285 1.3965,11.2095 C1.509,11.2915 1.657,11.302 1.7795,11.2375 L2.9705,10.6115 L4.161,11.2375 Z M2.092,10.251 L2.2275,9.462 C2.2475,9.3445 2.2085,9.2235 2.123,9.14 L1.55,8.5815 L2.3415,8.467 C2.46,8.4495 2.5625,8.375 2.6155,8.268 L2.9695,7.55 L3.324,8.268 C3.377,8.3755 3.4795,8.4495 3.5975,8.467 L4.3895,8.5815 L3.8165,9.14 C3.731,9.2235 3.6915,9.344 3.712,9.462 L3.8475,10.251 L3.139,9.878 C3.0865,9.85 3.028,9.8365 2.97,9.8365 C2.912,9.8365 2.854,9.85 2.801,9.878 L2.092,10.251 Z" id="Shape" fill-rule="nonzero"></path>
                        <path d="M10.913,3.2465 L10.685,4.5725 C10.662,4.709 10.718,4.8475 10.83,4.9285 C10.893,4.9745 10.968,4.998 11.0435,4.998 C11.1015,4.998 11.1595,4.9845 11.2125,4.9565 L12.4035,4.33 L13.5945,4.9565 C13.7175,5.021 13.8655,5.01 13.978,4.9285 C14.0895,4.8475 14.1455,4.7095 14.1225,4.5725 L13.8955,3.2465 L14.859,2.3065 C14.9585,2.21 14.994,2.066 14.9515,1.934 C14.9085,1.8025 14.795,1.706 14.658,1.6865 L13.326,1.493 L12.73,0.286 C12.608,0.0375 12.2005,0.0385 12.078,0.2865 L11.4825,1.493 L10.1505,1.6865 C10.0135,1.706 9.9,1.8025 9.857,1.934 C9.814,2.066 9.85,2.21 9.949,2.3065 L10.913,3.2465 Z M11.7765,2.185 C11.895,2.1685 11.997,2.0935 12.0505,1.9865 L12.4045,1.269 L12.759,1.987 C12.8115,2.094 12.914,2.1685 13.0325,2.185 L13.8245,2.3 L13.2515,2.8585 C13.166,2.942 13.1265,3.0625 13.147,3.181 L13.282,3.9695 L12.5735,3.597 C12.521,3.569 12.4625,3.5555 12.4045,3.5555 C12.3465,3.5555 12.2885,3.569 12.2355,3.597 L11.527,3.9695 L11.6625,3.181 C11.6825,3.063 11.6435,2.942 11.558,2.8585 L10.985,2.3 L11.7765,2.185 Z" id="Shape" fill-rule="nonzero"></path>
                        <path d="M14.5745,5.0745 C14.532,5.2065 14.567,5.3505 14.6665,5.4475 L15.6305,6.387 L15.4025,7.7135 C15.379,7.85 15.435,7.988 15.5475,8.069 C15.66,8.151 15.808,8.1615 15.9305,8.097 L17.1215,7.4705 L18.3135,8.097 C18.366,8.125 18.4245,8.139 18.4825,8.139 C18.558,8.139 18.633,8.1155 18.6965,8.069 C18.8085,7.988 18.8645,7.85 18.841,7.7135 L18.613,6.387 L19.5775,5.4475 C19.6765,5.3505 19.712,5.2065 19.6695,5.0745 C19.627,4.943 19.513,4.847 19.376,4.8275 L18.044,4.634 L17.448,3.427 C17.3255,3.1785 16.918,3.179 16.796,3.427 L16.2005,4.634 L14.8685,4.8275 C14.731,4.847 14.6175,4.943 14.5745,5.0745 Z M16.494,5.326 C16.6125,5.309 16.7145,5.2345 16.768,5.1275 L17.122,4.4095 L17.4765,5.1275 C17.5295,5.235 17.632,5.309 17.7505,5.326 L18.542,5.441 L17.969,5.999 C17.8835,6.0825 17.8445,6.2035 17.865,6.3215 L18,7.1105 L17.2915,6.7375 C17.239,6.7095 17.1805,6.696 17.1225,6.696 C17.064,6.696 17.0065,6.7095 16.9535,6.7375 L16.245,7.1105 L16.3805,6.3215 C16.4005,6.204 16.3615,6.0825 16.276,5.999 L15.703,5.441 L16.494,5.326 Z" id="Shape" fill-rule="nonzero"></path>
                        <path d="M24.3865,8.2155 C24.3435,8.0835 24.23,7.988 24.093,7.968 L22.761,7.7745 L22.165,6.5675 C22.0425,6.3195 21.635,6.3195 21.513,6.5675 L20.9175,7.7745 L19.5855,7.968 C19.4485,7.988 19.335,8.0835 19.292,8.2155 C19.2495,8.347 19.285,8.4915 19.384,8.588 L20.348,9.5275 L20.121,10.8545 C20.0975,10.9905 20.1535,11.1285 20.2655,11.2095 C20.329,11.256 20.404,11.2795 20.4795,11.2795 C20.5375,11.2795 20.5955,11.2655 20.6485,11.2375 L21.8395,10.6115 L23.0305,11.2375 C23.1535,11.302 23.3015,11.2915 23.4135,11.2095 C23.5255,11.1285 23.5815,10.9905 23.5585,10.8545 L23.331,9.5275 L24.295,8.5885 C24.394,8.4915 24.429,8.3475 24.3865,8.2155 Z M22.686,9.1405 C22.6005,9.224 22.561,9.3445 22.582,9.4625 L22.717,10.2515 L22.0085,9.8785 C21.902,9.823 21.7765,9.823 21.67,9.8785 L20.962,10.2515 L21.097,9.4625 C21.1175,9.345 21.0785,9.224 20.993,9.1405 L20.42,8.582 L21.2115,8.4675 C21.33,8.45 21.4325,8.3755 21.4855,8.2685 L21.84,7.5505 L22.1945,8.2685 C22.247,8.376 22.3495,8.45 22.468,8.4675 L23.2595,8.582 L22.686,9.1405 Z" id="Shape" fill-rule="nonzero"></path>
                        <path d="M21.5135,12.7595 L19.6765,13.7105 L17.4135,9.736 C17.3525,9.6275 17.2405,9.559 17.1165,9.5525 C16.9925,9.548 16.8745,9.603 16.802,9.704 L15.177,11.977 L12.7335,6.833 C12.673,6.7065 12.5455,6.626 12.405,6.626 C12.2645,6.626 12.1365,6.7065 12.0765,6.833 L9.6385,11.9645 L8.0105,9.704 C7.938,9.6035 7.821,9.5485 7.6965,9.553 C7.5725,9.5595 7.461,9.6285 7.3995,9.7365 L5.136,13.712 L3.296,12.76 C3.1715,12.6965 3.0205,12.7085 2.909,12.7935 C2.7975,12.8785 2.7445,13.0205 2.7735,13.158 L4.4925,21.298 C4.008,21.474 3.659,21.939 3.659,22.5065 C3.659,23.2005 4.223,23.7645 4.917,23.7645 L19.896,23.7645 C20.5895,23.7645 21.1535,23.2005 21.1535,22.477 C21.1535,21.933 20.8045,21.4725 20.32,21.2985 L22.0385,13.1585 C22.0675,13.021 22.015,12.8785 21.903,12.794 C21.789,12.7085 21.6385,12.696 21.5135,12.7595 Z M15.541,12.717 L17.0625,10.5895 L19.03,14.045 L16.7265,15.2375 L15.533,12.7255 C15.5345,12.722 15.539,12.7205 15.541,12.717 Z M7.7505,10.5875 L9.275,12.705 C9.277,12.708 9.2805,12.709 9.2825,12.712 L8.0825,15.2375 L5.781,14.0465 L7.7505,10.5875 Z M19.894,23.0375 L4.915,23.0375 C4.6225,23.0375 4.3845,22.799 4.3845,22.477 C4.3845,22.1845 4.6225,21.9465 4.915,21.9465 L4.923,21.9465 L19.886,21.9465 L19.894,21.9465 C20.1865,21.9465 20.4245,22.1845 20.4245,22.5065 C20.4245,22.799 20.1865,23.0375 19.894,23.0375 Z M19.5915,21.219 L5.218,21.219 L3.6425,13.7585 L8.083,16.0565 C8.17,16.102 8.2725,16.1095 8.366,16.0785 C8.4595,16.047 8.536,15.979 8.5785,15.8895 L12.4045,7.8365 L16.2305,15.8895 C16.273,15.979 16.3495,16.0465 16.443,16.0785 C16.537,16.11 16.639,16.102 16.7265,16.0565 L21.1665,13.7585 L19.5915,21.219 Z" id="Shape" fill-rule="nonzero"></path>
                    </g>
                </g>
            </g>
        </g>
    </g>
</svg>