<?xml version="1.0" encoding="UTF-8"?>
<svg width="22px" height="18px" viewBox="0 0 22 18" version="1.1" xmlns="http://www.w3.org/2000/svg" xmlns:xlink="http://www.w3.org/1999/xlink">
    <!-- Generator: sketchtool 51.1 (57501) - http://www.bohemiancoding.com/sketch -->
    <title>281BDD4E-E4C3-4C4F-9062-2D149148E7F0</title>
    <desc>Created with sketchtool.</desc>
    <defs></defs>
    <g id="Landing-Page" stroke="none" stroke-width="1" fill="none" fill-rule="evenodd">
        <g transform="translate(-17.000000, -2616.000000)" id="Footer">
            <g transform="translate(0.000000, 2435.000000)">
                <g id="ic-users" transform="translate(15.000000, 178.000000)">
                    <rect id="Rectangle" x="0" y="0" width="24" height="24"></rect>
                    <path d="M18.2,20.1 C18.2,20.5970563 17.7970563,21 17.3,21 C16.8029437,21 16.4,20.5970563 16.4,20.1 L16.4,18.3 C16.4,16.8088312 15.1911688,15.6 13.7,15.6 L6.5,15.6 C5.00883118,15.6 3.8,16.8088312 3.8,18.3 L3.8,20.1 C3.8,20.5970563 3.39705627,21 2.9,21 C2.40294373,21 2,20.5970563 2,20.1 L2,18.3 C2,15.8147186 4.01471863,13.8 6.5,13.8 L13.7,13.8 C16.1852814,13.8 18.2,15.8147186 18.2,18.3 L18.2,20.1 Z M10.1,12 C7.61471863,12 5.6,9.98528137 5.6,7.5 C5.6,5.01471863 7.61471863,3 10.1,3 C12.5852814,3 14.6,5.01471863 14.6,7.5 C14.6,9.98528137 12.5852814,12 10.1,12 Z M23.6,20.1 C23.6,20.5970563 23.1970563,21 22.7,21 C22.2029437,21 21.8,20.5970563 21.8,20.1 L21.8000003,18.3006713 C21.7990825,17.0702258 20.9663744,15.9960324 19.7750003,15.6884213 C19.2937275,15.5641574 19.0043148,15.073273 19.1285787,14.5920003 C19.2528426,14.1107275 19.743727,13.8213148 20.2249997,13.9455787 C22.2106234,14.4582639 23.5984701,16.2485861 23.6,18.3 L23.6,20.1 Z M16.1767647,4.888875 C15.6952415,4.76558557 15.4048356,4.275288 15.528125,3.79376473 C15.6514144,3.31224147 16.141712,3.02183557 16.6232353,3.145125 C18.6143894,3.65494101 20.0070589,5.44911504 20.0070589,7.5045 C20.0070589,9.55988496 18.6143894,11.354059 16.6232353,11.863875 C16.141712,11.9871644 15.6514144,11.6967585 15.528125,11.2152353 C15.4048356,10.733712 15.6952415,10.2434144 16.1767647,10.120125 C17.3714572,9.81423539 18.2070589,8.73773098 18.2070589,7.5045 C18.2070589,6.27126902 17.3714572,5.19476461 16.1767647,4.888875 Z M10.1,10.2 C11.5911688,10.2 12.8,8.99116882 12.8,7.5 C12.8,6.00883118 11.5911688,4.8 10.1,4.8 C8.60883118,4.8 7.4,6.00883118 7.4,7.5 C7.4,8.99116882 8.60883118,10.2 10.1,10.2 Z" id="Combined-Shape" fill="#16B8B2" fill-rule="nonzero"></path>
                </g>
            </g>
        </g>
    </g>
</svg>