<?xml version="1.0" encoding="UTF-8"?>
<svg width="18px" height="18px" viewBox="0 0 18 18" version="1.1" xmlns="http://www.w3.org/2000/svg" xmlns:xlink="http://www.w3.org/1999/xlink">
    <!-- Generator: sketchtool 51.1 (57501) - http://www.bohemiancoding.com/sketch -->
    <title>00795B53-2A7D-4509-A3D1-66E71AE17EDB</title>
    <desc>Created with sketchtool.</desc>
    <defs></defs>
    <g id="Landing-Page" stroke="none" stroke-width="1" fill="none" fill-rule="evenodd">
        <g transform="translate(-57.000000, -2704.000000)" id="Footer">
            <g transform="translate(0.000000, 2435.000000)">
                <g id="instagram" transform="translate(54.000000, 266.000000)">
                    <rect id="Rectangle" x="0" y="0" width="24" height="24"></rect>
                    <path d="M7.90909091,3 L16.0909091,3 C18.8021251,3 21,5.19787486 21,7.90909091 L21,16.0909091 C21,18.8021251 18.8021251,21 16.0909091,21 L7.90909091,21 C5.19787486,21 3,18.8021251 3,16.0909091 L3,7.90909091 C3,5.19787486 5.19787486,3 7.90909091,3 Z M7.90909091,4.63636364 C6.10161355,4.63636364 4.63636364,6.10161355 4.63636364,7.90909091 L4.63636364,16.0909091 C4.63636364,17.8983865 6.10161355,19.3636364 7.90909091,19.3636364 L16.0909091,19.3636364 C17.8983865,19.3636364 19.3636364,17.8983865 19.3636364,16.0909091 L19.3636364,7.90909091 C19.3636364,6.10161355 17.8983865,4.63636364 16.0909091,4.63636364 L7.90909091,4.63636364 Z M16.0820592,11.3645317 C16.3409344,13.1102981 15.4510629,14.8252818 13.8746318,15.6187436 C12.2982007,16.4122054 10.3906316,16.1052517 9.14268996,14.85731 C7.89474831,13.6093684 7.58779461,11.7017993 8.38125642,10.1253682 C9.17471822,8.54893709 10.8897019,7.65906557 12.6354683,7.91794079 C14.4180582,8.18227647 15.8177235,9.58194182 16.0820592,11.3645317 Z M14.4633953,11.6045592 C14.3047939,10.5350053 13.4649947,9.69520607 12.3954408,9.53660467 C11.3479809,9.38127953 10.3189907,9.91520244 9.84291366,10.8610611 C9.36683657,11.8069198 9.5510088,12.9514612 10.2997738,13.7002262 C11.0485388,14.4489912 12.1930802,14.6331634 13.1389389,14.1570863 C14.0847976,13.6810093 14.6187205,12.6520191 14.4633953,11.6045592 Z" id="Combined-Shape" fill="#16B8B2" fill-rule="nonzero"></path>
                </g>
            </g>
        </g>
    </g>
</svg>