<?xml version="1.0" encoding="UTF-8"?>
<svg width="20px" height="20px" viewBox="0 0 20 20" version="1.1" xmlns="http://www.w3.org/2000/svg" xmlns:xlink="http://www.w3.org/1999/xlink">
    <!-- Generator: sketchtool 52.2 (67145) - http://www.bohemiancoding.com/sketch -->
    <title>E080F659-98AF-47BE-9A4A-3DB41BD4FD0C</title>
    <desc>Created with sketchtool.</desc>
    <g id="Burger-Menu" stroke="none" stroke-width="1" fill="none" fill-rule="evenodd">
        <g id="Landing-Page---" transform="translate(-17.000000, -2967.000000)">
            <g id="Footer" transform="translate(0.000000, 2875.000000)">
                <g id="message-square" transform="translate(15.000000, 90.000000)">
                    <rect id="Rectangle" x="0" y="0" width="24" height="24"></rect>
                    <path d="M6.29289322,16.2928932 C6.4804296,16.1053568 6.73478351,16 7,16 L19,16 C19.5522847,16 20,15.5522847 20,15 L20,5 C20,4.44771525 19.5522847,4 19,4 L5,4 C4.44771525,4 4,4.44771525 4,5 L4,18.5857864 L6.29289322,16.2928932 Z M7.41421356,18 L3.70710678,21.7071068 C3.07714192,22.3370716 2,21.8909049 2,21 L2,5 C2,3.34314575 3.34314575,2 5,2 L19,2 C20.6568542,2 22,3.34314575 22,5 L22,15 C22,16.6568542 20.6568542,18 19,18 L7.41421356,18 Z" id="Shape" fill="#16B8B2" fill-rule="nonzero"></path>
                </g>
            </g>
        </g>
    </g>
</svg>