<svg xmlns="http://www.w3.org/2000/svg" width="139" height="159" viewBox="0 0 139 159">
    <g fill="none" fill-rule="evenodd">
        <path fill-rule="nonzero" d="M-39-25h200v200H-39z"/>
        <g transform="translate(-17 -9)">
            <path fill="#E6E6E6" d="M120.054 101.655c-35.977 43.69-48.288-8.474-52.412-22.253-2.917-9.761-6.32 1.036-11.872-13.34-1.835-4.754-11.34.472-13.754-1.459 0 0-.016 0-.016.016v42.968c0 15.992 12.954 28.955 28.935 28.955h5.41s.016 0 .016.015v16.431c0 .016.016.016.016 0l14.664-16.446h.015c24.262 0 43.944-19.68 43.944-43.973v-4.033c0-.016-.016-.016-.016-.016-8.202 5.398-14.93 13.135-14.93 13.135z"/>
            <path fill="#B4B4B4" fill-rule="nonzero" d="M75.43 154c-.203 0-.421-.047-.624-.157-.405-.236-.64-.691-.64-1.178V137.52c0-.015-.015-.015-.015-.015h-2.916C53.988 137.506 40 123.415 40 106.04V59.998c0-15.85 12.756-28.684 28.475-28.684L91.601 31C116.427 31 135 51.594 135 76.603v15.614c0 25.009-20.132 45.289-44.958 45.289H90.603L76.381 153.56c-.25.299-.592.44-.95.44zm-4.21-19.04h4.194a1.28 1.28 0 0 1 1.28 1.289v13.085c0 .016.015.032.03.016l12.367-13.965c.234-.267.577-.424.95-.424 23.439 0 42.433-19.133 42.433-42.744V76.603c0-23.61-17.435-43.058-40.873-43.058l-23.563.314c-14.081 0-25.496 11.499-25.496 25.684v46.514c-.016 15.96 12.834 28.904 28.678 28.904z"/>
            <path fill="#E6E6E6" d="M104.383 62.026c-2.59-.39-4.228-1.826-5.133-2.918a6.793 6.793 0 0 0-3.651 6.022 6.791 6.791 0 0 0 6.787 6.786 6.802 6.802 0 0 0 6.397-4.508c-.187-2.574-1.732-4.977-4.4-5.382z"/>
            <path fill="#B4B4B4" fill-rule="nonzero" d="M102.448 72.54c-4.088 0-7.427-3.323-7.427-7.426 0-4.087 3.324-7.425 7.427-7.425a7.424 7.424 0 0 1 7.427 7.425c0 4.103-3.339 7.426-7.427 7.426zm0-13.572a6.166 6.166 0 0 0-6.163 6.162c0 3.4 2.762 6.162 6.163 6.162a6.166 6.166 0 0 0 6.163-6.162c-.015-3.4-2.777-6.162-6.163-6.162z"/>
            <g fill="#B4B4B4">
                <path d="M154.515 35.63h-6.192c-.797 0-1.439-.64-1.439-1.437v-6.189c0-.797-.64-1.438-1.438-1.438-.797 0-1.438.641-1.438 1.438v6.189c0 .797-.642 1.438-1.439 1.438h-6.192c-.797 0-1.438.64-1.438 1.437s.641 1.438 1.438 1.438h6.176c.798 0 1.439.641 1.439 1.438v6.189c0 .797.641 1.438 1.438 1.438.798 0 1.439-.641 1.439-1.438v-6.189c0-.797.64-1.438 1.438-1.438h6.192c.797 0 1.438-.64 1.438-1.438a1.411 1.411 0 0 0-1.422-1.437z"/>
                <path d="M37.498 15.345h-4.3c-.547 0-1-.453-1-1v-4.298c0-.547-.454-1-1-1-.548 0-1.002.453-1.002 1v4.298c0 .547-.453 1-1 1h-4.3c-.547 0-1 .453-1 1 0 .547.453 1 1 1h4.3c.547 0 1 .454 1 1v4.299c0 .546.454 1 1.001 1 .547 0 1-.454 1-1v-4.298c0-.547.454-1 1.001-1h4.3c.547 0 1-.454 1-1 0-.548-.453-1-1-1z" opacity=".8"/>
            </g>
            <path fill="#B4B4B4" d="M131.265 149.905l-2.033 1.953a.647.647 0 0 1-.923-.015l-1.954-2.032a.647.647 0 0 0-.922-.016.646.646 0 0 0-.016.922l1.954 2.032c.25.266.25.672-.015.922l-2.033 1.954a.646.646 0 0 0-.016.922c.25.265.673.265.923.015l2.033-1.953a.647.647 0 0 1 .922.015l1.954 2.032c.25.266.673.266.923.016a.646.646 0 0 0 .016-.922l-1.955-2.032a.646.646 0 0 1 .016-.922l2.032-1.954a.646.646 0 0 0 .016-.922.661.661 0 0 0-.922-.015z" opacity=".8"/>
            <path fill="#E6E6E6" d="M17.063 107.318h15.526v15.519H17.063z"/>
            <g fill="#B4B4B4">
                <path d="M108.525 165.159H45.082c-.66 0-1.242.547-1.305 1.27-.079.847.519 1.553 1.258 1.553h63.49c.692 0 1.258-.635 1.258-1.411 0-.777-.566-1.412-1.258-1.412zM130.585 165.159h-15.613c-.692 0-1.258.635-1.258 1.412 0 .776.566 1.411 1.258 1.411h15.676c.739 0 1.32-.706 1.258-1.553-.079-.74-.66-1.27-1.321-1.27zM40.553 165.159H32.74c-.346 0-.629.635-.629 1.412 0 .776.283 1.411.629 1.411h7.83c.362 0 .66-.706.63-1.553-.017-.74-.315-1.27-.646-1.27z"/>
            </g>
            <path fill="#4D4D4D" d="M80 89s4.122-10.792 12.041-5.576c.295.204.558.455.744.77.496.863.605 2.434-5.13 2.356-.325 0-.65-.048-.96-.11a2.268 2.268 0 0 1-.543-.205c-.82-.455-4.246-1.9-6.152 2.765z" opacity=".07"/>
            <g fill="#B4B4B4">
                <path d="M95.677 83.823c.345-.323.329-.888-.016-1.21-3.022-2.726-6.045-3.887-9.021-3.436-3.336.5-6.469 2.968-9.273 7.323-2.051 3.177-3.148 6.177-3.195 6.29-.156.42.047.887.455 1.033a.794.794 0 0 0 1.018-.468c.047-.113 4.275-11.549 11.23-12.597 2.506-.37 5.106.645 7.768 3.048.298.307.737.29 1.034.017zM99.687 87.161a35.913 35.913 0 0 0-1.426-1.822.76.76 0 0 0-1.112-.065.826.826 0 0 0-.062 1.13 34 34 0 0 1 1.378 1.773.78.78 0 0 0 1.16.113.899.899 0 0 0 .062-1.129z"/>
            </g>
            <path fill="#E6E6E6" d="M109.454 42.214c3.742 2.071 8.624 5.618 12.27 11.22.947 1.461-.723 3.21-2.217 2.328-2.57-1.509-5.765-3.05-8.848-3.596-1.205-.208-2.072-1.332-1.927-2.552.128-1.14-.193-2.793-1.51-5.152-.819-1.445.787-3.05 2.232-2.248z"/>
            <circle cx="102.5" cy="65.5" r="2.5" fill="#B4B4B4"/>
            <g>
                <path fill="#E6E6E6" d="M72.025 62.026c-2.59-.39-4.227-1.826-5.132-2.918a6.793 6.793 0 0 0-3.65 6.022 6.79 6.79 0 0 0 6.785 6.786 6.8 6.8 0 0 0 6.396-4.508c-.187-2.574-1.731-4.977-4.399-5.382z"/>
                <path fill="#B4B4B4" fill-rule="nonzero" d="M70.09 72.54c-4.086 0-7.425-3.323-7.425-7.426 0-4.087 3.323-7.425 7.426-7.425a7.423 7.423 0 0 1 7.425 7.425c0 4.103-3.338 7.426-7.425 7.426zm0-13.572a6.165 6.165 0 0 0-6.161 6.162c0 3.4 2.761 6.162 6.162 6.162 3.4 0 6.162-2.761 6.162-6.162 0-3.4-2.761-6.162-6.162-6.162z"/>
            </g>
            <circle cx="70.5" cy="65.5" r="2.5" fill="#B4B4B4"/>
        </g>
    </g>
</svg>
